G04 #@! TF.FileFunction,Paste,Top*
%FSLAX46Y46*%
G04 Gerber Fmt 4.6, Leading zero omitted, Abs format (unit mm)*
G04 Created by KiCad (PCBNEW 4.0.2-stable) date Thursday, June 23, 2016 'PMt' 10:58:24 PM*
%MOMM*%
G01*
G04 APERTURE LIST*
%ADD10C,0.100000*%
%ADD11R,0.600000X0.400000*%
%ADD12R,1.143000X0.508000*%
%ADD13R,4.089400X3.505200*%
%ADD14R,1.000000X1.600000*%
%ADD15R,0.800000X0.750000*%
%ADD16R,0.500000X0.600000*%
%ADD17R,1.250000X1.000000*%
%ADD18R,1.600000X1.000000*%
%ADD19R,0.910000X1.220000*%
%ADD20R,1.300000X0.700000*%
%ADD21R,0.900000X0.500000*%
%ADD22R,0.500000X0.900000*%
G04 APERTURE END LIST*
D10*
D11*
X80518000Y-50938000D03*
X80518000Y-50038000D03*
D12*
X87376000Y-41656000D03*
X87376000Y-42926000D03*
X87376000Y-44196000D03*
X87376000Y-45466000D03*
X81026000Y-45466000D03*
X81026000Y-44196000D03*
X81026000Y-42926000D03*
X81026000Y-41656000D03*
D13*
X91059000Y-38862000D03*
X100330000Y-38862000D03*
D14*
X75390000Y-41910000D03*
X72390000Y-41910000D03*
D15*
X86106000Y-37084000D03*
X84606000Y-37084000D03*
D16*
X77216000Y-46990000D03*
X77216000Y-48090000D03*
X92710000Y-47244000D03*
X92710000Y-46144000D03*
D17*
X90678000Y-47244000D03*
X90678000Y-45244000D03*
D18*
X96774000Y-48212000D03*
X96774000Y-45212000D03*
D19*
X86106000Y-34798000D03*
X82836000Y-34798000D03*
D11*
X78486000Y-50938000D03*
X78486000Y-50038000D03*
D20*
X83058000Y-51938000D03*
X83058000Y-50038000D03*
D21*
X85598000Y-51538000D03*
X85598000Y-50038000D03*
D20*
X88138000Y-51938000D03*
X88138000Y-50038000D03*
D11*
X90424000Y-50938000D03*
X90424000Y-50038000D03*
X92202000Y-50938000D03*
X92202000Y-50038000D03*
X94234000Y-50938000D03*
X94234000Y-50038000D03*
X94488000Y-45212000D03*
X94488000Y-46112000D03*
D22*
X97536000Y-50292000D03*
X96036000Y-50292000D03*
D11*
X75438000Y-45974000D03*
X75438000Y-46874000D03*
M02*
