G04 #@! TF.FileFunction,Legend,Top*
%FSLAX46Y46*%
G04 Gerber Fmt 4.6, Leading zero omitted, Abs format (unit mm)*
G04 Created by KiCad (PCBNEW 4.0.2-stable) date Thursday, June 23, 2016 'PMt' 10:58:24 PM*
%MOMM*%
G01*
G04 APERTURE LIST*
%ADD10C,0.100000*%
%ADD11C,0.150000*%
G04 APERTURE END LIST*
D10*
D11*
X79993000Y-50238000D02*
X79993000Y-50738000D01*
X81043000Y-50738000D02*
X81043000Y-50238000D01*
X86487000Y-41021000D02*
X86487000Y-46101000D01*
X86487000Y-46101000D02*
X81915000Y-46101000D01*
X81915000Y-46101000D02*
X81915000Y-41021000D01*
X81915000Y-41021000D02*
X86487000Y-41021000D01*
X84963000Y-41021000D02*
X84963000Y-41529000D01*
X84963000Y-41529000D02*
X83693000Y-41529000D01*
X83693000Y-41529000D02*
X83693000Y-41021000D01*
X90728800Y-43942000D02*
X90728800Y-33782000D01*
X100888800Y-43942000D02*
X90728800Y-43942000D01*
X100888800Y-33782000D02*
X100888800Y-43942000D01*
X90728800Y-33782000D02*
X100888800Y-33782000D01*
X72890000Y-42935000D02*
X74890000Y-42935000D01*
X74890000Y-40885000D02*
X72890000Y-40885000D01*
X85706000Y-37684000D02*
X85006000Y-37684000D01*
X85006000Y-36484000D02*
X85706000Y-36484000D01*
X77691000Y-47790000D02*
X77691000Y-47290000D01*
X76741000Y-47290000D02*
X76741000Y-47790000D01*
X92235000Y-46444000D02*
X92235000Y-46944000D01*
X93185000Y-46944000D02*
X93185000Y-46444000D01*
X89828000Y-45744000D02*
X89828000Y-46744000D01*
X91528000Y-46744000D02*
X91528000Y-45744000D01*
X95749000Y-45712000D02*
X95749000Y-47712000D01*
X97799000Y-47712000D02*
X97799000Y-45712000D01*
X84153500Y-34798000D02*
X83772500Y-34798000D01*
X85169500Y-34798000D02*
X84788500Y-34798000D01*
X84788500Y-34798000D02*
X84153500Y-35179000D01*
X84153500Y-35179000D02*
X84153500Y-34417000D01*
X84153500Y-34417000D02*
X84788500Y-34798000D01*
X84788500Y-35306000D02*
X84788500Y-34290000D01*
X86471000Y-33898000D02*
X82931000Y-33898000D01*
X86471000Y-35698000D02*
X82931000Y-35698000D01*
X90170000Y-29845000D02*
G75*
G03X90170000Y-29845000I-2286000J0D01*
G01*
X90170000Y-62865000D02*
G75*
G03X90170000Y-62865000I-2286000J0D01*
G01*
X77961000Y-50238000D02*
X77961000Y-50738000D01*
X79011000Y-50738000D02*
X79011000Y-50238000D01*
X83933000Y-50388000D02*
X83933000Y-51588000D01*
X82183000Y-51588000D02*
X82183000Y-50388000D01*
X86273000Y-50288000D02*
X86273000Y-51288000D01*
X84923000Y-51288000D02*
X84923000Y-50288000D01*
X89013000Y-50388000D02*
X89013000Y-51588000D01*
X87263000Y-51588000D02*
X87263000Y-50388000D01*
X89899000Y-50238000D02*
X89899000Y-50738000D01*
X90949000Y-50738000D02*
X90949000Y-50238000D01*
X91677000Y-50238000D02*
X91677000Y-50738000D01*
X92727000Y-50738000D02*
X92727000Y-50238000D01*
X93709000Y-50238000D02*
X93709000Y-50738000D01*
X94759000Y-50738000D02*
X94759000Y-50238000D01*
X95013000Y-45912000D02*
X95013000Y-45412000D01*
X93963000Y-45412000D02*
X93963000Y-45912000D01*
X96286000Y-49617000D02*
X97286000Y-49617000D01*
X97286000Y-50967000D02*
X96286000Y-50967000D01*
X75963000Y-46674000D02*
X75963000Y-46174000D01*
X74913000Y-46174000D02*
X74913000Y-46674000D01*
X80351334Y-52649381D02*
X80018000Y-52173190D01*
X79779905Y-52649381D02*
X79779905Y-51649381D01*
X80160858Y-51649381D01*
X80256096Y-51697000D01*
X80303715Y-51744619D01*
X80351334Y-51839857D01*
X80351334Y-51982714D01*
X80303715Y-52077952D01*
X80256096Y-52125571D01*
X80160858Y-52173190D01*
X79779905Y-52173190D01*
X80732286Y-51744619D02*
X80779905Y-51697000D01*
X80875143Y-51649381D01*
X81113239Y-51649381D01*
X81208477Y-51697000D01*
X81256096Y-51744619D01*
X81303715Y-51839857D01*
X81303715Y-51935095D01*
X81256096Y-52077952D01*
X80684667Y-52649381D01*
X81303715Y-52649381D01*
X98321905Y-58110381D02*
X98321905Y-57110381D01*
X98702858Y-57110381D01*
X98798096Y-57158000D01*
X98845715Y-57205619D01*
X98893334Y-57300857D01*
X98893334Y-57443714D01*
X98845715Y-57538952D01*
X98798096Y-57586571D01*
X98702858Y-57634190D01*
X98321905Y-57634190D01*
X99750477Y-57443714D02*
X99750477Y-58110381D01*
X99512381Y-57062762D02*
X99274286Y-57777048D01*
X99893334Y-57777048D01*
X83566095Y-39330381D02*
X83566095Y-40139905D01*
X83613714Y-40235143D01*
X83661333Y-40282762D01*
X83756571Y-40330381D01*
X83947048Y-40330381D01*
X84042286Y-40282762D01*
X84089905Y-40235143D01*
X84137524Y-40139905D01*
X84137524Y-39330381D01*
X85137524Y-40330381D02*
X84566095Y-40330381D01*
X84851809Y-40330381D02*
X84851809Y-39330381D01*
X84756571Y-39473238D01*
X84661333Y-39568476D01*
X84566095Y-39616095D01*
X102068334Y-35758381D02*
X101592143Y-35758381D01*
X101592143Y-34758381D01*
X102925477Y-35758381D02*
X102354048Y-35758381D01*
X102639762Y-35758381D02*
X102639762Y-34758381D01*
X102544524Y-34901238D01*
X102449286Y-34996476D01*
X102354048Y-35044095D01*
X77747905Y-37536381D02*
X77747905Y-36536381D01*
X78128858Y-36536381D01*
X78224096Y-36584000D01*
X78271715Y-36631619D01*
X78319334Y-36726857D01*
X78319334Y-36869714D01*
X78271715Y-36964952D01*
X78224096Y-37012571D01*
X78128858Y-37060190D01*
X77747905Y-37060190D01*
X79271715Y-37536381D02*
X78700286Y-37536381D01*
X78986000Y-37536381D02*
X78986000Y-36536381D01*
X78890762Y-36679238D01*
X78795524Y-36774476D01*
X78700286Y-36822095D01*
X77049334Y-42267143D02*
X77001715Y-42314762D01*
X76858858Y-42362381D01*
X76763620Y-42362381D01*
X76620762Y-42314762D01*
X76525524Y-42219524D01*
X76477905Y-42124286D01*
X76430286Y-41933810D01*
X76430286Y-41790952D01*
X76477905Y-41600476D01*
X76525524Y-41505238D01*
X76620762Y-41410000D01*
X76763620Y-41362381D01*
X76858858Y-41362381D01*
X77001715Y-41410000D01*
X77049334Y-41457619D01*
X78001715Y-42362381D02*
X77430286Y-42362381D01*
X77716000Y-42362381D02*
X77716000Y-41362381D01*
X77620762Y-41505238D01*
X77525524Y-41600476D01*
X77430286Y-41648095D01*
X72159905Y-49982381D02*
X72159905Y-48982381D01*
X72540858Y-48982381D01*
X72636096Y-49030000D01*
X72683715Y-49077619D01*
X72731334Y-49172857D01*
X72731334Y-49315714D01*
X72683715Y-49410952D01*
X72636096Y-49458571D01*
X72540858Y-49506190D01*
X72159905Y-49506190D01*
X73112286Y-49077619D02*
X73159905Y-49030000D01*
X73255143Y-48982381D01*
X73493239Y-48982381D01*
X73588477Y-49030000D01*
X73636096Y-49077619D01*
X73683715Y-49172857D01*
X73683715Y-49268095D01*
X73636096Y-49410952D01*
X73064667Y-49982381D01*
X73683715Y-49982381D01*
X82129334Y-37441143D02*
X82081715Y-37488762D01*
X81938858Y-37536381D01*
X81843620Y-37536381D01*
X81700762Y-37488762D01*
X81605524Y-37393524D01*
X81557905Y-37298286D01*
X81510286Y-37107810D01*
X81510286Y-36964952D01*
X81557905Y-36774476D01*
X81605524Y-36679238D01*
X81700762Y-36584000D01*
X81843620Y-36536381D01*
X81938858Y-36536381D01*
X82081715Y-36584000D01*
X82129334Y-36631619D01*
X82510286Y-36631619D02*
X82557905Y-36584000D01*
X82653143Y-36536381D01*
X82891239Y-36536381D01*
X82986477Y-36584000D01*
X83034096Y-36631619D01*
X83081715Y-36726857D01*
X83081715Y-36822095D01*
X83034096Y-36964952D01*
X82462667Y-37536381D01*
X83081715Y-37536381D01*
X78827334Y-47855143D02*
X78779715Y-47902762D01*
X78636858Y-47950381D01*
X78541620Y-47950381D01*
X78398762Y-47902762D01*
X78303524Y-47807524D01*
X78255905Y-47712286D01*
X78208286Y-47521810D01*
X78208286Y-47378952D01*
X78255905Y-47188476D01*
X78303524Y-47093238D01*
X78398762Y-46998000D01*
X78541620Y-46950381D01*
X78636858Y-46950381D01*
X78779715Y-46998000D01*
X78827334Y-47045619D01*
X79160667Y-46950381D02*
X79779715Y-46950381D01*
X79446381Y-47331333D01*
X79589239Y-47331333D01*
X79684477Y-47378952D01*
X79732096Y-47426571D01*
X79779715Y-47521810D01*
X79779715Y-47759905D01*
X79732096Y-47855143D01*
X79684477Y-47902762D01*
X79589239Y-47950381D01*
X79303524Y-47950381D01*
X79208286Y-47902762D01*
X79160667Y-47855143D01*
X92543334Y-45188143D02*
X92495715Y-45235762D01*
X92352858Y-45283381D01*
X92257620Y-45283381D01*
X92114762Y-45235762D01*
X92019524Y-45140524D01*
X91971905Y-45045286D01*
X91924286Y-44854810D01*
X91924286Y-44711952D01*
X91971905Y-44521476D01*
X92019524Y-44426238D01*
X92114762Y-44331000D01*
X92257620Y-44283381D01*
X92352858Y-44283381D01*
X92495715Y-44331000D01*
X92543334Y-44378619D01*
X93400477Y-44616714D02*
X93400477Y-45283381D01*
X93162381Y-44235762D02*
X92924286Y-44950048D01*
X93543334Y-44950048D01*
X90511334Y-49125143D02*
X90463715Y-49172762D01*
X90320858Y-49220381D01*
X90225620Y-49220381D01*
X90082762Y-49172762D01*
X89987524Y-49077524D01*
X89939905Y-48982286D01*
X89892286Y-48791810D01*
X89892286Y-48648952D01*
X89939905Y-48458476D01*
X89987524Y-48363238D01*
X90082762Y-48268000D01*
X90225620Y-48220381D01*
X90320858Y-48220381D01*
X90463715Y-48268000D01*
X90511334Y-48315619D01*
X91416096Y-48220381D02*
X90939905Y-48220381D01*
X90892286Y-48696571D01*
X90939905Y-48648952D01*
X91035143Y-48601333D01*
X91273239Y-48601333D01*
X91368477Y-48648952D01*
X91416096Y-48696571D01*
X91463715Y-48791810D01*
X91463715Y-49029905D01*
X91416096Y-49125143D01*
X91368477Y-49172762D01*
X91273239Y-49220381D01*
X91035143Y-49220381D01*
X90939905Y-49172762D01*
X90892286Y-49125143D01*
X94448334Y-49125143D02*
X94400715Y-49172762D01*
X94257858Y-49220381D01*
X94162620Y-49220381D01*
X94019762Y-49172762D01*
X93924524Y-49077524D01*
X93876905Y-48982286D01*
X93829286Y-48791810D01*
X93829286Y-48648952D01*
X93876905Y-48458476D01*
X93924524Y-48363238D01*
X94019762Y-48268000D01*
X94162620Y-48220381D01*
X94257858Y-48220381D01*
X94400715Y-48268000D01*
X94448334Y-48315619D01*
X95305477Y-48220381D02*
X95115000Y-48220381D01*
X95019762Y-48268000D01*
X94972143Y-48315619D01*
X94876905Y-48458476D01*
X94829286Y-48648952D01*
X94829286Y-49029905D01*
X94876905Y-49125143D01*
X94924524Y-49172762D01*
X95019762Y-49220381D01*
X95210239Y-49220381D01*
X95305477Y-49172762D01*
X95353096Y-49125143D01*
X95400715Y-49029905D01*
X95400715Y-48791810D01*
X95353096Y-48696571D01*
X95305477Y-48648952D01*
X95210239Y-48601333D01*
X95019762Y-48601333D01*
X94924524Y-48648952D01*
X94876905Y-48696571D01*
X94829286Y-48791810D01*
X80287905Y-35250381D02*
X80287905Y-34250381D01*
X80526000Y-34250381D01*
X80668858Y-34298000D01*
X80764096Y-34393238D01*
X80811715Y-34488476D01*
X80859334Y-34678952D01*
X80859334Y-34821810D01*
X80811715Y-35012286D01*
X80764096Y-35107524D01*
X80668858Y-35202762D01*
X80526000Y-35250381D01*
X80287905Y-35250381D01*
X81811715Y-35250381D02*
X81240286Y-35250381D01*
X81526000Y-35250381D02*
X81526000Y-34250381D01*
X81430762Y-34393238D01*
X81335524Y-34488476D01*
X81240286Y-34536095D01*
X100861905Y-57348381D02*
X100861905Y-56348381D01*
X101242858Y-56348381D01*
X101338096Y-56396000D01*
X101385715Y-56443619D01*
X101433334Y-56538857D01*
X101433334Y-56681714D01*
X101385715Y-56776952D01*
X101338096Y-56824571D01*
X101242858Y-56872190D01*
X100861905Y-56872190D01*
X101766667Y-56348381D02*
X102385715Y-56348381D01*
X102052381Y-56729333D01*
X102195239Y-56729333D01*
X102290477Y-56776952D01*
X102338096Y-56824571D01*
X102385715Y-56919810D01*
X102385715Y-57157905D01*
X102338096Y-57253143D01*
X102290477Y-57300762D01*
X102195239Y-57348381D01*
X101909524Y-57348381D01*
X101814286Y-57300762D01*
X101766667Y-57253143D01*
X87145905Y-33472381D02*
X87145905Y-32472381D01*
X87526858Y-32472381D01*
X87622096Y-32520000D01*
X87669715Y-32567619D01*
X87717334Y-32662857D01*
X87717334Y-32805714D01*
X87669715Y-32900952D01*
X87622096Y-32948571D01*
X87526858Y-32996190D01*
X87145905Y-32996190D01*
X88622096Y-32472381D02*
X88145905Y-32472381D01*
X88098286Y-32948571D01*
X88145905Y-32900952D01*
X88241143Y-32853333D01*
X88479239Y-32853333D01*
X88574477Y-32900952D01*
X88622096Y-32948571D01*
X88669715Y-33043810D01*
X88669715Y-33281905D01*
X88622096Y-33377143D01*
X88574477Y-33424762D01*
X88479239Y-33472381D01*
X88241143Y-33472381D01*
X88145905Y-33424762D01*
X88098286Y-33377143D01*
X87145905Y-60269381D02*
X87145905Y-59269381D01*
X87526858Y-59269381D01*
X87622096Y-59317000D01*
X87669715Y-59364619D01*
X87717334Y-59459857D01*
X87717334Y-59602714D01*
X87669715Y-59697952D01*
X87622096Y-59745571D01*
X87526858Y-59793190D01*
X87145905Y-59793190D01*
X88574477Y-59269381D02*
X88384000Y-59269381D01*
X88288762Y-59317000D01*
X88241143Y-59364619D01*
X88145905Y-59507476D01*
X88098286Y-59697952D01*
X88098286Y-60078905D01*
X88145905Y-60174143D01*
X88193524Y-60221762D01*
X88288762Y-60269381D01*
X88479239Y-60269381D01*
X88574477Y-60221762D01*
X88622096Y-60174143D01*
X88669715Y-60078905D01*
X88669715Y-59840810D01*
X88622096Y-59745571D01*
X88574477Y-59697952D01*
X88479239Y-59650333D01*
X88288762Y-59650333D01*
X88193524Y-59697952D01*
X88145905Y-59745571D01*
X88098286Y-59840810D01*
X78319334Y-52649381D02*
X77986000Y-52173190D01*
X77747905Y-52649381D02*
X77747905Y-51649381D01*
X78128858Y-51649381D01*
X78224096Y-51697000D01*
X78271715Y-51744619D01*
X78319334Y-51839857D01*
X78319334Y-51982714D01*
X78271715Y-52077952D01*
X78224096Y-52125571D01*
X78128858Y-52173190D01*
X77747905Y-52173190D01*
X79271715Y-52649381D02*
X78700286Y-52649381D01*
X78986000Y-52649381D02*
X78986000Y-51649381D01*
X78890762Y-51792238D01*
X78795524Y-51887476D01*
X78700286Y-51935095D01*
X82891334Y-49220381D02*
X82558000Y-48744190D01*
X82319905Y-49220381D02*
X82319905Y-48220381D01*
X82700858Y-48220381D01*
X82796096Y-48268000D01*
X82843715Y-48315619D01*
X82891334Y-48410857D01*
X82891334Y-48553714D01*
X82843715Y-48648952D01*
X82796096Y-48696571D01*
X82700858Y-48744190D01*
X82319905Y-48744190D01*
X83224667Y-48220381D02*
X83843715Y-48220381D01*
X83510381Y-48601333D01*
X83653239Y-48601333D01*
X83748477Y-48648952D01*
X83796096Y-48696571D01*
X83843715Y-48791810D01*
X83843715Y-49029905D01*
X83796096Y-49125143D01*
X83748477Y-49172762D01*
X83653239Y-49220381D01*
X83367524Y-49220381D01*
X83272286Y-49172762D01*
X83224667Y-49125143D01*
X85431334Y-49220381D02*
X85098000Y-48744190D01*
X84859905Y-49220381D02*
X84859905Y-48220381D01*
X85240858Y-48220381D01*
X85336096Y-48268000D01*
X85383715Y-48315619D01*
X85431334Y-48410857D01*
X85431334Y-48553714D01*
X85383715Y-48648952D01*
X85336096Y-48696571D01*
X85240858Y-48744190D01*
X84859905Y-48744190D01*
X86288477Y-48553714D02*
X86288477Y-49220381D01*
X86050381Y-48172762D02*
X85812286Y-48887048D01*
X86431334Y-48887048D01*
X87971334Y-49220381D02*
X87638000Y-48744190D01*
X87399905Y-49220381D02*
X87399905Y-48220381D01*
X87780858Y-48220381D01*
X87876096Y-48268000D01*
X87923715Y-48315619D01*
X87971334Y-48410857D01*
X87971334Y-48553714D01*
X87923715Y-48648952D01*
X87876096Y-48696571D01*
X87780858Y-48744190D01*
X87399905Y-48744190D01*
X88876096Y-48220381D02*
X88399905Y-48220381D01*
X88352286Y-48696571D01*
X88399905Y-48648952D01*
X88495143Y-48601333D01*
X88733239Y-48601333D01*
X88828477Y-48648952D01*
X88876096Y-48696571D01*
X88923715Y-48791810D01*
X88923715Y-49029905D01*
X88876096Y-49125143D01*
X88828477Y-49172762D01*
X88733239Y-49220381D01*
X88495143Y-49220381D01*
X88399905Y-49172762D01*
X88352286Y-49125143D01*
X90003334Y-52649381D02*
X89670000Y-52173190D01*
X89431905Y-52649381D02*
X89431905Y-51649381D01*
X89812858Y-51649381D01*
X89908096Y-51697000D01*
X89955715Y-51744619D01*
X90003334Y-51839857D01*
X90003334Y-51982714D01*
X89955715Y-52077952D01*
X89908096Y-52125571D01*
X89812858Y-52173190D01*
X89431905Y-52173190D01*
X90860477Y-51649381D02*
X90670000Y-51649381D01*
X90574762Y-51697000D01*
X90527143Y-51744619D01*
X90431905Y-51887476D01*
X90384286Y-52077952D01*
X90384286Y-52458905D01*
X90431905Y-52554143D01*
X90479524Y-52601762D01*
X90574762Y-52649381D01*
X90765239Y-52649381D01*
X90860477Y-52601762D01*
X90908096Y-52554143D01*
X90955715Y-52458905D01*
X90955715Y-52220810D01*
X90908096Y-52125571D01*
X90860477Y-52077952D01*
X90765239Y-52030333D01*
X90574762Y-52030333D01*
X90479524Y-52077952D01*
X90431905Y-52125571D01*
X90384286Y-52220810D01*
X92035334Y-52649381D02*
X91702000Y-52173190D01*
X91463905Y-52649381D02*
X91463905Y-51649381D01*
X91844858Y-51649381D01*
X91940096Y-51697000D01*
X91987715Y-51744619D01*
X92035334Y-51839857D01*
X92035334Y-51982714D01*
X91987715Y-52077952D01*
X91940096Y-52125571D01*
X91844858Y-52173190D01*
X91463905Y-52173190D01*
X92368667Y-51649381D02*
X93035334Y-51649381D01*
X92606762Y-52649381D01*
X94067334Y-52649381D02*
X93734000Y-52173190D01*
X93495905Y-52649381D02*
X93495905Y-51649381D01*
X93876858Y-51649381D01*
X93972096Y-51697000D01*
X94019715Y-51744619D01*
X94067334Y-51839857D01*
X94067334Y-51982714D01*
X94019715Y-52077952D01*
X93972096Y-52125571D01*
X93876858Y-52173190D01*
X93495905Y-52173190D01*
X94638762Y-52077952D02*
X94543524Y-52030333D01*
X94495905Y-51982714D01*
X94448286Y-51887476D01*
X94448286Y-51839857D01*
X94495905Y-51744619D01*
X94543524Y-51697000D01*
X94638762Y-51649381D01*
X94829239Y-51649381D01*
X94924477Y-51697000D01*
X94972096Y-51744619D01*
X95019715Y-51839857D01*
X95019715Y-51887476D01*
X94972096Y-51982714D01*
X94924477Y-52030333D01*
X94829239Y-52077952D01*
X94638762Y-52077952D01*
X94543524Y-52125571D01*
X94495905Y-52173190D01*
X94448286Y-52268429D01*
X94448286Y-52458905D01*
X94495905Y-52554143D01*
X94543524Y-52601762D01*
X94638762Y-52649381D01*
X94829239Y-52649381D01*
X94924477Y-52601762D01*
X94972096Y-52554143D01*
X95019715Y-52458905D01*
X95019715Y-52268429D01*
X94972096Y-52173190D01*
X94924477Y-52125571D01*
X94829239Y-52077952D01*
X94321334Y-47823381D02*
X93988000Y-47347190D01*
X93749905Y-47823381D02*
X93749905Y-46823381D01*
X94130858Y-46823381D01*
X94226096Y-46871000D01*
X94273715Y-46918619D01*
X94321334Y-47013857D01*
X94321334Y-47156714D01*
X94273715Y-47251952D01*
X94226096Y-47299571D01*
X94130858Y-47347190D01*
X93749905Y-47347190D01*
X94797524Y-47823381D02*
X94988000Y-47823381D01*
X95083239Y-47775762D01*
X95130858Y-47728143D01*
X95226096Y-47585286D01*
X95273715Y-47394810D01*
X95273715Y-47013857D01*
X95226096Y-46918619D01*
X95178477Y-46871000D01*
X95083239Y-46823381D01*
X94892762Y-46823381D01*
X94797524Y-46871000D01*
X94749905Y-46918619D01*
X94702286Y-47013857D01*
X94702286Y-47251952D01*
X94749905Y-47347190D01*
X94797524Y-47394810D01*
X94892762Y-47442429D01*
X95083239Y-47442429D01*
X95178477Y-47394810D01*
X95226096Y-47347190D01*
X95273715Y-47251952D01*
X96143143Y-52268381D02*
X95809809Y-51792190D01*
X95571714Y-52268381D02*
X95571714Y-51268381D01*
X95952667Y-51268381D01*
X96047905Y-51316000D01*
X96095524Y-51363619D01*
X96143143Y-51458857D01*
X96143143Y-51601714D01*
X96095524Y-51696952D01*
X96047905Y-51744571D01*
X95952667Y-51792190D01*
X95571714Y-51792190D01*
X97095524Y-52268381D02*
X96524095Y-52268381D01*
X96809809Y-52268381D02*
X96809809Y-51268381D01*
X96714571Y-51411238D01*
X96619333Y-51506476D01*
X96524095Y-51554095D01*
X97714571Y-51268381D02*
X97809810Y-51268381D01*
X97905048Y-51316000D01*
X97952667Y-51363619D01*
X98000286Y-51458857D01*
X98047905Y-51649333D01*
X98047905Y-51887429D01*
X98000286Y-52077905D01*
X97952667Y-52173143D01*
X97905048Y-52220762D01*
X97809810Y-52268381D01*
X97714571Y-52268381D01*
X97619333Y-52220762D01*
X97571714Y-52173143D01*
X97524095Y-52077905D01*
X97476476Y-51887429D01*
X97476476Y-51649333D01*
X97524095Y-51458857D01*
X97571714Y-51363619D01*
X97619333Y-51316000D01*
X97714571Y-51268381D01*
X72763143Y-46876381D02*
X72429809Y-46400190D01*
X72191714Y-46876381D02*
X72191714Y-45876381D01*
X72572667Y-45876381D01*
X72667905Y-45924000D01*
X72715524Y-45971619D01*
X72763143Y-46066857D01*
X72763143Y-46209714D01*
X72715524Y-46304952D01*
X72667905Y-46352571D01*
X72572667Y-46400190D01*
X72191714Y-46400190D01*
X73715524Y-46876381D02*
X73144095Y-46876381D01*
X73429809Y-46876381D02*
X73429809Y-45876381D01*
X73334571Y-46019238D01*
X73239333Y-46114476D01*
X73144095Y-46162095D01*
X74667905Y-46876381D02*
X74096476Y-46876381D01*
X74382190Y-46876381D02*
X74382190Y-45876381D01*
X74286952Y-46019238D01*
X74191714Y-46114476D01*
X74096476Y-46162095D01*
M02*
