G04 #@! TF.FileFunction,Copper,L1,Top,Signal*
%FSLAX46Y46*%
G04 Gerber Fmt 4.6, Leading zero omitted, Abs format (unit mm)*
G04 Created by KiCad (PCBNEW 4.0.2-stable) date Friday, July 29, 2016 'PMt' 06:45:01 PM*
%MOMM*%
G01*
G04 APERTURE LIST*
%ADD10C,0.100000*%
%ADD11R,0.500000X0.600000*%
%ADD12R,4.089400X3.505200*%
%ADD13R,0.500000X0.900000*%
%ADD14R,0.450000X0.590000*%
%ADD15R,2.032000X1.727200*%
%ADD16O,2.032000X1.727200*%
%ADD17R,0.600000X0.400000*%
%ADD18R,1.727200X1.727200*%
%ADD19O,1.727200X1.727200*%
%ADD20R,1.143000X0.508000*%
%ADD21R,1.000000X1.600000*%
%ADD22R,0.750000X0.800000*%
%ADD23R,0.600000X0.500000*%
%ADD24R,1.000000X1.250000*%
%ADD25R,1.600000X1.000000*%
%ADD26R,0.910000X1.220000*%
%ADD27C,4.064000*%
%ADD28R,1.300000X0.700000*%
%ADD29R,0.900000X0.500000*%
%ADD30R,1.220000X0.910000*%
%ADD31R,2.032000X2.032000*%
%ADD32O,2.032000X2.032000*%
%ADD33C,0.690000*%
%ADD34C,0.400000*%
%ADD35C,0.200000*%
%ADD36C,0.250000*%
G04 APERTURE END LIST*
D10*
D11*
X89916000Y-45804000D03*
X89916000Y-44704000D03*
D12*
X92837000Y-39624000D03*
X102108000Y-39624000D03*
D13*
X97536000Y-50673000D03*
X96036000Y-50673000D03*
D14*
X78994000Y-46150000D03*
X78994000Y-48260000D03*
D15*
X72898000Y-57150000D03*
D16*
X72898000Y-54610000D03*
X72898000Y-52070000D03*
D17*
X80518000Y-50938000D03*
X80518000Y-50038000D03*
D18*
X96266000Y-57150000D03*
D19*
X96266000Y-54610000D03*
X93726000Y-57150000D03*
X93726000Y-54610000D03*
X91186000Y-57150000D03*
X91186000Y-54610000D03*
X88646000Y-57150000D03*
X88646000Y-54610000D03*
X86106000Y-57150000D03*
X86106000Y-54610000D03*
X83566000Y-57150000D03*
X83566000Y-54610000D03*
X81026000Y-57150000D03*
X81026000Y-54610000D03*
X78486000Y-57150000D03*
X78486000Y-54610000D03*
D20*
X87376000Y-41656000D03*
X87376000Y-42926000D03*
X87376000Y-44196000D03*
X87376000Y-45466000D03*
X81026000Y-45466000D03*
X81026000Y-44196000D03*
X81026000Y-42926000D03*
X81026000Y-41656000D03*
D18*
X72898000Y-38100000D03*
D19*
X75438000Y-38100000D03*
X72898000Y-35560000D03*
X75438000Y-35560000D03*
D21*
X80264000Y-37846000D03*
X83264000Y-37846000D03*
D22*
X87376000Y-40108000D03*
X87376000Y-38608000D03*
D23*
X82720000Y-47244000D03*
X83820000Y-47244000D03*
D24*
X91694000Y-46990000D03*
X93694000Y-46990000D03*
D25*
X96774000Y-48768000D03*
X96774000Y-45768000D03*
D26*
X88868000Y-36322000D03*
X85598000Y-36322000D03*
D18*
X102870000Y-46736000D03*
D19*
X100330000Y-46736000D03*
X102870000Y-49276000D03*
X100330000Y-49276000D03*
X102870000Y-51816000D03*
X100330000Y-51816000D03*
X102870000Y-54356000D03*
X100330000Y-54356000D03*
D27*
X87884000Y-29845000D03*
X87884000Y-62865000D03*
D17*
X78486000Y-50938000D03*
X78486000Y-50038000D03*
D28*
X83058000Y-51938000D03*
X83058000Y-50038000D03*
D29*
X85598000Y-51538000D03*
X85598000Y-50038000D03*
D28*
X88138000Y-51938000D03*
X88138000Y-50038000D03*
D17*
X90424000Y-50938000D03*
X90424000Y-50038000D03*
X92202000Y-50938000D03*
X92202000Y-50038000D03*
X94234000Y-50938000D03*
X94234000Y-50038000D03*
X91440000Y-44058000D03*
X91440000Y-44958000D03*
X76962000Y-47360000D03*
X76962000Y-48260000D03*
D29*
X74422000Y-46736000D03*
X74422000Y-48236000D03*
D30*
X78232000Y-43180000D03*
X78232000Y-39910000D03*
D31*
X72898000Y-42926000D03*
D32*
X75438000Y-42926000D03*
D33*
X82677000Y-45085000D03*
X83693000Y-45085000D03*
X84709000Y-45085000D03*
X85725000Y-45085000D03*
X82677000Y-44069000D03*
X83693000Y-44069000D03*
X84709000Y-44069000D03*
X85725000Y-44069000D03*
X82677000Y-42037000D03*
X83693000Y-42037000D03*
X84709000Y-42037000D03*
X85725000Y-42037000D03*
X82677000Y-43053000D03*
X83693000Y-43053000D03*
X84709000Y-43053000D03*
X85725000Y-43053000D03*
X81026000Y-40640000D03*
X86106000Y-38608000D03*
D34*
X81026000Y-42926000D02*
X80518000Y-42926000D01*
X80518000Y-42926000D02*
X77358000Y-46086000D01*
X77358000Y-46086000D02*
X75272000Y-46086000D01*
X75272000Y-46086000D02*
X74622000Y-46736000D01*
X74622000Y-46736000D02*
X74422000Y-46736000D01*
D35*
X83693000Y-45085000D02*
X82677000Y-45085000D01*
X84709000Y-45085000D02*
X83693000Y-45085000D01*
X85725000Y-45085000D02*
X84709000Y-45085000D01*
X85725000Y-44069000D02*
X85725000Y-45085000D01*
X83693000Y-44069000D02*
X82677000Y-44069000D01*
X84709000Y-44069000D02*
X83693000Y-44069000D01*
X85725000Y-44069000D02*
X84709000Y-44069000D01*
X85725000Y-43053000D02*
X85725000Y-44069000D01*
X83693000Y-42037000D02*
X82677000Y-42037000D01*
X84709000Y-42037000D02*
X83693000Y-42037000D01*
X85725000Y-42037000D02*
X84709000Y-42037000D01*
X85725000Y-43053000D02*
X85725000Y-42037000D01*
X83693000Y-43053000D02*
X82677000Y-43053000D01*
X84709000Y-43053000D02*
X83693000Y-43053000D01*
X85725000Y-43053000D02*
X84709000Y-43053000D01*
X86868000Y-42926000D02*
X86741000Y-43053000D01*
X86741000Y-43053000D02*
X85725000Y-43053000D01*
X87376000Y-42926000D02*
X86868000Y-42926000D01*
X87249000Y-43053000D02*
X87376000Y-42926000D01*
D34*
X81026000Y-40640000D02*
X81026000Y-41656000D01*
X87376000Y-38608000D02*
X86106000Y-38608000D01*
X82720000Y-47244000D02*
X82720000Y-47160000D01*
X82720000Y-47160000D02*
X81026000Y-45466000D01*
X87376000Y-44196000D02*
X87884000Y-44196000D01*
X87884000Y-44196000D02*
X89492000Y-45804000D01*
X89492000Y-45804000D02*
X89916000Y-45804000D01*
X91694000Y-46990000D02*
X91102000Y-46990000D01*
X91102000Y-46990000D02*
X89916000Y-45804000D01*
D35*
X87505000Y-44196000D02*
X87376000Y-44196000D01*
D36*
X87376000Y-44196000D02*
X87693500Y-44196000D01*
D34*
X89916000Y-44704000D02*
X90566000Y-44704000D01*
X90566000Y-44704000D02*
X90820000Y-44958000D01*
X90820000Y-44958000D02*
X91440000Y-44958000D01*
X94234000Y-50938000D02*
X94234000Y-52578000D01*
X94234000Y-52578000D02*
X96266000Y-54610000D01*
X92202000Y-50938000D02*
X92202000Y-53086000D01*
X92202000Y-53086000D02*
X93726000Y-54610000D01*
X90424000Y-50938000D02*
X90424000Y-53848000D01*
X90424000Y-53848000D02*
X91186000Y-54610000D01*
X88138000Y-51938000D02*
X88138000Y-54102000D01*
X88138000Y-54102000D02*
X88646000Y-54610000D01*
X85598000Y-51538000D02*
X85598000Y-54102000D01*
X85598000Y-54102000D02*
X86106000Y-54610000D01*
X83058000Y-51938000D02*
X83058000Y-54102000D01*
X83058000Y-54102000D02*
X83566000Y-54610000D01*
X80518000Y-50938000D02*
X80518000Y-54102000D01*
X80518000Y-54102000D02*
X81026000Y-54610000D01*
X78486000Y-50938000D02*
X78486000Y-54610000D01*
X88138000Y-50038000D02*
X88138000Y-46228000D01*
X88138000Y-46228000D02*
X87376000Y-45466000D01*
X94234000Y-50038000D02*
X95401000Y-50038000D01*
X95401000Y-50038000D02*
X96036000Y-50673000D01*
X92202000Y-50038000D02*
X94234000Y-50038000D01*
X90424000Y-50038000D02*
X92202000Y-50038000D01*
X88138000Y-50038000D02*
X90424000Y-50038000D01*
X85598000Y-50038000D02*
X88138000Y-50038000D01*
X83058000Y-50038000D02*
X85598000Y-50038000D01*
X80518000Y-50038000D02*
X83058000Y-50038000D01*
X78486000Y-50038000D02*
X80518000Y-50038000D01*
D35*
X87693500Y-45466000D02*
X87376000Y-45466000D01*
X96036000Y-50292000D02*
X96012000Y-50292000D01*
D34*
X76962000Y-47360000D02*
X76262000Y-47360000D01*
X76262000Y-47360000D02*
X75472001Y-48149999D01*
X75472001Y-48149999D02*
X75472001Y-52188399D01*
X75472001Y-52188399D02*
X73050400Y-54610000D01*
X73050400Y-54610000D02*
X72898000Y-54610000D01*
X78994000Y-46150000D02*
X77784000Y-47360000D01*
X77784000Y-47360000D02*
X76962000Y-47360000D01*
X78994000Y-45593000D02*
X78994000Y-46150000D01*
X79756000Y-44831000D02*
X78994000Y-45593000D01*
X79756000Y-44830498D02*
X79756000Y-44831000D01*
X81026000Y-44196000D02*
X80390498Y-44196000D01*
X80390498Y-44196000D02*
X79756000Y-44830498D01*
X74422000Y-48236000D02*
X74422000Y-50698400D01*
X74422000Y-50698400D02*
X73050400Y-52070000D01*
X73050400Y-52070000D02*
X72898000Y-52070000D01*
X78232000Y-42910000D02*
X75454000Y-42910000D01*
X75454000Y-42910000D02*
X75438000Y-42926000D01*
D36*
G36*
X88993000Y-36197000D02*
X89604250Y-36197000D01*
X89608250Y-36193000D01*
X91642224Y-36193000D01*
X93000687Y-37551463D01*
X92962000Y-37590150D01*
X92962000Y-39499000D01*
X92982000Y-39499000D01*
X92982000Y-39749000D01*
X92962000Y-39749000D01*
X92962000Y-41657850D01*
X93000687Y-41696537D01*
X92658224Y-42039000D01*
X88443776Y-42039000D01*
X88322500Y-41917724D01*
X88322500Y-41874750D01*
X88228750Y-41781000D01*
X87501000Y-41781000D01*
X87501000Y-41785000D01*
X87251000Y-41785000D01*
X87251000Y-41781000D01*
X87247000Y-41781000D01*
X87247000Y-41531000D01*
X87251000Y-41531000D01*
X87251000Y-41120750D01*
X87501000Y-41120750D01*
X87501000Y-41531000D01*
X88228750Y-41531000D01*
X88322500Y-41437250D01*
X88322500Y-41327408D01*
X88265410Y-41189580D01*
X88159921Y-41084090D01*
X88022092Y-41027000D01*
X87594750Y-41027000D01*
X87501000Y-41120750D01*
X87251000Y-41120750D01*
X87247000Y-41116750D01*
X87247000Y-40793250D01*
X87251000Y-40789250D01*
X87251000Y-40233000D01*
X87501000Y-40233000D01*
X87501000Y-40789250D01*
X87594750Y-40883000D01*
X87825592Y-40883000D01*
X87963421Y-40825910D01*
X88068910Y-40720420D01*
X88126000Y-40582592D01*
X88126000Y-40326750D01*
X88032250Y-40233000D01*
X87501000Y-40233000D01*
X87251000Y-40233000D01*
X87247000Y-40233000D01*
X87247000Y-40003000D01*
X87884000Y-40003000D01*
X87932632Y-39993152D01*
X87947712Y-39983000D01*
X88032250Y-39983000D01*
X88126000Y-39889250D01*
X88126000Y-39842750D01*
X90417300Y-39842750D01*
X90417300Y-41451192D01*
X90474390Y-41589021D01*
X90579880Y-41694510D01*
X90717708Y-41751600D01*
X92618250Y-41751600D01*
X92712000Y-41657850D01*
X92712000Y-39749000D01*
X90511050Y-39749000D01*
X90417300Y-39842750D01*
X88126000Y-39842750D01*
X88126000Y-39812776D01*
X88734388Y-39204388D01*
X88761813Y-39163037D01*
X88771000Y-39116000D01*
X88771000Y-37796808D01*
X90417300Y-37796808D01*
X90417300Y-39405250D01*
X90511050Y-39499000D01*
X92712000Y-39499000D01*
X92712000Y-37590150D01*
X92618250Y-37496400D01*
X90717708Y-37496400D01*
X90579880Y-37553490D01*
X90474390Y-37658979D01*
X90417300Y-37796808D01*
X88771000Y-37796808D01*
X88771000Y-36447000D01*
X88993000Y-36447000D01*
X88993000Y-37213250D01*
X89086750Y-37307000D01*
X89397592Y-37307000D01*
X89535420Y-37249910D01*
X89640910Y-37144421D01*
X89698000Y-37006592D01*
X89698000Y-36540750D01*
X89604250Y-36447000D01*
X88993000Y-36447000D01*
X88771000Y-36447000D01*
X88771000Y-36193000D01*
X88993000Y-36193000D01*
X88993000Y-36197000D01*
X88993000Y-36197000D01*
G37*
X88993000Y-36197000D02*
X89604250Y-36197000D01*
X89608250Y-36193000D01*
X91642224Y-36193000D01*
X93000687Y-37551463D01*
X92962000Y-37590150D01*
X92962000Y-39499000D01*
X92982000Y-39499000D01*
X92982000Y-39749000D01*
X92962000Y-39749000D01*
X92962000Y-41657850D01*
X93000687Y-41696537D01*
X92658224Y-42039000D01*
X88443776Y-42039000D01*
X88322500Y-41917724D01*
X88322500Y-41874750D01*
X88228750Y-41781000D01*
X87501000Y-41781000D01*
X87501000Y-41785000D01*
X87251000Y-41785000D01*
X87251000Y-41781000D01*
X87247000Y-41781000D01*
X87247000Y-41531000D01*
X87251000Y-41531000D01*
X87251000Y-41120750D01*
X87501000Y-41120750D01*
X87501000Y-41531000D01*
X88228750Y-41531000D01*
X88322500Y-41437250D01*
X88322500Y-41327408D01*
X88265410Y-41189580D01*
X88159921Y-41084090D01*
X88022092Y-41027000D01*
X87594750Y-41027000D01*
X87501000Y-41120750D01*
X87251000Y-41120750D01*
X87247000Y-41116750D01*
X87247000Y-40793250D01*
X87251000Y-40789250D01*
X87251000Y-40233000D01*
X87501000Y-40233000D01*
X87501000Y-40789250D01*
X87594750Y-40883000D01*
X87825592Y-40883000D01*
X87963421Y-40825910D01*
X88068910Y-40720420D01*
X88126000Y-40582592D01*
X88126000Y-40326750D01*
X88032250Y-40233000D01*
X87501000Y-40233000D01*
X87251000Y-40233000D01*
X87247000Y-40233000D01*
X87247000Y-40003000D01*
X87884000Y-40003000D01*
X87932632Y-39993152D01*
X87947712Y-39983000D01*
X88032250Y-39983000D01*
X88126000Y-39889250D01*
X88126000Y-39842750D01*
X90417300Y-39842750D01*
X90417300Y-41451192D01*
X90474390Y-41589021D01*
X90579880Y-41694510D01*
X90717708Y-41751600D01*
X92618250Y-41751600D01*
X92712000Y-41657850D01*
X92712000Y-39749000D01*
X90511050Y-39749000D01*
X90417300Y-39842750D01*
X88126000Y-39842750D01*
X88126000Y-39812776D01*
X88734388Y-39204388D01*
X88761813Y-39163037D01*
X88771000Y-39116000D01*
X88771000Y-37796808D01*
X90417300Y-37796808D01*
X90417300Y-39405250D01*
X90511050Y-39499000D01*
X92712000Y-39499000D01*
X92712000Y-37590150D01*
X92618250Y-37496400D01*
X90717708Y-37496400D01*
X90579880Y-37553490D01*
X90474390Y-37658979D01*
X90417300Y-37796808D01*
X88771000Y-37796808D01*
X88771000Y-36447000D01*
X88993000Y-36447000D01*
X88993000Y-37213250D01*
X89086750Y-37307000D01*
X89397592Y-37307000D01*
X89535420Y-37249910D01*
X89640910Y-37144421D01*
X89698000Y-37006592D01*
X89698000Y-36540750D01*
X89604250Y-36447000D01*
X88993000Y-36447000D01*
X88771000Y-36447000D01*
X88771000Y-36193000D01*
X88993000Y-36193000D01*
X88993000Y-36197000D01*
G36*
X99782050Y-39499000D02*
X101983000Y-39499000D01*
X101983000Y-39495000D01*
X102233000Y-39495000D01*
X102233000Y-39499000D01*
X102237000Y-39499000D01*
X102237000Y-39749000D01*
X102233000Y-39749000D01*
X102233000Y-41657850D01*
X102237000Y-41661850D01*
X102237000Y-43890224D01*
X100563139Y-45564085D01*
X100455000Y-45597462D01*
X100455000Y-46611000D01*
X100459000Y-46611000D01*
X100459000Y-46861000D01*
X100455000Y-46861000D01*
X100455000Y-47874538D01*
X100459000Y-47875773D01*
X100459000Y-48136227D01*
X100455000Y-48137462D01*
X100455000Y-49151000D01*
X100459000Y-49151000D01*
X100459000Y-49401000D01*
X100455000Y-49401000D01*
X100455000Y-50414538D01*
X100459000Y-50415773D01*
X100459000Y-50676227D01*
X100455000Y-50677462D01*
X100455000Y-51691000D01*
X100459000Y-51691000D01*
X100459000Y-51941000D01*
X100455000Y-51941000D01*
X100455000Y-52954538D01*
X100459000Y-52955773D01*
X100459000Y-53216227D01*
X100455000Y-53217462D01*
X100455000Y-54231000D01*
X100459000Y-54231000D01*
X100459000Y-54481000D01*
X100455000Y-54481000D01*
X100455000Y-54485000D01*
X100205000Y-54485000D01*
X100205000Y-54481000D01*
X99191994Y-54481000D01*
X99190749Y-54485000D01*
X99107524Y-54485000D01*
X98606640Y-54039769D01*
X99132450Y-54039769D01*
X99191994Y-54231000D01*
X100205000Y-54231000D01*
X100205000Y-53217462D01*
X100013767Y-53158438D01*
X99579552Y-53370614D01*
X99259586Y-53732806D01*
X99132450Y-54039769D01*
X98606640Y-54039769D01*
X96899000Y-52521867D01*
X96899000Y-52132231D01*
X99132450Y-52132231D01*
X99259586Y-52439194D01*
X99579552Y-52801386D01*
X100013767Y-53013562D01*
X100205000Y-52954538D01*
X100205000Y-51941000D01*
X99191994Y-51941000D01*
X99132450Y-52132231D01*
X96899000Y-52132231D01*
X96899000Y-51499769D01*
X99132450Y-51499769D01*
X99191994Y-51691000D01*
X100205000Y-51691000D01*
X100205000Y-50677462D01*
X100013767Y-50618438D01*
X99579552Y-50830614D01*
X99259586Y-51192806D01*
X99132450Y-51499769D01*
X96899000Y-51499769D01*
X96899000Y-50891750D01*
X96911000Y-50891750D01*
X96911000Y-51197592D01*
X96968090Y-51335421D01*
X97073580Y-51440910D01*
X97211408Y-51498000D01*
X97317250Y-51498000D01*
X97411000Y-51404250D01*
X97411000Y-50798000D01*
X97661000Y-50798000D01*
X97661000Y-51404250D01*
X97754750Y-51498000D01*
X97860592Y-51498000D01*
X97998420Y-51440910D01*
X98103910Y-51335421D01*
X98161000Y-51197592D01*
X98161000Y-50891750D01*
X98067250Y-50798000D01*
X97661000Y-50798000D01*
X97411000Y-50798000D01*
X97004750Y-50798000D01*
X96911000Y-50891750D01*
X96899000Y-50891750D01*
X96899000Y-50148408D01*
X96911000Y-50148408D01*
X96911000Y-50454250D01*
X97004750Y-50548000D01*
X97411000Y-50548000D01*
X97411000Y-49941750D01*
X97661000Y-49941750D01*
X97661000Y-50548000D01*
X98067250Y-50548000D01*
X98161000Y-50454250D01*
X98161000Y-50148408D01*
X98103910Y-50010579D01*
X97998420Y-49905090D01*
X97860592Y-49848000D01*
X97754750Y-49848000D01*
X97661000Y-49941750D01*
X97411000Y-49941750D01*
X97317250Y-49848000D01*
X97211408Y-49848000D01*
X97073580Y-49905090D01*
X96968090Y-50010579D01*
X96911000Y-50148408D01*
X96899000Y-50148408D01*
X96899000Y-50038000D01*
X96889152Y-49989368D01*
X96862388Y-49949612D01*
X96645000Y-49732224D01*
X96645000Y-49553250D01*
X96649000Y-49549250D01*
X96649000Y-48893000D01*
X96899000Y-48893000D01*
X96899000Y-49549250D01*
X96992750Y-49643000D01*
X97648592Y-49643000D01*
X97771160Y-49592231D01*
X99132450Y-49592231D01*
X99259586Y-49899194D01*
X99579552Y-50261386D01*
X100013767Y-50473562D01*
X100205000Y-50414538D01*
X100205000Y-49401000D01*
X99191994Y-49401000D01*
X99132450Y-49592231D01*
X97771160Y-49592231D01*
X97786421Y-49585910D01*
X97891910Y-49480420D01*
X97949000Y-49342592D01*
X97949000Y-48986750D01*
X97922019Y-48959769D01*
X99132450Y-48959769D01*
X99191994Y-49151000D01*
X100205000Y-49151000D01*
X100205000Y-48137462D01*
X100013767Y-48078438D01*
X99579552Y-48290614D01*
X99259586Y-48652806D01*
X99132450Y-48959769D01*
X97922019Y-48959769D01*
X97855250Y-48893000D01*
X96899000Y-48893000D01*
X96649000Y-48893000D01*
X96645000Y-48893000D01*
X96645000Y-48643000D01*
X96649000Y-48643000D01*
X96649000Y-47986750D01*
X96899000Y-47986750D01*
X96899000Y-48643000D01*
X97855250Y-48643000D01*
X97949000Y-48549250D01*
X97949000Y-48193408D01*
X97891910Y-48055580D01*
X97786421Y-47950090D01*
X97648592Y-47893000D01*
X96992750Y-47893000D01*
X96899000Y-47986750D01*
X96649000Y-47986750D01*
X96645000Y-47982750D01*
X96645000Y-47803776D01*
X97396545Y-47052231D01*
X99132450Y-47052231D01*
X99259586Y-47359194D01*
X99579552Y-47721386D01*
X100013767Y-47933562D01*
X100205000Y-47874538D01*
X100205000Y-46861000D01*
X99191994Y-46861000D01*
X99132450Y-47052231D01*
X97396545Y-47052231D01*
X97662061Y-46786715D01*
X97768553Y-46766677D01*
X97947239Y-46651696D01*
X98067112Y-46476256D01*
X98078550Y-46419769D01*
X99132450Y-46419769D01*
X99191994Y-46611000D01*
X100205000Y-46611000D01*
X100205000Y-45597462D01*
X100013767Y-45538438D01*
X99579552Y-45750614D01*
X99259586Y-46112806D01*
X99132450Y-46419769D01*
X98078550Y-46419769D01*
X98091131Y-46357645D01*
X98132388Y-46316388D01*
X98159813Y-46275037D01*
X98169000Y-46228000D01*
X98169000Y-43739776D01*
X99148388Y-42760388D01*
X99175813Y-42719037D01*
X99185000Y-42672000D01*
X99185000Y-39929776D01*
X99272026Y-39842750D01*
X99688300Y-39842750D01*
X99688300Y-41451192D01*
X99745390Y-41589021D01*
X99850880Y-41694510D01*
X99988708Y-41751600D01*
X101889250Y-41751600D01*
X101983000Y-41657850D01*
X101983000Y-39749000D01*
X99782050Y-39749000D01*
X99688300Y-39842750D01*
X99272026Y-39842750D01*
X99619776Y-39495000D01*
X99778050Y-39495000D01*
X99782050Y-39499000D01*
X99782050Y-39499000D01*
G37*
X99782050Y-39499000D02*
X101983000Y-39499000D01*
X101983000Y-39495000D01*
X102233000Y-39495000D01*
X102233000Y-39499000D01*
X102237000Y-39499000D01*
X102237000Y-39749000D01*
X102233000Y-39749000D01*
X102233000Y-41657850D01*
X102237000Y-41661850D01*
X102237000Y-43890224D01*
X100563139Y-45564085D01*
X100455000Y-45597462D01*
X100455000Y-46611000D01*
X100459000Y-46611000D01*
X100459000Y-46861000D01*
X100455000Y-46861000D01*
X100455000Y-47874538D01*
X100459000Y-47875773D01*
X100459000Y-48136227D01*
X100455000Y-48137462D01*
X100455000Y-49151000D01*
X100459000Y-49151000D01*
X100459000Y-49401000D01*
X100455000Y-49401000D01*
X100455000Y-50414538D01*
X100459000Y-50415773D01*
X100459000Y-50676227D01*
X100455000Y-50677462D01*
X100455000Y-51691000D01*
X100459000Y-51691000D01*
X100459000Y-51941000D01*
X100455000Y-51941000D01*
X100455000Y-52954538D01*
X100459000Y-52955773D01*
X100459000Y-53216227D01*
X100455000Y-53217462D01*
X100455000Y-54231000D01*
X100459000Y-54231000D01*
X100459000Y-54481000D01*
X100455000Y-54481000D01*
X100455000Y-54485000D01*
X100205000Y-54485000D01*
X100205000Y-54481000D01*
X99191994Y-54481000D01*
X99190749Y-54485000D01*
X99107524Y-54485000D01*
X98606640Y-54039769D01*
X99132450Y-54039769D01*
X99191994Y-54231000D01*
X100205000Y-54231000D01*
X100205000Y-53217462D01*
X100013767Y-53158438D01*
X99579552Y-53370614D01*
X99259586Y-53732806D01*
X99132450Y-54039769D01*
X98606640Y-54039769D01*
X96899000Y-52521867D01*
X96899000Y-52132231D01*
X99132450Y-52132231D01*
X99259586Y-52439194D01*
X99579552Y-52801386D01*
X100013767Y-53013562D01*
X100205000Y-52954538D01*
X100205000Y-51941000D01*
X99191994Y-51941000D01*
X99132450Y-52132231D01*
X96899000Y-52132231D01*
X96899000Y-51499769D01*
X99132450Y-51499769D01*
X99191994Y-51691000D01*
X100205000Y-51691000D01*
X100205000Y-50677462D01*
X100013767Y-50618438D01*
X99579552Y-50830614D01*
X99259586Y-51192806D01*
X99132450Y-51499769D01*
X96899000Y-51499769D01*
X96899000Y-50891750D01*
X96911000Y-50891750D01*
X96911000Y-51197592D01*
X96968090Y-51335421D01*
X97073580Y-51440910D01*
X97211408Y-51498000D01*
X97317250Y-51498000D01*
X97411000Y-51404250D01*
X97411000Y-50798000D01*
X97661000Y-50798000D01*
X97661000Y-51404250D01*
X97754750Y-51498000D01*
X97860592Y-51498000D01*
X97998420Y-51440910D01*
X98103910Y-51335421D01*
X98161000Y-51197592D01*
X98161000Y-50891750D01*
X98067250Y-50798000D01*
X97661000Y-50798000D01*
X97411000Y-50798000D01*
X97004750Y-50798000D01*
X96911000Y-50891750D01*
X96899000Y-50891750D01*
X96899000Y-50148408D01*
X96911000Y-50148408D01*
X96911000Y-50454250D01*
X97004750Y-50548000D01*
X97411000Y-50548000D01*
X97411000Y-49941750D01*
X97661000Y-49941750D01*
X97661000Y-50548000D01*
X98067250Y-50548000D01*
X98161000Y-50454250D01*
X98161000Y-50148408D01*
X98103910Y-50010579D01*
X97998420Y-49905090D01*
X97860592Y-49848000D01*
X97754750Y-49848000D01*
X97661000Y-49941750D01*
X97411000Y-49941750D01*
X97317250Y-49848000D01*
X97211408Y-49848000D01*
X97073580Y-49905090D01*
X96968090Y-50010579D01*
X96911000Y-50148408D01*
X96899000Y-50148408D01*
X96899000Y-50038000D01*
X96889152Y-49989368D01*
X96862388Y-49949612D01*
X96645000Y-49732224D01*
X96645000Y-49553250D01*
X96649000Y-49549250D01*
X96649000Y-48893000D01*
X96899000Y-48893000D01*
X96899000Y-49549250D01*
X96992750Y-49643000D01*
X97648592Y-49643000D01*
X97771160Y-49592231D01*
X99132450Y-49592231D01*
X99259586Y-49899194D01*
X99579552Y-50261386D01*
X100013767Y-50473562D01*
X100205000Y-50414538D01*
X100205000Y-49401000D01*
X99191994Y-49401000D01*
X99132450Y-49592231D01*
X97771160Y-49592231D01*
X97786421Y-49585910D01*
X97891910Y-49480420D01*
X97949000Y-49342592D01*
X97949000Y-48986750D01*
X97922019Y-48959769D01*
X99132450Y-48959769D01*
X99191994Y-49151000D01*
X100205000Y-49151000D01*
X100205000Y-48137462D01*
X100013767Y-48078438D01*
X99579552Y-48290614D01*
X99259586Y-48652806D01*
X99132450Y-48959769D01*
X97922019Y-48959769D01*
X97855250Y-48893000D01*
X96899000Y-48893000D01*
X96649000Y-48893000D01*
X96645000Y-48893000D01*
X96645000Y-48643000D01*
X96649000Y-48643000D01*
X96649000Y-47986750D01*
X96899000Y-47986750D01*
X96899000Y-48643000D01*
X97855250Y-48643000D01*
X97949000Y-48549250D01*
X97949000Y-48193408D01*
X97891910Y-48055580D01*
X97786421Y-47950090D01*
X97648592Y-47893000D01*
X96992750Y-47893000D01*
X96899000Y-47986750D01*
X96649000Y-47986750D01*
X96645000Y-47982750D01*
X96645000Y-47803776D01*
X97396545Y-47052231D01*
X99132450Y-47052231D01*
X99259586Y-47359194D01*
X99579552Y-47721386D01*
X100013767Y-47933562D01*
X100205000Y-47874538D01*
X100205000Y-46861000D01*
X99191994Y-46861000D01*
X99132450Y-47052231D01*
X97396545Y-47052231D01*
X97662061Y-46786715D01*
X97768553Y-46766677D01*
X97947239Y-46651696D01*
X98067112Y-46476256D01*
X98078550Y-46419769D01*
X99132450Y-46419769D01*
X99191994Y-46611000D01*
X100205000Y-46611000D01*
X100205000Y-45597462D01*
X100013767Y-45538438D01*
X99579552Y-45750614D01*
X99259586Y-46112806D01*
X99132450Y-46419769D01*
X98078550Y-46419769D01*
X98091131Y-46357645D01*
X98132388Y-46316388D01*
X98159813Y-46275037D01*
X98169000Y-46228000D01*
X98169000Y-43739776D01*
X99148388Y-42760388D01*
X99175813Y-42719037D01*
X99185000Y-42672000D01*
X99185000Y-39929776D01*
X99272026Y-39842750D01*
X99688300Y-39842750D01*
X99688300Y-41451192D01*
X99745390Y-41589021D01*
X99850880Y-41694510D01*
X99988708Y-41751600D01*
X101889250Y-41751600D01*
X101983000Y-41657850D01*
X101983000Y-39749000D01*
X99782050Y-39749000D01*
X99688300Y-39842750D01*
X99272026Y-39842750D01*
X99619776Y-39495000D01*
X99778050Y-39495000D01*
X99782050Y-39499000D01*
G36*
X75563000Y-35435000D02*
X76576006Y-35435000D01*
X76577251Y-35431000D01*
X79196224Y-35431000D01*
X80393000Y-36627776D01*
X80393000Y-36760750D01*
X80389000Y-36764750D01*
X80389000Y-37721000D01*
X80393000Y-37721000D01*
X80393000Y-37971000D01*
X80389000Y-37971000D01*
X80389000Y-38927250D01*
X80393000Y-38931250D01*
X80393000Y-40042603D01*
X80288880Y-40146541D01*
X80156152Y-40466187D01*
X80155850Y-40812294D01*
X80159674Y-40821550D01*
X79921612Y-41059612D01*
X79894187Y-41100963D01*
X79885000Y-41148000D01*
X79885000Y-42418000D01*
X79894848Y-42466632D01*
X79917607Y-42502193D01*
X80079500Y-42679854D01*
X80079500Y-42707250D01*
X80173250Y-42801000D01*
X80901000Y-42801000D01*
X80901000Y-42797000D01*
X81151000Y-42797000D01*
X81151000Y-42801000D01*
X81155000Y-42801000D01*
X81155000Y-43051000D01*
X81151000Y-43051000D01*
X81151000Y-43055000D01*
X80901000Y-43055000D01*
X80901000Y-43051000D01*
X80173250Y-43051000D01*
X80169250Y-43055000D01*
X79377285Y-43055000D01*
X79377285Y-42725000D01*
X79340677Y-42530447D01*
X79225696Y-42351761D01*
X79050256Y-42231888D01*
X78842000Y-42189715D01*
X78255704Y-42189715D01*
X78232000Y-42185000D01*
X78175776Y-42185000D01*
X76119526Y-40128750D01*
X77247000Y-40128750D01*
X77247000Y-40439592D01*
X77304090Y-40577420D01*
X77409579Y-40682910D01*
X77547408Y-40740000D01*
X78013250Y-40740000D01*
X78107000Y-40646250D01*
X78107000Y-40035000D01*
X78357000Y-40035000D01*
X78357000Y-40646250D01*
X78450750Y-40740000D01*
X78916592Y-40740000D01*
X79054421Y-40682910D01*
X79159910Y-40577420D01*
X79217000Y-40439592D01*
X79217000Y-40128750D01*
X79123250Y-40035000D01*
X78357000Y-40035000D01*
X78107000Y-40035000D01*
X77340750Y-40035000D01*
X77247000Y-40128750D01*
X76119526Y-40128750D01*
X75371184Y-39380408D01*
X77247000Y-39380408D01*
X77247000Y-39691250D01*
X77340750Y-39785000D01*
X78107000Y-39785000D01*
X78107000Y-39173750D01*
X78357000Y-39173750D01*
X78357000Y-39785000D01*
X79123250Y-39785000D01*
X79217000Y-39691250D01*
X79217000Y-39380408D01*
X79159910Y-39242580D01*
X79054421Y-39137090D01*
X78916592Y-39080000D01*
X78450750Y-39080000D01*
X78357000Y-39173750D01*
X78107000Y-39173750D01*
X78013250Y-39080000D01*
X77547408Y-39080000D01*
X77409579Y-39137090D01*
X77304090Y-39242580D01*
X77247000Y-39380408D01*
X75371184Y-39380408D01*
X75309000Y-39318224D01*
X75309000Y-39239773D01*
X75313000Y-39238538D01*
X75313000Y-38225000D01*
X75563000Y-38225000D01*
X75563000Y-39238538D01*
X75754233Y-39297562D01*
X76188448Y-39085386D01*
X76508414Y-38723194D01*
X76635550Y-38416231D01*
X76576006Y-38225000D01*
X75563000Y-38225000D01*
X75313000Y-38225000D01*
X75309000Y-38225000D01*
X75309000Y-38064750D01*
X79389000Y-38064750D01*
X79389000Y-38720592D01*
X79446090Y-38858421D01*
X79551580Y-38963910D01*
X79689408Y-39021000D01*
X80045250Y-39021000D01*
X80139000Y-38927250D01*
X80139000Y-37971000D01*
X79482750Y-37971000D01*
X79389000Y-38064750D01*
X75309000Y-38064750D01*
X75309000Y-37975000D01*
X75313000Y-37975000D01*
X75313000Y-36961462D01*
X75563000Y-36961462D01*
X75563000Y-37975000D01*
X76576006Y-37975000D01*
X76635550Y-37783769D01*
X76508414Y-37476806D01*
X76188448Y-37114614D01*
X75895380Y-36971408D01*
X79389000Y-36971408D01*
X79389000Y-37627250D01*
X79482750Y-37721000D01*
X80139000Y-37721000D01*
X80139000Y-36764750D01*
X80045250Y-36671000D01*
X79689408Y-36671000D01*
X79551580Y-36728090D01*
X79446090Y-36833579D01*
X79389000Y-36971408D01*
X75895380Y-36971408D01*
X75754233Y-36902438D01*
X75563000Y-36961462D01*
X75313000Y-36961462D01*
X75309000Y-36960227D01*
X75309000Y-36699773D01*
X75313000Y-36698538D01*
X75313000Y-35685000D01*
X75563000Y-35685000D01*
X75563000Y-36698538D01*
X75754233Y-36757562D01*
X76188448Y-36545386D01*
X76508414Y-36183194D01*
X76635550Y-35876231D01*
X76576006Y-35685000D01*
X75563000Y-35685000D01*
X75313000Y-35685000D01*
X75309000Y-35685000D01*
X75309000Y-35435000D01*
X75313000Y-35435000D01*
X75313000Y-35431000D01*
X75563000Y-35431000D01*
X75563000Y-35435000D01*
X75563000Y-35435000D01*
G37*
X75563000Y-35435000D02*
X76576006Y-35435000D01*
X76577251Y-35431000D01*
X79196224Y-35431000D01*
X80393000Y-36627776D01*
X80393000Y-36760750D01*
X80389000Y-36764750D01*
X80389000Y-37721000D01*
X80393000Y-37721000D01*
X80393000Y-37971000D01*
X80389000Y-37971000D01*
X80389000Y-38927250D01*
X80393000Y-38931250D01*
X80393000Y-40042603D01*
X80288880Y-40146541D01*
X80156152Y-40466187D01*
X80155850Y-40812294D01*
X80159674Y-40821550D01*
X79921612Y-41059612D01*
X79894187Y-41100963D01*
X79885000Y-41148000D01*
X79885000Y-42418000D01*
X79894848Y-42466632D01*
X79917607Y-42502193D01*
X80079500Y-42679854D01*
X80079500Y-42707250D01*
X80173250Y-42801000D01*
X80901000Y-42801000D01*
X80901000Y-42797000D01*
X81151000Y-42797000D01*
X81151000Y-42801000D01*
X81155000Y-42801000D01*
X81155000Y-43051000D01*
X81151000Y-43051000D01*
X81151000Y-43055000D01*
X80901000Y-43055000D01*
X80901000Y-43051000D01*
X80173250Y-43051000D01*
X80169250Y-43055000D01*
X79377285Y-43055000D01*
X79377285Y-42725000D01*
X79340677Y-42530447D01*
X79225696Y-42351761D01*
X79050256Y-42231888D01*
X78842000Y-42189715D01*
X78255704Y-42189715D01*
X78232000Y-42185000D01*
X78175776Y-42185000D01*
X76119526Y-40128750D01*
X77247000Y-40128750D01*
X77247000Y-40439592D01*
X77304090Y-40577420D01*
X77409579Y-40682910D01*
X77547408Y-40740000D01*
X78013250Y-40740000D01*
X78107000Y-40646250D01*
X78107000Y-40035000D01*
X78357000Y-40035000D01*
X78357000Y-40646250D01*
X78450750Y-40740000D01*
X78916592Y-40740000D01*
X79054421Y-40682910D01*
X79159910Y-40577420D01*
X79217000Y-40439592D01*
X79217000Y-40128750D01*
X79123250Y-40035000D01*
X78357000Y-40035000D01*
X78107000Y-40035000D01*
X77340750Y-40035000D01*
X77247000Y-40128750D01*
X76119526Y-40128750D01*
X75371184Y-39380408D01*
X77247000Y-39380408D01*
X77247000Y-39691250D01*
X77340750Y-39785000D01*
X78107000Y-39785000D01*
X78107000Y-39173750D01*
X78357000Y-39173750D01*
X78357000Y-39785000D01*
X79123250Y-39785000D01*
X79217000Y-39691250D01*
X79217000Y-39380408D01*
X79159910Y-39242580D01*
X79054421Y-39137090D01*
X78916592Y-39080000D01*
X78450750Y-39080000D01*
X78357000Y-39173750D01*
X78107000Y-39173750D01*
X78013250Y-39080000D01*
X77547408Y-39080000D01*
X77409579Y-39137090D01*
X77304090Y-39242580D01*
X77247000Y-39380408D01*
X75371184Y-39380408D01*
X75309000Y-39318224D01*
X75309000Y-39239773D01*
X75313000Y-39238538D01*
X75313000Y-38225000D01*
X75563000Y-38225000D01*
X75563000Y-39238538D01*
X75754233Y-39297562D01*
X76188448Y-39085386D01*
X76508414Y-38723194D01*
X76635550Y-38416231D01*
X76576006Y-38225000D01*
X75563000Y-38225000D01*
X75313000Y-38225000D01*
X75309000Y-38225000D01*
X75309000Y-38064750D01*
X79389000Y-38064750D01*
X79389000Y-38720592D01*
X79446090Y-38858421D01*
X79551580Y-38963910D01*
X79689408Y-39021000D01*
X80045250Y-39021000D01*
X80139000Y-38927250D01*
X80139000Y-37971000D01*
X79482750Y-37971000D01*
X79389000Y-38064750D01*
X75309000Y-38064750D01*
X75309000Y-37975000D01*
X75313000Y-37975000D01*
X75313000Y-36961462D01*
X75563000Y-36961462D01*
X75563000Y-37975000D01*
X76576006Y-37975000D01*
X76635550Y-37783769D01*
X76508414Y-37476806D01*
X76188448Y-37114614D01*
X75895380Y-36971408D01*
X79389000Y-36971408D01*
X79389000Y-37627250D01*
X79482750Y-37721000D01*
X80139000Y-37721000D01*
X80139000Y-36764750D01*
X80045250Y-36671000D01*
X79689408Y-36671000D01*
X79551580Y-36728090D01*
X79446090Y-36833579D01*
X79389000Y-36971408D01*
X75895380Y-36971408D01*
X75754233Y-36902438D01*
X75563000Y-36961462D01*
X75313000Y-36961462D01*
X75309000Y-36960227D01*
X75309000Y-36699773D01*
X75313000Y-36698538D01*
X75313000Y-35685000D01*
X75563000Y-35685000D01*
X75563000Y-36698538D01*
X75754233Y-36757562D01*
X76188448Y-36545386D01*
X76508414Y-36183194D01*
X76635550Y-35876231D01*
X76576006Y-35685000D01*
X75563000Y-35685000D01*
X75313000Y-35685000D01*
X75309000Y-35685000D01*
X75309000Y-35435000D01*
X75313000Y-35435000D01*
X75313000Y-35431000D01*
X75563000Y-35431000D01*
X75563000Y-35435000D01*
G36*
X90459000Y-33020000D02*
X90504672Y-33249610D01*
X90634736Y-33444264D01*
X90829390Y-33574328D01*
X91059000Y-33620000D01*
X104810000Y-33620000D01*
X104810000Y-59090000D01*
X91059000Y-59090000D01*
X90829390Y-59135672D01*
X90634736Y-59265736D01*
X90504672Y-59460390D01*
X90459000Y-59690000D01*
X90459000Y-65440000D01*
X85309000Y-65440000D01*
X85309000Y-63371387D01*
X85326557Y-63371387D01*
X85715017Y-64311532D01*
X86433684Y-65031455D01*
X87373150Y-65421556D01*
X88390387Y-65422443D01*
X89330532Y-65033983D01*
X90050455Y-64315316D01*
X90440556Y-63375850D01*
X90441443Y-62358613D01*
X90052983Y-61418468D01*
X89334316Y-60698545D01*
X88394850Y-60308444D01*
X87377613Y-60307557D01*
X86437468Y-60696017D01*
X85717545Y-61414684D01*
X85327444Y-62354150D01*
X85326557Y-63371387D01*
X85309000Y-63371387D01*
X85309000Y-59690000D01*
X85263328Y-59460390D01*
X85133264Y-59265736D01*
X84938610Y-59135672D01*
X84709000Y-59090000D01*
X70958000Y-59090000D01*
X70958000Y-57368750D01*
X71507000Y-57368750D01*
X71507000Y-58088192D01*
X71564090Y-58226021D01*
X71669580Y-58331510D01*
X71807408Y-58388600D01*
X72679250Y-58388600D01*
X72773000Y-58294850D01*
X72773000Y-57275000D01*
X73023000Y-57275000D01*
X73023000Y-58294850D01*
X73116750Y-58388600D01*
X73988592Y-58388600D01*
X74126420Y-58331510D01*
X74231910Y-58226021D01*
X74289000Y-58088192D01*
X74289000Y-57466233D01*
X77288438Y-57466233D01*
X77500614Y-57900448D01*
X77862806Y-58220414D01*
X78169769Y-58347550D01*
X78361000Y-58288006D01*
X78361000Y-57275000D01*
X78611000Y-57275000D01*
X78611000Y-58288006D01*
X78802231Y-58347550D01*
X79109194Y-58220414D01*
X79471386Y-57900448D01*
X79683562Y-57466233D01*
X79828438Y-57466233D01*
X80040614Y-57900448D01*
X80402806Y-58220414D01*
X80709769Y-58347550D01*
X80901000Y-58288006D01*
X80901000Y-57275000D01*
X81151000Y-57275000D01*
X81151000Y-58288006D01*
X81342231Y-58347550D01*
X81649194Y-58220414D01*
X82011386Y-57900448D01*
X82223562Y-57466233D01*
X82368438Y-57466233D01*
X82580614Y-57900448D01*
X82942806Y-58220414D01*
X83249769Y-58347550D01*
X83441000Y-58288006D01*
X83441000Y-57275000D01*
X83691000Y-57275000D01*
X83691000Y-58288006D01*
X83882231Y-58347550D01*
X84189194Y-58220414D01*
X84551386Y-57900448D01*
X84763562Y-57466233D01*
X84908438Y-57466233D01*
X85120614Y-57900448D01*
X85482806Y-58220414D01*
X85789769Y-58347550D01*
X85981000Y-58288006D01*
X85981000Y-57275000D01*
X86231000Y-57275000D01*
X86231000Y-58288006D01*
X86422231Y-58347550D01*
X86729194Y-58220414D01*
X87091386Y-57900448D01*
X87303562Y-57466233D01*
X87448438Y-57466233D01*
X87660614Y-57900448D01*
X88022806Y-58220414D01*
X88329769Y-58347550D01*
X88521000Y-58288006D01*
X88521000Y-57275000D01*
X88771000Y-57275000D01*
X88771000Y-58288006D01*
X88962231Y-58347550D01*
X89269194Y-58220414D01*
X89631386Y-57900448D01*
X89843562Y-57466233D01*
X89988438Y-57466233D01*
X90200614Y-57900448D01*
X90562806Y-58220414D01*
X90869769Y-58347550D01*
X91061000Y-58288006D01*
X91061000Y-57275000D01*
X91311000Y-57275000D01*
X91311000Y-58288006D01*
X91502231Y-58347550D01*
X91809194Y-58220414D01*
X92171386Y-57900448D01*
X92383562Y-57466233D01*
X92528438Y-57466233D01*
X92740614Y-57900448D01*
X93102806Y-58220414D01*
X93409769Y-58347550D01*
X93601000Y-58288006D01*
X93601000Y-57275000D01*
X93851000Y-57275000D01*
X93851000Y-58288006D01*
X94042231Y-58347550D01*
X94349194Y-58220414D01*
X94711386Y-57900448D01*
X94923562Y-57466233D01*
X94893474Y-57368750D01*
X95027400Y-57368750D01*
X95027400Y-58088192D01*
X95084490Y-58226020D01*
X95189979Y-58331510D01*
X95327808Y-58388600D01*
X96047250Y-58388600D01*
X96141000Y-58294850D01*
X96141000Y-57275000D01*
X96391000Y-57275000D01*
X96391000Y-58294850D01*
X96484750Y-58388600D01*
X97204192Y-58388600D01*
X97342021Y-58331510D01*
X97447510Y-58226020D01*
X97504600Y-58088192D01*
X97504600Y-57368750D01*
X97410850Y-57275000D01*
X96391000Y-57275000D01*
X96141000Y-57275000D01*
X95121150Y-57275000D01*
X95027400Y-57368750D01*
X94893474Y-57368750D01*
X94864538Y-57275000D01*
X93851000Y-57275000D01*
X93601000Y-57275000D01*
X92587462Y-57275000D01*
X92528438Y-57466233D01*
X92383562Y-57466233D01*
X92324538Y-57275000D01*
X91311000Y-57275000D01*
X91061000Y-57275000D01*
X90047462Y-57275000D01*
X89988438Y-57466233D01*
X89843562Y-57466233D01*
X89784538Y-57275000D01*
X88771000Y-57275000D01*
X88521000Y-57275000D01*
X87507462Y-57275000D01*
X87448438Y-57466233D01*
X87303562Y-57466233D01*
X87244538Y-57275000D01*
X86231000Y-57275000D01*
X85981000Y-57275000D01*
X84967462Y-57275000D01*
X84908438Y-57466233D01*
X84763562Y-57466233D01*
X84704538Y-57275000D01*
X83691000Y-57275000D01*
X83441000Y-57275000D01*
X82427462Y-57275000D01*
X82368438Y-57466233D01*
X82223562Y-57466233D01*
X82164538Y-57275000D01*
X81151000Y-57275000D01*
X80901000Y-57275000D01*
X79887462Y-57275000D01*
X79828438Y-57466233D01*
X79683562Y-57466233D01*
X79624538Y-57275000D01*
X78611000Y-57275000D01*
X78361000Y-57275000D01*
X77347462Y-57275000D01*
X77288438Y-57466233D01*
X74289000Y-57466233D01*
X74289000Y-57368750D01*
X74195250Y-57275000D01*
X73023000Y-57275000D01*
X72773000Y-57275000D01*
X71600750Y-57275000D01*
X71507000Y-57368750D01*
X70958000Y-57368750D01*
X70958000Y-52070000D01*
X71326810Y-52070000D01*
X71432511Y-52601394D01*
X71733522Y-53051888D01*
X72164711Y-53340000D01*
X71733522Y-53628112D01*
X71432511Y-54078606D01*
X71326810Y-54610000D01*
X71432511Y-55141394D01*
X71733522Y-55591888D01*
X72184016Y-55892899D01*
X72277027Y-55911400D01*
X71807408Y-55911400D01*
X71669580Y-55968490D01*
X71564090Y-56073979D01*
X71507000Y-56211808D01*
X71507000Y-56931250D01*
X71600750Y-57025000D01*
X72773000Y-57025000D01*
X72773000Y-57005000D01*
X73023000Y-57005000D01*
X73023000Y-57025000D01*
X74195250Y-57025000D01*
X74289000Y-56931250D01*
X74289000Y-56211808D01*
X74231910Y-56073979D01*
X74126420Y-55968490D01*
X73988592Y-55911400D01*
X73518973Y-55911400D01*
X73611984Y-55892899D01*
X74062478Y-55591888D01*
X74363489Y-55141394D01*
X74469190Y-54610000D01*
X74463779Y-54582796D01*
X77097400Y-54582796D01*
X77097400Y-54637204D01*
X77203101Y-55168598D01*
X77504112Y-55619092D01*
X77954606Y-55920103D01*
X78152721Y-55959511D01*
X77862806Y-56079586D01*
X77500614Y-56399552D01*
X77288438Y-56833767D01*
X77347462Y-57025000D01*
X78361000Y-57025000D01*
X78361000Y-57005000D01*
X78611000Y-57005000D01*
X78611000Y-57025000D01*
X79624538Y-57025000D01*
X79683562Y-56833767D01*
X79471386Y-56399552D01*
X79109194Y-56079586D01*
X78819279Y-55959511D01*
X79017394Y-55920103D01*
X79467888Y-55619092D01*
X79756000Y-55187903D01*
X80044112Y-55619092D01*
X80494606Y-55920103D01*
X80692721Y-55959511D01*
X80402806Y-56079586D01*
X80040614Y-56399552D01*
X79828438Y-56833767D01*
X79887462Y-57025000D01*
X80901000Y-57025000D01*
X80901000Y-57005000D01*
X81151000Y-57005000D01*
X81151000Y-57025000D01*
X82164538Y-57025000D01*
X82223562Y-56833767D01*
X82011386Y-56399552D01*
X81649194Y-56079586D01*
X81359279Y-55959511D01*
X81557394Y-55920103D01*
X82007888Y-55619092D01*
X82296000Y-55187903D01*
X82584112Y-55619092D01*
X83034606Y-55920103D01*
X83232721Y-55959511D01*
X82942806Y-56079586D01*
X82580614Y-56399552D01*
X82368438Y-56833767D01*
X82427462Y-57025000D01*
X83441000Y-57025000D01*
X83441000Y-57005000D01*
X83691000Y-57005000D01*
X83691000Y-57025000D01*
X84704538Y-57025000D01*
X84763562Y-56833767D01*
X84551386Y-56399552D01*
X84189194Y-56079586D01*
X83899279Y-55959511D01*
X84097394Y-55920103D01*
X84547888Y-55619092D01*
X84836000Y-55187903D01*
X85124112Y-55619092D01*
X85574606Y-55920103D01*
X85772721Y-55959511D01*
X85482806Y-56079586D01*
X85120614Y-56399552D01*
X84908438Y-56833767D01*
X84967462Y-57025000D01*
X85981000Y-57025000D01*
X85981000Y-57005000D01*
X86231000Y-57005000D01*
X86231000Y-57025000D01*
X87244538Y-57025000D01*
X87303562Y-56833767D01*
X87091386Y-56399552D01*
X86729194Y-56079586D01*
X86439279Y-55959511D01*
X86637394Y-55920103D01*
X87087888Y-55619092D01*
X87376000Y-55187903D01*
X87664112Y-55619092D01*
X88114606Y-55920103D01*
X88312721Y-55959511D01*
X88022806Y-56079586D01*
X87660614Y-56399552D01*
X87448438Y-56833767D01*
X87507462Y-57025000D01*
X88521000Y-57025000D01*
X88521000Y-57005000D01*
X88771000Y-57005000D01*
X88771000Y-57025000D01*
X89784538Y-57025000D01*
X89843562Y-56833767D01*
X89631386Y-56399552D01*
X89269194Y-56079586D01*
X88979279Y-55959511D01*
X89177394Y-55920103D01*
X89627888Y-55619092D01*
X89916000Y-55187903D01*
X90204112Y-55619092D01*
X90654606Y-55920103D01*
X90852721Y-55959511D01*
X90562806Y-56079586D01*
X90200614Y-56399552D01*
X89988438Y-56833767D01*
X90047462Y-57025000D01*
X91061000Y-57025000D01*
X91061000Y-57005000D01*
X91311000Y-57005000D01*
X91311000Y-57025000D01*
X92324538Y-57025000D01*
X92383562Y-56833767D01*
X92171386Y-56399552D01*
X91809194Y-56079586D01*
X91519279Y-55959511D01*
X91717394Y-55920103D01*
X92167888Y-55619092D01*
X92456000Y-55187903D01*
X92744112Y-55619092D01*
X93194606Y-55920103D01*
X93392721Y-55959511D01*
X93102806Y-56079586D01*
X92740614Y-56399552D01*
X92528438Y-56833767D01*
X92587462Y-57025000D01*
X93601000Y-57025000D01*
X93601000Y-57005000D01*
X93851000Y-57005000D01*
X93851000Y-57025000D01*
X94864538Y-57025000D01*
X94923562Y-56833767D01*
X94711386Y-56399552D01*
X94349194Y-56079586D01*
X94059279Y-55959511D01*
X94257394Y-55920103D01*
X94707888Y-55619092D01*
X94996000Y-55187903D01*
X95284112Y-55619092D01*
X95721581Y-55911400D01*
X95327808Y-55911400D01*
X95189979Y-55968490D01*
X95084490Y-56073980D01*
X95027400Y-56211808D01*
X95027400Y-56931250D01*
X95121150Y-57025000D01*
X96141000Y-57025000D01*
X96141000Y-57005000D01*
X96391000Y-57005000D01*
X96391000Y-57025000D01*
X97410850Y-57025000D01*
X97504600Y-56931250D01*
X97504600Y-56211808D01*
X97447510Y-56073980D01*
X97342021Y-55968490D01*
X97204192Y-55911400D01*
X96810419Y-55911400D01*
X97247888Y-55619092D01*
X97548899Y-55168598D01*
X97654600Y-54637204D01*
X97654600Y-54582796D01*
X97548899Y-54051402D01*
X97413677Y-53849028D01*
X98711209Y-55002390D01*
X98855746Y-55093637D01*
X99060000Y-55135000D01*
X99185342Y-55135000D01*
X99320908Y-55337888D01*
X99771402Y-55638899D01*
X100302796Y-55744600D01*
X100357204Y-55744600D01*
X100888598Y-55638899D01*
X101339092Y-55337888D01*
X101640103Y-54887394D01*
X101679511Y-54689279D01*
X101799586Y-54979194D01*
X102119552Y-55341386D01*
X102553767Y-55553562D01*
X102745000Y-55494538D01*
X102745000Y-54481000D01*
X102995000Y-54481000D01*
X102995000Y-55494538D01*
X103186233Y-55553562D01*
X103620448Y-55341386D01*
X103940414Y-54979194D01*
X104067550Y-54672231D01*
X104008006Y-54481000D01*
X102995000Y-54481000D01*
X102745000Y-54481000D01*
X102725000Y-54481000D01*
X102725000Y-54231000D01*
X102745000Y-54231000D01*
X102745000Y-53217462D01*
X102995000Y-53217462D01*
X102995000Y-54231000D01*
X104008006Y-54231000D01*
X104067550Y-54039769D01*
X103940414Y-53732806D01*
X103620448Y-53370614D01*
X103186233Y-53158438D01*
X102995000Y-53217462D01*
X102745000Y-53217462D01*
X102553767Y-53158438D01*
X102119552Y-53370614D01*
X101799586Y-53732806D01*
X101679511Y-54022721D01*
X101640103Y-53824606D01*
X101339092Y-53374112D01*
X101109000Y-53220369D01*
X101109000Y-52951631D01*
X101339092Y-52797888D01*
X101640103Y-52347394D01*
X101679511Y-52149279D01*
X101799586Y-52439194D01*
X102119552Y-52801386D01*
X102553767Y-53013562D01*
X102745000Y-52954538D01*
X102745000Y-51941000D01*
X102995000Y-51941000D01*
X102995000Y-52954538D01*
X103186233Y-53013562D01*
X103620448Y-52801386D01*
X103940414Y-52439194D01*
X104067550Y-52132231D01*
X104008006Y-51941000D01*
X102995000Y-51941000D01*
X102745000Y-51941000D01*
X102725000Y-51941000D01*
X102725000Y-51691000D01*
X102745000Y-51691000D01*
X102745000Y-50677462D01*
X102995000Y-50677462D01*
X102995000Y-51691000D01*
X104008006Y-51691000D01*
X104067550Y-51499769D01*
X103940414Y-51192806D01*
X103620448Y-50830614D01*
X103186233Y-50618438D01*
X102995000Y-50677462D01*
X102745000Y-50677462D01*
X102553767Y-50618438D01*
X102119552Y-50830614D01*
X101799586Y-51192806D01*
X101679511Y-51482721D01*
X101640103Y-51284606D01*
X101339092Y-50834112D01*
X101109000Y-50680369D01*
X101109000Y-50411631D01*
X101339092Y-50257888D01*
X101640103Y-49807394D01*
X101679511Y-49609279D01*
X101799586Y-49899194D01*
X102119552Y-50261386D01*
X102553767Y-50473562D01*
X102745000Y-50414538D01*
X102745000Y-49401000D01*
X102995000Y-49401000D01*
X102995000Y-50414538D01*
X103186233Y-50473562D01*
X103620448Y-50261386D01*
X103940414Y-49899194D01*
X104067550Y-49592231D01*
X104008006Y-49401000D01*
X102995000Y-49401000D01*
X102745000Y-49401000D01*
X102725000Y-49401000D01*
X102725000Y-49151000D01*
X102745000Y-49151000D01*
X102745000Y-48137462D01*
X102995000Y-48137462D01*
X102995000Y-49151000D01*
X104008006Y-49151000D01*
X104067550Y-48959769D01*
X103940414Y-48652806D01*
X103620448Y-48290614D01*
X103186233Y-48078438D01*
X102995000Y-48137462D01*
X102745000Y-48137462D01*
X102553767Y-48078438D01*
X102119552Y-48290614D01*
X101799586Y-48652806D01*
X101679511Y-48942721D01*
X101640103Y-48744606D01*
X101339092Y-48294112D01*
X101109000Y-48140369D01*
X101109000Y-47871631D01*
X101339092Y-47717888D01*
X101631400Y-47280419D01*
X101631400Y-47674192D01*
X101688490Y-47812021D01*
X101793980Y-47917510D01*
X101931808Y-47974600D01*
X102651250Y-47974600D01*
X102745000Y-47880850D01*
X102745000Y-46861000D01*
X102995000Y-46861000D01*
X102995000Y-47880850D01*
X103088750Y-47974600D01*
X103808192Y-47974600D01*
X103946020Y-47917510D01*
X104051510Y-47812021D01*
X104108600Y-47674192D01*
X104108600Y-46954750D01*
X104014850Y-46861000D01*
X102995000Y-46861000D01*
X102745000Y-46861000D01*
X102725000Y-46861000D01*
X102725000Y-46611000D01*
X102745000Y-46611000D01*
X102745000Y-45591150D01*
X102995000Y-45591150D01*
X102995000Y-46611000D01*
X104014850Y-46611000D01*
X104108600Y-46517250D01*
X104108600Y-45797808D01*
X104051510Y-45659979D01*
X103946020Y-45554490D01*
X103808192Y-45497400D01*
X103088750Y-45497400D01*
X102995000Y-45591150D01*
X102745000Y-45591150D01*
X102651250Y-45497400D01*
X101931808Y-45497400D01*
X101793980Y-45554490D01*
X101688490Y-45659979D01*
X101631400Y-45797808D01*
X101631400Y-46191581D01*
X101339092Y-45754112D01*
X101311072Y-45735390D01*
X102733231Y-44313231D01*
X102845637Y-44146254D01*
X102887000Y-43942000D01*
X102887000Y-41911885D01*
X104152700Y-41911885D01*
X104347253Y-41875277D01*
X104525939Y-41760296D01*
X104645812Y-41584856D01*
X104687985Y-41376600D01*
X104687985Y-37871400D01*
X104651377Y-37676847D01*
X104536396Y-37498161D01*
X104360956Y-37378288D01*
X104152700Y-37336115D01*
X100063300Y-37336115D01*
X99868747Y-37372723D01*
X99690061Y-37487704D01*
X99570188Y-37663144D01*
X99528015Y-37871400D01*
X99528015Y-38852810D01*
X99370446Y-38883587D01*
X99196769Y-38998769D01*
X98688769Y-39506769D01*
X98576363Y-39673746D01*
X98535000Y-39878000D01*
X98535000Y-42454538D01*
X97672769Y-43316769D01*
X97560363Y-43483746D01*
X97519000Y-43688000D01*
X97519000Y-44893000D01*
X96992750Y-44893000D01*
X96899000Y-44986750D01*
X96899000Y-45643000D01*
X96919000Y-45643000D01*
X96919000Y-45893000D01*
X96899000Y-45893000D01*
X96899000Y-46549250D01*
X96939644Y-46589894D01*
X96148769Y-47380769D01*
X96036363Y-47547746D01*
X95998905Y-47732715D01*
X95974000Y-47732715D01*
X95779447Y-47769323D01*
X95600761Y-47884304D01*
X95480888Y-48059744D01*
X95438715Y-48268000D01*
X95438715Y-49268000D01*
X95448978Y-49322543D01*
X95401000Y-49313000D01*
X94584789Y-49313000D01*
X94534000Y-49302715D01*
X93934000Y-49302715D01*
X93879340Y-49313000D01*
X92552789Y-49313000D01*
X92502000Y-49302715D01*
X91902000Y-49302715D01*
X91847340Y-49313000D01*
X90774789Y-49313000D01*
X90724000Y-49302715D01*
X90124000Y-49302715D01*
X90069340Y-49313000D01*
X89169119Y-49313000D01*
X88996256Y-49194888D01*
X88863000Y-49167903D01*
X88863000Y-46228000D01*
X88856123Y-46193428D01*
X88979347Y-46316652D01*
X89136508Y-46421663D01*
X89214555Y-46473813D01*
X89303053Y-46491416D01*
X89457744Y-46597112D01*
X89666000Y-46639285D01*
X89725981Y-46639285D01*
X90589347Y-47502652D01*
X90658715Y-47549002D01*
X90658715Y-47615000D01*
X90695323Y-47809553D01*
X90810304Y-47988239D01*
X90985744Y-48108112D01*
X91194000Y-48150285D01*
X92194000Y-48150285D01*
X92388553Y-48113677D01*
X92567239Y-47998696D01*
X92687112Y-47823256D01*
X92729285Y-47615000D01*
X92729285Y-47208750D01*
X92819000Y-47208750D01*
X92819000Y-47689592D01*
X92876090Y-47827421D01*
X92981580Y-47932910D01*
X93119408Y-47990000D01*
X93475250Y-47990000D01*
X93569000Y-47896250D01*
X93569000Y-47115000D01*
X93819000Y-47115000D01*
X93819000Y-47896250D01*
X93912750Y-47990000D01*
X94268592Y-47990000D01*
X94406420Y-47932910D01*
X94511910Y-47827421D01*
X94569000Y-47689592D01*
X94569000Y-47208750D01*
X94475250Y-47115000D01*
X93819000Y-47115000D01*
X93569000Y-47115000D01*
X92912750Y-47115000D01*
X92819000Y-47208750D01*
X92729285Y-47208750D01*
X92729285Y-46365000D01*
X92715250Y-46290408D01*
X92819000Y-46290408D01*
X92819000Y-46771250D01*
X92912750Y-46865000D01*
X93569000Y-46865000D01*
X93569000Y-46083750D01*
X93819000Y-46083750D01*
X93819000Y-46865000D01*
X94475250Y-46865000D01*
X94569000Y-46771250D01*
X94569000Y-46290408D01*
X94511910Y-46152579D01*
X94406420Y-46047090D01*
X94268592Y-45990000D01*
X93912750Y-45990000D01*
X93819000Y-46083750D01*
X93569000Y-46083750D01*
X93475250Y-45990000D01*
X93119408Y-45990000D01*
X92981580Y-46047090D01*
X92876090Y-46152579D01*
X92819000Y-46290408D01*
X92715250Y-46290408D01*
X92692677Y-46170447D01*
X92577696Y-45991761D01*
X92570363Y-45986750D01*
X95599000Y-45986750D01*
X95599000Y-46342592D01*
X95656090Y-46480420D01*
X95761579Y-46585910D01*
X95899408Y-46643000D01*
X96555250Y-46643000D01*
X96649000Y-46549250D01*
X96649000Y-45893000D01*
X95692750Y-45893000D01*
X95599000Y-45986750D01*
X92570363Y-45986750D01*
X92402256Y-45871888D01*
X92194000Y-45829715D01*
X91194000Y-45829715D01*
X91002965Y-45865661D01*
X90820304Y-45683000D01*
X91089211Y-45683000D01*
X91140000Y-45693285D01*
X91740000Y-45693285D01*
X91934553Y-45656677D01*
X92113239Y-45541696D01*
X92233112Y-45366256D01*
X92268114Y-45193408D01*
X95599000Y-45193408D01*
X95599000Y-45549250D01*
X95692750Y-45643000D01*
X96649000Y-45643000D01*
X96649000Y-44986750D01*
X96555250Y-44893000D01*
X95899408Y-44893000D01*
X95761579Y-44950090D01*
X95656090Y-45055580D01*
X95599000Y-45193408D01*
X92268114Y-45193408D01*
X92275285Y-45158000D01*
X92275285Y-44758000D01*
X92238677Y-44563447D01*
X92123696Y-44384761D01*
X92100076Y-44368622D01*
X92115000Y-44332592D01*
X92115000Y-44251750D01*
X92021250Y-44158000D01*
X91565000Y-44158000D01*
X91565000Y-44203000D01*
X91315000Y-44203000D01*
X91315000Y-44158000D01*
X91295000Y-44158000D01*
X91295000Y-43958000D01*
X91315000Y-43958000D01*
X91315000Y-43576750D01*
X91565000Y-43576750D01*
X91565000Y-43958000D01*
X92021250Y-43958000D01*
X92115000Y-43864250D01*
X92115000Y-43783408D01*
X92057910Y-43645580D01*
X91952421Y-43540090D01*
X91814592Y-43483000D01*
X91658750Y-43483000D01*
X91565000Y-43576750D01*
X91315000Y-43576750D01*
X91221250Y-43483000D01*
X91065408Y-43483000D01*
X90927579Y-43540090D01*
X90822090Y-43645580D01*
X90765000Y-43783408D01*
X90765000Y-43864250D01*
X90833748Y-43932998D01*
X90765000Y-43932998D01*
X90765000Y-44018583D01*
X90566000Y-43979000D01*
X90473941Y-43979000D01*
X90374256Y-43910888D01*
X90166000Y-43868715D01*
X89666000Y-43868715D01*
X89471447Y-43905323D01*
X89292761Y-44020304D01*
X89172888Y-44195744D01*
X89130715Y-44404000D01*
X89130715Y-44417411D01*
X88419872Y-43706568D01*
X88331196Y-43568761D01*
X88187353Y-43470477D01*
X88265410Y-43392420D01*
X88322500Y-43254592D01*
X88322500Y-43144750D01*
X88228750Y-43051000D01*
X87501000Y-43051000D01*
X87501000Y-43071000D01*
X87251000Y-43071000D01*
X87251000Y-43051000D01*
X86523250Y-43051000D01*
X86429500Y-43144750D01*
X86429500Y-43254592D01*
X86486590Y-43392420D01*
X86565861Y-43471692D01*
X86431261Y-43558304D01*
X86311388Y-43733744D01*
X86269215Y-43942000D01*
X86269215Y-44450000D01*
X86305823Y-44644553D01*
X86420804Y-44823239D01*
X86430292Y-44829722D01*
X86311388Y-45003744D01*
X86269215Y-45212000D01*
X86269215Y-45720000D01*
X86305823Y-45914553D01*
X86420804Y-46093239D01*
X86596244Y-46213112D01*
X86804500Y-46255285D01*
X87139981Y-46255285D01*
X87413000Y-46528305D01*
X87413000Y-49166827D01*
X87293447Y-49189323D01*
X87114761Y-49304304D01*
X87108819Y-49313000D01*
X86282764Y-49313000D01*
X86256256Y-49294888D01*
X86048000Y-49252715D01*
X85148000Y-49252715D01*
X84953447Y-49289323D01*
X84916652Y-49313000D01*
X84089119Y-49313000D01*
X83916256Y-49194888D01*
X83708000Y-49152715D01*
X82408000Y-49152715D01*
X82213447Y-49189323D01*
X82034761Y-49304304D01*
X82028819Y-49313000D01*
X80868789Y-49313000D01*
X80818000Y-49302715D01*
X80218000Y-49302715D01*
X80163340Y-49313000D01*
X78836789Y-49313000D01*
X78786000Y-49302715D01*
X78186000Y-49302715D01*
X77991447Y-49339323D01*
X77812761Y-49454304D01*
X77692888Y-49629744D01*
X77650715Y-49838000D01*
X77650715Y-50238000D01*
X77687323Y-50432553D01*
X77722230Y-50486800D01*
X77692888Y-50529744D01*
X77650715Y-50738000D01*
X77650715Y-51138000D01*
X77687323Y-51332553D01*
X77761000Y-51447051D01*
X77761000Y-53429261D01*
X77504112Y-53600908D01*
X77203101Y-54051402D01*
X77097400Y-54582796D01*
X74463779Y-54582796D01*
X74403906Y-54281798D01*
X75984653Y-52701051D01*
X76141814Y-52465845D01*
X76162668Y-52361001D01*
X76197001Y-52188399D01*
X76197001Y-48450303D01*
X76287000Y-48360304D01*
X76287000Y-48385002D01*
X76355748Y-48385002D01*
X76287000Y-48453750D01*
X76287000Y-48534592D01*
X76344090Y-48672420D01*
X76449579Y-48777910D01*
X76587408Y-48835000D01*
X76743250Y-48835000D01*
X76837000Y-48741250D01*
X76837000Y-48360000D01*
X77087000Y-48360000D01*
X77087000Y-48741250D01*
X77180750Y-48835000D01*
X77336592Y-48835000D01*
X77474421Y-48777910D01*
X77579910Y-48672420D01*
X77637000Y-48534592D01*
X77637000Y-48478750D01*
X78394000Y-48478750D01*
X78394000Y-48629592D01*
X78451090Y-48767420D01*
X78556579Y-48872910D01*
X78694408Y-48930000D01*
X78787750Y-48930000D01*
X78881500Y-48836250D01*
X78881500Y-48385000D01*
X79106500Y-48385000D01*
X79106500Y-48836250D01*
X79200250Y-48930000D01*
X79293592Y-48930000D01*
X79431421Y-48872910D01*
X79536910Y-48767420D01*
X79594000Y-48629592D01*
X79594000Y-48478750D01*
X79500250Y-48385000D01*
X79106500Y-48385000D01*
X78881500Y-48385000D01*
X78487750Y-48385000D01*
X78394000Y-48478750D01*
X77637000Y-48478750D01*
X77637000Y-48453750D01*
X77543250Y-48360000D01*
X77087000Y-48360000D01*
X76837000Y-48360000D01*
X76817000Y-48360000D01*
X76817000Y-48160000D01*
X76837000Y-48160000D01*
X76837000Y-48115000D01*
X77087000Y-48115000D01*
X77087000Y-48160000D01*
X77543250Y-48160000D01*
X77618250Y-48085000D01*
X77784000Y-48085000D01*
X78015415Y-48038969D01*
X78061446Y-48029813D01*
X78270078Y-47890408D01*
X78394000Y-47890408D01*
X78394000Y-48041250D01*
X78487750Y-48135000D01*
X78881500Y-48135000D01*
X78881500Y-47683750D01*
X79106500Y-47683750D01*
X79106500Y-48135000D01*
X79500250Y-48135000D01*
X79594000Y-48041250D01*
X79594000Y-47890408D01*
X79536910Y-47752580D01*
X79431421Y-47647090D01*
X79293592Y-47590000D01*
X79200250Y-47590000D01*
X79106500Y-47683750D01*
X78881500Y-47683750D01*
X78787750Y-47590000D01*
X78694408Y-47590000D01*
X78556579Y-47647090D01*
X78451090Y-47752580D01*
X78394000Y-47890408D01*
X78270078Y-47890408D01*
X78296652Y-47872652D01*
X79189020Y-46980285D01*
X79219000Y-46980285D01*
X79413553Y-46943677D01*
X79592239Y-46828696D01*
X79712112Y-46653256D01*
X79754285Y-46445000D01*
X79754285Y-45858019D01*
X79919215Y-45693090D01*
X79919215Y-45720000D01*
X79955823Y-45914553D01*
X80070804Y-46093239D01*
X80246244Y-46213112D01*
X80454500Y-46255285D01*
X80789981Y-46255285D01*
X81884715Y-47350020D01*
X81884715Y-47494000D01*
X81921323Y-47688553D01*
X82036304Y-47867239D01*
X82211744Y-47987112D01*
X82420000Y-48029285D01*
X83020000Y-48029285D01*
X83214553Y-47992677D01*
X83393239Y-47877696D01*
X83409378Y-47854076D01*
X83445408Y-47869000D01*
X83601250Y-47869000D01*
X83695000Y-47775250D01*
X83695000Y-47369000D01*
X83945000Y-47369000D01*
X83945000Y-47775250D01*
X84038750Y-47869000D01*
X84194592Y-47869000D01*
X84332420Y-47811910D01*
X84437910Y-47706421D01*
X84495000Y-47568592D01*
X84495000Y-47462750D01*
X84401250Y-47369000D01*
X83945000Y-47369000D01*
X83695000Y-47369000D01*
X83675000Y-47369000D01*
X83675000Y-47119000D01*
X83695000Y-47119000D01*
X83695000Y-46712750D01*
X83945000Y-46712750D01*
X83945000Y-47119000D01*
X84401250Y-47119000D01*
X84495000Y-47025250D01*
X84495000Y-46919408D01*
X84437910Y-46781579D01*
X84332420Y-46676090D01*
X84194592Y-46619000D01*
X84038750Y-46619000D01*
X83945000Y-46712750D01*
X83695000Y-46712750D01*
X83601250Y-46619000D01*
X83445408Y-46619000D01*
X83411579Y-46633012D01*
X83403696Y-46620761D01*
X83228256Y-46500888D01*
X83050119Y-46464814D01*
X82132785Y-45547481D01*
X82132785Y-45212000D01*
X82096177Y-45017447D01*
X81981196Y-44838761D01*
X81971708Y-44832278D01*
X82090612Y-44658256D01*
X82132785Y-44450000D01*
X82132785Y-43942000D01*
X82096177Y-43747447D01*
X81981196Y-43568761D01*
X81971708Y-43562278D01*
X82090612Y-43388256D01*
X82132785Y-43180000D01*
X82132785Y-42672000D01*
X82096177Y-42477447D01*
X81981196Y-42298761D01*
X81971708Y-42292278D01*
X82090612Y-42118256D01*
X82132785Y-41910000D01*
X82132785Y-41402000D01*
X82096177Y-41207447D01*
X81981196Y-41028761D01*
X81845183Y-40935828D01*
X81895848Y-40813813D01*
X81896150Y-40467706D01*
X81763980Y-40147829D01*
X81519459Y-39902880D01*
X81199813Y-39770152D01*
X81043000Y-39770015D01*
X81043000Y-39090337D01*
X81137239Y-39029696D01*
X81257112Y-38854256D01*
X81299285Y-38646000D01*
X81299285Y-38064750D01*
X82389000Y-38064750D01*
X82389000Y-38720592D01*
X82446090Y-38858421D01*
X82551580Y-38963910D01*
X82689408Y-39021000D01*
X83045250Y-39021000D01*
X83139000Y-38927250D01*
X83139000Y-37971000D01*
X83389000Y-37971000D01*
X83389000Y-38927250D01*
X83482750Y-39021000D01*
X83838592Y-39021000D01*
X83976420Y-38963910D01*
X84081910Y-38858421D01*
X84114270Y-38780294D01*
X85235850Y-38780294D01*
X85368020Y-39100171D01*
X85612541Y-39345120D01*
X85932187Y-39477848D01*
X86278294Y-39478150D01*
X86595362Y-39347141D01*
X86603508Y-39359799D01*
X86507888Y-39499744D01*
X86465715Y-39708000D01*
X86465715Y-40508000D01*
X86502323Y-40702553D01*
X86597000Y-40849686D01*
X86597000Y-40911654D01*
X86431261Y-41018304D01*
X86311388Y-41193744D01*
X86269215Y-41402000D01*
X86269215Y-41910000D01*
X86305823Y-42104553D01*
X86420804Y-42283239D01*
X86564647Y-42381523D01*
X86486590Y-42459580D01*
X86429500Y-42597408D01*
X86429500Y-42707250D01*
X86523250Y-42801000D01*
X87251000Y-42801000D01*
X87251000Y-42781000D01*
X87501000Y-42781000D01*
X87501000Y-42801000D01*
X88228750Y-42801000D01*
X88322500Y-42707250D01*
X88322500Y-42674926D01*
X88392000Y-42689000D01*
X92710000Y-42689000D01*
X92907554Y-42650413D01*
X93081231Y-42535231D01*
X93589231Y-42027231D01*
X93666880Y-41911885D01*
X94881700Y-41911885D01*
X95076253Y-41875277D01*
X95254939Y-41760296D01*
X95374812Y-41584856D01*
X95416985Y-41376600D01*
X95416985Y-37871400D01*
X95380377Y-37676847D01*
X95265396Y-37498161D01*
X95089956Y-37378288D01*
X94881700Y-37336115D01*
X93665728Y-37336115D01*
X93589231Y-37220769D01*
X92065231Y-35696769D01*
X91898254Y-35584363D01*
X91694000Y-35543000D01*
X89826485Y-35543000D01*
X89821677Y-35517447D01*
X89706696Y-35338761D01*
X89531256Y-35218888D01*
X89323000Y-35176715D01*
X88413000Y-35176715D01*
X88218447Y-35213323D01*
X88039761Y-35328304D01*
X87919888Y-35503744D01*
X87877715Y-35712000D01*
X87877715Y-36932000D01*
X87914323Y-37126553D01*
X88029304Y-37305239D01*
X88121000Y-37367892D01*
X88121000Y-37825403D01*
X87959256Y-37714888D01*
X87751000Y-37672715D01*
X87001000Y-37672715D01*
X86806447Y-37709323D01*
X86627761Y-37824304D01*
X86596715Y-37869741D01*
X86279813Y-37738152D01*
X85933706Y-37737850D01*
X85613829Y-37870020D01*
X85368880Y-38114541D01*
X85236152Y-38434187D01*
X85235850Y-38780294D01*
X84114270Y-38780294D01*
X84139000Y-38720592D01*
X84139000Y-38064750D01*
X84045250Y-37971000D01*
X83389000Y-37971000D01*
X83139000Y-37971000D01*
X82482750Y-37971000D01*
X82389000Y-38064750D01*
X81299285Y-38064750D01*
X81299285Y-37046000D01*
X81285250Y-36971408D01*
X82389000Y-36971408D01*
X82389000Y-37627250D01*
X82482750Y-37721000D01*
X83139000Y-37721000D01*
X83139000Y-36764750D01*
X83389000Y-36764750D01*
X83389000Y-37721000D01*
X84045250Y-37721000D01*
X84139000Y-37627250D01*
X84139000Y-36971408D01*
X84081910Y-36833579D01*
X83976420Y-36728090D01*
X83838592Y-36671000D01*
X83482750Y-36671000D01*
X83389000Y-36764750D01*
X83139000Y-36764750D01*
X83045250Y-36671000D01*
X82689408Y-36671000D01*
X82551580Y-36728090D01*
X82446090Y-36833579D01*
X82389000Y-36971408D01*
X81285250Y-36971408D01*
X81262677Y-36851447D01*
X81147696Y-36672761D01*
X81043000Y-36601225D01*
X81043000Y-36576000D01*
X81036115Y-36540750D01*
X84768000Y-36540750D01*
X84768000Y-37006592D01*
X84825090Y-37144421D01*
X84930580Y-37249910D01*
X85068408Y-37307000D01*
X85379250Y-37307000D01*
X85473000Y-37213250D01*
X85473000Y-36447000D01*
X85723000Y-36447000D01*
X85723000Y-37213250D01*
X85816750Y-37307000D01*
X86127592Y-37307000D01*
X86265420Y-37249910D01*
X86370910Y-37144421D01*
X86428000Y-37006592D01*
X86428000Y-36540750D01*
X86334250Y-36447000D01*
X85723000Y-36447000D01*
X85473000Y-36447000D01*
X84861750Y-36447000D01*
X84768000Y-36540750D01*
X81036115Y-36540750D01*
X81004413Y-36378446D01*
X80889231Y-36204769D01*
X80321870Y-35637408D01*
X84768000Y-35637408D01*
X84768000Y-36103250D01*
X84861750Y-36197000D01*
X85473000Y-36197000D01*
X85473000Y-35430750D01*
X85723000Y-35430750D01*
X85723000Y-36197000D01*
X86334250Y-36197000D01*
X86428000Y-36103250D01*
X86428000Y-35637408D01*
X86370910Y-35499579D01*
X86265420Y-35394090D01*
X86127592Y-35337000D01*
X85816750Y-35337000D01*
X85723000Y-35430750D01*
X85473000Y-35430750D01*
X85379250Y-35337000D01*
X85068408Y-35337000D01*
X84930580Y-35394090D01*
X84825090Y-35499579D01*
X84768000Y-35637408D01*
X80321870Y-35637408D01*
X79619231Y-34934769D01*
X79452254Y-34822363D01*
X79248000Y-34781000D01*
X76582658Y-34781000D01*
X76447092Y-34578112D01*
X75996598Y-34277101D01*
X75465204Y-34171400D01*
X75410796Y-34171400D01*
X74879402Y-34277101D01*
X74428908Y-34578112D01*
X74127897Y-35028606D01*
X74088489Y-35226721D01*
X73968414Y-34936806D01*
X73648448Y-34574614D01*
X73214233Y-34362438D01*
X73023000Y-34421462D01*
X73023000Y-35435000D01*
X73043000Y-35435000D01*
X73043000Y-35685000D01*
X73023000Y-35685000D01*
X73023000Y-36698538D01*
X73214233Y-36757562D01*
X73648448Y-36545386D01*
X73968414Y-36183194D01*
X74088489Y-35893279D01*
X74127897Y-36091394D01*
X74428908Y-36541888D01*
X74659000Y-36695631D01*
X74659000Y-36964369D01*
X74428908Y-37118112D01*
X74136600Y-37555581D01*
X74136600Y-37161808D01*
X74079510Y-37023979D01*
X73974020Y-36918490D01*
X73836192Y-36861400D01*
X73116750Y-36861400D01*
X73023000Y-36955150D01*
X73023000Y-37975000D01*
X73043000Y-37975000D01*
X73043000Y-38225000D01*
X73023000Y-38225000D01*
X73023000Y-39244850D01*
X73116750Y-39338600D01*
X73836192Y-39338600D01*
X73974020Y-39281510D01*
X74079510Y-39176021D01*
X74136600Y-39038192D01*
X74136600Y-38644419D01*
X74428908Y-39081888D01*
X74659000Y-39235631D01*
X74659000Y-39370000D01*
X74697587Y-39567554D01*
X74812769Y-39741231D01*
X77256538Y-42185000D01*
X76780785Y-42185000D01*
X76527652Y-41806158D01*
X76027715Y-41472112D01*
X75438000Y-41354810D01*
X74848285Y-41472112D01*
X74348348Y-41806158D01*
X74289000Y-41894979D01*
X74289000Y-41835408D01*
X74231910Y-41697580D01*
X74126421Y-41592090D01*
X73988592Y-41535000D01*
X73116750Y-41535000D01*
X73023000Y-41628750D01*
X73023000Y-42801000D01*
X73043000Y-42801000D01*
X73043000Y-43051000D01*
X73023000Y-43051000D01*
X73023000Y-44223250D01*
X73116750Y-44317000D01*
X73988592Y-44317000D01*
X74126421Y-44259910D01*
X74231910Y-44154420D01*
X74289000Y-44016592D01*
X74289000Y-43957021D01*
X74348348Y-44045842D01*
X74848285Y-44379888D01*
X75438000Y-44497190D01*
X76027715Y-44379888D01*
X76527652Y-44045842D01*
X76802167Y-43635000D01*
X77086715Y-43635000D01*
X77123323Y-43829553D01*
X77238304Y-44008239D01*
X77413744Y-44128112D01*
X77622000Y-44170285D01*
X78248411Y-44170285D01*
X77057696Y-45361000D01*
X75272000Y-45361000D01*
X74994554Y-45416187D01*
X74759348Y-45573347D01*
X74381981Y-45950715D01*
X73972000Y-45950715D01*
X73777447Y-45987323D01*
X73598761Y-46102304D01*
X73478888Y-46277744D01*
X73436715Y-46486000D01*
X73436715Y-46986000D01*
X73473323Y-47180553D01*
X73588304Y-47359239D01*
X73763744Y-47479112D01*
X73791362Y-47484705D01*
X73777447Y-47487323D01*
X73598761Y-47602304D01*
X73478888Y-47777744D01*
X73436715Y-47986000D01*
X73436715Y-48486000D01*
X73473323Y-48680553D01*
X73588304Y-48859239D01*
X73697000Y-48933508D01*
X73697000Y-50398095D01*
X73358430Y-50736666D01*
X73080590Y-50681400D01*
X72715410Y-50681400D01*
X72184016Y-50787101D01*
X71733522Y-51088112D01*
X71432511Y-51538606D01*
X71326810Y-52070000D01*
X70958000Y-52070000D01*
X70958000Y-43144750D01*
X71507000Y-43144750D01*
X71507000Y-44016592D01*
X71564090Y-44154420D01*
X71669579Y-44259910D01*
X71807408Y-44317000D01*
X72679250Y-44317000D01*
X72773000Y-44223250D01*
X72773000Y-43051000D01*
X71600750Y-43051000D01*
X71507000Y-43144750D01*
X70958000Y-43144750D01*
X70958000Y-41835408D01*
X71507000Y-41835408D01*
X71507000Y-42707250D01*
X71600750Y-42801000D01*
X72773000Y-42801000D01*
X72773000Y-41628750D01*
X72679250Y-41535000D01*
X71807408Y-41535000D01*
X71669579Y-41592090D01*
X71564090Y-41697580D01*
X71507000Y-41835408D01*
X70958000Y-41835408D01*
X70958000Y-38318750D01*
X71659400Y-38318750D01*
X71659400Y-39038192D01*
X71716490Y-39176021D01*
X71821980Y-39281510D01*
X71959808Y-39338600D01*
X72679250Y-39338600D01*
X72773000Y-39244850D01*
X72773000Y-38225000D01*
X71753150Y-38225000D01*
X71659400Y-38318750D01*
X70958000Y-38318750D01*
X70958000Y-37161808D01*
X71659400Y-37161808D01*
X71659400Y-37881250D01*
X71753150Y-37975000D01*
X72773000Y-37975000D01*
X72773000Y-36955150D01*
X72679250Y-36861400D01*
X71959808Y-36861400D01*
X71821980Y-36918490D01*
X71716490Y-37023979D01*
X71659400Y-37161808D01*
X70958000Y-37161808D01*
X70958000Y-35876231D01*
X71700450Y-35876231D01*
X71827586Y-36183194D01*
X72147552Y-36545386D01*
X72581767Y-36757562D01*
X72773000Y-36698538D01*
X72773000Y-35685000D01*
X71759994Y-35685000D01*
X71700450Y-35876231D01*
X70958000Y-35876231D01*
X70958000Y-35243769D01*
X71700450Y-35243769D01*
X71759994Y-35435000D01*
X72773000Y-35435000D01*
X72773000Y-34421462D01*
X72581767Y-34362438D01*
X72147552Y-34574614D01*
X71827586Y-34936806D01*
X71700450Y-35243769D01*
X70958000Y-35243769D01*
X70958000Y-33620000D01*
X84709000Y-33620000D01*
X84938610Y-33574328D01*
X85133264Y-33444264D01*
X85263328Y-33249610D01*
X85309000Y-33020000D01*
X85309000Y-30351387D01*
X85326557Y-30351387D01*
X85715017Y-31291532D01*
X86433684Y-32011455D01*
X87373150Y-32401556D01*
X88390387Y-32402443D01*
X89330532Y-32013983D01*
X90050455Y-31295316D01*
X90440556Y-30355850D01*
X90441443Y-29338613D01*
X90052983Y-28398468D01*
X89334316Y-27678545D01*
X88394850Y-27288444D01*
X87377613Y-27287557D01*
X86437468Y-27676017D01*
X85717545Y-28394684D01*
X85327444Y-29334150D01*
X85326557Y-30351387D01*
X85309000Y-30351387D01*
X85309000Y-27270000D01*
X90459000Y-27270000D01*
X90459000Y-33020000D01*
X90459000Y-33020000D01*
G37*
X90459000Y-33020000D02*
X90504672Y-33249610D01*
X90634736Y-33444264D01*
X90829390Y-33574328D01*
X91059000Y-33620000D01*
X104810000Y-33620000D01*
X104810000Y-59090000D01*
X91059000Y-59090000D01*
X90829390Y-59135672D01*
X90634736Y-59265736D01*
X90504672Y-59460390D01*
X90459000Y-59690000D01*
X90459000Y-65440000D01*
X85309000Y-65440000D01*
X85309000Y-63371387D01*
X85326557Y-63371387D01*
X85715017Y-64311532D01*
X86433684Y-65031455D01*
X87373150Y-65421556D01*
X88390387Y-65422443D01*
X89330532Y-65033983D01*
X90050455Y-64315316D01*
X90440556Y-63375850D01*
X90441443Y-62358613D01*
X90052983Y-61418468D01*
X89334316Y-60698545D01*
X88394850Y-60308444D01*
X87377613Y-60307557D01*
X86437468Y-60696017D01*
X85717545Y-61414684D01*
X85327444Y-62354150D01*
X85326557Y-63371387D01*
X85309000Y-63371387D01*
X85309000Y-59690000D01*
X85263328Y-59460390D01*
X85133264Y-59265736D01*
X84938610Y-59135672D01*
X84709000Y-59090000D01*
X70958000Y-59090000D01*
X70958000Y-57368750D01*
X71507000Y-57368750D01*
X71507000Y-58088192D01*
X71564090Y-58226021D01*
X71669580Y-58331510D01*
X71807408Y-58388600D01*
X72679250Y-58388600D01*
X72773000Y-58294850D01*
X72773000Y-57275000D01*
X73023000Y-57275000D01*
X73023000Y-58294850D01*
X73116750Y-58388600D01*
X73988592Y-58388600D01*
X74126420Y-58331510D01*
X74231910Y-58226021D01*
X74289000Y-58088192D01*
X74289000Y-57466233D01*
X77288438Y-57466233D01*
X77500614Y-57900448D01*
X77862806Y-58220414D01*
X78169769Y-58347550D01*
X78361000Y-58288006D01*
X78361000Y-57275000D01*
X78611000Y-57275000D01*
X78611000Y-58288006D01*
X78802231Y-58347550D01*
X79109194Y-58220414D01*
X79471386Y-57900448D01*
X79683562Y-57466233D01*
X79828438Y-57466233D01*
X80040614Y-57900448D01*
X80402806Y-58220414D01*
X80709769Y-58347550D01*
X80901000Y-58288006D01*
X80901000Y-57275000D01*
X81151000Y-57275000D01*
X81151000Y-58288006D01*
X81342231Y-58347550D01*
X81649194Y-58220414D01*
X82011386Y-57900448D01*
X82223562Y-57466233D01*
X82368438Y-57466233D01*
X82580614Y-57900448D01*
X82942806Y-58220414D01*
X83249769Y-58347550D01*
X83441000Y-58288006D01*
X83441000Y-57275000D01*
X83691000Y-57275000D01*
X83691000Y-58288006D01*
X83882231Y-58347550D01*
X84189194Y-58220414D01*
X84551386Y-57900448D01*
X84763562Y-57466233D01*
X84908438Y-57466233D01*
X85120614Y-57900448D01*
X85482806Y-58220414D01*
X85789769Y-58347550D01*
X85981000Y-58288006D01*
X85981000Y-57275000D01*
X86231000Y-57275000D01*
X86231000Y-58288006D01*
X86422231Y-58347550D01*
X86729194Y-58220414D01*
X87091386Y-57900448D01*
X87303562Y-57466233D01*
X87448438Y-57466233D01*
X87660614Y-57900448D01*
X88022806Y-58220414D01*
X88329769Y-58347550D01*
X88521000Y-58288006D01*
X88521000Y-57275000D01*
X88771000Y-57275000D01*
X88771000Y-58288006D01*
X88962231Y-58347550D01*
X89269194Y-58220414D01*
X89631386Y-57900448D01*
X89843562Y-57466233D01*
X89988438Y-57466233D01*
X90200614Y-57900448D01*
X90562806Y-58220414D01*
X90869769Y-58347550D01*
X91061000Y-58288006D01*
X91061000Y-57275000D01*
X91311000Y-57275000D01*
X91311000Y-58288006D01*
X91502231Y-58347550D01*
X91809194Y-58220414D01*
X92171386Y-57900448D01*
X92383562Y-57466233D01*
X92528438Y-57466233D01*
X92740614Y-57900448D01*
X93102806Y-58220414D01*
X93409769Y-58347550D01*
X93601000Y-58288006D01*
X93601000Y-57275000D01*
X93851000Y-57275000D01*
X93851000Y-58288006D01*
X94042231Y-58347550D01*
X94349194Y-58220414D01*
X94711386Y-57900448D01*
X94923562Y-57466233D01*
X94893474Y-57368750D01*
X95027400Y-57368750D01*
X95027400Y-58088192D01*
X95084490Y-58226020D01*
X95189979Y-58331510D01*
X95327808Y-58388600D01*
X96047250Y-58388600D01*
X96141000Y-58294850D01*
X96141000Y-57275000D01*
X96391000Y-57275000D01*
X96391000Y-58294850D01*
X96484750Y-58388600D01*
X97204192Y-58388600D01*
X97342021Y-58331510D01*
X97447510Y-58226020D01*
X97504600Y-58088192D01*
X97504600Y-57368750D01*
X97410850Y-57275000D01*
X96391000Y-57275000D01*
X96141000Y-57275000D01*
X95121150Y-57275000D01*
X95027400Y-57368750D01*
X94893474Y-57368750D01*
X94864538Y-57275000D01*
X93851000Y-57275000D01*
X93601000Y-57275000D01*
X92587462Y-57275000D01*
X92528438Y-57466233D01*
X92383562Y-57466233D01*
X92324538Y-57275000D01*
X91311000Y-57275000D01*
X91061000Y-57275000D01*
X90047462Y-57275000D01*
X89988438Y-57466233D01*
X89843562Y-57466233D01*
X89784538Y-57275000D01*
X88771000Y-57275000D01*
X88521000Y-57275000D01*
X87507462Y-57275000D01*
X87448438Y-57466233D01*
X87303562Y-57466233D01*
X87244538Y-57275000D01*
X86231000Y-57275000D01*
X85981000Y-57275000D01*
X84967462Y-57275000D01*
X84908438Y-57466233D01*
X84763562Y-57466233D01*
X84704538Y-57275000D01*
X83691000Y-57275000D01*
X83441000Y-57275000D01*
X82427462Y-57275000D01*
X82368438Y-57466233D01*
X82223562Y-57466233D01*
X82164538Y-57275000D01*
X81151000Y-57275000D01*
X80901000Y-57275000D01*
X79887462Y-57275000D01*
X79828438Y-57466233D01*
X79683562Y-57466233D01*
X79624538Y-57275000D01*
X78611000Y-57275000D01*
X78361000Y-57275000D01*
X77347462Y-57275000D01*
X77288438Y-57466233D01*
X74289000Y-57466233D01*
X74289000Y-57368750D01*
X74195250Y-57275000D01*
X73023000Y-57275000D01*
X72773000Y-57275000D01*
X71600750Y-57275000D01*
X71507000Y-57368750D01*
X70958000Y-57368750D01*
X70958000Y-52070000D01*
X71326810Y-52070000D01*
X71432511Y-52601394D01*
X71733522Y-53051888D01*
X72164711Y-53340000D01*
X71733522Y-53628112D01*
X71432511Y-54078606D01*
X71326810Y-54610000D01*
X71432511Y-55141394D01*
X71733522Y-55591888D01*
X72184016Y-55892899D01*
X72277027Y-55911400D01*
X71807408Y-55911400D01*
X71669580Y-55968490D01*
X71564090Y-56073979D01*
X71507000Y-56211808D01*
X71507000Y-56931250D01*
X71600750Y-57025000D01*
X72773000Y-57025000D01*
X72773000Y-57005000D01*
X73023000Y-57005000D01*
X73023000Y-57025000D01*
X74195250Y-57025000D01*
X74289000Y-56931250D01*
X74289000Y-56211808D01*
X74231910Y-56073979D01*
X74126420Y-55968490D01*
X73988592Y-55911400D01*
X73518973Y-55911400D01*
X73611984Y-55892899D01*
X74062478Y-55591888D01*
X74363489Y-55141394D01*
X74469190Y-54610000D01*
X74463779Y-54582796D01*
X77097400Y-54582796D01*
X77097400Y-54637204D01*
X77203101Y-55168598D01*
X77504112Y-55619092D01*
X77954606Y-55920103D01*
X78152721Y-55959511D01*
X77862806Y-56079586D01*
X77500614Y-56399552D01*
X77288438Y-56833767D01*
X77347462Y-57025000D01*
X78361000Y-57025000D01*
X78361000Y-57005000D01*
X78611000Y-57005000D01*
X78611000Y-57025000D01*
X79624538Y-57025000D01*
X79683562Y-56833767D01*
X79471386Y-56399552D01*
X79109194Y-56079586D01*
X78819279Y-55959511D01*
X79017394Y-55920103D01*
X79467888Y-55619092D01*
X79756000Y-55187903D01*
X80044112Y-55619092D01*
X80494606Y-55920103D01*
X80692721Y-55959511D01*
X80402806Y-56079586D01*
X80040614Y-56399552D01*
X79828438Y-56833767D01*
X79887462Y-57025000D01*
X80901000Y-57025000D01*
X80901000Y-57005000D01*
X81151000Y-57005000D01*
X81151000Y-57025000D01*
X82164538Y-57025000D01*
X82223562Y-56833767D01*
X82011386Y-56399552D01*
X81649194Y-56079586D01*
X81359279Y-55959511D01*
X81557394Y-55920103D01*
X82007888Y-55619092D01*
X82296000Y-55187903D01*
X82584112Y-55619092D01*
X83034606Y-55920103D01*
X83232721Y-55959511D01*
X82942806Y-56079586D01*
X82580614Y-56399552D01*
X82368438Y-56833767D01*
X82427462Y-57025000D01*
X83441000Y-57025000D01*
X83441000Y-57005000D01*
X83691000Y-57005000D01*
X83691000Y-57025000D01*
X84704538Y-57025000D01*
X84763562Y-56833767D01*
X84551386Y-56399552D01*
X84189194Y-56079586D01*
X83899279Y-55959511D01*
X84097394Y-55920103D01*
X84547888Y-55619092D01*
X84836000Y-55187903D01*
X85124112Y-55619092D01*
X85574606Y-55920103D01*
X85772721Y-55959511D01*
X85482806Y-56079586D01*
X85120614Y-56399552D01*
X84908438Y-56833767D01*
X84967462Y-57025000D01*
X85981000Y-57025000D01*
X85981000Y-57005000D01*
X86231000Y-57005000D01*
X86231000Y-57025000D01*
X87244538Y-57025000D01*
X87303562Y-56833767D01*
X87091386Y-56399552D01*
X86729194Y-56079586D01*
X86439279Y-55959511D01*
X86637394Y-55920103D01*
X87087888Y-55619092D01*
X87376000Y-55187903D01*
X87664112Y-55619092D01*
X88114606Y-55920103D01*
X88312721Y-55959511D01*
X88022806Y-56079586D01*
X87660614Y-56399552D01*
X87448438Y-56833767D01*
X87507462Y-57025000D01*
X88521000Y-57025000D01*
X88521000Y-57005000D01*
X88771000Y-57005000D01*
X88771000Y-57025000D01*
X89784538Y-57025000D01*
X89843562Y-56833767D01*
X89631386Y-56399552D01*
X89269194Y-56079586D01*
X88979279Y-55959511D01*
X89177394Y-55920103D01*
X89627888Y-55619092D01*
X89916000Y-55187903D01*
X90204112Y-55619092D01*
X90654606Y-55920103D01*
X90852721Y-55959511D01*
X90562806Y-56079586D01*
X90200614Y-56399552D01*
X89988438Y-56833767D01*
X90047462Y-57025000D01*
X91061000Y-57025000D01*
X91061000Y-57005000D01*
X91311000Y-57005000D01*
X91311000Y-57025000D01*
X92324538Y-57025000D01*
X92383562Y-56833767D01*
X92171386Y-56399552D01*
X91809194Y-56079586D01*
X91519279Y-55959511D01*
X91717394Y-55920103D01*
X92167888Y-55619092D01*
X92456000Y-55187903D01*
X92744112Y-55619092D01*
X93194606Y-55920103D01*
X93392721Y-55959511D01*
X93102806Y-56079586D01*
X92740614Y-56399552D01*
X92528438Y-56833767D01*
X92587462Y-57025000D01*
X93601000Y-57025000D01*
X93601000Y-57005000D01*
X93851000Y-57005000D01*
X93851000Y-57025000D01*
X94864538Y-57025000D01*
X94923562Y-56833767D01*
X94711386Y-56399552D01*
X94349194Y-56079586D01*
X94059279Y-55959511D01*
X94257394Y-55920103D01*
X94707888Y-55619092D01*
X94996000Y-55187903D01*
X95284112Y-55619092D01*
X95721581Y-55911400D01*
X95327808Y-55911400D01*
X95189979Y-55968490D01*
X95084490Y-56073980D01*
X95027400Y-56211808D01*
X95027400Y-56931250D01*
X95121150Y-57025000D01*
X96141000Y-57025000D01*
X96141000Y-57005000D01*
X96391000Y-57005000D01*
X96391000Y-57025000D01*
X97410850Y-57025000D01*
X97504600Y-56931250D01*
X97504600Y-56211808D01*
X97447510Y-56073980D01*
X97342021Y-55968490D01*
X97204192Y-55911400D01*
X96810419Y-55911400D01*
X97247888Y-55619092D01*
X97548899Y-55168598D01*
X97654600Y-54637204D01*
X97654600Y-54582796D01*
X97548899Y-54051402D01*
X97413677Y-53849028D01*
X98711209Y-55002390D01*
X98855746Y-55093637D01*
X99060000Y-55135000D01*
X99185342Y-55135000D01*
X99320908Y-55337888D01*
X99771402Y-55638899D01*
X100302796Y-55744600D01*
X100357204Y-55744600D01*
X100888598Y-55638899D01*
X101339092Y-55337888D01*
X101640103Y-54887394D01*
X101679511Y-54689279D01*
X101799586Y-54979194D01*
X102119552Y-55341386D01*
X102553767Y-55553562D01*
X102745000Y-55494538D01*
X102745000Y-54481000D01*
X102995000Y-54481000D01*
X102995000Y-55494538D01*
X103186233Y-55553562D01*
X103620448Y-55341386D01*
X103940414Y-54979194D01*
X104067550Y-54672231D01*
X104008006Y-54481000D01*
X102995000Y-54481000D01*
X102745000Y-54481000D01*
X102725000Y-54481000D01*
X102725000Y-54231000D01*
X102745000Y-54231000D01*
X102745000Y-53217462D01*
X102995000Y-53217462D01*
X102995000Y-54231000D01*
X104008006Y-54231000D01*
X104067550Y-54039769D01*
X103940414Y-53732806D01*
X103620448Y-53370614D01*
X103186233Y-53158438D01*
X102995000Y-53217462D01*
X102745000Y-53217462D01*
X102553767Y-53158438D01*
X102119552Y-53370614D01*
X101799586Y-53732806D01*
X101679511Y-54022721D01*
X101640103Y-53824606D01*
X101339092Y-53374112D01*
X101109000Y-53220369D01*
X101109000Y-52951631D01*
X101339092Y-52797888D01*
X101640103Y-52347394D01*
X101679511Y-52149279D01*
X101799586Y-52439194D01*
X102119552Y-52801386D01*
X102553767Y-53013562D01*
X102745000Y-52954538D01*
X102745000Y-51941000D01*
X102995000Y-51941000D01*
X102995000Y-52954538D01*
X103186233Y-53013562D01*
X103620448Y-52801386D01*
X103940414Y-52439194D01*
X104067550Y-52132231D01*
X104008006Y-51941000D01*
X102995000Y-51941000D01*
X102745000Y-51941000D01*
X102725000Y-51941000D01*
X102725000Y-51691000D01*
X102745000Y-51691000D01*
X102745000Y-50677462D01*
X102995000Y-50677462D01*
X102995000Y-51691000D01*
X104008006Y-51691000D01*
X104067550Y-51499769D01*
X103940414Y-51192806D01*
X103620448Y-50830614D01*
X103186233Y-50618438D01*
X102995000Y-50677462D01*
X102745000Y-50677462D01*
X102553767Y-50618438D01*
X102119552Y-50830614D01*
X101799586Y-51192806D01*
X101679511Y-51482721D01*
X101640103Y-51284606D01*
X101339092Y-50834112D01*
X101109000Y-50680369D01*
X101109000Y-50411631D01*
X101339092Y-50257888D01*
X101640103Y-49807394D01*
X101679511Y-49609279D01*
X101799586Y-49899194D01*
X102119552Y-50261386D01*
X102553767Y-50473562D01*
X102745000Y-50414538D01*
X102745000Y-49401000D01*
X102995000Y-49401000D01*
X102995000Y-50414538D01*
X103186233Y-50473562D01*
X103620448Y-50261386D01*
X103940414Y-49899194D01*
X104067550Y-49592231D01*
X104008006Y-49401000D01*
X102995000Y-49401000D01*
X102745000Y-49401000D01*
X102725000Y-49401000D01*
X102725000Y-49151000D01*
X102745000Y-49151000D01*
X102745000Y-48137462D01*
X102995000Y-48137462D01*
X102995000Y-49151000D01*
X104008006Y-49151000D01*
X104067550Y-48959769D01*
X103940414Y-48652806D01*
X103620448Y-48290614D01*
X103186233Y-48078438D01*
X102995000Y-48137462D01*
X102745000Y-48137462D01*
X102553767Y-48078438D01*
X102119552Y-48290614D01*
X101799586Y-48652806D01*
X101679511Y-48942721D01*
X101640103Y-48744606D01*
X101339092Y-48294112D01*
X101109000Y-48140369D01*
X101109000Y-47871631D01*
X101339092Y-47717888D01*
X101631400Y-47280419D01*
X101631400Y-47674192D01*
X101688490Y-47812021D01*
X101793980Y-47917510D01*
X101931808Y-47974600D01*
X102651250Y-47974600D01*
X102745000Y-47880850D01*
X102745000Y-46861000D01*
X102995000Y-46861000D01*
X102995000Y-47880850D01*
X103088750Y-47974600D01*
X103808192Y-47974600D01*
X103946020Y-47917510D01*
X104051510Y-47812021D01*
X104108600Y-47674192D01*
X104108600Y-46954750D01*
X104014850Y-46861000D01*
X102995000Y-46861000D01*
X102745000Y-46861000D01*
X102725000Y-46861000D01*
X102725000Y-46611000D01*
X102745000Y-46611000D01*
X102745000Y-45591150D01*
X102995000Y-45591150D01*
X102995000Y-46611000D01*
X104014850Y-46611000D01*
X104108600Y-46517250D01*
X104108600Y-45797808D01*
X104051510Y-45659979D01*
X103946020Y-45554490D01*
X103808192Y-45497400D01*
X103088750Y-45497400D01*
X102995000Y-45591150D01*
X102745000Y-45591150D01*
X102651250Y-45497400D01*
X101931808Y-45497400D01*
X101793980Y-45554490D01*
X101688490Y-45659979D01*
X101631400Y-45797808D01*
X101631400Y-46191581D01*
X101339092Y-45754112D01*
X101311072Y-45735390D01*
X102733231Y-44313231D01*
X102845637Y-44146254D01*
X102887000Y-43942000D01*
X102887000Y-41911885D01*
X104152700Y-41911885D01*
X104347253Y-41875277D01*
X104525939Y-41760296D01*
X104645812Y-41584856D01*
X104687985Y-41376600D01*
X104687985Y-37871400D01*
X104651377Y-37676847D01*
X104536396Y-37498161D01*
X104360956Y-37378288D01*
X104152700Y-37336115D01*
X100063300Y-37336115D01*
X99868747Y-37372723D01*
X99690061Y-37487704D01*
X99570188Y-37663144D01*
X99528015Y-37871400D01*
X99528015Y-38852810D01*
X99370446Y-38883587D01*
X99196769Y-38998769D01*
X98688769Y-39506769D01*
X98576363Y-39673746D01*
X98535000Y-39878000D01*
X98535000Y-42454538D01*
X97672769Y-43316769D01*
X97560363Y-43483746D01*
X97519000Y-43688000D01*
X97519000Y-44893000D01*
X96992750Y-44893000D01*
X96899000Y-44986750D01*
X96899000Y-45643000D01*
X96919000Y-45643000D01*
X96919000Y-45893000D01*
X96899000Y-45893000D01*
X96899000Y-46549250D01*
X96939644Y-46589894D01*
X96148769Y-47380769D01*
X96036363Y-47547746D01*
X95998905Y-47732715D01*
X95974000Y-47732715D01*
X95779447Y-47769323D01*
X95600761Y-47884304D01*
X95480888Y-48059744D01*
X95438715Y-48268000D01*
X95438715Y-49268000D01*
X95448978Y-49322543D01*
X95401000Y-49313000D01*
X94584789Y-49313000D01*
X94534000Y-49302715D01*
X93934000Y-49302715D01*
X93879340Y-49313000D01*
X92552789Y-49313000D01*
X92502000Y-49302715D01*
X91902000Y-49302715D01*
X91847340Y-49313000D01*
X90774789Y-49313000D01*
X90724000Y-49302715D01*
X90124000Y-49302715D01*
X90069340Y-49313000D01*
X89169119Y-49313000D01*
X88996256Y-49194888D01*
X88863000Y-49167903D01*
X88863000Y-46228000D01*
X88856123Y-46193428D01*
X88979347Y-46316652D01*
X89136508Y-46421663D01*
X89214555Y-46473813D01*
X89303053Y-46491416D01*
X89457744Y-46597112D01*
X89666000Y-46639285D01*
X89725981Y-46639285D01*
X90589347Y-47502652D01*
X90658715Y-47549002D01*
X90658715Y-47615000D01*
X90695323Y-47809553D01*
X90810304Y-47988239D01*
X90985744Y-48108112D01*
X91194000Y-48150285D01*
X92194000Y-48150285D01*
X92388553Y-48113677D01*
X92567239Y-47998696D01*
X92687112Y-47823256D01*
X92729285Y-47615000D01*
X92729285Y-47208750D01*
X92819000Y-47208750D01*
X92819000Y-47689592D01*
X92876090Y-47827421D01*
X92981580Y-47932910D01*
X93119408Y-47990000D01*
X93475250Y-47990000D01*
X93569000Y-47896250D01*
X93569000Y-47115000D01*
X93819000Y-47115000D01*
X93819000Y-47896250D01*
X93912750Y-47990000D01*
X94268592Y-47990000D01*
X94406420Y-47932910D01*
X94511910Y-47827421D01*
X94569000Y-47689592D01*
X94569000Y-47208750D01*
X94475250Y-47115000D01*
X93819000Y-47115000D01*
X93569000Y-47115000D01*
X92912750Y-47115000D01*
X92819000Y-47208750D01*
X92729285Y-47208750D01*
X92729285Y-46365000D01*
X92715250Y-46290408D01*
X92819000Y-46290408D01*
X92819000Y-46771250D01*
X92912750Y-46865000D01*
X93569000Y-46865000D01*
X93569000Y-46083750D01*
X93819000Y-46083750D01*
X93819000Y-46865000D01*
X94475250Y-46865000D01*
X94569000Y-46771250D01*
X94569000Y-46290408D01*
X94511910Y-46152579D01*
X94406420Y-46047090D01*
X94268592Y-45990000D01*
X93912750Y-45990000D01*
X93819000Y-46083750D01*
X93569000Y-46083750D01*
X93475250Y-45990000D01*
X93119408Y-45990000D01*
X92981580Y-46047090D01*
X92876090Y-46152579D01*
X92819000Y-46290408D01*
X92715250Y-46290408D01*
X92692677Y-46170447D01*
X92577696Y-45991761D01*
X92570363Y-45986750D01*
X95599000Y-45986750D01*
X95599000Y-46342592D01*
X95656090Y-46480420D01*
X95761579Y-46585910D01*
X95899408Y-46643000D01*
X96555250Y-46643000D01*
X96649000Y-46549250D01*
X96649000Y-45893000D01*
X95692750Y-45893000D01*
X95599000Y-45986750D01*
X92570363Y-45986750D01*
X92402256Y-45871888D01*
X92194000Y-45829715D01*
X91194000Y-45829715D01*
X91002965Y-45865661D01*
X90820304Y-45683000D01*
X91089211Y-45683000D01*
X91140000Y-45693285D01*
X91740000Y-45693285D01*
X91934553Y-45656677D01*
X92113239Y-45541696D01*
X92233112Y-45366256D01*
X92268114Y-45193408D01*
X95599000Y-45193408D01*
X95599000Y-45549250D01*
X95692750Y-45643000D01*
X96649000Y-45643000D01*
X96649000Y-44986750D01*
X96555250Y-44893000D01*
X95899408Y-44893000D01*
X95761579Y-44950090D01*
X95656090Y-45055580D01*
X95599000Y-45193408D01*
X92268114Y-45193408D01*
X92275285Y-45158000D01*
X92275285Y-44758000D01*
X92238677Y-44563447D01*
X92123696Y-44384761D01*
X92100076Y-44368622D01*
X92115000Y-44332592D01*
X92115000Y-44251750D01*
X92021250Y-44158000D01*
X91565000Y-44158000D01*
X91565000Y-44203000D01*
X91315000Y-44203000D01*
X91315000Y-44158000D01*
X91295000Y-44158000D01*
X91295000Y-43958000D01*
X91315000Y-43958000D01*
X91315000Y-43576750D01*
X91565000Y-43576750D01*
X91565000Y-43958000D01*
X92021250Y-43958000D01*
X92115000Y-43864250D01*
X92115000Y-43783408D01*
X92057910Y-43645580D01*
X91952421Y-43540090D01*
X91814592Y-43483000D01*
X91658750Y-43483000D01*
X91565000Y-43576750D01*
X91315000Y-43576750D01*
X91221250Y-43483000D01*
X91065408Y-43483000D01*
X90927579Y-43540090D01*
X90822090Y-43645580D01*
X90765000Y-43783408D01*
X90765000Y-43864250D01*
X90833748Y-43932998D01*
X90765000Y-43932998D01*
X90765000Y-44018583D01*
X90566000Y-43979000D01*
X90473941Y-43979000D01*
X90374256Y-43910888D01*
X90166000Y-43868715D01*
X89666000Y-43868715D01*
X89471447Y-43905323D01*
X89292761Y-44020304D01*
X89172888Y-44195744D01*
X89130715Y-44404000D01*
X89130715Y-44417411D01*
X88419872Y-43706568D01*
X88331196Y-43568761D01*
X88187353Y-43470477D01*
X88265410Y-43392420D01*
X88322500Y-43254592D01*
X88322500Y-43144750D01*
X88228750Y-43051000D01*
X87501000Y-43051000D01*
X87501000Y-43071000D01*
X87251000Y-43071000D01*
X87251000Y-43051000D01*
X86523250Y-43051000D01*
X86429500Y-43144750D01*
X86429500Y-43254592D01*
X86486590Y-43392420D01*
X86565861Y-43471692D01*
X86431261Y-43558304D01*
X86311388Y-43733744D01*
X86269215Y-43942000D01*
X86269215Y-44450000D01*
X86305823Y-44644553D01*
X86420804Y-44823239D01*
X86430292Y-44829722D01*
X86311388Y-45003744D01*
X86269215Y-45212000D01*
X86269215Y-45720000D01*
X86305823Y-45914553D01*
X86420804Y-46093239D01*
X86596244Y-46213112D01*
X86804500Y-46255285D01*
X87139981Y-46255285D01*
X87413000Y-46528305D01*
X87413000Y-49166827D01*
X87293447Y-49189323D01*
X87114761Y-49304304D01*
X87108819Y-49313000D01*
X86282764Y-49313000D01*
X86256256Y-49294888D01*
X86048000Y-49252715D01*
X85148000Y-49252715D01*
X84953447Y-49289323D01*
X84916652Y-49313000D01*
X84089119Y-49313000D01*
X83916256Y-49194888D01*
X83708000Y-49152715D01*
X82408000Y-49152715D01*
X82213447Y-49189323D01*
X82034761Y-49304304D01*
X82028819Y-49313000D01*
X80868789Y-49313000D01*
X80818000Y-49302715D01*
X80218000Y-49302715D01*
X80163340Y-49313000D01*
X78836789Y-49313000D01*
X78786000Y-49302715D01*
X78186000Y-49302715D01*
X77991447Y-49339323D01*
X77812761Y-49454304D01*
X77692888Y-49629744D01*
X77650715Y-49838000D01*
X77650715Y-50238000D01*
X77687323Y-50432553D01*
X77722230Y-50486800D01*
X77692888Y-50529744D01*
X77650715Y-50738000D01*
X77650715Y-51138000D01*
X77687323Y-51332553D01*
X77761000Y-51447051D01*
X77761000Y-53429261D01*
X77504112Y-53600908D01*
X77203101Y-54051402D01*
X77097400Y-54582796D01*
X74463779Y-54582796D01*
X74403906Y-54281798D01*
X75984653Y-52701051D01*
X76141814Y-52465845D01*
X76162668Y-52361001D01*
X76197001Y-52188399D01*
X76197001Y-48450303D01*
X76287000Y-48360304D01*
X76287000Y-48385002D01*
X76355748Y-48385002D01*
X76287000Y-48453750D01*
X76287000Y-48534592D01*
X76344090Y-48672420D01*
X76449579Y-48777910D01*
X76587408Y-48835000D01*
X76743250Y-48835000D01*
X76837000Y-48741250D01*
X76837000Y-48360000D01*
X77087000Y-48360000D01*
X77087000Y-48741250D01*
X77180750Y-48835000D01*
X77336592Y-48835000D01*
X77474421Y-48777910D01*
X77579910Y-48672420D01*
X77637000Y-48534592D01*
X77637000Y-48478750D01*
X78394000Y-48478750D01*
X78394000Y-48629592D01*
X78451090Y-48767420D01*
X78556579Y-48872910D01*
X78694408Y-48930000D01*
X78787750Y-48930000D01*
X78881500Y-48836250D01*
X78881500Y-48385000D01*
X79106500Y-48385000D01*
X79106500Y-48836250D01*
X79200250Y-48930000D01*
X79293592Y-48930000D01*
X79431421Y-48872910D01*
X79536910Y-48767420D01*
X79594000Y-48629592D01*
X79594000Y-48478750D01*
X79500250Y-48385000D01*
X79106500Y-48385000D01*
X78881500Y-48385000D01*
X78487750Y-48385000D01*
X78394000Y-48478750D01*
X77637000Y-48478750D01*
X77637000Y-48453750D01*
X77543250Y-48360000D01*
X77087000Y-48360000D01*
X76837000Y-48360000D01*
X76817000Y-48360000D01*
X76817000Y-48160000D01*
X76837000Y-48160000D01*
X76837000Y-48115000D01*
X77087000Y-48115000D01*
X77087000Y-48160000D01*
X77543250Y-48160000D01*
X77618250Y-48085000D01*
X77784000Y-48085000D01*
X78015415Y-48038969D01*
X78061446Y-48029813D01*
X78270078Y-47890408D01*
X78394000Y-47890408D01*
X78394000Y-48041250D01*
X78487750Y-48135000D01*
X78881500Y-48135000D01*
X78881500Y-47683750D01*
X79106500Y-47683750D01*
X79106500Y-48135000D01*
X79500250Y-48135000D01*
X79594000Y-48041250D01*
X79594000Y-47890408D01*
X79536910Y-47752580D01*
X79431421Y-47647090D01*
X79293592Y-47590000D01*
X79200250Y-47590000D01*
X79106500Y-47683750D01*
X78881500Y-47683750D01*
X78787750Y-47590000D01*
X78694408Y-47590000D01*
X78556579Y-47647090D01*
X78451090Y-47752580D01*
X78394000Y-47890408D01*
X78270078Y-47890408D01*
X78296652Y-47872652D01*
X79189020Y-46980285D01*
X79219000Y-46980285D01*
X79413553Y-46943677D01*
X79592239Y-46828696D01*
X79712112Y-46653256D01*
X79754285Y-46445000D01*
X79754285Y-45858019D01*
X79919215Y-45693090D01*
X79919215Y-45720000D01*
X79955823Y-45914553D01*
X80070804Y-46093239D01*
X80246244Y-46213112D01*
X80454500Y-46255285D01*
X80789981Y-46255285D01*
X81884715Y-47350020D01*
X81884715Y-47494000D01*
X81921323Y-47688553D01*
X82036304Y-47867239D01*
X82211744Y-47987112D01*
X82420000Y-48029285D01*
X83020000Y-48029285D01*
X83214553Y-47992677D01*
X83393239Y-47877696D01*
X83409378Y-47854076D01*
X83445408Y-47869000D01*
X83601250Y-47869000D01*
X83695000Y-47775250D01*
X83695000Y-47369000D01*
X83945000Y-47369000D01*
X83945000Y-47775250D01*
X84038750Y-47869000D01*
X84194592Y-47869000D01*
X84332420Y-47811910D01*
X84437910Y-47706421D01*
X84495000Y-47568592D01*
X84495000Y-47462750D01*
X84401250Y-47369000D01*
X83945000Y-47369000D01*
X83695000Y-47369000D01*
X83675000Y-47369000D01*
X83675000Y-47119000D01*
X83695000Y-47119000D01*
X83695000Y-46712750D01*
X83945000Y-46712750D01*
X83945000Y-47119000D01*
X84401250Y-47119000D01*
X84495000Y-47025250D01*
X84495000Y-46919408D01*
X84437910Y-46781579D01*
X84332420Y-46676090D01*
X84194592Y-46619000D01*
X84038750Y-46619000D01*
X83945000Y-46712750D01*
X83695000Y-46712750D01*
X83601250Y-46619000D01*
X83445408Y-46619000D01*
X83411579Y-46633012D01*
X83403696Y-46620761D01*
X83228256Y-46500888D01*
X83050119Y-46464814D01*
X82132785Y-45547481D01*
X82132785Y-45212000D01*
X82096177Y-45017447D01*
X81981196Y-44838761D01*
X81971708Y-44832278D01*
X82090612Y-44658256D01*
X82132785Y-44450000D01*
X82132785Y-43942000D01*
X82096177Y-43747447D01*
X81981196Y-43568761D01*
X81971708Y-43562278D01*
X82090612Y-43388256D01*
X82132785Y-43180000D01*
X82132785Y-42672000D01*
X82096177Y-42477447D01*
X81981196Y-42298761D01*
X81971708Y-42292278D01*
X82090612Y-42118256D01*
X82132785Y-41910000D01*
X82132785Y-41402000D01*
X82096177Y-41207447D01*
X81981196Y-41028761D01*
X81845183Y-40935828D01*
X81895848Y-40813813D01*
X81896150Y-40467706D01*
X81763980Y-40147829D01*
X81519459Y-39902880D01*
X81199813Y-39770152D01*
X81043000Y-39770015D01*
X81043000Y-39090337D01*
X81137239Y-39029696D01*
X81257112Y-38854256D01*
X81299285Y-38646000D01*
X81299285Y-38064750D01*
X82389000Y-38064750D01*
X82389000Y-38720592D01*
X82446090Y-38858421D01*
X82551580Y-38963910D01*
X82689408Y-39021000D01*
X83045250Y-39021000D01*
X83139000Y-38927250D01*
X83139000Y-37971000D01*
X83389000Y-37971000D01*
X83389000Y-38927250D01*
X83482750Y-39021000D01*
X83838592Y-39021000D01*
X83976420Y-38963910D01*
X84081910Y-38858421D01*
X84114270Y-38780294D01*
X85235850Y-38780294D01*
X85368020Y-39100171D01*
X85612541Y-39345120D01*
X85932187Y-39477848D01*
X86278294Y-39478150D01*
X86595362Y-39347141D01*
X86603508Y-39359799D01*
X86507888Y-39499744D01*
X86465715Y-39708000D01*
X86465715Y-40508000D01*
X86502323Y-40702553D01*
X86597000Y-40849686D01*
X86597000Y-40911654D01*
X86431261Y-41018304D01*
X86311388Y-41193744D01*
X86269215Y-41402000D01*
X86269215Y-41910000D01*
X86305823Y-42104553D01*
X86420804Y-42283239D01*
X86564647Y-42381523D01*
X86486590Y-42459580D01*
X86429500Y-42597408D01*
X86429500Y-42707250D01*
X86523250Y-42801000D01*
X87251000Y-42801000D01*
X87251000Y-42781000D01*
X87501000Y-42781000D01*
X87501000Y-42801000D01*
X88228750Y-42801000D01*
X88322500Y-42707250D01*
X88322500Y-42674926D01*
X88392000Y-42689000D01*
X92710000Y-42689000D01*
X92907554Y-42650413D01*
X93081231Y-42535231D01*
X93589231Y-42027231D01*
X93666880Y-41911885D01*
X94881700Y-41911885D01*
X95076253Y-41875277D01*
X95254939Y-41760296D01*
X95374812Y-41584856D01*
X95416985Y-41376600D01*
X95416985Y-37871400D01*
X95380377Y-37676847D01*
X95265396Y-37498161D01*
X95089956Y-37378288D01*
X94881700Y-37336115D01*
X93665728Y-37336115D01*
X93589231Y-37220769D01*
X92065231Y-35696769D01*
X91898254Y-35584363D01*
X91694000Y-35543000D01*
X89826485Y-35543000D01*
X89821677Y-35517447D01*
X89706696Y-35338761D01*
X89531256Y-35218888D01*
X89323000Y-35176715D01*
X88413000Y-35176715D01*
X88218447Y-35213323D01*
X88039761Y-35328304D01*
X87919888Y-35503744D01*
X87877715Y-35712000D01*
X87877715Y-36932000D01*
X87914323Y-37126553D01*
X88029304Y-37305239D01*
X88121000Y-37367892D01*
X88121000Y-37825403D01*
X87959256Y-37714888D01*
X87751000Y-37672715D01*
X87001000Y-37672715D01*
X86806447Y-37709323D01*
X86627761Y-37824304D01*
X86596715Y-37869741D01*
X86279813Y-37738152D01*
X85933706Y-37737850D01*
X85613829Y-37870020D01*
X85368880Y-38114541D01*
X85236152Y-38434187D01*
X85235850Y-38780294D01*
X84114270Y-38780294D01*
X84139000Y-38720592D01*
X84139000Y-38064750D01*
X84045250Y-37971000D01*
X83389000Y-37971000D01*
X83139000Y-37971000D01*
X82482750Y-37971000D01*
X82389000Y-38064750D01*
X81299285Y-38064750D01*
X81299285Y-37046000D01*
X81285250Y-36971408D01*
X82389000Y-36971408D01*
X82389000Y-37627250D01*
X82482750Y-37721000D01*
X83139000Y-37721000D01*
X83139000Y-36764750D01*
X83389000Y-36764750D01*
X83389000Y-37721000D01*
X84045250Y-37721000D01*
X84139000Y-37627250D01*
X84139000Y-36971408D01*
X84081910Y-36833579D01*
X83976420Y-36728090D01*
X83838592Y-36671000D01*
X83482750Y-36671000D01*
X83389000Y-36764750D01*
X83139000Y-36764750D01*
X83045250Y-36671000D01*
X82689408Y-36671000D01*
X82551580Y-36728090D01*
X82446090Y-36833579D01*
X82389000Y-36971408D01*
X81285250Y-36971408D01*
X81262677Y-36851447D01*
X81147696Y-36672761D01*
X81043000Y-36601225D01*
X81043000Y-36576000D01*
X81036115Y-36540750D01*
X84768000Y-36540750D01*
X84768000Y-37006592D01*
X84825090Y-37144421D01*
X84930580Y-37249910D01*
X85068408Y-37307000D01*
X85379250Y-37307000D01*
X85473000Y-37213250D01*
X85473000Y-36447000D01*
X85723000Y-36447000D01*
X85723000Y-37213250D01*
X85816750Y-37307000D01*
X86127592Y-37307000D01*
X86265420Y-37249910D01*
X86370910Y-37144421D01*
X86428000Y-37006592D01*
X86428000Y-36540750D01*
X86334250Y-36447000D01*
X85723000Y-36447000D01*
X85473000Y-36447000D01*
X84861750Y-36447000D01*
X84768000Y-36540750D01*
X81036115Y-36540750D01*
X81004413Y-36378446D01*
X80889231Y-36204769D01*
X80321870Y-35637408D01*
X84768000Y-35637408D01*
X84768000Y-36103250D01*
X84861750Y-36197000D01*
X85473000Y-36197000D01*
X85473000Y-35430750D01*
X85723000Y-35430750D01*
X85723000Y-36197000D01*
X86334250Y-36197000D01*
X86428000Y-36103250D01*
X86428000Y-35637408D01*
X86370910Y-35499579D01*
X86265420Y-35394090D01*
X86127592Y-35337000D01*
X85816750Y-35337000D01*
X85723000Y-35430750D01*
X85473000Y-35430750D01*
X85379250Y-35337000D01*
X85068408Y-35337000D01*
X84930580Y-35394090D01*
X84825090Y-35499579D01*
X84768000Y-35637408D01*
X80321870Y-35637408D01*
X79619231Y-34934769D01*
X79452254Y-34822363D01*
X79248000Y-34781000D01*
X76582658Y-34781000D01*
X76447092Y-34578112D01*
X75996598Y-34277101D01*
X75465204Y-34171400D01*
X75410796Y-34171400D01*
X74879402Y-34277101D01*
X74428908Y-34578112D01*
X74127897Y-35028606D01*
X74088489Y-35226721D01*
X73968414Y-34936806D01*
X73648448Y-34574614D01*
X73214233Y-34362438D01*
X73023000Y-34421462D01*
X73023000Y-35435000D01*
X73043000Y-35435000D01*
X73043000Y-35685000D01*
X73023000Y-35685000D01*
X73023000Y-36698538D01*
X73214233Y-36757562D01*
X73648448Y-36545386D01*
X73968414Y-36183194D01*
X74088489Y-35893279D01*
X74127897Y-36091394D01*
X74428908Y-36541888D01*
X74659000Y-36695631D01*
X74659000Y-36964369D01*
X74428908Y-37118112D01*
X74136600Y-37555581D01*
X74136600Y-37161808D01*
X74079510Y-37023979D01*
X73974020Y-36918490D01*
X73836192Y-36861400D01*
X73116750Y-36861400D01*
X73023000Y-36955150D01*
X73023000Y-37975000D01*
X73043000Y-37975000D01*
X73043000Y-38225000D01*
X73023000Y-38225000D01*
X73023000Y-39244850D01*
X73116750Y-39338600D01*
X73836192Y-39338600D01*
X73974020Y-39281510D01*
X74079510Y-39176021D01*
X74136600Y-39038192D01*
X74136600Y-38644419D01*
X74428908Y-39081888D01*
X74659000Y-39235631D01*
X74659000Y-39370000D01*
X74697587Y-39567554D01*
X74812769Y-39741231D01*
X77256538Y-42185000D01*
X76780785Y-42185000D01*
X76527652Y-41806158D01*
X76027715Y-41472112D01*
X75438000Y-41354810D01*
X74848285Y-41472112D01*
X74348348Y-41806158D01*
X74289000Y-41894979D01*
X74289000Y-41835408D01*
X74231910Y-41697580D01*
X74126421Y-41592090D01*
X73988592Y-41535000D01*
X73116750Y-41535000D01*
X73023000Y-41628750D01*
X73023000Y-42801000D01*
X73043000Y-42801000D01*
X73043000Y-43051000D01*
X73023000Y-43051000D01*
X73023000Y-44223250D01*
X73116750Y-44317000D01*
X73988592Y-44317000D01*
X74126421Y-44259910D01*
X74231910Y-44154420D01*
X74289000Y-44016592D01*
X74289000Y-43957021D01*
X74348348Y-44045842D01*
X74848285Y-44379888D01*
X75438000Y-44497190D01*
X76027715Y-44379888D01*
X76527652Y-44045842D01*
X76802167Y-43635000D01*
X77086715Y-43635000D01*
X77123323Y-43829553D01*
X77238304Y-44008239D01*
X77413744Y-44128112D01*
X77622000Y-44170285D01*
X78248411Y-44170285D01*
X77057696Y-45361000D01*
X75272000Y-45361000D01*
X74994554Y-45416187D01*
X74759348Y-45573347D01*
X74381981Y-45950715D01*
X73972000Y-45950715D01*
X73777447Y-45987323D01*
X73598761Y-46102304D01*
X73478888Y-46277744D01*
X73436715Y-46486000D01*
X73436715Y-46986000D01*
X73473323Y-47180553D01*
X73588304Y-47359239D01*
X73763744Y-47479112D01*
X73791362Y-47484705D01*
X73777447Y-47487323D01*
X73598761Y-47602304D01*
X73478888Y-47777744D01*
X73436715Y-47986000D01*
X73436715Y-48486000D01*
X73473323Y-48680553D01*
X73588304Y-48859239D01*
X73697000Y-48933508D01*
X73697000Y-50398095D01*
X73358430Y-50736666D01*
X73080590Y-50681400D01*
X72715410Y-50681400D01*
X72184016Y-50787101D01*
X71733522Y-51088112D01*
X71432511Y-51538606D01*
X71326810Y-52070000D01*
X70958000Y-52070000D01*
X70958000Y-43144750D01*
X71507000Y-43144750D01*
X71507000Y-44016592D01*
X71564090Y-44154420D01*
X71669579Y-44259910D01*
X71807408Y-44317000D01*
X72679250Y-44317000D01*
X72773000Y-44223250D01*
X72773000Y-43051000D01*
X71600750Y-43051000D01*
X71507000Y-43144750D01*
X70958000Y-43144750D01*
X70958000Y-41835408D01*
X71507000Y-41835408D01*
X71507000Y-42707250D01*
X71600750Y-42801000D01*
X72773000Y-42801000D01*
X72773000Y-41628750D01*
X72679250Y-41535000D01*
X71807408Y-41535000D01*
X71669579Y-41592090D01*
X71564090Y-41697580D01*
X71507000Y-41835408D01*
X70958000Y-41835408D01*
X70958000Y-38318750D01*
X71659400Y-38318750D01*
X71659400Y-39038192D01*
X71716490Y-39176021D01*
X71821980Y-39281510D01*
X71959808Y-39338600D01*
X72679250Y-39338600D01*
X72773000Y-39244850D01*
X72773000Y-38225000D01*
X71753150Y-38225000D01*
X71659400Y-38318750D01*
X70958000Y-38318750D01*
X70958000Y-37161808D01*
X71659400Y-37161808D01*
X71659400Y-37881250D01*
X71753150Y-37975000D01*
X72773000Y-37975000D01*
X72773000Y-36955150D01*
X72679250Y-36861400D01*
X71959808Y-36861400D01*
X71821980Y-36918490D01*
X71716490Y-37023979D01*
X71659400Y-37161808D01*
X70958000Y-37161808D01*
X70958000Y-35876231D01*
X71700450Y-35876231D01*
X71827586Y-36183194D01*
X72147552Y-36545386D01*
X72581767Y-36757562D01*
X72773000Y-36698538D01*
X72773000Y-35685000D01*
X71759994Y-35685000D01*
X71700450Y-35876231D01*
X70958000Y-35876231D01*
X70958000Y-35243769D01*
X71700450Y-35243769D01*
X71759994Y-35435000D01*
X72773000Y-35435000D01*
X72773000Y-34421462D01*
X72581767Y-34362438D01*
X72147552Y-34574614D01*
X71827586Y-34936806D01*
X71700450Y-35243769D01*
X70958000Y-35243769D01*
X70958000Y-33620000D01*
X84709000Y-33620000D01*
X84938610Y-33574328D01*
X85133264Y-33444264D01*
X85263328Y-33249610D01*
X85309000Y-33020000D01*
X85309000Y-30351387D01*
X85326557Y-30351387D01*
X85715017Y-31291532D01*
X86433684Y-32011455D01*
X87373150Y-32401556D01*
X88390387Y-32402443D01*
X89330532Y-32013983D01*
X90050455Y-31295316D01*
X90440556Y-30355850D01*
X90441443Y-29338613D01*
X90052983Y-28398468D01*
X89334316Y-27678545D01*
X88394850Y-27288444D01*
X87377613Y-27287557D01*
X86437468Y-27676017D01*
X85717545Y-28394684D01*
X85327444Y-29334150D01*
X85326557Y-30351387D01*
X85309000Y-30351387D01*
X85309000Y-27270000D01*
X90459000Y-27270000D01*
X90459000Y-33020000D01*
M02*
