M48
;DRILL file {KiCad 4.0.2-stable} date Friday, July 29, 2016 'PMt' 06:44:58 PM
;FORMAT={-:-/ absolute / inch / decimal}
FMAT,2
INCH,TZ
T1C0.013
T2C0.040
T3C0.120
%
G90
G05
M72
T1
X3.19Y-1.6
X3.255Y-1.655
X3.255Y-1.695
X3.255Y-1.735
X3.255Y-1.775
X3.295Y-1.655
X3.295Y-1.695
X3.295Y-1.735
X3.295Y-1.775
X3.335Y-1.655
X3.335Y-1.695
X3.335Y-1.735
X3.335Y-1.775
X3.375Y-1.655
X3.375Y-1.695
X3.375Y-1.735
X3.375Y-1.775
X3.39Y-1.52
T2
X2.87Y-1.4
X2.87Y-1.5
X2.87Y-1.69
X2.87Y-2.05
X2.87Y-2.15
X2.87Y-2.25
X2.97Y-1.4
X2.97Y-1.5
X2.97Y-1.69
X3.09Y-2.15
X3.09Y-2.25
X3.19Y-2.15
X3.19Y-2.25
X3.29Y-2.15
X3.29Y-2.25
X3.39Y-2.15
X3.39Y-2.25
X3.49Y-2.15
X3.49Y-2.25
X3.59Y-2.15
X3.59Y-2.25
X3.69Y-2.15
X3.69Y-2.25
X3.79Y-2.15
X3.79Y-2.25
X3.95Y-1.84
X3.95Y-1.94
X3.95Y-2.04
X3.95Y-2.14
X4.05Y-1.84
X4.05Y-1.94
X4.05Y-2.04
X4.05Y-2.14
T3
X3.46Y-1.175
X3.46Y-2.475
T0
M30
