G04 #@! TF.FileFunction,Copper,L2,Bot,Signal*
%FSLAX46Y46*%
G04 Gerber Fmt 4.6, Leading zero omitted, Abs format (unit mm)*
G04 Created by KiCad (PCBNEW 4.0.2-stable) date Friday, July 29, 2016 'PMt' 06:45:01 PM*
%MOMM*%
G01*
G04 APERTURE LIST*
%ADD10C,0.100000*%
%ADD11R,2.032000X1.727200*%
%ADD12O,2.032000X1.727200*%
%ADD13R,1.727200X1.727200*%
%ADD14O,1.727200X1.727200*%
%ADD15C,4.064000*%
%ADD16R,2.032000X2.032000*%
%ADD17O,2.032000X2.032000*%
%ADD18C,0.690000*%
%ADD19C,0.400000*%
%ADD20C,0.250000*%
G04 APERTURE END LIST*
D10*
D11*
X72898000Y-57150000D03*
D12*
X72898000Y-54610000D03*
X72898000Y-52070000D03*
D13*
X96266000Y-57150000D03*
D14*
X96266000Y-54610000D03*
X93726000Y-57150000D03*
X93726000Y-54610000D03*
X91186000Y-57150000D03*
X91186000Y-54610000D03*
X88646000Y-57150000D03*
X88646000Y-54610000D03*
X86106000Y-57150000D03*
X86106000Y-54610000D03*
X83566000Y-57150000D03*
X83566000Y-54610000D03*
X81026000Y-57150000D03*
X81026000Y-54610000D03*
X78486000Y-57150000D03*
X78486000Y-54610000D03*
D13*
X72898000Y-38100000D03*
D14*
X75438000Y-38100000D03*
X72898000Y-35560000D03*
X75438000Y-35560000D03*
D13*
X102870000Y-46736000D03*
D14*
X100330000Y-46736000D03*
X102870000Y-49276000D03*
X100330000Y-49276000D03*
X102870000Y-51816000D03*
X100330000Y-51816000D03*
X102870000Y-54356000D03*
X100330000Y-54356000D03*
D15*
X87884000Y-29845000D03*
X87884000Y-62865000D03*
D16*
X72898000Y-42926000D03*
D17*
X75438000Y-42926000D03*
D18*
X82677000Y-45085000D03*
X83693000Y-45085000D03*
X84709000Y-45085000D03*
X85725000Y-45085000D03*
X82677000Y-44069000D03*
X83693000Y-44069000D03*
X84709000Y-44069000D03*
X85725000Y-44069000D03*
X82677000Y-42037000D03*
X83693000Y-42037000D03*
X84709000Y-42037000D03*
X85725000Y-42037000D03*
X82677000Y-43053000D03*
X83693000Y-43053000D03*
X84709000Y-43053000D03*
X85725000Y-43053000D03*
X81026000Y-40640000D03*
X86106000Y-38608000D03*
D19*
X86106000Y-38608000D02*
X83058000Y-38608000D01*
X83058000Y-38608000D02*
X81026000Y-40640000D01*
D20*
G36*
X90459000Y-33020000D02*
X90504672Y-33249610D01*
X90634736Y-33444264D01*
X90829390Y-33574328D01*
X91059000Y-33620000D01*
X104810000Y-33620000D01*
X104810000Y-59090000D01*
X91059000Y-59090000D01*
X90829390Y-59135672D01*
X90634736Y-59265736D01*
X90504672Y-59460390D01*
X90459000Y-59690000D01*
X90459000Y-65440000D01*
X85309000Y-65440000D01*
X85309000Y-63371387D01*
X85326557Y-63371387D01*
X85715017Y-64311532D01*
X86433684Y-65031455D01*
X87373150Y-65421556D01*
X88390387Y-65422443D01*
X89330532Y-65033983D01*
X90050455Y-64315316D01*
X90440556Y-63375850D01*
X90441443Y-62358613D01*
X90052983Y-61418468D01*
X89334316Y-60698545D01*
X88394850Y-60308444D01*
X87377613Y-60307557D01*
X86437468Y-60696017D01*
X85717545Y-61414684D01*
X85327444Y-62354150D01*
X85326557Y-63371387D01*
X85309000Y-63371387D01*
X85309000Y-59690000D01*
X85263328Y-59460390D01*
X85133264Y-59265736D01*
X84938610Y-59135672D01*
X84709000Y-59090000D01*
X70958000Y-59090000D01*
X70958000Y-57368750D01*
X71507000Y-57368750D01*
X71507000Y-58088192D01*
X71564090Y-58226021D01*
X71669580Y-58331510D01*
X71807408Y-58388600D01*
X72679250Y-58388600D01*
X72773000Y-58294850D01*
X72773000Y-57275000D01*
X73023000Y-57275000D01*
X73023000Y-58294850D01*
X73116750Y-58388600D01*
X73988592Y-58388600D01*
X74126420Y-58331510D01*
X74231910Y-58226021D01*
X74289000Y-58088192D01*
X74289000Y-57466233D01*
X77288438Y-57466233D01*
X77500614Y-57900448D01*
X77862806Y-58220414D01*
X78169769Y-58347550D01*
X78361000Y-58288006D01*
X78361000Y-57275000D01*
X78611000Y-57275000D01*
X78611000Y-58288006D01*
X78802231Y-58347550D01*
X79109194Y-58220414D01*
X79471386Y-57900448D01*
X79683562Y-57466233D01*
X79828438Y-57466233D01*
X80040614Y-57900448D01*
X80402806Y-58220414D01*
X80709769Y-58347550D01*
X80901000Y-58288006D01*
X80901000Y-57275000D01*
X81151000Y-57275000D01*
X81151000Y-58288006D01*
X81342231Y-58347550D01*
X81649194Y-58220414D01*
X82011386Y-57900448D01*
X82223562Y-57466233D01*
X82368438Y-57466233D01*
X82580614Y-57900448D01*
X82942806Y-58220414D01*
X83249769Y-58347550D01*
X83441000Y-58288006D01*
X83441000Y-57275000D01*
X83691000Y-57275000D01*
X83691000Y-58288006D01*
X83882231Y-58347550D01*
X84189194Y-58220414D01*
X84551386Y-57900448D01*
X84763562Y-57466233D01*
X84908438Y-57466233D01*
X85120614Y-57900448D01*
X85482806Y-58220414D01*
X85789769Y-58347550D01*
X85981000Y-58288006D01*
X85981000Y-57275000D01*
X86231000Y-57275000D01*
X86231000Y-58288006D01*
X86422231Y-58347550D01*
X86729194Y-58220414D01*
X87091386Y-57900448D01*
X87303562Y-57466233D01*
X87448438Y-57466233D01*
X87660614Y-57900448D01*
X88022806Y-58220414D01*
X88329769Y-58347550D01*
X88521000Y-58288006D01*
X88521000Y-57275000D01*
X88771000Y-57275000D01*
X88771000Y-58288006D01*
X88962231Y-58347550D01*
X89269194Y-58220414D01*
X89631386Y-57900448D01*
X89843562Y-57466233D01*
X89988438Y-57466233D01*
X90200614Y-57900448D01*
X90562806Y-58220414D01*
X90869769Y-58347550D01*
X91061000Y-58288006D01*
X91061000Y-57275000D01*
X91311000Y-57275000D01*
X91311000Y-58288006D01*
X91502231Y-58347550D01*
X91809194Y-58220414D01*
X92171386Y-57900448D01*
X92383562Y-57466233D01*
X92528438Y-57466233D01*
X92740614Y-57900448D01*
X93102806Y-58220414D01*
X93409769Y-58347550D01*
X93601000Y-58288006D01*
X93601000Y-57275000D01*
X93851000Y-57275000D01*
X93851000Y-58288006D01*
X94042231Y-58347550D01*
X94349194Y-58220414D01*
X94711386Y-57900448D01*
X94923562Y-57466233D01*
X94893474Y-57368750D01*
X95027400Y-57368750D01*
X95027400Y-58088192D01*
X95084490Y-58226020D01*
X95189979Y-58331510D01*
X95327808Y-58388600D01*
X96047250Y-58388600D01*
X96141000Y-58294850D01*
X96141000Y-57275000D01*
X96391000Y-57275000D01*
X96391000Y-58294850D01*
X96484750Y-58388600D01*
X97204192Y-58388600D01*
X97342021Y-58331510D01*
X97447510Y-58226020D01*
X97504600Y-58088192D01*
X97504600Y-57368750D01*
X97410850Y-57275000D01*
X96391000Y-57275000D01*
X96141000Y-57275000D01*
X95121150Y-57275000D01*
X95027400Y-57368750D01*
X94893474Y-57368750D01*
X94864538Y-57275000D01*
X93851000Y-57275000D01*
X93601000Y-57275000D01*
X92587462Y-57275000D01*
X92528438Y-57466233D01*
X92383562Y-57466233D01*
X92324538Y-57275000D01*
X91311000Y-57275000D01*
X91061000Y-57275000D01*
X90047462Y-57275000D01*
X89988438Y-57466233D01*
X89843562Y-57466233D01*
X89784538Y-57275000D01*
X88771000Y-57275000D01*
X88521000Y-57275000D01*
X87507462Y-57275000D01*
X87448438Y-57466233D01*
X87303562Y-57466233D01*
X87244538Y-57275000D01*
X86231000Y-57275000D01*
X85981000Y-57275000D01*
X84967462Y-57275000D01*
X84908438Y-57466233D01*
X84763562Y-57466233D01*
X84704538Y-57275000D01*
X83691000Y-57275000D01*
X83441000Y-57275000D01*
X82427462Y-57275000D01*
X82368438Y-57466233D01*
X82223562Y-57466233D01*
X82164538Y-57275000D01*
X81151000Y-57275000D01*
X80901000Y-57275000D01*
X79887462Y-57275000D01*
X79828438Y-57466233D01*
X79683562Y-57466233D01*
X79624538Y-57275000D01*
X78611000Y-57275000D01*
X78361000Y-57275000D01*
X77347462Y-57275000D01*
X77288438Y-57466233D01*
X74289000Y-57466233D01*
X74289000Y-57368750D01*
X74195250Y-57275000D01*
X73023000Y-57275000D01*
X72773000Y-57275000D01*
X71600750Y-57275000D01*
X71507000Y-57368750D01*
X70958000Y-57368750D01*
X70958000Y-52070000D01*
X71326810Y-52070000D01*
X71432511Y-52601394D01*
X71733522Y-53051888D01*
X72164711Y-53340000D01*
X71733522Y-53628112D01*
X71432511Y-54078606D01*
X71326810Y-54610000D01*
X71432511Y-55141394D01*
X71733522Y-55591888D01*
X72184016Y-55892899D01*
X72277027Y-55911400D01*
X71807408Y-55911400D01*
X71669580Y-55968490D01*
X71564090Y-56073979D01*
X71507000Y-56211808D01*
X71507000Y-56931250D01*
X71600750Y-57025000D01*
X72773000Y-57025000D01*
X72773000Y-57005000D01*
X73023000Y-57005000D01*
X73023000Y-57025000D01*
X74195250Y-57025000D01*
X74289000Y-56931250D01*
X74289000Y-56211808D01*
X74231910Y-56073979D01*
X74126420Y-55968490D01*
X73988592Y-55911400D01*
X73518973Y-55911400D01*
X73611984Y-55892899D01*
X74062478Y-55591888D01*
X74363489Y-55141394D01*
X74469190Y-54610000D01*
X74463779Y-54582796D01*
X77097400Y-54582796D01*
X77097400Y-54637204D01*
X77203101Y-55168598D01*
X77504112Y-55619092D01*
X77954606Y-55920103D01*
X78152721Y-55959511D01*
X77862806Y-56079586D01*
X77500614Y-56399552D01*
X77288438Y-56833767D01*
X77347462Y-57025000D01*
X78361000Y-57025000D01*
X78361000Y-57005000D01*
X78611000Y-57005000D01*
X78611000Y-57025000D01*
X79624538Y-57025000D01*
X79683562Y-56833767D01*
X79471386Y-56399552D01*
X79109194Y-56079586D01*
X78819279Y-55959511D01*
X79017394Y-55920103D01*
X79467888Y-55619092D01*
X79756000Y-55187903D01*
X80044112Y-55619092D01*
X80494606Y-55920103D01*
X80692721Y-55959511D01*
X80402806Y-56079586D01*
X80040614Y-56399552D01*
X79828438Y-56833767D01*
X79887462Y-57025000D01*
X80901000Y-57025000D01*
X80901000Y-57005000D01*
X81151000Y-57005000D01*
X81151000Y-57025000D01*
X82164538Y-57025000D01*
X82223562Y-56833767D01*
X82011386Y-56399552D01*
X81649194Y-56079586D01*
X81359279Y-55959511D01*
X81557394Y-55920103D01*
X82007888Y-55619092D01*
X82296000Y-55187903D01*
X82584112Y-55619092D01*
X83034606Y-55920103D01*
X83232721Y-55959511D01*
X82942806Y-56079586D01*
X82580614Y-56399552D01*
X82368438Y-56833767D01*
X82427462Y-57025000D01*
X83441000Y-57025000D01*
X83441000Y-57005000D01*
X83691000Y-57005000D01*
X83691000Y-57025000D01*
X84704538Y-57025000D01*
X84763562Y-56833767D01*
X84551386Y-56399552D01*
X84189194Y-56079586D01*
X83899279Y-55959511D01*
X84097394Y-55920103D01*
X84547888Y-55619092D01*
X84836000Y-55187903D01*
X85124112Y-55619092D01*
X85574606Y-55920103D01*
X85772721Y-55959511D01*
X85482806Y-56079586D01*
X85120614Y-56399552D01*
X84908438Y-56833767D01*
X84967462Y-57025000D01*
X85981000Y-57025000D01*
X85981000Y-57005000D01*
X86231000Y-57005000D01*
X86231000Y-57025000D01*
X87244538Y-57025000D01*
X87303562Y-56833767D01*
X87091386Y-56399552D01*
X86729194Y-56079586D01*
X86439279Y-55959511D01*
X86637394Y-55920103D01*
X87087888Y-55619092D01*
X87376000Y-55187903D01*
X87664112Y-55619092D01*
X88114606Y-55920103D01*
X88312721Y-55959511D01*
X88022806Y-56079586D01*
X87660614Y-56399552D01*
X87448438Y-56833767D01*
X87507462Y-57025000D01*
X88521000Y-57025000D01*
X88521000Y-57005000D01*
X88771000Y-57005000D01*
X88771000Y-57025000D01*
X89784538Y-57025000D01*
X89843562Y-56833767D01*
X89631386Y-56399552D01*
X89269194Y-56079586D01*
X88979279Y-55959511D01*
X89177394Y-55920103D01*
X89627888Y-55619092D01*
X89916000Y-55187903D01*
X90204112Y-55619092D01*
X90654606Y-55920103D01*
X90852721Y-55959511D01*
X90562806Y-56079586D01*
X90200614Y-56399552D01*
X89988438Y-56833767D01*
X90047462Y-57025000D01*
X91061000Y-57025000D01*
X91061000Y-57005000D01*
X91311000Y-57005000D01*
X91311000Y-57025000D01*
X92324538Y-57025000D01*
X92383562Y-56833767D01*
X92171386Y-56399552D01*
X91809194Y-56079586D01*
X91519279Y-55959511D01*
X91717394Y-55920103D01*
X92167888Y-55619092D01*
X92456000Y-55187903D01*
X92744112Y-55619092D01*
X93194606Y-55920103D01*
X93392721Y-55959511D01*
X93102806Y-56079586D01*
X92740614Y-56399552D01*
X92528438Y-56833767D01*
X92587462Y-57025000D01*
X93601000Y-57025000D01*
X93601000Y-57005000D01*
X93851000Y-57005000D01*
X93851000Y-57025000D01*
X94864538Y-57025000D01*
X94923562Y-56833767D01*
X94711386Y-56399552D01*
X94349194Y-56079586D01*
X94059279Y-55959511D01*
X94257394Y-55920103D01*
X94707888Y-55619092D01*
X94996000Y-55187903D01*
X95284112Y-55619092D01*
X95721581Y-55911400D01*
X95327808Y-55911400D01*
X95189979Y-55968490D01*
X95084490Y-56073980D01*
X95027400Y-56211808D01*
X95027400Y-56931250D01*
X95121150Y-57025000D01*
X96141000Y-57025000D01*
X96141000Y-57005000D01*
X96391000Y-57005000D01*
X96391000Y-57025000D01*
X97410850Y-57025000D01*
X97504600Y-56931250D01*
X97504600Y-56211808D01*
X97447510Y-56073980D01*
X97342021Y-55968490D01*
X97204192Y-55911400D01*
X96810419Y-55911400D01*
X97247888Y-55619092D01*
X97548899Y-55168598D01*
X97654600Y-54637204D01*
X97654600Y-54582796D01*
X97548899Y-54051402D01*
X97247888Y-53600908D01*
X96797394Y-53299897D01*
X96266000Y-53194196D01*
X95734606Y-53299897D01*
X95284112Y-53600908D01*
X94996000Y-54032097D01*
X94707888Y-53600908D01*
X94257394Y-53299897D01*
X93726000Y-53194196D01*
X93194606Y-53299897D01*
X92744112Y-53600908D01*
X92456000Y-54032097D01*
X92167888Y-53600908D01*
X91717394Y-53299897D01*
X91186000Y-53194196D01*
X90654606Y-53299897D01*
X90204112Y-53600908D01*
X89916000Y-54032097D01*
X89627888Y-53600908D01*
X89177394Y-53299897D01*
X88646000Y-53194196D01*
X88114606Y-53299897D01*
X87664112Y-53600908D01*
X87376000Y-54032097D01*
X87087888Y-53600908D01*
X86637394Y-53299897D01*
X86106000Y-53194196D01*
X85574606Y-53299897D01*
X85124112Y-53600908D01*
X84836000Y-54032097D01*
X84547888Y-53600908D01*
X84097394Y-53299897D01*
X83566000Y-53194196D01*
X83034606Y-53299897D01*
X82584112Y-53600908D01*
X82296000Y-54032097D01*
X82007888Y-53600908D01*
X81557394Y-53299897D01*
X81026000Y-53194196D01*
X80494606Y-53299897D01*
X80044112Y-53600908D01*
X79756000Y-54032097D01*
X79467888Y-53600908D01*
X79017394Y-53299897D01*
X78486000Y-53194196D01*
X77954606Y-53299897D01*
X77504112Y-53600908D01*
X77203101Y-54051402D01*
X77097400Y-54582796D01*
X74463779Y-54582796D01*
X74363489Y-54078606D01*
X74062478Y-53628112D01*
X73631289Y-53340000D01*
X74062478Y-53051888D01*
X74363489Y-52601394D01*
X74469190Y-52070000D01*
X74363489Y-51538606D01*
X74062478Y-51088112D01*
X73611984Y-50787101D01*
X73080590Y-50681400D01*
X72715410Y-50681400D01*
X72184016Y-50787101D01*
X71733522Y-51088112D01*
X71432511Y-51538606D01*
X71326810Y-52070000D01*
X70958000Y-52070000D01*
X70958000Y-46736000D01*
X98914196Y-46736000D01*
X99019897Y-47267394D01*
X99320908Y-47717888D01*
X99752097Y-48006000D01*
X99320908Y-48294112D01*
X99019897Y-48744606D01*
X98914196Y-49276000D01*
X99019897Y-49807394D01*
X99320908Y-50257888D01*
X99752097Y-50546000D01*
X99320908Y-50834112D01*
X99019897Y-51284606D01*
X98914196Y-51816000D01*
X99019897Y-52347394D01*
X99320908Y-52797888D01*
X99752097Y-53086000D01*
X99320908Y-53374112D01*
X99019897Y-53824606D01*
X98914196Y-54356000D01*
X99019897Y-54887394D01*
X99320908Y-55337888D01*
X99771402Y-55638899D01*
X100302796Y-55744600D01*
X100357204Y-55744600D01*
X100888598Y-55638899D01*
X101339092Y-55337888D01*
X101640103Y-54887394D01*
X101679511Y-54689279D01*
X101799586Y-54979194D01*
X102119552Y-55341386D01*
X102553767Y-55553562D01*
X102745000Y-55494538D01*
X102745000Y-54481000D01*
X102995000Y-54481000D01*
X102995000Y-55494538D01*
X103186233Y-55553562D01*
X103620448Y-55341386D01*
X103940414Y-54979194D01*
X104067550Y-54672231D01*
X104008006Y-54481000D01*
X102995000Y-54481000D01*
X102745000Y-54481000D01*
X102725000Y-54481000D01*
X102725000Y-54231000D01*
X102745000Y-54231000D01*
X102745000Y-53217462D01*
X102995000Y-53217462D01*
X102995000Y-54231000D01*
X104008006Y-54231000D01*
X104067550Y-54039769D01*
X103940414Y-53732806D01*
X103620448Y-53370614D01*
X103186233Y-53158438D01*
X102995000Y-53217462D01*
X102745000Y-53217462D01*
X102553767Y-53158438D01*
X102119552Y-53370614D01*
X101799586Y-53732806D01*
X101679511Y-54022721D01*
X101640103Y-53824606D01*
X101339092Y-53374112D01*
X100907903Y-53086000D01*
X101339092Y-52797888D01*
X101640103Y-52347394D01*
X101679511Y-52149279D01*
X101799586Y-52439194D01*
X102119552Y-52801386D01*
X102553767Y-53013562D01*
X102745000Y-52954538D01*
X102745000Y-51941000D01*
X102995000Y-51941000D01*
X102995000Y-52954538D01*
X103186233Y-53013562D01*
X103620448Y-52801386D01*
X103940414Y-52439194D01*
X104067550Y-52132231D01*
X104008006Y-51941000D01*
X102995000Y-51941000D01*
X102745000Y-51941000D01*
X102725000Y-51941000D01*
X102725000Y-51691000D01*
X102745000Y-51691000D01*
X102745000Y-50677462D01*
X102995000Y-50677462D01*
X102995000Y-51691000D01*
X104008006Y-51691000D01*
X104067550Y-51499769D01*
X103940414Y-51192806D01*
X103620448Y-50830614D01*
X103186233Y-50618438D01*
X102995000Y-50677462D01*
X102745000Y-50677462D01*
X102553767Y-50618438D01*
X102119552Y-50830614D01*
X101799586Y-51192806D01*
X101679511Y-51482721D01*
X101640103Y-51284606D01*
X101339092Y-50834112D01*
X100907903Y-50546000D01*
X101339092Y-50257888D01*
X101640103Y-49807394D01*
X101679511Y-49609279D01*
X101799586Y-49899194D01*
X102119552Y-50261386D01*
X102553767Y-50473562D01*
X102745000Y-50414538D01*
X102745000Y-49401000D01*
X102995000Y-49401000D01*
X102995000Y-50414538D01*
X103186233Y-50473562D01*
X103620448Y-50261386D01*
X103940414Y-49899194D01*
X104067550Y-49592231D01*
X104008006Y-49401000D01*
X102995000Y-49401000D01*
X102745000Y-49401000D01*
X102725000Y-49401000D01*
X102725000Y-49151000D01*
X102745000Y-49151000D01*
X102745000Y-48137462D01*
X102995000Y-48137462D01*
X102995000Y-49151000D01*
X104008006Y-49151000D01*
X104067550Y-48959769D01*
X103940414Y-48652806D01*
X103620448Y-48290614D01*
X103186233Y-48078438D01*
X102995000Y-48137462D01*
X102745000Y-48137462D01*
X102553767Y-48078438D01*
X102119552Y-48290614D01*
X101799586Y-48652806D01*
X101679511Y-48942721D01*
X101640103Y-48744606D01*
X101339092Y-48294112D01*
X100907903Y-48006000D01*
X101339092Y-47717888D01*
X101631400Y-47280419D01*
X101631400Y-47674192D01*
X101688490Y-47812021D01*
X101793980Y-47917510D01*
X101931808Y-47974600D01*
X102651250Y-47974600D01*
X102745000Y-47880850D01*
X102745000Y-46861000D01*
X102995000Y-46861000D01*
X102995000Y-47880850D01*
X103088750Y-47974600D01*
X103808192Y-47974600D01*
X103946020Y-47917510D01*
X104051510Y-47812021D01*
X104108600Y-47674192D01*
X104108600Y-46954750D01*
X104014850Y-46861000D01*
X102995000Y-46861000D01*
X102745000Y-46861000D01*
X102725000Y-46861000D01*
X102725000Y-46611000D01*
X102745000Y-46611000D01*
X102745000Y-45591150D01*
X102995000Y-45591150D01*
X102995000Y-46611000D01*
X104014850Y-46611000D01*
X104108600Y-46517250D01*
X104108600Y-45797808D01*
X104051510Y-45659979D01*
X103946020Y-45554490D01*
X103808192Y-45497400D01*
X103088750Y-45497400D01*
X102995000Y-45591150D01*
X102745000Y-45591150D01*
X102651250Y-45497400D01*
X101931808Y-45497400D01*
X101793980Y-45554490D01*
X101688490Y-45659979D01*
X101631400Y-45797808D01*
X101631400Y-46191581D01*
X101339092Y-45754112D01*
X100888598Y-45453101D01*
X100357204Y-45347400D01*
X100302796Y-45347400D01*
X99771402Y-45453101D01*
X99320908Y-45754112D01*
X99019897Y-46204606D01*
X98914196Y-46736000D01*
X70958000Y-46736000D01*
X70958000Y-43144750D01*
X71507000Y-43144750D01*
X71507000Y-44016592D01*
X71564090Y-44154420D01*
X71669579Y-44259910D01*
X71807408Y-44317000D01*
X72679250Y-44317000D01*
X72773000Y-44223250D01*
X72773000Y-43051000D01*
X71600750Y-43051000D01*
X71507000Y-43144750D01*
X70958000Y-43144750D01*
X70958000Y-41835408D01*
X71507000Y-41835408D01*
X71507000Y-42707250D01*
X71600750Y-42801000D01*
X72773000Y-42801000D01*
X72773000Y-41628750D01*
X73023000Y-41628750D01*
X73023000Y-42801000D01*
X73043000Y-42801000D01*
X73043000Y-43051000D01*
X73023000Y-43051000D01*
X73023000Y-44223250D01*
X73116750Y-44317000D01*
X73988592Y-44317000D01*
X74126421Y-44259910D01*
X74231910Y-44154420D01*
X74289000Y-44016592D01*
X74289000Y-43957021D01*
X74348348Y-44045842D01*
X74848285Y-44379888D01*
X75438000Y-44497190D01*
X76027715Y-44379888D01*
X76527652Y-44045842D01*
X76861698Y-43545905D01*
X76979000Y-42956190D01*
X76979000Y-42895810D01*
X76861698Y-42306095D01*
X76527652Y-41806158D01*
X76027715Y-41472112D01*
X75438000Y-41354810D01*
X74848285Y-41472112D01*
X74348348Y-41806158D01*
X74289000Y-41894979D01*
X74289000Y-41835408D01*
X74231910Y-41697580D01*
X74126421Y-41592090D01*
X73988592Y-41535000D01*
X73116750Y-41535000D01*
X73023000Y-41628750D01*
X72773000Y-41628750D01*
X72679250Y-41535000D01*
X71807408Y-41535000D01*
X71669579Y-41592090D01*
X71564090Y-41697580D01*
X71507000Y-41835408D01*
X70958000Y-41835408D01*
X70958000Y-40812294D01*
X80155850Y-40812294D01*
X80288020Y-41132171D01*
X80532541Y-41377120D01*
X80852187Y-41509848D01*
X81198294Y-41510150D01*
X81518171Y-41377980D01*
X81763120Y-41133459D01*
X81895848Y-40813813D01*
X81895864Y-40795440D01*
X83358304Y-39333000D01*
X85600442Y-39333000D01*
X85612541Y-39345120D01*
X85932187Y-39477848D01*
X86278294Y-39478150D01*
X86598171Y-39345980D01*
X86843120Y-39101459D01*
X86975848Y-38781813D01*
X86976150Y-38435706D01*
X86843980Y-38115829D01*
X86599459Y-37870880D01*
X86279813Y-37738152D01*
X85933706Y-37737850D01*
X85613829Y-37870020D01*
X85600826Y-37883000D01*
X83058000Y-37883000D01*
X82826585Y-37929031D01*
X82780554Y-37938187D01*
X82545348Y-38095348D01*
X80870831Y-39769865D01*
X80853706Y-39769850D01*
X80533829Y-39902020D01*
X80288880Y-40146541D01*
X80156152Y-40466187D01*
X80155850Y-40812294D01*
X70958000Y-40812294D01*
X70958000Y-38318750D01*
X71659400Y-38318750D01*
X71659400Y-39038192D01*
X71716490Y-39176021D01*
X71821980Y-39281510D01*
X71959808Y-39338600D01*
X72679250Y-39338600D01*
X72773000Y-39244850D01*
X72773000Y-38225000D01*
X71753150Y-38225000D01*
X71659400Y-38318750D01*
X70958000Y-38318750D01*
X70958000Y-37161808D01*
X71659400Y-37161808D01*
X71659400Y-37881250D01*
X71753150Y-37975000D01*
X72773000Y-37975000D01*
X72773000Y-36955150D01*
X72679250Y-36861400D01*
X71959808Y-36861400D01*
X71821980Y-36918490D01*
X71716490Y-37023979D01*
X71659400Y-37161808D01*
X70958000Y-37161808D01*
X70958000Y-35876231D01*
X71700450Y-35876231D01*
X71827586Y-36183194D01*
X72147552Y-36545386D01*
X72581767Y-36757562D01*
X72773000Y-36698538D01*
X72773000Y-35685000D01*
X71759994Y-35685000D01*
X71700450Y-35876231D01*
X70958000Y-35876231D01*
X70958000Y-35243769D01*
X71700450Y-35243769D01*
X71759994Y-35435000D01*
X72773000Y-35435000D01*
X72773000Y-34421462D01*
X73023000Y-34421462D01*
X73023000Y-35435000D01*
X73043000Y-35435000D01*
X73043000Y-35685000D01*
X73023000Y-35685000D01*
X73023000Y-36698538D01*
X73214233Y-36757562D01*
X73648448Y-36545386D01*
X73968414Y-36183194D01*
X74088489Y-35893279D01*
X74127897Y-36091394D01*
X74428908Y-36541888D01*
X74860097Y-36830000D01*
X74428908Y-37118112D01*
X74136600Y-37555581D01*
X74136600Y-37161808D01*
X74079510Y-37023979D01*
X73974020Y-36918490D01*
X73836192Y-36861400D01*
X73116750Y-36861400D01*
X73023000Y-36955150D01*
X73023000Y-37975000D01*
X73043000Y-37975000D01*
X73043000Y-38225000D01*
X73023000Y-38225000D01*
X73023000Y-39244850D01*
X73116750Y-39338600D01*
X73836192Y-39338600D01*
X73974020Y-39281510D01*
X74079510Y-39176021D01*
X74136600Y-39038192D01*
X74136600Y-38644419D01*
X74428908Y-39081888D01*
X74879402Y-39382899D01*
X75410796Y-39488600D01*
X75465204Y-39488600D01*
X75996598Y-39382899D01*
X76447092Y-39081888D01*
X76748103Y-38631394D01*
X76853804Y-38100000D01*
X76748103Y-37568606D01*
X76447092Y-37118112D01*
X76015903Y-36830000D01*
X76447092Y-36541888D01*
X76748103Y-36091394D01*
X76853804Y-35560000D01*
X76748103Y-35028606D01*
X76447092Y-34578112D01*
X75996598Y-34277101D01*
X75465204Y-34171400D01*
X75410796Y-34171400D01*
X74879402Y-34277101D01*
X74428908Y-34578112D01*
X74127897Y-35028606D01*
X74088489Y-35226721D01*
X73968414Y-34936806D01*
X73648448Y-34574614D01*
X73214233Y-34362438D01*
X73023000Y-34421462D01*
X72773000Y-34421462D01*
X72581767Y-34362438D01*
X72147552Y-34574614D01*
X71827586Y-34936806D01*
X71700450Y-35243769D01*
X70958000Y-35243769D01*
X70958000Y-33620000D01*
X84709000Y-33620000D01*
X84938610Y-33574328D01*
X85133264Y-33444264D01*
X85263328Y-33249610D01*
X85309000Y-33020000D01*
X85309000Y-30351387D01*
X85326557Y-30351387D01*
X85715017Y-31291532D01*
X86433684Y-32011455D01*
X87373150Y-32401556D01*
X88390387Y-32402443D01*
X89330532Y-32013983D01*
X90050455Y-31295316D01*
X90440556Y-30355850D01*
X90441443Y-29338613D01*
X90052983Y-28398468D01*
X89334316Y-27678545D01*
X88394850Y-27288444D01*
X87377613Y-27287557D01*
X86437468Y-27676017D01*
X85717545Y-28394684D01*
X85327444Y-29334150D01*
X85326557Y-30351387D01*
X85309000Y-30351387D01*
X85309000Y-27270000D01*
X90459000Y-27270000D01*
X90459000Y-33020000D01*
X90459000Y-33020000D01*
G37*
X90459000Y-33020000D02*
X90504672Y-33249610D01*
X90634736Y-33444264D01*
X90829390Y-33574328D01*
X91059000Y-33620000D01*
X104810000Y-33620000D01*
X104810000Y-59090000D01*
X91059000Y-59090000D01*
X90829390Y-59135672D01*
X90634736Y-59265736D01*
X90504672Y-59460390D01*
X90459000Y-59690000D01*
X90459000Y-65440000D01*
X85309000Y-65440000D01*
X85309000Y-63371387D01*
X85326557Y-63371387D01*
X85715017Y-64311532D01*
X86433684Y-65031455D01*
X87373150Y-65421556D01*
X88390387Y-65422443D01*
X89330532Y-65033983D01*
X90050455Y-64315316D01*
X90440556Y-63375850D01*
X90441443Y-62358613D01*
X90052983Y-61418468D01*
X89334316Y-60698545D01*
X88394850Y-60308444D01*
X87377613Y-60307557D01*
X86437468Y-60696017D01*
X85717545Y-61414684D01*
X85327444Y-62354150D01*
X85326557Y-63371387D01*
X85309000Y-63371387D01*
X85309000Y-59690000D01*
X85263328Y-59460390D01*
X85133264Y-59265736D01*
X84938610Y-59135672D01*
X84709000Y-59090000D01*
X70958000Y-59090000D01*
X70958000Y-57368750D01*
X71507000Y-57368750D01*
X71507000Y-58088192D01*
X71564090Y-58226021D01*
X71669580Y-58331510D01*
X71807408Y-58388600D01*
X72679250Y-58388600D01*
X72773000Y-58294850D01*
X72773000Y-57275000D01*
X73023000Y-57275000D01*
X73023000Y-58294850D01*
X73116750Y-58388600D01*
X73988592Y-58388600D01*
X74126420Y-58331510D01*
X74231910Y-58226021D01*
X74289000Y-58088192D01*
X74289000Y-57466233D01*
X77288438Y-57466233D01*
X77500614Y-57900448D01*
X77862806Y-58220414D01*
X78169769Y-58347550D01*
X78361000Y-58288006D01*
X78361000Y-57275000D01*
X78611000Y-57275000D01*
X78611000Y-58288006D01*
X78802231Y-58347550D01*
X79109194Y-58220414D01*
X79471386Y-57900448D01*
X79683562Y-57466233D01*
X79828438Y-57466233D01*
X80040614Y-57900448D01*
X80402806Y-58220414D01*
X80709769Y-58347550D01*
X80901000Y-58288006D01*
X80901000Y-57275000D01*
X81151000Y-57275000D01*
X81151000Y-58288006D01*
X81342231Y-58347550D01*
X81649194Y-58220414D01*
X82011386Y-57900448D01*
X82223562Y-57466233D01*
X82368438Y-57466233D01*
X82580614Y-57900448D01*
X82942806Y-58220414D01*
X83249769Y-58347550D01*
X83441000Y-58288006D01*
X83441000Y-57275000D01*
X83691000Y-57275000D01*
X83691000Y-58288006D01*
X83882231Y-58347550D01*
X84189194Y-58220414D01*
X84551386Y-57900448D01*
X84763562Y-57466233D01*
X84908438Y-57466233D01*
X85120614Y-57900448D01*
X85482806Y-58220414D01*
X85789769Y-58347550D01*
X85981000Y-58288006D01*
X85981000Y-57275000D01*
X86231000Y-57275000D01*
X86231000Y-58288006D01*
X86422231Y-58347550D01*
X86729194Y-58220414D01*
X87091386Y-57900448D01*
X87303562Y-57466233D01*
X87448438Y-57466233D01*
X87660614Y-57900448D01*
X88022806Y-58220414D01*
X88329769Y-58347550D01*
X88521000Y-58288006D01*
X88521000Y-57275000D01*
X88771000Y-57275000D01*
X88771000Y-58288006D01*
X88962231Y-58347550D01*
X89269194Y-58220414D01*
X89631386Y-57900448D01*
X89843562Y-57466233D01*
X89988438Y-57466233D01*
X90200614Y-57900448D01*
X90562806Y-58220414D01*
X90869769Y-58347550D01*
X91061000Y-58288006D01*
X91061000Y-57275000D01*
X91311000Y-57275000D01*
X91311000Y-58288006D01*
X91502231Y-58347550D01*
X91809194Y-58220414D01*
X92171386Y-57900448D01*
X92383562Y-57466233D01*
X92528438Y-57466233D01*
X92740614Y-57900448D01*
X93102806Y-58220414D01*
X93409769Y-58347550D01*
X93601000Y-58288006D01*
X93601000Y-57275000D01*
X93851000Y-57275000D01*
X93851000Y-58288006D01*
X94042231Y-58347550D01*
X94349194Y-58220414D01*
X94711386Y-57900448D01*
X94923562Y-57466233D01*
X94893474Y-57368750D01*
X95027400Y-57368750D01*
X95027400Y-58088192D01*
X95084490Y-58226020D01*
X95189979Y-58331510D01*
X95327808Y-58388600D01*
X96047250Y-58388600D01*
X96141000Y-58294850D01*
X96141000Y-57275000D01*
X96391000Y-57275000D01*
X96391000Y-58294850D01*
X96484750Y-58388600D01*
X97204192Y-58388600D01*
X97342021Y-58331510D01*
X97447510Y-58226020D01*
X97504600Y-58088192D01*
X97504600Y-57368750D01*
X97410850Y-57275000D01*
X96391000Y-57275000D01*
X96141000Y-57275000D01*
X95121150Y-57275000D01*
X95027400Y-57368750D01*
X94893474Y-57368750D01*
X94864538Y-57275000D01*
X93851000Y-57275000D01*
X93601000Y-57275000D01*
X92587462Y-57275000D01*
X92528438Y-57466233D01*
X92383562Y-57466233D01*
X92324538Y-57275000D01*
X91311000Y-57275000D01*
X91061000Y-57275000D01*
X90047462Y-57275000D01*
X89988438Y-57466233D01*
X89843562Y-57466233D01*
X89784538Y-57275000D01*
X88771000Y-57275000D01*
X88521000Y-57275000D01*
X87507462Y-57275000D01*
X87448438Y-57466233D01*
X87303562Y-57466233D01*
X87244538Y-57275000D01*
X86231000Y-57275000D01*
X85981000Y-57275000D01*
X84967462Y-57275000D01*
X84908438Y-57466233D01*
X84763562Y-57466233D01*
X84704538Y-57275000D01*
X83691000Y-57275000D01*
X83441000Y-57275000D01*
X82427462Y-57275000D01*
X82368438Y-57466233D01*
X82223562Y-57466233D01*
X82164538Y-57275000D01*
X81151000Y-57275000D01*
X80901000Y-57275000D01*
X79887462Y-57275000D01*
X79828438Y-57466233D01*
X79683562Y-57466233D01*
X79624538Y-57275000D01*
X78611000Y-57275000D01*
X78361000Y-57275000D01*
X77347462Y-57275000D01*
X77288438Y-57466233D01*
X74289000Y-57466233D01*
X74289000Y-57368750D01*
X74195250Y-57275000D01*
X73023000Y-57275000D01*
X72773000Y-57275000D01*
X71600750Y-57275000D01*
X71507000Y-57368750D01*
X70958000Y-57368750D01*
X70958000Y-52070000D01*
X71326810Y-52070000D01*
X71432511Y-52601394D01*
X71733522Y-53051888D01*
X72164711Y-53340000D01*
X71733522Y-53628112D01*
X71432511Y-54078606D01*
X71326810Y-54610000D01*
X71432511Y-55141394D01*
X71733522Y-55591888D01*
X72184016Y-55892899D01*
X72277027Y-55911400D01*
X71807408Y-55911400D01*
X71669580Y-55968490D01*
X71564090Y-56073979D01*
X71507000Y-56211808D01*
X71507000Y-56931250D01*
X71600750Y-57025000D01*
X72773000Y-57025000D01*
X72773000Y-57005000D01*
X73023000Y-57005000D01*
X73023000Y-57025000D01*
X74195250Y-57025000D01*
X74289000Y-56931250D01*
X74289000Y-56211808D01*
X74231910Y-56073979D01*
X74126420Y-55968490D01*
X73988592Y-55911400D01*
X73518973Y-55911400D01*
X73611984Y-55892899D01*
X74062478Y-55591888D01*
X74363489Y-55141394D01*
X74469190Y-54610000D01*
X74463779Y-54582796D01*
X77097400Y-54582796D01*
X77097400Y-54637204D01*
X77203101Y-55168598D01*
X77504112Y-55619092D01*
X77954606Y-55920103D01*
X78152721Y-55959511D01*
X77862806Y-56079586D01*
X77500614Y-56399552D01*
X77288438Y-56833767D01*
X77347462Y-57025000D01*
X78361000Y-57025000D01*
X78361000Y-57005000D01*
X78611000Y-57005000D01*
X78611000Y-57025000D01*
X79624538Y-57025000D01*
X79683562Y-56833767D01*
X79471386Y-56399552D01*
X79109194Y-56079586D01*
X78819279Y-55959511D01*
X79017394Y-55920103D01*
X79467888Y-55619092D01*
X79756000Y-55187903D01*
X80044112Y-55619092D01*
X80494606Y-55920103D01*
X80692721Y-55959511D01*
X80402806Y-56079586D01*
X80040614Y-56399552D01*
X79828438Y-56833767D01*
X79887462Y-57025000D01*
X80901000Y-57025000D01*
X80901000Y-57005000D01*
X81151000Y-57005000D01*
X81151000Y-57025000D01*
X82164538Y-57025000D01*
X82223562Y-56833767D01*
X82011386Y-56399552D01*
X81649194Y-56079586D01*
X81359279Y-55959511D01*
X81557394Y-55920103D01*
X82007888Y-55619092D01*
X82296000Y-55187903D01*
X82584112Y-55619092D01*
X83034606Y-55920103D01*
X83232721Y-55959511D01*
X82942806Y-56079586D01*
X82580614Y-56399552D01*
X82368438Y-56833767D01*
X82427462Y-57025000D01*
X83441000Y-57025000D01*
X83441000Y-57005000D01*
X83691000Y-57005000D01*
X83691000Y-57025000D01*
X84704538Y-57025000D01*
X84763562Y-56833767D01*
X84551386Y-56399552D01*
X84189194Y-56079586D01*
X83899279Y-55959511D01*
X84097394Y-55920103D01*
X84547888Y-55619092D01*
X84836000Y-55187903D01*
X85124112Y-55619092D01*
X85574606Y-55920103D01*
X85772721Y-55959511D01*
X85482806Y-56079586D01*
X85120614Y-56399552D01*
X84908438Y-56833767D01*
X84967462Y-57025000D01*
X85981000Y-57025000D01*
X85981000Y-57005000D01*
X86231000Y-57005000D01*
X86231000Y-57025000D01*
X87244538Y-57025000D01*
X87303562Y-56833767D01*
X87091386Y-56399552D01*
X86729194Y-56079586D01*
X86439279Y-55959511D01*
X86637394Y-55920103D01*
X87087888Y-55619092D01*
X87376000Y-55187903D01*
X87664112Y-55619092D01*
X88114606Y-55920103D01*
X88312721Y-55959511D01*
X88022806Y-56079586D01*
X87660614Y-56399552D01*
X87448438Y-56833767D01*
X87507462Y-57025000D01*
X88521000Y-57025000D01*
X88521000Y-57005000D01*
X88771000Y-57005000D01*
X88771000Y-57025000D01*
X89784538Y-57025000D01*
X89843562Y-56833767D01*
X89631386Y-56399552D01*
X89269194Y-56079586D01*
X88979279Y-55959511D01*
X89177394Y-55920103D01*
X89627888Y-55619092D01*
X89916000Y-55187903D01*
X90204112Y-55619092D01*
X90654606Y-55920103D01*
X90852721Y-55959511D01*
X90562806Y-56079586D01*
X90200614Y-56399552D01*
X89988438Y-56833767D01*
X90047462Y-57025000D01*
X91061000Y-57025000D01*
X91061000Y-57005000D01*
X91311000Y-57005000D01*
X91311000Y-57025000D01*
X92324538Y-57025000D01*
X92383562Y-56833767D01*
X92171386Y-56399552D01*
X91809194Y-56079586D01*
X91519279Y-55959511D01*
X91717394Y-55920103D01*
X92167888Y-55619092D01*
X92456000Y-55187903D01*
X92744112Y-55619092D01*
X93194606Y-55920103D01*
X93392721Y-55959511D01*
X93102806Y-56079586D01*
X92740614Y-56399552D01*
X92528438Y-56833767D01*
X92587462Y-57025000D01*
X93601000Y-57025000D01*
X93601000Y-57005000D01*
X93851000Y-57005000D01*
X93851000Y-57025000D01*
X94864538Y-57025000D01*
X94923562Y-56833767D01*
X94711386Y-56399552D01*
X94349194Y-56079586D01*
X94059279Y-55959511D01*
X94257394Y-55920103D01*
X94707888Y-55619092D01*
X94996000Y-55187903D01*
X95284112Y-55619092D01*
X95721581Y-55911400D01*
X95327808Y-55911400D01*
X95189979Y-55968490D01*
X95084490Y-56073980D01*
X95027400Y-56211808D01*
X95027400Y-56931250D01*
X95121150Y-57025000D01*
X96141000Y-57025000D01*
X96141000Y-57005000D01*
X96391000Y-57005000D01*
X96391000Y-57025000D01*
X97410850Y-57025000D01*
X97504600Y-56931250D01*
X97504600Y-56211808D01*
X97447510Y-56073980D01*
X97342021Y-55968490D01*
X97204192Y-55911400D01*
X96810419Y-55911400D01*
X97247888Y-55619092D01*
X97548899Y-55168598D01*
X97654600Y-54637204D01*
X97654600Y-54582796D01*
X97548899Y-54051402D01*
X97247888Y-53600908D01*
X96797394Y-53299897D01*
X96266000Y-53194196D01*
X95734606Y-53299897D01*
X95284112Y-53600908D01*
X94996000Y-54032097D01*
X94707888Y-53600908D01*
X94257394Y-53299897D01*
X93726000Y-53194196D01*
X93194606Y-53299897D01*
X92744112Y-53600908D01*
X92456000Y-54032097D01*
X92167888Y-53600908D01*
X91717394Y-53299897D01*
X91186000Y-53194196D01*
X90654606Y-53299897D01*
X90204112Y-53600908D01*
X89916000Y-54032097D01*
X89627888Y-53600908D01*
X89177394Y-53299897D01*
X88646000Y-53194196D01*
X88114606Y-53299897D01*
X87664112Y-53600908D01*
X87376000Y-54032097D01*
X87087888Y-53600908D01*
X86637394Y-53299897D01*
X86106000Y-53194196D01*
X85574606Y-53299897D01*
X85124112Y-53600908D01*
X84836000Y-54032097D01*
X84547888Y-53600908D01*
X84097394Y-53299897D01*
X83566000Y-53194196D01*
X83034606Y-53299897D01*
X82584112Y-53600908D01*
X82296000Y-54032097D01*
X82007888Y-53600908D01*
X81557394Y-53299897D01*
X81026000Y-53194196D01*
X80494606Y-53299897D01*
X80044112Y-53600908D01*
X79756000Y-54032097D01*
X79467888Y-53600908D01*
X79017394Y-53299897D01*
X78486000Y-53194196D01*
X77954606Y-53299897D01*
X77504112Y-53600908D01*
X77203101Y-54051402D01*
X77097400Y-54582796D01*
X74463779Y-54582796D01*
X74363489Y-54078606D01*
X74062478Y-53628112D01*
X73631289Y-53340000D01*
X74062478Y-53051888D01*
X74363489Y-52601394D01*
X74469190Y-52070000D01*
X74363489Y-51538606D01*
X74062478Y-51088112D01*
X73611984Y-50787101D01*
X73080590Y-50681400D01*
X72715410Y-50681400D01*
X72184016Y-50787101D01*
X71733522Y-51088112D01*
X71432511Y-51538606D01*
X71326810Y-52070000D01*
X70958000Y-52070000D01*
X70958000Y-46736000D01*
X98914196Y-46736000D01*
X99019897Y-47267394D01*
X99320908Y-47717888D01*
X99752097Y-48006000D01*
X99320908Y-48294112D01*
X99019897Y-48744606D01*
X98914196Y-49276000D01*
X99019897Y-49807394D01*
X99320908Y-50257888D01*
X99752097Y-50546000D01*
X99320908Y-50834112D01*
X99019897Y-51284606D01*
X98914196Y-51816000D01*
X99019897Y-52347394D01*
X99320908Y-52797888D01*
X99752097Y-53086000D01*
X99320908Y-53374112D01*
X99019897Y-53824606D01*
X98914196Y-54356000D01*
X99019897Y-54887394D01*
X99320908Y-55337888D01*
X99771402Y-55638899D01*
X100302796Y-55744600D01*
X100357204Y-55744600D01*
X100888598Y-55638899D01*
X101339092Y-55337888D01*
X101640103Y-54887394D01*
X101679511Y-54689279D01*
X101799586Y-54979194D01*
X102119552Y-55341386D01*
X102553767Y-55553562D01*
X102745000Y-55494538D01*
X102745000Y-54481000D01*
X102995000Y-54481000D01*
X102995000Y-55494538D01*
X103186233Y-55553562D01*
X103620448Y-55341386D01*
X103940414Y-54979194D01*
X104067550Y-54672231D01*
X104008006Y-54481000D01*
X102995000Y-54481000D01*
X102745000Y-54481000D01*
X102725000Y-54481000D01*
X102725000Y-54231000D01*
X102745000Y-54231000D01*
X102745000Y-53217462D01*
X102995000Y-53217462D01*
X102995000Y-54231000D01*
X104008006Y-54231000D01*
X104067550Y-54039769D01*
X103940414Y-53732806D01*
X103620448Y-53370614D01*
X103186233Y-53158438D01*
X102995000Y-53217462D01*
X102745000Y-53217462D01*
X102553767Y-53158438D01*
X102119552Y-53370614D01*
X101799586Y-53732806D01*
X101679511Y-54022721D01*
X101640103Y-53824606D01*
X101339092Y-53374112D01*
X100907903Y-53086000D01*
X101339092Y-52797888D01*
X101640103Y-52347394D01*
X101679511Y-52149279D01*
X101799586Y-52439194D01*
X102119552Y-52801386D01*
X102553767Y-53013562D01*
X102745000Y-52954538D01*
X102745000Y-51941000D01*
X102995000Y-51941000D01*
X102995000Y-52954538D01*
X103186233Y-53013562D01*
X103620448Y-52801386D01*
X103940414Y-52439194D01*
X104067550Y-52132231D01*
X104008006Y-51941000D01*
X102995000Y-51941000D01*
X102745000Y-51941000D01*
X102725000Y-51941000D01*
X102725000Y-51691000D01*
X102745000Y-51691000D01*
X102745000Y-50677462D01*
X102995000Y-50677462D01*
X102995000Y-51691000D01*
X104008006Y-51691000D01*
X104067550Y-51499769D01*
X103940414Y-51192806D01*
X103620448Y-50830614D01*
X103186233Y-50618438D01*
X102995000Y-50677462D01*
X102745000Y-50677462D01*
X102553767Y-50618438D01*
X102119552Y-50830614D01*
X101799586Y-51192806D01*
X101679511Y-51482721D01*
X101640103Y-51284606D01*
X101339092Y-50834112D01*
X100907903Y-50546000D01*
X101339092Y-50257888D01*
X101640103Y-49807394D01*
X101679511Y-49609279D01*
X101799586Y-49899194D01*
X102119552Y-50261386D01*
X102553767Y-50473562D01*
X102745000Y-50414538D01*
X102745000Y-49401000D01*
X102995000Y-49401000D01*
X102995000Y-50414538D01*
X103186233Y-50473562D01*
X103620448Y-50261386D01*
X103940414Y-49899194D01*
X104067550Y-49592231D01*
X104008006Y-49401000D01*
X102995000Y-49401000D01*
X102745000Y-49401000D01*
X102725000Y-49401000D01*
X102725000Y-49151000D01*
X102745000Y-49151000D01*
X102745000Y-48137462D01*
X102995000Y-48137462D01*
X102995000Y-49151000D01*
X104008006Y-49151000D01*
X104067550Y-48959769D01*
X103940414Y-48652806D01*
X103620448Y-48290614D01*
X103186233Y-48078438D01*
X102995000Y-48137462D01*
X102745000Y-48137462D01*
X102553767Y-48078438D01*
X102119552Y-48290614D01*
X101799586Y-48652806D01*
X101679511Y-48942721D01*
X101640103Y-48744606D01*
X101339092Y-48294112D01*
X100907903Y-48006000D01*
X101339092Y-47717888D01*
X101631400Y-47280419D01*
X101631400Y-47674192D01*
X101688490Y-47812021D01*
X101793980Y-47917510D01*
X101931808Y-47974600D01*
X102651250Y-47974600D01*
X102745000Y-47880850D01*
X102745000Y-46861000D01*
X102995000Y-46861000D01*
X102995000Y-47880850D01*
X103088750Y-47974600D01*
X103808192Y-47974600D01*
X103946020Y-47917510D01*
X104051510Y-47812021D01*
X104108600Y-47674192D01*
X104108600Y-46954750D01*
X104014850Y-46861000D01*
X102995000Y-46861000D01*
X102745000Y-46861000D01*
X102725000Y-46861000D01*
X102725000Y-46611000D01*
X102745000Y-46611000D01*
X102745000Y-45591150D01*
X102995000Y-45591150D01*
X102995000Y-46611000D01*
X104014850Y-46611000D01*
X104108600Y-46517250D01*
X104108600Y-45797808D01*
X104051510Y-45659979D01*
X103946020Y-45554490D01*
X103808192Y-45497400D01*
X103088750Y-45497400D01*
X102995000Y-45591150D01*
X102745000Y-45591150D01*
X102651250Y-45497400D01*
X101931808Y-45497400D01*
X101793980Y-45554490D01*
X101688490Y-45659979D01*
X101631400Y-45797808D01*
X101631400Y-46191581D01*
X101339092Y-45754112D01*
X100888598Y-45453101D01*
X100357204Y-45347400D01*
X100302796Y-45347400D01*
X99771402Y-45453101D01*
X99320908Y-45754112D01*
X99019897Y-46204606D01*
X98914196Y-46736000D01*
X70958000Y-46736000D01*
X70958000Y-43144750D01*
X71507000Y-43144750D01*
X71507000Y-44016592D01*
X71564090Y-44154420D01*
X71669579Y-44259910D01*
X71807408Y-44317000D01*
X72679250Y-44317000D01*
X72773000Y-44223250D01*
X72773000Y-43051000D01*
X71600750Y-43051000D01*
X71507000Y-43144750D01*
X70958000Y-43144750D01*
X70958000Y-41835408D01*
X71507000Y-41835408D01*
X71507000Y-42707250D01*
X71600750Y-42801000D01*
X72773000Y-42801000D01*
X72773000Y-41628750D01*
X73023000Y-41628750D01*
X73023000Y-42801000D01*
X73043000Y-42801000D01*
X73043000Y-43051000D01*
X73023000Y-43051000D01*
X73023000Y-44223250D01*
X73116750Y-44317000D01*
X73988592Y-44317000D01*
X74126421Y-44259910D01*
X74231910Y-44154420D01*
X74289000Y-44016592D01*
X74289000Y-43957021D01*
X74348348Y-44045842D01*
X74848285Y-44379888D01*
X75438000Y-44497190D01*
X76027715Y-44379888D01*
X76527652Y-44045842D01*
X76861698Y-43545905D01*
X76979000Y-42956190D01*
X76979000Y-42895810D01*
X76861698Y-42306095D01*
X76527652Y-41806158D01*
X76027715Y-41472112D01*
X75438000Y-41354810D01*
X74848285Y-41472112D01*
X74348348Y-41806158D01*
X74289000Y-41894979D01*
X74289000Y-41835408D01*
X74231910Y-41697580D01*
X74126421Y-41592090D01*
X73988592Y-41535000D01*
X73116750Y-41535000D01*
X73023000Y-41628750D01*
X72773000Y-41628750D01*
X72679250Y-41535000D01*
X71807408Y-41535000D01*
X71669579Y-41592090D01*
X71564090Y-41697580D01*
X71507000Y-41835408D01*
X70958000Y-41835408D01*
X70958000Y-40812294D01*
X80155850Y-40812294D01*
X80288020Y-41132171D01*
X80532541Y-41377120D01*
X80852187Y-41509848D01*
X81198294Y-41510150D01*
X81518171Y-41377980D01*
X81763120Y-41133459D01*
X81895848Y-40813813D01*
X81895864Y-40795440D01*
X83358304Y-39333000D01*
X85600442Y-39333000D01*
X85612541Y-39345120D01*
X85932187Y-39477848D01*
X86278294Y-39478150D01*
X86598171Y-39345980D01*
X86843120Y-39101459D01*
X86975848Y-38781813D01*
X86976150Y-38435706D01*
X86843980Y-38115829D01*
X86599459Y-37870880D01*
X86279813Y-37738152D01*
X85933706Y-37737850D01*
X85613829Y-37870020D01*
X85600826Y-37883000D01*
X83058000Y-37883000D01*
X82826585Y-37929031D01*
X82780554Y-37938187D01*
X82545348Y-38095348D01*
X80870831Y-39769865D01*
X80853706Y-39769850D01*
X80533829Y-39902020D01*
X80288880Y-40146541D01*
X80156152Y-40466187D01*
X80155850Y-40812294D01*
X70958000Y-40812294D01*
X70958000Y-38318750D01*
X71659400Y-38318750D01*
X71659400Y-39038192D01*
X71716490Y-39176021D01*
X71821980Y-39281510D01*
X71959808Y-39338600D01*
X72679250Y-39338600D01*
X72773000Y-39244850D01*
X72773000Y-38225000D01*
X71753150Y-38225000D01*
X71659400Y-38318750D01*
X70958000Y-38318750D01*
X70958000Y-37161808D01*
X71659400Y-37161808D01*
X71659400Y-37881250D01*
X71753150Y-37975000D01*
X72773000Y-37975000D01*
X72773000Y-36955150D01*
X72679250Y-36861400D01*
X71959808Y-36861400D01*
X71821980Y-36918490D01*
X71716490Y-37023979D01*
X71659400Y-37161808D01*
X70958000Y-37161808D01*
X70958000Y-35876231D01*
X71700450Y-35876231D01*
X71827586Y-36183194D01*
X72147552Y-36545386D01*
X72581767Y-36757562D01*
X72773000Y-36698538D01*
X72773000Y-35685000D01*
X71759994Y-35685000D01*
X71700450Y-35876231D01*
X70958000Y-35876231D01*
X70958000Y-35243769D01*
X71700450Y-35243769D01*
X71759994Y-35435000D01*
X72773000Y-35435000D01*
X72773000Y-34421462D01*
X73023000Y-34421462D01*
X73023000Y-35435000D01*
X73043000Y-35435000D01*
X73043000Y-35685000D01*
X73023000Y-35685000D01*
X73023000Y-36698538D01*
X73214233Y-36757562D01*
X73648448Y-36545386D01*
X73968414Y-36183194D01*
X74088489Y-35893279D01*
X74127897Y-36091394D01*
X74428908Y-36541888D01*
X74860097Y-36830000D01*
X74428908Y-37118112D01*
X74136600Y-37555581D01*
X74136600Y-37161808D01*
X74079510Y-37023979D01*
X73974020Y-36918490D01*
X73836192Y-36861400D01*
X73116750Y-36861400D01*
X73023000Y-36955150D01*
X73023000Y-37975000D01*
X73043000Y-37975000D01*
X73043000Y-38225000D01*
X73023000Y-38225000D01*
X73023000Y-39244850D01*
X73116750Y-39338600D01*
X73836192Y-39338600D01*
X73974020Y-39281510D01*
X74079510Y-39176021D01*
X74136600Y-39038192D01*
X74136600Y-38644419D01*
X74428908Y-39081888D01*
X74879402Y-39382899D01*
X75410796Y-39488600D01*
X75465204Y-39488600D01*
X75996598Y-39382899D01*
X76447092Y-39081888D01*
X76748103Y-38631394D01*
X76853804Y-38100000D01*
X76748103Y-37568606D01*
X76447092Y-37118112D01*
X76015903Y-36830000D01*
X76447092Y-36541888D01*
X76748103Y-36091394D01*
X76853804Y-35560000D01*
X76748103Y-35028606D01*
X76447092Y-34578112D01*
X75996598Y-34277101D01*
X75465204Y-34171400D01*
X75410796Y-34171400D01*
X74879402Y-34277101D01*
X74428908Y-34578112D01*
X74127897Y-35028606D01*
X74088489Y-35226721D01*
X73968414Y-34936806D01*
X73648448Y-34574614D01*
X73214233Y-34362438D01*
X73023000Y-34421462D01*
X72773000Y-34421462D01*
X72581767Y-34362438D01*
X72147552Y-34574614D01*
X71827586Y-34936806D01*
X71700450Y-35243769D01*
X70958000Y-35243769D01*
X70958000Y-33620000D01*
X84709000Y-33620000D01*
X84938610Y-33574328D01*
X85133264Y-33444264D01*
X85263328Y-33249610D01*
X85309000Y-33020000D01*
X85309000Y-30351387D01*
X85326557Y-30351387D01*
X85715017Y-31291532D01*
X86433684Y-32011455D01*
X87373150Y-32401556D01*
X88390387Y-32402443D01*
X89330532Y-32013983D01*
X90050455Y-31295316D01*
X90440556Y-30355850D01*
X90441443Y-29338613D01*
X90052983Y-28398468D01*
X89334316Y-27678545D01*
X88394850Y-27288444D01*
X87377613Y-27287557D01*
X86437468Y-27676017D01*
X85717545Y-28394684D01*
X85327444Y-29334150D01*
X85326557Y-30351387D01*
X85309000Y-30351387D01*
X85309000Y-27270000D01*
X90459000Y-27270000D01*
X90459000Y-33020000D01*
M02*
