G04 #@! TF.FileFunction,Copper,L1,Top,Signal*
%FSLAX46Y46*%
G04 Gerber Fmt 4.6, Leading zero omitted, Abs format (unit mm)*
G04 Created by KiCad (PCBNEW 4.0.2-stable) date Thursday, June 23, 2016 'PMt' 10:58:24 PM*
%MOMM*%
G01*
G04 APERTURE LIST*
%ADD10C,0.100000*%
%ADD11R,0.600000X0.400000*%
%ADD12R,1.727200X1.727200*%
%ADD13O,1.727200X1.727200*%
%ADD14R,1.143000X0.508000*%
%ADD15R,4.089400X3.505200*%
%ADD16R,1.000000X1.600000*%
%ADD17R,2.032000X1.727200*%
%ADD18O,2.032000X1.727200*%
%ADD19R,0.800000X0.750000*%
%ADD20R,0.500000X0.600000*%
%ADD21R,1.250000X1.000000*%
%ADD22R,1.600000X1.000000*%
%ADD23R,0.910000X1.220000*%
%ADD24C,4.064000*%
%ADD25R,1.300000X0.700000*%
%ADD26R,0.900000X0.500000*%
%ADD27R,0.500000X0.900000*%
%ADD28C,0.690000*%
%ADD29C,0.200000*%
%ADD30C,0.250000*%
G04 APERTURE END LIST*
D10*
D11*
X80518000Y-50938000D03*
X80518000Y-50038000D03*
D12*
X96266000Y-57150000D03*
D13*
X96266000Y-54610000D03*
X93726000Y-57150000D03*
X93726000Y-54610000D03*
X91186000Y-57150000D03*
X91186000Y-54610000D03*
X88646000Y-57150000D03*
X88646000Y-54610000D03*
X86106000Y-57150000D03*
X86106000Y-54610000D03*
X83566000Y-57150000D03*
X83566000Y-54610000D03*
X81026000Y-57150000D03*
X81026000Y-54610000D03*
X78486000Y-57150000D03*
X78486000Y-54610000D03*
D14*
X87376000Y-41656000D03*
X87376000Y-42926000D03*
X87376000Y-44196000D03*
X87376000Y-45466000D03*
X81026000Y-45466000D03*
X81026000Y-44196000D03*
X81026000Y-42926000D03*
X81026000Y-41656000D03*
D15*
X91059000Y-38862000D03*
X100330000Y-38862000D03*
D12*
X72898000Y-38100000D03*
D13*
X75438000Y-38100000D03*
X72898000Y-35560000D03*
X75438000Y-35560000D03*
D16*
X75390000Y-41910000D03*
X72390000Y-41910000D03*
D17*
X72898000Y-57150000D03*
D18*
X72898000Y-54610000D03*
X72898000Y-52070000D03*
D19*
X86106000Y-37084000D03*
X84606000Y-37084000D03*
D20*
X77216000Y-46990000D03*
X77216000Y-48090000D03*
X92710000Y-47244000D03*
X92710000Y-46144000D03*
D21*
X90678000Y-47244000D03*
X90678000Y-45244000D03*
D22*
X96774000Y-48212000D03*
X96774000Y-45212000D03*
D23*
X86106000Y-34798000D03*
X82836000Y-34798000D03*
D12*
X102870000Y-46482000D03*
D13*
X100330000Y-46482000D03*
X102870000Y-49022000D03*
X100330000Y-49022000D03*
X102870000Y-51562000D03*
X100330000Y-51562000D03*
X102870000Y-54102000D03*
X100330000Y-54102000D03*
D24*
X87884000Y-29845000D03*
X87884000Y-62865000D03*
D11*
X78486000Y-50938000D03*
X78486000Y-50038000D03*
D25*
X83058000Y-51938000D03*
X83058000Y-50038000D03*
D26*
X85598000Y-51538000D03*
X85598000Y-50038000D03*
D25*
X88138000Y-51938000D03*
X88138000Y-50038000D03*
D11*
X90424000Y-50938000D03*
X90424000Y-50038000D03*
X92202000Y-50938000D03*
X92202000Y-50038000D03*
X94234000Y-50938000D03*
X94234000Y-50038000D03*
X94488000Y-45212000D03*
X94488000Y-46112000D03*
D27*
X97536000Y-50292000D03*
X96036000Y-50292000D03*
D11*
X75438000Y-45974000D03*
X75438000Y-46874000D03*
D28*
X82677000Y-45085000D03*
X83693000Y-45085000D03*
X84709000Y-45085000D03*
X85725000Y-45085000D03*
X82677000Y-44069000D03*
X83693000Y-44069000D03*
X84709000Y-44069000D03*
X85725000Y-44069000D03*
X82677000Y-42037000D03*
X83693000Y-42037000D03*
X84709000Y-42037000D03*
X85725000Y-42037000D03*
X82677000Y-43053000D03*
X83693000Y-43053000D03*
X84709000Y-43053000D03*
X85725000Y-43053000D03*
X81026000Y-40640000D03*
X83566000Y-37084000D03*
D29*
X73914000Y-46482000D02*
X77470000Y-42926000D01*
X75390000Y-41910000D02*
X76454000Y-41910000D01*
X76454000Y-41910000D02*
X77470000Y-42926000D01*
X81026000Y-42926000D02*
X77470000Y-42926000D01*
X72898000Y-52070000D02*
X73914000Y-51054000D01*
X73914000Y-51054000D02*
X73914000Y-46482000D01*
X83693000Y-45085000D02*
X82677000Y-45085000D01*
X84709000Y-45085000D02*
X83693000Y-45085000D01*
X85725000Y-45085000D02*
X84709000Y-45085000D01*
X85725000Y-44069000D02*
X85725000Y-45085000D01*
X83693000Y-44069000D02*
X82677000Y-44069000D01*
X84709000Y-44069000D02*
X83693000Y-44069000D01*
X85725000Y-44069000D02*
X84709000Y-44069000D01*
X85725000Y-43053000D02*
X85725000Y-44069000D01*
X83693000Y-42037000D02*
X82677000Y-42037000D01*
X84709000Y-42037000D02*
X83693000Y-42037000D01*
X85725000Y-42037000D02*
X84709000Y-42037000D01*
X85725000Y-43053000D02*
X85725000Y-42037000D01*
X83693000Y-43053000D02*
X82677000Y-43053000D01*
X84709000Y-43053000D02*
X83693000Y-43053000D01*
X85725000Y-43053000D02*
X84709000Y-43053000D01*
X86868000Y-42926000D02*
X86741000Y-43053000D01*
X86741000Y-43053000D02*
X85725000Y-43053000D01*
X87376000Y-42926000D02*
X86868000Y-42926000D01*
X87249000Y-43053000D02*
X87376000Y-42926000D01*
X89694000Y-45244000D02*
X87376000Y-42926000D01*
X90678000Y-45244000D02*
X89694000Y-45244000D01*
X94488000Y-45212000D02*
X96774000Y-45212000D01*
X90678000Y-45244000D02*
X94456000Y-45244000D01*
X94456000Y-45244000D02*
X94488000Y-45212000D01*
X81026000Y-40640000D02*
X81026000Y-41656000D01*
X84606000Y-37084000D02*
X83566000Y-37084000D01*
X78690000Y-45466000D02*
X81026000Y-45466000D01*
D30*
X77216000Y-46990000D02*
X77216000Y-46940000D01*
X77216000Y-46940000D02*
X78690000Y-45466000D01*
D29*
X90678000Y-47244000D02*
X90553000Y-47244000D01*
X90553000Y-47244000D02*
X87505000Y-44196000D01*
X87505000Y-44196000D02*
X87376000Y-44196000D01*
X90678000Y-47244000D02*
X92710000Y-47244000D01*
D30*
X87376000Y-44196000D02*
X87693500Y-44196000D01*
X90678000Y-47180500D02*
X90678000Y-47244000D01*
D29*
X94488000Y-46112000D02*
X92742000Y-46112000D01*
X92742000Y-46112000D02*
X92710000Y-46144000D01*
X74422000Y-53086000D02*
X74422000Y-46890000D01*
X72898000Y-54610000D02*
X74422000Y-53086000D01*
X74422000Y-46890000D02*
X75338000Y-45974000D01*
X75338000Y-45974000D02*
X75438000Y-45974000D01*
X75438000Y-45974000D02*
X77216000Y-44196000D01*
X77216000Y-44196000D02*
X81026000Y-44196000D01*
X94234000Y-50938000D02*
X94234000Y-52578000D01*
X94234000Y-52578000D02*
X96266000Y-54610000D01*
X92202000Y-50938000D02*
X92202000Y-53086000D01*
X92202000Y-53086000D02*
X93726000Y-54610000D01*
X90424000Y-50938000D02*
X90424000Y-53848000D01*
X90424000Y-53848000D02*
X91186000Y-54610000D01*
X88138000Y-51938000D02*
X88138000Y-54102000D01*
X88138000Y-54102000D02*
X88646000Y-54610000D01*
X85598000Y-51538000D02*
X85598000Y-54102000D01*
X85598000Y-54102000D02*
X86106000Y-54610000D01*
X83058000Y-51938000D02*
X83058000Y-54102000D01*
X83058000Y-54102000D02*
X83566000Y-54610000D01*
X80518000Y-50938000D02*
X80518000Y-54102000D01*
X80518000Y-54102000D02*
X81026000Y-54610000D01*
X78486000Y-50938000D02*
X78486000Y-51338000D01*
X78486000Y-51338000D02*
X78486000Y-54610000D01*
X88138000Y-50038000D02*
X88138000Y-46228000D01*
X88147500Y-46218500D02*
X88147500Y-45920000D01*
X88138000Y-46228000D02*
X88147500Y-46218500D01*
X88147500Y-45920000D02*
X87693500Y-45466000D01*
X87693500Y-45466000D02*
X87376000Y-45466000D01*
X80518000Y-50038000D02*
X78486000Y-50038000D01*
X83058000Y-50038000D02*
X80518000Y-50038000D01*
X85598000Y-50038000D02*
X83058000Y-50038000D01*
X88138000Y-50038000D02*
X85598000Y-50038000D01*
X90424000Y-50038000D02*
X88138000Y-50038000D01*
X92202000Y-50038000D02*
X90424000Y-50038000D01*
X94234000Y-50038000D02*
X92202000Y-50038000D01*
X96012000Y-50292000D02*
X95758000Y-50038000D01*
X95758000Y-50038000D02*
X94234000Y-50038000D01*
X96036000Y-50292000D02*
X96012000Y-50292000D01*
D30*
G36*
X86489000Y-41323647D02*
X86473133Y-41402000D01*
X86473133Y-41910000D01*
X86489000Y-41994326D01*
X86489000Y-42164000D01*
X86498848Y-42212632D01*
X86526841Y-42253601D01*
X86568568Y-42280451D01*
X86614000Y-42289000D01*
X87832224Y-42289000D01*
X88013000Y-42469776D01*
X88013000Y-43382224D01*
X87832224Y-43563000D01*
X86614000Y-43563000D01*
X86565368Y-43572848D01*
X86524399Y-43600841D01*
X86497549Y-43642568D01*
X86489000Y-43688000D01*
X86489000Y-43863647D01*
X86473133Y-43942000D01*
X86473133Y-44450000D01*
X86489000Y-44534326D01*
X86489000Y-45133647D01*
X86473133Y-45212000D01*
X86473133Y-45720000D01*
X86489000Y-45804326D01*
X86489000Y-46103000D01*
X82167000Y-46103000D01*
X82167000Y-41019000D01*
X86489000Y-41019000D01*
X86489000Y-41323647D01*
X86489000Y-41323647D01*
G37*
X86489000Y-41323647D02*
X86473133Y-41402000D01*
X86473133Y-41910000D01*
X86489000Y-41994326D01*
X86489000Y-42164000D01*
X86498848Y-42212632D01*
X86526841Y-42253601D01*
X86568568Y-42280451D01*
X86614000Y-42289000D01*
X87832224Y-42289000D01*
X88013000Y-42469776D01*
X88013000Y-43382224D01*
X87832224Y-43563000D01*
X86614000Y-43563000D01*
X86565368Y-43572848D01*
X86524399Y-43600841D01*
X86497549Y-43642568D01*
X86489000Y-43688000D01*
X86489000Y-43863647D01*
X86473133Y-43942000D01*
X86473133Y-44450000D01*
X86489000Y-44534326D01*
X86489000Y-45133647D01*
X86473133Y-45212000D01*
X86473133Y-45720000D01*
X86489000Y-45804326D01*
X86489000Y-46103000D01*
X82167000Y-46103000D01*
X82167000Y-41019000D01*
X86489000Y-41019000D01*
X86489000Y-41323647D01*
G36*
X86231000Y-34673000D02*
X86842250Y-34673000D01*
X86846250Y-34669000D01*
X89102224Y-34669000D01*
X91222687Y-36789463D01*
X91184000Y-36828150D01*
X91184000Y-38737000D01*
X91204000Y-38737000D01*
X91204000Y-38987000D01*
X91184000Y-38987000D01*
X91184000Y-40895850D01*
X91222687Y-40934537D01*
X90372224Y-41785000D01*
X88232750Y-41785000D01*
X88228750Y-41781000D01*
X87501000Y-41781000D01*
X87501000Y-41785000D01*
X87251000Y-41785000D01*
X87251000Y-41781000D01*
X87247000Y-41781000D01*
X87247000Y-41531000D01*
X87251000Y-41531000D01*
X87251000Y-41120750D01*
X87501000Y-41120750D01*
X87501000Y-41531000D01*
X88228750Y-41531000D01*
X88322500Y-41437250D01*
X88322500Y-41327408D01*
X88265410Y-41189580D01*
X88159921Y-41084090D01*
X88022092Y-41027000D01*
X87594750Y-41027000D01*
X87501000Y-41120750D01*
X87251000Y-41120750D01*
X87247000Y-41116750D01*
X87247000Y-39116000D01*
X87239862Y-39080750D01*
X88639300Y-39080750D01*
X88639300Y-40689192D01*
X88696390Y-40827021D01*
X88801880Y-40932510D01*
X88939708Y-40989600D01*
X90840250Y-40989600D01*
X90934000Y-40895850D01*
X90934000Y-38987000D01*
X88733050Y-38987000D01*
X88639300Y-39080750D01*
X87239862Y-39080750D01*
X87237152Y-39067368D01*
X87210388Y-39027612D01*
X85977000Y-37794224D01*
X85977000Y-37744250D01*
X85981000Y-37740250D01*
X85981000Y-37209000D01*
X86231000Y-37209000D01*
X86231000Y-37740250D01*
X86324750Y-37834000D01*
X86580592Y-37834000D01*
X86718420Y-37776910D01*
X86823910Y-37671421D01*
X86881000Y-37533592D01*
X86881000Y-37302750D01*
X86787250Y-37209000D01*
X86231000Y-37209000D01*
X85981000Y-37209000D01*
X85977000Y-37209000D01*
X85977000Y-37034808D01*
X88639300Y-37034808D01*
X88639300Y-38643250D01*
X88733050Y-38737000D01*
X90934000Y-38737000D01*
X90934000Y-36828150D01*
X90840250Y-36734400D01*
X88939708Y-36734400D01*
X88801880Y-36791490D01*
X88696390Y-36896979D01*
X88639300Y-37034808D01*
X85977000Y-37034808D01*
X85977000Y-36959000D01*
X85981000Y-36959000D01*
X85981000Y-36427750D01*
X86231000Y-36427750D01*
X86231000Y-36959000D01*
X86787250Y-36959000D01*
X86881000Y-36865250D01*
X86881000Y-36634408D01*
X86823910Y-36496579D01*
X86718420Y-36391090D01*
X86580592Y-36334000D01*
X86324750Y-36334000D01*
X86231000Y-36427750D01*
X85981000Y-36427750D01*
X85977000Y-36423750D01*
X85977000Y-35693250D01*
X85981000Y-35689250D01*
X85981000Y-34923000D01*
X86231000Y-34923000D01*
X86231000Y-35689250D01*
X86324750Y-35783000D01*
X86635592Y-35783000D01*
X86773420Y-35725910D01*
X86878910Y-35620421D01*
X86936000Y-35482592D01*
X86936000Y-35016750D01*
X86842250Y-34923000D01*
X86231000Y-34923000D01*
X85981000Y-34923000D01*
X85977000Y-34923000D01*
X85977000Y-34673000D01*
X85981000Y-34673000D01*
X85981000Y-34669000D01*
X86231000Y-34669000D01*
X86231000Y-34673000D01*
X86231000Y-34673000D01*
G37*
X86231000Y-34673000D02*
X86842250Y-34673000D01*
X86846250Y-34669000D01*
X89102224Y-34669000D01*
X91222687Y-36789463D01*
X91184000Y-36828150D01*
X91184000Y-38737000D01*
X91204000Y-38737000D01*
X91204000Y-38987000D01*
X91184000Y-38987000D01*
X91184000Y-40895850D01*
X91222687Y-40934537D01*
X90372224Y-41785000D01*
X88232750Y-41785000D01*
X88228750Y-41781000D01*
X87501000Y-41781000D01*
X87501000Y-41785000D01*
X87251000Y-41785000D01*
X87251000Y-41781000D01*
X87247000Y-41781000D01*
X87247000Y-41531000D01*
X87251000Y-41531000D01*
X87251000Y-41120750D01*
X87501000Y-41120750D01*
X87501000Y-41531000D01*
X88228750Y-41531000D01*
X88322500Y-41437250D01*
X88322500Y-41327408D01*
X88265410Y-41189580D01*
X88159921Y-41084090D01*
X88022092Y-41027000D01*
X87594750Y-41027000D01*
X87501000Y-41120750D01*
X87251000Y-41120750D01*
X87247000Y-41116750D01*
X87247000Y-39116000D01*
X87239862Y-39080750D01*
X88639300Y-39080750D01*
X88639300Y-40689192D01*
X88696390Y-40827021D01*
X88801880Y-40932510D01*
X88939708Y-40989600D01*
X90840250Y-40989600D01*
X90934000Y-40895850D01*
X90934000Y-38987000D01*
X88733050Y-38987000D01*
X88639300Y-39080750D01*
X87239862Y-39080750D01*
X87237152Y-39067368D01*
X87210388Y-39027612D01*
X85977000Y-37794224D01*
X85977000Y-37744250D01*
X85981000Y-37740250D01*
X85981000Y-37209000D01*
X86231000Y-37209000D01*
X86231000Y-37740250D01*
X86324750Y-37834000D01*
X86580592Y-37834000D01*
X86718420Y-37776910D01*
X86823910Y-37671421D01*
X86881000Y-37533592D01*
X86881000Y-37302750D01*
X86787250Y-37209000D01*
X86231000Y-37209000D01*
X85981000Y-37209000D01*
X85977000Y-37209000D01*
X85977000Y-37034808D01*
X88639300Y-37034808D01*
X88639300Y-38643250D01*
X88733050Y-38737000D01*
X90934000Y-38737000D01*
X90934000Y-36828150D01*
X90840250Y-36734400D01*
X88939708Y-36734400D01*
X88801880Y-36791490D01*
X88696390Y-36896979D01*
X88639300Y-37034808D01*
X85977000Y-37034808D01*
X85977000Y-36959000D01*
X85981000Y-36959000D01*
X85981000Y-36427750D01*
X86231000Y-36427750D01*
X86231000Y-36959000D01*
X86787250Y-36959000D01*
X86881000Y-36865250D01*
X86881000Y-36634408D01*
X86823910Y-36496579D01*
X86718420Y-36391090D01*
X86580592Y-36334000D01*
X86324750Y-36334000D01*
X86231000Y-36427750D01*
X85981000Y-36427750D01*
X85977000Y-36423750D01*
X85977000Y-35693250D01*
X85981000Y-35689250D01*
X85981000Y-34923000D01*
X86231000Y-34923000D01*
X86231000Y-35689250D01*
X86324750Y-35783000D01*
X86635592Y-35783000D01*
X86773420Y-35725910D01*
X86878910Y-35620421D01*
X86936000Y-35482592D01*
X86936000Y-35016750D01*
X86842250Y-34923000D01*
X86231000Y-34923000D01*
X85981000Y-34923000D01*
X85977000Y-34923000D01*
X85977000Y-34673000D01*
X85981000Y-34673000D01*
X85981000Y-34669000D01*
X86231000Y-34669000D01*
X86231000Y-34673000D01*
G36*
X98004050Y-38737000D02*
X100205000Y-38737000D01*
X100205000Y-38733000D01*
X100455000Y-38733000D01*
X100455000Y-38737000D01*
X102655950Y-38737000D01*
X102659950Y-38733000D01*
X102818224Y-38733000D01*
X102999000Y-38913776D01*
X102999000Y-42874224D01*
X100563139Y-45310085D01*
X100455000Y-45343462D01*
X100455000Y-46357000D01*
X100459000Y-46357000D01*
X100459000Y-46607000D01*
X100455000Y-46607000D01*
X100455000Y-47620538D01*
X100459000Y-47621773D01*
X100459000Y-47882227D01*
X100455000Y-47883462D01*
X100455000Y-48897000D01*
X100459000Y-48897000D01*
X100459000Y-49147000D01*
X100455000Y-49147000D01*
X100455000Y-50160538D01*
X100459000Y-50161773D01*
X100459000Y-50422227D01*
X100455000Y-50423462D01*
X100455000Y-51437000D01*
X100459000Y-51437000D01*
X100459000Y-51687000D01*
X100455000Y-51687000D01*
X100455000Y-52700538D01*
X100459000Y-52701773D01*
X100459000Y-52962227D01*
X100455000Y-52963462D01*
X100455000Y-53977000D01*
X100459000Y-53977000D01*
X100459000Y-54227000D01*
X100455000Y-54227000D01*
X100455000Y-54231000D01*
X100205000Y-54231000D01*
X100205000Y-54227000D01*
X99191994Y-54227000D01*
X99190749Y-54231000D01*
X99111776Y-54231000D01*
X98666545Y-53785769D01*
X99132450Y-53785769D01*
X99191994Y-53977000D01*
X100205000Y-53977000D01*
X100205000Y-52963462D01*
X100013767Y-52904438D01*
X99579552Y-53116614D01*
X99259586Y-53478806D01*
X99132450Y-53785769D01*
X98666545Y-53785769D01*
X97407000Y-52526224D01*
X97407000Y-51878231D01*
X99132450Y-51878231D01*
X99259586Y-52185194D01*
X99579552Y-52547386D01*
X100013767Y-52759562D01*
X100205000Y-52700538D01*
X100205000Y-51687000D01*
X99191994Y-51687000D01*
X99132450Y-51878231D01*
X97407000Y-51878231D01*
X97407000Y-51245769D01*
X99132450Y-51245769D01*
X99191994Y-51437000D01*
X100205000Y-51437000D01*
X100205000Y-50423462D01*
X100013767Y-50364438D01*
X99579552Y-50576614D01*
X99259586Y-50938806D01*
X99132450Y-51245769D01*
X97407000Y-51245769D01*
X97407000Y-51027250D01*
X97411000Y-51023250D01*
X97411000Y-50417000D01*
X97661000Y-50417000D01*
X97661000Y-51023250D01*
X97754750Y-51117000D01*
X97860592Y-51117000D01*
X97998420Y-51059910D01*
X98103910Y-50954421D01*
X98161000Y-50816592D01*
X98161000Y-50510750D01*
X98067250Y-50417000D01*
X97661000Y-50417000D01*
X97411000Y-50417000D01*
X97407000Y-50417000D01*
X97407000Y-50167000D01*
X97411000Y-50167000D01*
X97411000Y-49560750D01*
X97661000Y-49560750D01*
X97661000Y-50167000D01*
X98067250Y-50167000D01*
X98161000Y-50073250D01*
X98161000Y-49767408D01*
X98103910Y-49629579D01*
X97998420Y-49524090D01*
X97860592Y-49467000D01*
X97754750Y-49467000D01*
X97661000Y-49560750D01*
X97411000Y-49560750D01*
X97317250Y-49467000D01*
X97211408Y-49467000D01*
X97162171Y-49487395D01*
X97013007Y-49338231D01*
X99132450Y-49338231D01*
X99259586Y-49645194D01*
X99579552Y-50007386D01*
X100013767Y-50219562D01*
X100205000Y-50160538D01*
X100205000Y-49147000D01*
X99191994Y-49147000D01*
X99132450Y-49338231D01*
X97013007Y-49338231D01*
X96649000Y-48974224D01*
X96649000Y-48337000D01*
X96899000Y-48337000D01*
X96899000Y-48993250D01*
X96992750Y-49087000D01*
X97648592Y-49087000D01*
X97786421Y-49029910D01*
X97891910Y-48924420D01*
X97949000Y-48786592D01*
X97949000Y-48705769D01*
X99132450Y-48705769D01*
X99191994Y-48897000D01*
X100205000Y-48897000D01*
X100205000Y-47883462D01*
X100013767Y-47824438D01*
X99579552Y-48036614D01*
X99259586Y-48398806D01*
X99132450Y-48705769D01*
X97949000Y-48705769D01*
X97949000Y-48430750D01*
X97855250Y-48337000D01*
X96899000Y-48337000D01*
X96649000Y-48337000D01*
X96645000Y-48337000D01*
X96645000Y-48087000D01*
X96649000Y-48087000D01*
X96649000Y-47430750D01*
X96899000Y-47430750D01*
X96899000Y-48087000D01*
X97855250Y-48087000D01*
X97949000Y-47993250D01*
X97949000Y-47637408D01*
X97891910Y-47499580D01*
X97786421Y-47394090D01*
X97648592Y-47337000D01*
X96992750Y-47337000D01*
X96899000Y-47430750D01*
X96649000Y-47430750D01*
X96645000Y-47426750D01*
X96645000Y-47041776D01*
X96888545Y-46798231D01*
X99132450Y-46798231D01*
X99259586Y-47105194D01*
X99579552Y-47467386D01*
X100013767Y-47679562D01*
X100205000Y-47620538D01*
X100205000Y-46607000D01*
X99191994Y-46607000D01*
X99132450Y-46798231D01*
X96888545Y-46798231D01*
X97521007Y-46165769D01*
X99132450Y-46165769D01*
X99191994Y-46357000D01*
X100205000Y-46357000D01*
X100205000Y-45343462D01*
X100013767Y-45284438D01*
X99579552Y-45496614D01*
X99259586Y-45858806D01*
X99132450Y-46165769D01*
X97521007Y-46165769D01*
X97659496Y-46027280D01*
X97694438Y-46020705D01*
X97805053Y-45949526D01*
X97879260Y-45840920D01*
X97889127Y-45792196D01*
X97905813Y-45767037D01*
X97915000Y-45720000D01*
X97915000Y-44704000D01*
X97905152Y-44655368D01*
X97890661Y-44633842D01*
X97882705Y-44591562D01*
X97811526Y-44480947D01*
X97702920Y-44406740D01*
X97661034Y-44398258D01*
X97661000Y-44398224D01*
X97661000Y-39080750D01*
X97910300Y-39080750D01*
X97910300Y-40689192D01*
X97967390Y-40827021D01*
X98072880Y-40932510D01*
X98210708Y-40989600D01*
X100111250Y-40989600D01*
X100205000Y-40895850D01*
X100205000Y-38987000D01*
X100455000Y-38987000D01*
X100455000Y-40895850D01*
X100548750Y-40989600D01*
X102449292Y-40989600D01*
X102587120Y-40932510D01*
X102692610Y-40827021D01*
X102749700Y-40689192D01*
X102749700Y-39080750D01*
X102655950Y-38987000D01*
X100455000Y-38987000D01*
X100205000Y-38987000D01*
X98004050Y-38987000D01*
X97910300Y-39080750D01*
X97661000Y-39080750D01*
X97661000Y-38913776D01*
X97841776Y-38733000D01*
X98000050Y-38733000D01*
X98004050Y-38737000D01*
X98004050Y-38737000D01*
G37*
X98004050Y-38737000D02*
X100205000Y-38737000D01*
X100205000Y-38733000D01*
X100455000Y-38733000D01*
X100455000Y-38737000D01*
X102655950Y-38737000D01*
X102659950Y-38733000D01*
X102818224Y-38733000D01*
X102999000Y-38913776D01*
X102999000Y-42874224D01*
X100563139Y-45310085D01*
X100455000Y-45343462D01*
X100455000Y-46357000D01*
X100459000Y-46357000D01*
X100459000Y-46607000D01*
X100455000Y-46607000D01*
X100455000Y-47620538D01*
X100459000Y-47621773D01*
X100459000Y-47882227D01*
X100455000Y-47883462D01*
X100455000Y-48897000D01*
X100459000Y-48897000D01*
X100459000Y-49147000D01*
X100455000Y-49147000D01*
X100455000Y-50160538D01*
X100459000Y-50161773D01*
X100459000Y-50422227D01*
X100455000Y-50423462D01*
X100455000Y-51437000D01*
X100459000Y-51437000D01*
X100459000Y-51687000D01*
X100455000Y-51687000D01*
X100455000Y-52700538D01*
X100459000Y-52701773D01*
X100459000Y-52962227D01*
X100455000Y-52963462D01*
X100455000Y-53977000D01*
X100459000Y-53977000D01*
X100459000Y-54227000D01*
X100455000Y-54227000D01*
X100455000Y-54231000D01*
X100205000Y-54231000D01*
X100205000Y-54227000D01*
X99191994Y-54227000D01*
X99190749Y-54231000D01*
X99111776Y-54231000D01*
X98666545Y-53785769D01*
X99132450Y-53785769D01*
X99191994Y-53977000D01*
X100205000Y-53977000D01*
X100205000Y-52963462D01*
X100013767Y-52904438D01*
X99579552Y-53116614D01*
X99259586Y-53478806D01*
X99132450Y-53785769D01*
X98666545Y-53785769D01*
X97407000Y-52526224D01*
X97407000Y-51878231D01*
X99132450Y-51878231D01*
X99259586Y-52185194D01*
X99579552Y-52547386D01*
X100013767Y-52759562D01*
X100205000Y-52700538D01*
X100205000Y-51687000D01*
X99191994Y-51687000D01*
X99132450Y-51878231D01*
X97407000Y-51878231D01*
X97407000Y-51245769D01*
X99132450Y-51245769D01*
X99191994Y-51437000D01*
X100205000Y-51437000D01*
X100205000Y-50423462D01*
X100013767Y-50364438D01*
X99579552Y-50576614D01*
X99259586Y-50938806D01*
X99132450Y-51245769D01*
X97407000Y-51245769D01*
X97407000Y-51027250D01*
X97411000Y-51023250D01*
X97411000Y-50417000D01*
X97661000Y-50417000D01*
X97661000Y-51023250D01*
X97754750Y-51117000D01*
X97860592Y-51117000D01*
X97998420Y-51059910D01*
X98103910Y-50954421D01*
X98161000Y-50816592D01*
X98161000Y-50510750D01*
X98067250Y-50417000D01*
X97661000Y-50417000D01*
X97411000Y-50417000D01*
X97407000Y-50417000D01*
X97407000Y-50167000D01*
X97411000Y-50167000D01*
X97411000Y-49560750D01*
X97661000Y-49560750D01*
X97661000Y-50167000D01*
X98067250Y-50167000D01*
X98161000Y-50073250D01*
X98161000Y-49767408D01*
X98103910Y-49629579D01*
X97998420Y-49524090D01*
X97860592Y-49467000D01*
X97754750Y-49467000D01*
X97661000Y-49560750D01*
X97411000Y-49560750D01*
X97317250Y-49467000D01*
X97211408Y-49467000D01*
X97162171Y-49487395D01*
X97013007Y-49338231D01*
X99132450Y-49338231D01*
X99259586Y-49645194D01*
X99579552Y-50007386D01*
X100013767Y-50219562D01*
X100205000Y-50160538D01*
X100205000Y-49147000D01*
X99191994Y-49147000D01*
X99132450Y-49338231D01*
X97013007Y-49338231D01*
X96649000Y-48974224D01*
X96649000Y-48337000D01*
X96899000Y-48337000D01*
X96899000Y-48993250D01*
X96992750Y-49087000D01*
X97648592Y-49087000D01*
X97786421Y-49029910D01*
X97891910Y-48924420D01*
X97949000Y-48786592D01*
X97949000Y-48705769D01*
X99132450Y-48705769D01*
X99191994Y-48897000D01*
X100205000Y-48897000D01*
X100205000Y-47883462D01*
X100013767Y-47824438D01*
X99579552Y-48036614D01*
X99259586Y-48398806D01*
X99132450Y-48705769D01*
X97949000Y-48705769D01*
X97949000Y-48430750D01*
X97855250Y-48337000D01*
X96899000Y-48337000D01*
X96649000Y-48337000D01*
X96645000Y-48337000D01*
X96645000Y-48087000D01*
X96649000Y-48087000D01*
X96649000Y-47430750D01*
X96899000Y-47430750D01*
X96899000Y-48087000D01*
X97855250Y-48087000D01*
X97949000Y-47993250D01*
X97949000Y-47637408D01*
X97891910Y-47499580D01*
X97786421Y-47394090D01*
X97648592Y-47337000D01*
X96992750Y-47337000D01*
X96899000Y-47430750D01*
X96649000Y-47430750D01*
X96645000Y-47426750D01*
X96645000Y-47041776D01*
X96888545Y-46798231D01*
X99132450Y-46798231D01*
X99259586Y-47105194D01*
X99579552Y-47467386D01*
X100013767Y-47679562D01*
X100205000Y-47620538D01*
X100205000Y-46607000D01*
X99191994Y-46607000D01*
X99132450Y-46798231D01*
X96888545Y-46798231D01*
X97521007Y-46165769D01*
X99132450Y-46165769D01*
X99191994Y-46357000D01*
X100205000Y-46357000D01*
X100205000Y-45343462D01*
X100013767Y-45284438D01*
X99579552Y-45496614D01*
X99259586Y-45858806D01*
X99132450Y-46165769D01*
X97521007Y-46165769D01*
X97659496Y-46027280D01*
X97694438Y-46020705D01*
X97805053Y-45949526D01*
X97879260Y-45840920D01*
X97889127Y-45792196D01*
X97905813Y-45767037D01*
X97915000Y-45720000D01*
X97915000Y-44704000D01*
X97905152Y-44655368D01*
X97890661Y-44633842D01*
X97882705Y-44591562D01*
X97811526Y-44480947D01*
X97702920Y-44406740D01*
X97661034Y-44398258D01*
X97661000Y-44398224D01*
X97661000Y-39080750D01*
X97910300Y-39080750D01*
X97910300Y-40689192D01*
X97967390Y-40827021D01*
X98072880Y-40932510D01*
X98210708Y-40989600D01*
X100111250Y-40989600D01*
X100205000Y-40895850D01*
X100205000Y-38987000D01*
X100455000Y-38987000D01*
X100455000Y-40895850D01*
X100548750Y-40989600D01*
X102449292Y-40989600D01*
X102587120Y-40932510D01*
X102692610Y-40827021D01*
X102749700Y-40689192D01*
X102749700Y-39080750D01*
X102655950Y-38987000D01*
X100455000Y-38987000D01*
X100205000Y-38987000D01*
X98004050Y-38987000D01*
X97910300Y-39080750D01*
X97661000Y-39080750D01*
X97661000Y-38913776D01*
X97841776Y-38733000D01*
X98000050Y-38733000D01*
X98004050Y-38737000D01*
G36*
X75563000Y-35435000D02*
X76576006Y-35435000D01*
X76577251Y-35431000D01*
X76658914Y-35431000D01*
X80139000Y-38662508D01*
X80139000Y-41323647D01*
X80123133Y-41402000D01*
X80123133Y-41910000D01*
X80145795Y-42030438D01*
X80216974Y-42141053D01*
X80325580Y-42215260D01*
X80409473Y-42232249D01*
X80429612Y-42252388D01*
X80470963Y-42279813D01*
X80518000Y-42289000D01*
X81155000Y-42289000D01*
X81155000Y-42386750D01*
X81151000Y-42390750D01*
X81151000Y-42801000D01*
X81155000Y-42801000D01*
X81155000Y-43051000D01*
X81151000Y-43051000D01*
X81151000Y-43461250D01*
X81155000Y-43465250D01*
X81155000Y-43563000D01*
X75743776Y-43563000D01*
X75325526Y-43144750D01*
X80079500Y-43144750D01*
X80079500Y-43254592D01*
X80136590Y-43392420D01*
X80242079Y-43497910D01*
X80379908Y-43555000D01*
X80807250Y-43555000D01*
X80901000Y-43461250D01*
X80901000Y-43051000D01*
X80173250Y-43051000D01*
X80079500Y-43144750D01*
X75325526Y-43144750D01*
X75309000Y-43128224D01*
X75309000Y-42035000D01*
X75515000Y-42035000D01*
X75515000Y-42991250D01*
X75608750Y-43085000D01*
X75964592Y-43085000D01*
X76102420Y-43027910D01*
X76207910Y-42922421D01*
X76265000Y-42784592D01*
X76265000Y-42597408D01*
X80079500Y-42597408D01*
X80079500Y-42707250D01*
X80173250Y-42801000D01*
X80901000Y-42801000D01*
X80901000Y-42390750D01*
X80807250Y-42297000D01*
X80379908Y-42297000D01*
X80242079Y-42354090D01*
X80136590Y-42459580D01*
X80079500Y-42597408D01*
X76265000Y-42597408D01*
X76265000Y-42128750D01*
X76171250Y-42035000D01*
X75515000Y-42035000D01*
X75309000Y-42035000D01*
X75309000Y-40828750D01*
X75515000Y-40828750D01*
X75515000Y-41785000D01*
X76171250Y-41785000D01*
X76265000Y-41691250D01*
X76265000Y-41035408D01*
X76207910Y-40897579D01*
X76102420Y-40792090D01*
X75964592Y-40735000D01*
X75608750Y-40735000D01*
X75515000Y-40828750D01*
X75309000Y-40828750D01*
X75309000Y-39239773D01*
X75313000Y-39238538D01*
X75313000Y-38225000D01*
X75563000Y-38225000D01*
X75563000Y-39238538D01*
X75754233Y-39297562D01*
X76188448Y-39085386D01*
X76508414Y-38723194D01*
X76635550Y-38416231D01*
X76576006Y-38225000D01*
X75563000Y-38225000D01*
X75313000Y-38225000D01*
X75309000Y-38225000D01*
X75309000Y-37975000D01*
X75313000Y-37975000D01*
X75313000Y-36961462D01*
X75563000Y-36961462D01*
X75563000Y-37975000D01*
X76576006Y-37975000D01*
X76635550Y-37783769D01*
X76508414Y-37476806D01*
X76188448Y-37114614D01*
X75754233Y-36902438D01*
X75563000Y-36961462D01*
X75313000Y-36961462D01*
X75309000Y-36960227D01*
X75309000Y-36699773D01*
X75313000Y-36698538D01*
X75313000Y-35685000D01*
X75563000Y-35685000D01*
X75563000Y-36698538D01*
X75754233Y-36757562D01*
X76188448Y-36545386D01*
X76508414Y-36183194D01*
X76635550Y-35876231D01*
X76576006Y-35685000D01*
X75563000Y-35685000D01*
X75313000Y-35685000D01*
X75309000Y-35685000D01*
X75309000Y-35435000D01*
X75313000Y-35435000D01*
X75313000Y-35431000D01*
X75563000Y-35431000D01*
X75563000Y-35435000D01*
X75563000Y-35435000D01*
G37*
X75563000Y-35435000D02*
X76576006Y-35435000D01*
X76577251Y-35431000D01*
X76658914Y-35431000D01*
X80139000Y-38662508D01*
X80139000Y-41323647D01*
X80123133Y-41402000D01*
X80123133Y-41910000D01*
X80145795Y-42030438D01*
X80216974Y-42141053D01*
X80325580Y-42215260D01*
X80409473Y-42232249D01*
X80429612Y-42252388D01*
X80470963Y-42279813D01*
X80518000Y-42289000D01*
X81155000Y-42289000D01*
X81155000Y-42386750D01*
X81151000Y-42390750D01*
X81151000Y-42801000D01*
X81155000Y-42801000D01*
X81155000Y-43051000D01*
X81151000Y-43051000D01*
X81151000Y-43461250D01*
X81155000Y-43465250D01*
X81155000Y-43563000D01*
X75743776Y-43563000D01*
X75325526Y-43144750D01*
X80079500Y-43144750D01*
X80079500Y-43254592D01*
X80136590Y-43392420D01*
X80242079Y-43497910D01*
X80379908Y-43555000D01*
X80807250Y-43555000D01*
X80901000Y-43461250D01*
X80901000Y-43051000D01*
X80173250Y-43051000D01*
X80079500Y-43144750D01*
X75325526Y-43144750D01*
X75309000Y-43128224D01*
X75309000Y-42035000D01*
X75515000Y-42035000D01*
X75515000Y-42991250D01*
X75608750Y-43085000D01*
X75964592Y-43085000D01*
X76102420Y-43027910D01*
X76207910Y-42922421D01*
X76265000Y-42784592D01*
X76265000Y-42597408D01*
X80079500Y-42597408D01*
X80079500Y-42707250D01*
X80173250Y-42801000D01*
X80901000Y-42801000D01*
X80901000Y-42390750D01*
X80807250Y-42297000D01*
X80379908Y-42297000D01*
X80242079Y-42354090D01*
X80136590Y-42459580D01*
X80079500Y-42597408D01*
X76265000Y-42597408D01*
X76265000Y-42128750D01*
X76171250Y-42035000D01*
X75515000Y-42035000D01*
X75309000Y-42035000D01*
X75309000Y-40828750D01*
X75515000Y-40828750D01*
X75515000Y-41785000D01*
X76171250Y-41785000D01*
X76265000Y-41691250D01*
X76265000Y-41035408D01*
X76207910Y-40897579D01*
X76102420Y-40792090D01*
X75964592Y-40735000D01*
X75608750Y-40735000D01*
X75515000Y-40828750D01*
X75309000Y-40828750D01*
X75309000Y-39239773D01*
X75313000Y-39238538D01*
X75313000Y-38225000D01*
X75563000Y-38225000D01*
X75563000Y-39238538D01*
X75754233Y-39297562D01*
X76188448Y-39085386D01*
X76508414Y-38723194D01*
X76635550Y-38416231D01*
X76576006Y-38225000D01*
X75563000Y-38225000D01*
X75313000Y-38225000D01*
X75309000Y-38225000D01*
X75309000Y-37975000D01*
X75313000Y-37975000D01*
X75313000Y-36961462D01*
X75563000Y-36961462D01*
X75563000Y-37975000D01*
X76576006Y-37975000D01*
X76635550Y-37783769D01*
X76508414Y-37476806D01*
X76188448Y-37114614D01*
X75754233Y-36902438D01*
X75563000Y-36961462D01*
X75313000Y-36961462D01*
X75309000Y-36960227D01*
X75309000Y-36699773D01*
X75313000Y-36698538D01*
X75313000Y-35685000D01*
X75563000Y-35685000D01*
X75563000Y-36698538D01*
X75754233Y-36757562D01*
X76188448Y-36545386D01*
X76508414Y-36183194D01*
X76635550Y-35876231D01*
X76576006Y-35685000D01*
X75563000Y-35685000D01*
X75313000Y-35685000D01*
X75309000Y-35685000D01*
X75309000Y-35435000D01*
X75313000Y-35435000D01*
X75313000Y-35431000D01*
X75563000Y-35431000D01*
X75563000Y-35435000D01*
G36*
X90659000Y-33020000D02*
X90680000Y-33125575D01*
X90680000Y-33274000D01*
X90689848Y-33322632D01*
X90717841Y-33363601D01*
X90759568Y-33390451D01*
X90805000Y-33399000D01*
X90953425Y-33399000D01*
X91059000Y-33420000D01*
X105010000Y-33420000D01*
X105010000Y-59290000D01*
X91059000Y-59290000D01*
X90953425Y-59311000D01*
X90805000Y-59311000D01*
X90756368Y-59320848D01*
X90715399Y-59348841D01*
X90688549Y-59390568D01*
X90680000Y-59436000D01*
X90680000Y-59584425D01*
X90659000Y-59690000D01*
X90659000Y-65640000D01*
X85109000Y-65640000D01*
X85109000Y-63331779D01*
X85526592Y-63331779D01*
X85884668Y-64198389D01*
X86547124Y-64862002D01*
X87413107Y-65221590D01*
X88350779Y-65222408D01*
X89217389Y-64864332D01*
X89881002Y-64201876D01*
X90240590Y-63335893D01*
X90241408Y-62398221D01*
X89883332Y-61531611D01*
X89220876Y-60867998D01*
X88354893Y-60508410D01*
X87417221Y-60507592D01*
X86550611Y-60865668D01*
X85886998Y-61528124D01*
X85527410Y-62394107D01*
X85526592Y-63331779D01*
X85109000Y-63331779D01*
X85109000Y-59690000D01*
X85088000Y-59584425D01*
X85088000Y-59436000D01*
X85078152Y-59387368D01*
X85050159Y-59346399D01*
X85008432Y-59319549D01*
X84963000Y-59311000D01*
X84814575Y-59311000D01*
X84709000Y-59290000D01*
X70758000Y-59290000D01*
X70758000Y-57368750D01*
X71507000Y-57368750D01*
X71507000Y-58088192D01*
X71564090Y-58226021D01*
X71669580Y-58331510D01*
X71807408Y-58388600D01*
X72679250Y-58388600D01*
X72773000Y-58294850D01*
X72773000Y-57275000D01*
X73023000Y-57275000D01*
X73023000Y-58294850D01*
X73116750Y-58388600D01*
X73988592Y-58388600D01*
X74126420Y-58331510D01*
X74231910Y-58226021D01*
X74289000Y-58088192D01*
X74289000Y-57466233D01*
X77288438Y-57466233D01*
X77500614Y-57900448D01*
X77862806Y-58220414D01*
X78169769Y-58347550D01*
X78361000Y-58288006D01*
X78361000Y-57275000D01*
X78611000Y-57275000D01*
X78611000Y-58288006D01*
X78802231Y-58347550D01*
X79109194Y-58220414D01*
X79471386Y-57900448D01*
X79683562Y-57466233D01*
X79828438Y-57466233D01*
X80040614Y-57900448D01*
X80402806Y-58220414D01*
X80709769Y-58347550D01*
X80901000Y-58288006D01*
X80901000Y-57275000D01*
X81151000Y-57275000D01*
X81151000Y-58288006D01*
X81342231Y-58347550D01*
X81649194Y-58220414D01*
X82011386Y-57900448D01*
X82223562Y-57466233D01*
X82368438Y-57466233D01*
X82580614Y-57900448D01*
X82942806Y-58220414D01*
X83249769Y-58347550D01*
X83441000Y-58288006D01*
X83441000Y-57275000D01*
X83691000Y-57275000D01*
X83691000Y-58288006D01*
X83882231Y-58347550D01*
X84189194Y-58220414D01*
X84551386Y-57900448D01*
X84763562Y-57466233D01*
X84908438Y-57466233D01*
X85120614Y-57900448D01*
X85482806Y-58220414D01*
X85789769Y-58347550D01*
X85981000Y-58288006D01*
X85981000Y-57275000D01*
X86231000Y-57275000D01*
X86231000Y-58288006D01*
X86422231Y-58347550D01*
X86729194Y-58220414D01*
X87091386Y-57900448D01*
X87303562Y-57466233D01*
X87448438Y-57466233D01*
X87660614Y-57900448D01*
X88022806Y-58220414D01*
X88329769Y-58347550D01*
X88521000Y-58288006D01*
X88521000Y-57275000D01*
X88771000Y-57275000D01*
X88771000Y-58288006D01*
X88962231Y-58347550D01*
X89269194Y-58220414D01*
X89631386Y-57900448D01*
X89843562Y-57466233D01*
X89988438Y-57466233D01*
X90200614Y-57900448D01*
X90562806Y-58220414D01*
X90869769Y-58347550D01*
X91061000Y-58288006D01*
X91061000Y-57275000D01*
X91311000Y-57275000D01*
X91311000Y-58288006D01*
X91502231Y-58347550D01*
X91809194Y-58220414D01*
X92171386Y-57900448D01*
X92383562Y-57466233D01*
X92528438Y-57466233D01*
X92740614Y-57900448D01*
X93102806Y-58220414D01*
X93409769Y-58347550D01*
X93601000Y-58288006D01*
X93601000Y-57275000D01*
X93851000Y-57275000D01*
X93851000Y-58288006D01*
X94042231Y-58347550D01*
X94349194Y-58220414D01*
X94711386Y-57900448D01*
X94923562Y-57466233D01*
X94893474Y-57368750D01*
X95027400Y-57368750D01*
X95027400Y-58088192D01*
X95084490Y-58226020D01*
X95189979Y-58331510D01*
X95327808Y-58388600D01*
X96047250Y-58388600D01*
X96141000Y-58294850D01*
X96141000Y-57275000D01*
X96391000Y-57275000D01*
X96391000Y-58294850D01*
X96484750Y-58388600D01*
X97204192Y-58388600D01*
X97342021Y-58331510D01*
X97447510Y-58226020D01*
X97504600Y-58088192D01*
X97504600Y-57368750D01*
X97410850Y-57275000D01*
X96391000Y-57275000D01*
X96141000Y-57275000D01*
X95121150Y-57275000D01*
X95027400Y-57368750D01*
X94893474Y-57368750D01*
X94864538Y-57275000D01*
X93851000Y-57275000D01*
X93601000Y-57275000D01*
X92587462Y-57275000D01*
X92528438Y-57466233D01*
X92383562Y-57466233D01*
X92324538Y-57275000D01*
X91311000Y-57275000D01*
X91061000Y-57275000D01*
X90047462Y-57275000D01*
X89988438Y-57466233D01*
X89843562Y-57466233D01*
X89784538Y-57275000D01*
X88771000Y-57275000D01*
X88521000Y-57275000D01*
X87507462Y-57275000D01*
X87448438Y-57466233D01*
X87303562Y-57466233D01*
X87244538Y-57275000D01*
X86231000Y-57275000D01*
X85981000Y-57275000D01*
X84967462Y-57275000D01*
X84908438Y-57466233D01*
X84763562Y-57466233D01*
X84704538Y-57275000D01*
X83691000Y-57275000D01*
X83441000Y-57275000D01*
X82427462Y-57275000D01*
X82368438Y-57466233D01*
X82223562Y-57466233D01*
X82164538Y-57275000D01*
X81151000Y-57275000D01*
X80901000Y-57275000D01*
X79887462Y-57275000D01*
X79828438Y-57466233D01*
X79683562Y-57466233D01*
X79624538Y-57275000D01*
X78611000Y-57275000D01*
X78361000Y-57275000D01*
X77347462Y-57275000D01*
X77288438Y-57466233D01*
X74289000Y-57466233D01*
X74289000Y-57368750D01*
X74195250Y-57275000D01*
X73023000Y-57275000D01*
X72773000Y-57275000D01*
X71600750Y-57275000D01*
X71507000Y-57368750D01*
X70758000Y-57368750D01*
X70758000Y-56211808D01*
X71507000Y-56211808D01*
X71507000Y-56931250D01*
X71600750Y-57025000D01*
X72773000Y-57025000D01*
X72773000Y-56005150D01*
X73023000Y-56005150D01*
X73023000Y-57025000D01*
X74195250Y-57025000D01*
X74289000Y-56931250D01*
X74289000Y-56833767D01*
X77288438Y-56833767D01*
X77347462Y-57025000D01*
X78361000Y-57025000D01*
X78361000Y-56011994D01*
X78611000Y-56011994D01*
X78611000Y-57025000D01*
X79624538Y-57025000D01*
X79683562Y-56833767D01*
X79828438Y-56833767D01*
X79887462Y-57025000D01*
X80901000Y-57025000D01*
X80901000Y-56011994D01*
X81151000Y-56011994D01*
X81151000Y-57025000D01*
X82164538Y-57025000D01*
X82223562Y-56833767D01*
X82368438Y-56833767D01*
X82427462Y-57025000D01*
X83441000Y-57025000D01*
X83441000Y-56011994D01*
X83691000Y-56011994D01*
X83691000Y-57025000D01*
X84704538Y-57025000D01*
X84763562Y-56833767D01*
X84908438Y-56833767D01*
X84967462Y-57025000D01*
X85981000Y-57025000D01*
X85981000Y-56011994D01*
X86231000Y-56011994D01*
X86231000Y-57025000D01*
X87244538Y-57025000D01*
X87303562Y-56833767D01*
X87448438Y-56833767D01*
X87507462Y-57025000D01*
X88521000Y-57025000D01*
X88521000Y-56011994D01*
X88771000Y-56011994D01*
X88771000Y-57025000D01*
X89784538Y-57025000D01*
X89843562Y-56833767D01*
X89988438Y-56833767D01*
X90047462Y-57025000D01*
X91061000Y-57025000D01*
X91061000Y-56011994D01*
X91311000Y-56011994D01*
X91311000Y-57025000D01*
X92324538Y-57025000D01*
X92383562Y-56833767D01*
X92528438Y-56833767D01*
X92587462Y-57025000D01*
X93601000Y-57025000D01*
X93601000Y-56011994D01*
X93851000Y-56011994D01*
X93851000Y-57025000D01*
X94864538Y-57025000D01*
X94923562Y-56833767D01*
X94711386Y-56399552D01*
X94498866Y-56211808D01*
X95027400Y-56211808D01*
X95027400Y-56931250D01*
X95121150Y-57025000D01*
X96141000Y-57025000D01*
X96141000Y-56005150D01*
X96391000Y-56005150D01*
X96391000Y-57025000D01*
X97410850Y-57025000D01*
X97504600Y-56931250D01*
X97504600Y-56211808D01*
X97447510Y-56073980D01*
X97342021Y-55968490D01*
X97204192Y-55911400D01*
X96484750Y-55911400D01*
X96391000Y-56005150D01*
X96141000Y-56005150D01*
X96047250Y-55911400D01*
X95327808Y-55911400D01*
X95189979Y-55968490D01*
X95084490Y-56073980D01*
X95027400Y-56211808D01*
X94498866Y-56211808D01*
X94349194Y-56079586D01*
X94042231Y-55952450D01*
X93851000Y-56011994D01*
X93601000Y-56011994D01*
X93409769Y-55952450D01*
X93102806Y-56079586D01*
X92740614Y-56399552D01*
X92528438Y-56833767D01*
X92383562Y-56833767D01*
X92171386Y-56399552D01*
X91809194Y-56079586D01*
X91502231Y-55952450D01*
X91311000Y-56011994D01*
X91061000Y-56011994D01*
X90869769Y-55952450D01*
X90562806Y-56079586D01*
X90200614Y-56399552D01*
X89988438Y-56833767D01*
X89843562Y-56833767D01*
X89631386Y-56399552D01*
X89269194Y-56079586D01*
X88962231Y-55952450D01*
X88771000Y-56011994D01*
X88521000Y-56011994D01*
X88329769Y-55952450D01*
X88022806Y-56079586D01*
X87660614Y-56399552D01*
X87448438Y-56833767D01*
X87303562Y-56833767D01*
X87091386Y-56399552D01*
X86729194Y-56079586D01*
X86422231Y-55952450D01*
X86231000Y-56011994D01*
X85981000Y-56011994D01*
X85789769Y-55952450D01*
X85482806Y-56079586D01*
X85120614Y-56399552D01*
X84908438Y-56833767D01*
X84763562Y-56833767D01*
X84551386Y-56399552D01*
X84189194Y-56079586D01*
X83882231Y-55952450D01*
X83691000Y-56011994D01*
X83441000Y-56011994D01*
X83249769Y-55952450D01*
X82942806Y-56079586D01*
X82580614Y-56399552D01*
X82368438Y-56833767D01*
X82223562Y-56833767D01*
X82011386Y-56399552D01*
X81649194Y-56079586D01*
X81342231Y-55952450D01*
X81151000Y-56011994D01*
X80901000Y-56011994D01*
X80709769Y-55952450D01*
X80402806Y-56079586D01*
X80040614Y-56399552D01*
X79828438Y-56833767D01*
X79683562Y-56833767D01*
X79471386Y-56399552D01*
X79109194Y-56079586D01*
X78802231Y-55952450D01*
X78611000Y-56011994D01*
X78361000Y-56011994D01*
X78169769Y-55952450D01*
X77862806Y-56079586D01*
X77500614Y-56399552D01*
X77288438Y-56833767D01*
X74289000Y-56833767D01*
X74289000Y-56211808D01*
X74231910Y-56073979D01*
X74126420Y-55968490D01*
X73988592Y-55911400D01*
X73116750Y-55911400D01*
X73023000Y-56005150D01*
X72773000Y-56005150D01*
X72679250Y-55911400D01*
X71807408Y-55911400D01*
X71669580Y-55968490D01*
X71564090Y-56073979D01*
X71507000Y-56211808D01*
X70758000Y-56211808D01*
X70758000Y-52070000D01*
X71530728Y-52070000D01*
X71621205Y-52524858D01*
X71878861Y-52910467D01*
X72264470Y-53168123D01*
X72719328Y-53258600D01*
X73076672Y-53258600D01*
X73531530Y-53168123D01*
X73917139Y-52910467D01*
X73997000Y-52790947D01*
X73997000Y-52909959D01*
X73417721Y-53489239D01*
X73076672Y-53421400D01*
X72719328Y-53421400D01*
X72264470Y-53511877D01*
X71878861Y-53769533D01*
X71621205Y-54155142D01*
X71530728Y-54610000D01*
X71621205Y-55064858D01*
X71878861Y-55450467D01*
X72264470Y-55708123D01*
X72719328Y-55798600D01*
X73076672Y-55798600D01*
X73531530Y-55708123D01*
X73917139Y-55450467D01*
X74174795Y-55064858D01*
X74265272Y-54610000D01*
X74260641Y-54586714D01*
X77297400Y-54586714D01*
X77297400Y-54633286D01*
X77387877Y-55088144D01*
X77645533Y-55473753D01*
X78031142Y-55731409D01*
X78486000Y-55821886D01*
X78940858Y-55731409D01*
X79326467Y-55473753D01*
X79584123Y-55088144D01*
X79674600Y-54633286D01*
X79674600Y-54586714D01*
X79584123Y-54131856D01*
X79326467Y-53746247D01*
X78940858Y-53488591D01*
X78911000Y-53482652D01*
X78911000Y-51443769D01*
X79017053Y-51375526D01*
X79091260Y-51266920D01*
X79117367Y-51138000D01*
X79117367Y-50738000D01*
X79094705Y-50617562D01*
X79023526Y-50506947D01*
X78996704Y-50488620D01*
X79017053Y-50475526D01*
X79025612Y-50463000D01*
X79976579Y-50463000D01*
X79980474Y-50469053D01*
X80007296Y-50487380D01*
X79986947Y-50500474D01*
X79912740Y-50609080D01*
X79886633Y-50738000D01*
X79886633Y-51138000D01*
X79909295Y-51258438D01*
X79980474Y-51369053D01*
X80089080Y-51443260D01*
X80093000Y-51444054D01*
X80093000Y-53884732D01*
X79927877Y-54131856D01*
X79837400Y-54586714D01*
X79837400Y-54633286D01*
X79927877Y-55088144D01*
X80185533Y-55473753D01*
X80571142Y-55731409D01*
X81026000Y-55821886D01*
X81480858Y-55731409D01*
X81866467Y-55473753D01*
X82124123Y-55088144D01*
X82214600Y-54633286D01*
X82214600Y-54586714D01*
X82124123Y-54131856D01*
X81866467Y-53746247D01*
X81480858Y-53488591D01*
X81026000Y-53398114D01*
X80943000Y-53414624D01*
X80943000Y-51588000D01*
X82076633Y-51588000D01*
X82076633Y-52288000D01*
X82099295Y-52408438D01*
X82170474Y-52519053D01*
X82279080Y-52593260D01*
X82408000Y-52619367D01*
X82633000Y-52619367D01*
X82633000Y-53884732D01*
X82467877Y-54131856D01*
X82377400Y-54586714D01*
X82377400Y-54633286D01*
X82467877Y-55088144D01*
X82725533Y-55473753D01*
X83111142Y-55731409D01*
X83566000Y-55821886D01*
X84020858Y-55731409D01*
X84406467Y-55473753D01*
X84664123Y-55088144D01*
X84754600Y-54633286D01*
X84754600Y-54586714D01*
X84664123Y-54131856D01*
X84406467Y-53746247D01*
X84020858Y-53488591D01*
X83566000Y-53398114D01*
X83483000Y-53414624D01*
X83483000Y-52619367D01*
X83708000Y-52619367D01*
X83828438Y-52596705D01*
X83939053Y-52525526D01*
X84013260Y-52416920D01*
X84039367Y-52288000D01*
X84039367Y-51588000D01*
X84016705Y-51467562D01*
X83945526Y-51356947D01*
X83844619Y-51288000D01*
X84816633Y-51288000D01*
X84816633Y-51788000D01*
X84839295Y-51908438D01*
X84910474Y-52019053D01*
X85019080Y-52093260D01*
X85148000Y-52119367D01*
X85173000Y-52119367D01*
X85173000Y-53884732D01*
X85007877Y-54131856D01*
X84917400Y-54586714D01*
X84917400Y-54633286D01*
X85007877Y-55088144D01*
X85265533Y-55473753D01*
X85651142Y-55731409D01*
X86106000Y-55821886D01*
X86560858Y-55731409D01*
X86946467Y-55473753D01*
X87204123Y-55088144D01*
X87294600Y-54633286D01*
X87294600Y-54586714D01*
X87204123Y-54131856D01*
X86946467Y-53746247D01*
X86560858Y-53488591D01*
X86106000Y-53398114D01*
X86023000Y-53414624D01*
X86023000Y-52119367D01*
X86048000Y-52119367D01*
X86168438Y-52096705D01*
X86279053Y-52025526D01*
X86353260Y-51916920D01*
X86379367Y-51788000D01*
X86379367Y-51588000D01*
X87156633Y-51588000D01*
X87156633Y-52288000D01*
X87179295Y-52408438D01*
X87250474Y-52519053D01*
X87359080Y-52593260D01*
X87488000Y-52619367D01*
X87713000Y-52619367D01*
X87713000Y-53884732D01*
X87547877Y-54131856D01*
X87457400Y-54586714D01*
X87457400Y-54633286D01*
X87547877Y-55088144D01*
X87805533Y-55473753D01*
X88191142Y-55731409D01*
X88646000Y-55821886D01*
X89100858Y-55731409D01*
X89486467Y-55473753D01*
X89744123Y-55088144D01*
X89834600Y-54633286D01*
X89834600Y-54586714D01*
X89744123Y-54131856D01*
X89486467Y-53746247D01*
X89100858Y-53488591D01*
X88646000Y-53398114D01*
X88563000Y-53414624D01*
X88563000Y-52619367D01*
X88788000Y-52619367D01*
X88908438Y-52596705D01*
X89019053Y-52525526D01*
X89093260Y-52416920D01*
X89119367Y-52288000D01*
X89119367Y-51588000D01*
X89096705Y-51467562D01*
X89025526Y-51356947D01*
X88916920Y-51282740D01*
X88788000Y-51256633D01*
X87488000Y-51256633D01*
X87367562Y-51279295D01*
X87256947Y-51350474D01*
X87182740Y-51459080D01*
X87156633Y-51588000D01*
X86379367Y-51588000D01*
X86379367Y-51288000D01*
X86356705Y-51167562D01*
X86285526Y-51056947D01*
X86176920Y-50982740D01*
X86048000Y-50956633D01*
X85148000Y-50956633D01*
X85027562Y-50979295D01*
X84916947Y-51050474D01*
X84842740Y-51159080D01*
X84816633Y-51288000D01*
X83844619Y-51288000D01*
X83836920Y-51282740D01*
X83708000Y-51256633D01*
X82408000Y-51256633D01*
X82287562Y-51279295D01*
X82176947Y-51350474D01*
X82102740Y-51459080D01*
X82076633Y-51588000D01*
X80943000Y-51588000D01*
X80943000Y-51443769D01*
X81049053Y-51375526D01*
X81123260Y-51266920D01*
X81149367Y-51138000D01*
X81149367Y-50738000D01*
X81126705Y-50617562D01*
X81055526Y-50506947D01*
X81028704Y-50488620D01*
X81049053Y-50475526D01*
X81057612Y-50463000D01*
X82090745Y-50463000D01*
X82099295Y-50508438D01*
X82170474Y-50619053D01*
X82279080Y-50693260D01*
X82408000Y-50719367D01*
X83708000Y-50719367D01*
X83828438Y-50696705D01*
X83939053Y-50625526D01*
X84013260Y-50516920D01*
X84024179Y-50463000D01*
X84874405Y-50463000D01*
X84910474Y-50519053D01*
X85019080Y-50593260D01*
X85148000Y-50619367D01*
X86048000Y-50619367D01*
X86168438Y-50596705D01*
X86279053Y-50525526D01*
X86321775Y-50463000D01*
X87170745Y-50463000D01*
X87179295Y-50508438D01*
X87250474Y-50619053D01*
X87359080Y-50693260D01*
X87488000Y-50719367D01*
X88788000Y-50719367D01*
X88908438Y-50696705D01*
X89019053Y-50625526D01*
X89093260Y-50516920D01*
X89104179Y-50463000D01*
X89882579Y-50463000D01*
X89886474Y-50469053D01*
X89913296Y-50487380D01*
X89892947Y-50500474D01*
X89818740Y-50609080D01*
X89792633Y-50738000D01*
X89792633Y-51138000D01*
X89815295Y-51258438D01*
X89886474Y-51369053D01*
X89995080Y-51443260D01*
X89999000Y-51444054D01*
X89999000Y-53848000D01*
X90024660Y-53977000D01*
X90031351Y-54010641D01*
X90100111Y-54113546D01*
X90087877Y-54131856D01*
X89997400Y-54586714D01*
X89997400Y-54633286D01*
X90087877Y-55088144D01*
X90345533Y-55473753D01*
X90731142Y-55731409D01*
X91186000Y-55821886D01*
X91640858Y-55731409D01*
X92026467Y-55473753D01*
X92284123Y-55088144D01*
X92374600Y-54633286D01*
X92374600Y-54586714D01*
X92284123Y-54131856D01*
X92026467Y-53746247D01*
X91640858Y-53488591D01*
X91186000Y-53398114D01*
X90849000Y-53465148D01*
X90849000Y-51443769D01*
X90955053Y-51375526D01*
X91029260Y-51266920D01*
X91055367Y-51138000D01*
X91055367Y-50738000D01*
X91032705Y-50617562D01*
X90961526Y-50506947D01*
X90934704Y-50488620D01*
X90955053Y-50475526D01*
X90963612Y-50463000D01*
X91660579Y-50463000D01*
X91664474Y-50469053D01*
X91691296Y-50487380D01*
X91670947Y-50500474D01*
X91596740Y-50609080D01*
X91570633Y-50738000D01*
X91570633Y-51138000D01*
X91593295Y-51258438D01*
X91664474Y-51369053D01*
X91773080Y-51443260D01*
X91777000Y-51444054D01*
X91777000Y-53086000D01*
X91803984Y-53221657D01*
X91809351Y-53248641D01*
X91901480Y-53386520D01*
X92635463Y-54120503D01*
X92627877Y-54131856D01*
X92537400Y-54586714D01*
X92537400Y-54633286D01*
X92627877Y-55088144D01*
X92885533Y-55473753D01*
X93271142Y-55731409D01*
X93726000Y-55821886D01*
X94180858Y-55731409D01*
X94566467Y-55473753D01*
X94824123Y-55088144D01*
X94914600Y-54633286D01*
X94914600Y-54586714D01*
X94824123Y-54131856D01*
X94566467Y-53746247D01*
X94180858Y-53488591D01*
X93726000Y-53398114D01*
X93271142Y-53488591D01*
X93231871Y-53514831D01*
X92627000Y-52909960D01*
X92627000Y-51443769D01*
X92733053Y-51375526D01*
X92807260Y-51266920D01*
X92833367Y-51138000D01*
X92833367Y-50738000D01*
X92810705Y-50617562D01*
X92739526Y-50506947D01*
X92712704Y-50488620D01*
X92733053Y-50475526D01*
X92741612Y-50463000D01*
X93692579Y-50463000D01*
X93696474Y-50469053D01*
X93723296Y-50487380D01*
X93702947Y-50500474D01*
X93628740Y-50609080D01*
X93602633Y-50738000D01*
X93602633Y-51138000D01*
X93625295Y-51258438D01*
X93696474Y-51369053D01*
X93805080Y-51443260D01*
X93809000Y-51444054D01*
X93809000Y-52578000D01*
X93825510Y-52661001D01*
X93841351Y-52740641D01*
X93933480Y-52878520D01*
X95175463Y-54120503D01*
X95167877Y-54131856D01*
X95077400Y-54586714D01*
X95077400Y-54633286D01*
X95167877Y-55088144D01*
X95425533Y-55473753D01*
X95811142Y-55731409D01*
X96266000Y-55821886D01*
X96720858Y-55731409D01*
X97106467Y-55473753D01*
X97364123Y-55088144D01*
X97454600Y-54633286D01*
X97454600Y-54586714D01*
X97364123Y-54131856D01*
X97106467Y-53746247D01*
X96720858Y-53488591D01*
X96266000Y-53398114D01*
X95811142Y-53488591D01*
X95771871Y-53514831D01*
X94659000Y-52401960D01*
X94659000Y-51443769D01*
X94765053Y-51375526D01*
X94839260Y-51266920D01*
X94865367Y-51138000D01*
X94865367Y-50738000D01*
X94842705Y-50617562D01*
X94771526Y-50506947D01*
X94744704Y-50488620D01*
X94765053Y-50475526D01*
X94773612Y-50463000D01*
X95454633Y-50463000D01*
X95454633Y-50742000D01*
X95477295Y-50862438D01*
X95548474Y-50973053D01*
X95657080Y-51047260D01*
X95786000Y-51073367D01*
X96286000Y-51073367D01*
X96406438Y-51050705D01*
X96517053Y-50979526D01*
X96591260Y-50870920D01*
X96617367Y-50742000D01*
X96617367Y-49842000D01*
X96594705Y-49721562D01*
X96523526Y-49610947D01*
X96414920Y-49536740D01*
X96286000Y-49510633D01*
X95786000Y-49510633D01*
X95665562Y-49533295D01*
X95554947Y-49604474D01*
X95549121Y-49613000D01*
X94775421Y-49613000D01*
X94771526Y-49606947D01*
X94662920Y-49532740D01*
X94534000Y-49506633D01*
X93934000Y-49506633D01*
X93813562Y-49529295D01*
X93702947Y-49600474D01*
X93694388Y-49613000D01*
X92743421Y-49613000D01*
X92739526Y-49606947D01*
X92630920Y-49532740D01*
X92502000Y-49506633D01*
X91902000Y-49506633D01*
X91781562Y-49529295D01*
X91670947Y-49600474D01*
X91662388Y-49613000D01*
X90965421Y-49613000D01*
X90961526Y-49606947D01*
X90852920Y-49532740D01*
X90724000Y-49506633D01*
X90124000Y-49506633D01*
X90003562Y-49529295D01*
X89892947Y-49600474D01*
X89884388Y-49613000D01*
X89105255Y-49613000D01*
X89096705Y-49567562D01*
X89025526Y-49456947D01*
X88916920Y-49382740D01*
X88788000Y-49356633D01*
X88563000Y-49356633D01*
X88563000Y-46266260D01*
X88572500Y-46218500D01*
X88572500Y-45920000D01*
X88558729Y-45850769D01*
X89721633Y-47013673D01*
X89721633Y-47744000D01*
X89744295Y-47864438D01*
X89815474Y-47975053D01*
X89924080Y-48049260D01*
X90053000Y-48075367D01*
X91303000Y-48075367D01*
X91423438Y-48052705D01*
X91534053Y-47981526D01*
X91608260Y-47872920D01*
X91634367Y-47744000D01*
X91634367Y-47669000D01*
X92154231Y-47669000D01*
X92222474Y-47775053D01*
X92331080Y-47849260D01*
X92460000Y-47875367D01*
X92960000Y-47875367D01*
X93080438Y-47852705D01*
X93191053Y-47781526D01*
X93238557Y-47712000D01*
X95642633Y-47712000D01*
X95642633Y-48712000D01*
X95665295Y-48832438D01*
X95736474Y-48943053D01*
X95845080Y-49017260D01*
X95974000Y-49043367D01*
X96199173Y-49043367D01*
X96218887Y-49144295D01*
X96290190Y-49251810D01*
X96954633Y-49916253D01*
X96954633Y-50742000D01*
X96957000Y-50754580D01*
X96957000Y-52578000D01*
X96980887Y-52700295D01*
X97052190Y-52807810D01*
X98830190Y-54585810D01*
X98933557Y-54655395D01*
X99060000Y-54681000D01*
X99291540Y-54681000D01*
X99466247Y-54942467D01*
X99851856Y-55200123D01*
X100306714Y-55290600D01*
X100353286Y-55290600D01*
X100808144Y-55200123D01*
X101193753Y-54942467D01*
X101451409Y-54556858D01*
X101478983Y-54418231D01*
X101672450Y-54418231D01*
X101799586Y-54725194D01*
X102119552Y-55087386D01*
X102553767Y-55299562D01*
X102745000Y-55240538D01*
X102745000Y-54227000D01*
X102995000Y-54227000D01*
X102995000Y-55240538D01*
X103186233Y-55299562D01*
X103620448Y-55087386D01*
X103940414Y-54725194D01*
X104067550Y-54418231D01*
X104008006Y-54227000D01*
X102995000Y-54227000D01*
X102745000Y-54227000D01*
X101731994Y-54227000D01*
X101672450Y-54418231D01*
X101478983Y-54418231D01*
X101541886Y-54102000D01*
X101478984Y-53785769D01*
X101672450Y-53785769D01*
X101731994Y-53977000D01*
X102745000Y-53977000D01*
X102745000Y-52963462D01*
X102995000Y-52963462D01*
X102995000Y-53977000D01*
X104008006Y-53977000D01*
X104067550Y-53785769D01*
X103940414Y-53478806D01*
X103620448Y-53116614D01*
X103186233Y-52904438D01*
X102995000Y-52963462D01*
X102745000Y-52963462D01*
X102553767Y-52904438D01*
X102119552Y-53116614D01*
X101799586Y-53478806D01*
X101672450Y-53785769D01*
X101478984Y-53785769D01*
X101451409Y-53647142D01*
X101193753Y-53261533D01*
X100909000Y-53071267D01*
X100909000Y-52592733D01*
X101193753Y-52402467D01*
X101451409Y-52016858D01*
X101478983Y-51878231D01*
X101672450Y-51878231D01*
X101799586Y-52185194D01*
X102119552Y-52547386D01*
X102553767Y-52759562D01*
X102745000Y-52700538D01*
X102745000Y-51687000D01*
X102995000Y-51687000D01*
X102995000Y-52700538D01*
X103186233Y-52759562D01*
X103620448Y-52547386D01*
X103940414Y-52185194D01*
X104067550Y-51878231D01*
X104008006Y-51687000D01*
X102995000Y-51687000D01*
X102745000Y-51687000D01*
X101731994Y-51687000D01*
X101672450Y-51878231D01*
X101478983Y-51878231D01*
X101541886Y-51562000D01*
X101478984Y-51245769D01*
X101672450Y-51245769D01*
X101731994Y-51437000D01*
X102745000Y-51437000D01*
X102745000Y-50423462D01*
X102995000Y-50423462D01*
X102995000Y-51437000D01*
X104008006Y-51437000D01*
X104067550Y-51245769D01*
X103940414Y-50938806D01*
X103620448Y-50576614D01*
X103186233Y-50364438D01*
X102995000Y-50423462D01*
X102745000Y-50423462D01*
X102553767Y-50364438D01*
X102119552Y-50576614D01*
X101799586Y-50938806D01*
X101672450Y-51245769D01*
X101478984Y-51245769D01*
X101451409Y-51107142D01*
X101193753Y-50721533D01*
X100909000Y-50531267D01*
X100909000Y-50052733D01*
X101193753Y-49862467D01*
X101451409Y-49476858D01*
X101478983Y-49338231D01*
X101672450Y-49338231D01*
X101799586Y-49645194D01*
X102119552Y-50007386D01*
X102553767Y-50219562D01*
X102745000Y-50160538D01*
X102745000Y-49147000D01*
X102995000Y-49147000D01*
X102995000Y-50160538D01*
X103186233Y-50219562D01*
X103620448Y-50007386D01*
X103940414Y-49645194D01*
X104067550Y-49338231D01*
X104008006Y-49147000D01*
X102995000Y-49147000D01*
X102745000Y-49147000D01*
X101731994Y-49147000D01*
X101672450Y-49338231D01*
X101478983Y-49338231D01*
X101541886Y-49022000D01*
X101478984Y-48705769D01*
X101672450Y-48705769D01*
X101731994Y-48897000D01*
X102745000Y-48897000D01*
X102745000Y-47883462D01*
X102995000Y-47883462D01*
X102995000Y-48897000D01*
X104008006Y-48897000D01*
X104067550Y-48705769D01*
X103940414Y-48398806D01*
X103620448Y-48036614D01*
X103186233Y-47824438D01*
X102995000Y-47883462D01*
X102745000Y-47883462D01*
X102553767Y-47824438D01*
X102119552Y-48036614D01*
X101799586Y-48398806D01*
X101672450Y-48705769D01*
X101478984Y-48705769D01*
X101451409Y-48567142D01*
X101193753Y-48181533D01*
X100909000Y-47991267D01*
X100909000Y-47512733D01*
X101193753Y-47322467D01*
X101451409Y-46936858D01*
X101498373Y-46700750D01*
X101631400Y-46700750D01*
X101631400Y-47420192D01*
X101688490Y-47558021D01*
X101793980Y-47663510D01*
X101931808Y-47720600D01*
X102651250Y-47720600D01*
X102745000Y-47626850D01*
X102745000Y-46607000D01*
X102995000Y-46607000D01*
X102995000Y-47626850D01*
X103088750Y-47720600D01*
X103808192Y-47720600D01*
X103946020Y-47663510D01*
X104051510Y-47558021D01*
X104108600Y-47420192D01*
X104108600Y-46700750D01*
X104014850Y-46607000D01*
X102995000Y-46607000D01*
X102745000Y-46607000D01*
X101725150Y-46607000D01*
X101631400Y-46700750D01*
X101498373Y-46700750D01*
X101541886Y-46482000D01*
X101451409Y-46027142D01*
X101193753Y-45641533D01*
X101047499Y-45543808D01*
X101631400Y-45543808D01*
X101631400Y-46263250D01*
X101725150Y-46357000D01*
X102745000Y-46357000D01*
X102745000Y-45337150D01*
X102995000Y-45337150D01*
X102995000Y-46357000D01*
X104014850Y-46357000D01*
X104108600Y-46263250D01*
X104108600Y-45543808D01*
X104051510Y-45405979D01*
X103946020Y-45300490D01*
X103808192Y-45243400D01*
X103088750Y-45243400D01*
X102995000Y-45337150D01*
X102745000Y-45337150D01*
X102651250Y-45243400D01*
X101931808Y-45243400D01*
X101793980Y-45300490D01*
X101688490Y-45405979D01*
X101631400Y-45543808D01*
X101047499Y-45543808D01*
X100998531Y-45511089D01*
X103353810Y-43155810D01*
X103423395Y-43052443D01*
X103449000Y-42926000D01*
X103449000Y-38862000D01*
X103425113Y-38739705D01*
X103353810Y-38632190D01*
X103099810Y-38378190D01*
X102996443Y-38308605D01*
X102870000Y-38283000D01*
X102706067Y-38283000D01*
X102706067Y-37109400D01*
X102683405Y-36988962D01*
X102612226Y-36878347D01*
X102503620Y-36804140D01*
X102374700Y-36778033D01*
X98285300Y-36778033D01*
X98164862Y-36800695D01*
X98054247Y-36871874D01*
X97980040Y-36980480D01*
X97953933Y-37109400D01*
X97953933Y-38283000D01*
X97790000Y-38283000D01*
X97667705Y-38306887D01*
X97560190Y-38378190D01*
X97306190Y-38632190D01*
X97236605Y-38735557D01*
X97211000Y-38862000D01*
X97211000Y-44337000D01*
X96992750Y-44337000D01*
X96899000Y-44430750D01*
X96899000Y-45087000D01*
X96919000Y-45087000D01*
X96919000Y-45337000D01*
X96899000Y-45337000D01*
X96899000Y-45993250D01*
X96978065Y-46072315D01*
X96290190Y-46760190D01*
X96220605Y-46863557D01*
X96195000Y-46990000D01*
X96195000Y-47380633D01*
X95974000Y-47380633D01*
X95853562Y-47403295D01*
X95742947Y-47474474D01*
X95668740Y-47583080D01*
X95642633Y-47712000D01*
X93238557Y-47712000D01*
X93265260Y-47672920D01*
X93291367Y-47544000D01*
X93291367Y-46944000D01*
X93268705Y-46823562D01*
X93197526Y-46712947D01*
X93170704Y-46694620D01*
X93191053Y-46681526D01*
X93265260Y-46572920D01*
X93272534Y-46537000D01*
X93946579Y-46537000D01*
X93950474Y-46543053D01*
X94059080Y-46617260D01*
X94188000Y-46643367D01*
X94788000Y-46643367D01*
X94908438Y-46620705D01*
X95019053Y-46549526D01*
X95093260Y-46440920D01*
X95119367Y-46312000D01*
X95119367Y-45912000D01*
X95096705Y-45791562D01*
X95034867Y-45695464D01*
X95105910Y-45624420D01*
X95163000Y-45486592D01*
X95163000Y-45430750D01*
X95599000Y-45430750D01*
X95599000Y-45786592D01*
X95656090Y-45924420D01*
X95761579Y-46029910D01*
X95899408Y-46087000D01*
X96555250Y-46087000D01*
X96649000Y-45993250D01*
X96649000Y-45337000D01*
X95692750Y-45337000D01*
X95599000Y-45430750D01*
X95163000Y-45430750D01*
X95163000Y-45405750D01*
X95069250Y-45312000D01*
X94613000Y-45312000D01*
X94613000Y-45357000D01*
X94363000Y-45357000D01*
X94363000Y-45312000D01*
X93906750Y-45312000D01*
X93813000Y-45405750D01*
X93813000Y-45486592D01*
X93870090Y-45624420D01*
X93932669Y-45687000D01*
X93245178Y-45687000D01*
X93197526Y-45612947D01*
X93088920Y-45538740D01*
X92960000Y-45512633D01*
X92460000Y-45512633D01*
X92339562Y-45535295D01*
X92228947Y-45606474D01*
X92154740Y-45715080D01*
X92128633Y-45844000D01*
X92128633Y-46444000D01*
X92151295Y-46564438D01*
X92222474Y-46675053D01*
X92249296Y-46693380D01*
X92228947Y-46706474D01*
X92154740Y-46815080D01*
X92153946Y-46819000D01*
X91634367Y-46819000D01*
X91634367Y-46744000D01*
X91611705Y-46623562D01*
X91540526Y-46512947D01*
X91431920Y-46438740D01*
X91303000Y-46412633D01*
X90322673Y-46412633D01*
X90029040Y-46119000D01*
X90459250Y-46119000D01*
X90553000Y-46025250D01*
X90553000Y-45369000D01*
X90803000Y-45369000D01*
X90803000Y-46025250D01*
X90896750Y-46119000D01*
X91377592Y-46119000D01*
X91515421Y-46061910D01*
X91620910Y-45956420D01*
X91678000Y-45818592D01*
X91678000Y-45462750D01*
X91584250Y-45369000D01*
X90803000Y-45369000D01*
X90553000Y-45369000D01*
X89771750Y-45369000D01*
X89678000Y-45462750D01*
X89678000Y-45767960D01*
X88579448Y-44669408D01*
X89678000Y-44669408D01*
X89678000Y-45025250D01*
X89771750Y-45119000D01*
X90553000Y-45119000D01*
X90553000Y-44462750D01*
X90803000Y-44462750D01*
X90803000Y-45119000D01*
X91584250Y-45119000D01*
X91678000Y-45025250D01*
X91678000Y-44937408D01*
X93813000Y-44937408D01*
X93813000Y-45018250D01*
X93906750Y-45112000D01*
X94363000Y-45112000D01*
X94363000Y-44730750D01*
X94613000Y-44730750D01*
X94613000Y-45112000D01*
X95069250Y-45112000D01*
X95163000Y-45018250D01*
X95163000Y-44937408D01*
X95105910Y-44799580D01*
X95000421Y-44694090D01*
X94863578Y-44637408D01*
X95599000Y-44637408D01*
X95599000Y-44993250D01*
X95692750Y-45087000D01*
X96649000Y-45087000D01*
X96649000Y-44430750D01*
X96555250Y-44337000D01*
X95899408Y-44337000D01*
X95761579Y-44394090D01*
X95656090Y-44499580D01*
X95599000Y-44637408D01*
X94863578Y-44637408D01*
X94862592Y-44637000D01*
X94706750Y-44637000D01*
X94613000Y-44730750D01*
X94363000Y-44730750D01*
X94269250Y-44637000D01*
X94113408Y-44637000D01*
X93975579Y-44694090D01*
X93870090Y-44799580D01*
X93813000Y-44937408D01*
X91678000Y-44937408D01*
X91678000Y-44669408D01*
X91620910Y-44531580D01*
X91515421Y-44426090D01*
X91377592Y-44369000D01*
X90896750Y-44369000D01*
X90803000Y-44462750D01*
X90553000Y-44462750D01*
X90459250Y-44369000D01*
X89978408Y-44369000D01*
X89840579Y-44426090D01*
X89735090Y-44531580D01*
X89678000Y-44669408D01*
X88579448Y-44669408D01*
X88278867Y-44368827D01*
X88278867Y-43942000D01*
X88256205Y-43821562D01*
X88185026Y-43710947D01*
X88076420Y-43636740D01*
X87947500Y-43610633D01*
X86804500Y-43610633D01*
X86684062Y-43633295D01*
X86573447Y-43704474D01*
X86499240Y-43813080D01*
X86473133Y-43942000D01*
X86473133Y-44450000D01*
X86495795Y-44570438D01*
X86566974Y-44681053D01*
X86675580Y-44755260D01*
X86804500Y-44781367D01*
X87489327Y-44781367D01*
X87588593Y-44880633D01*
X86804500Y-44880633D01*
X86684062Y-44903295D01*
X86573447Y-44974474D01*
X86499240Y-45083080D01*
X86473133Y-45212000D01*
X86473133Y-45720000D01*
X86495795Y-45840438D01*
X86566974Y-45951053D01*
X86675580Y-46025260D01*
X86804500Y-46051367D01*
X87677827Y-46051367D01*
X87722500Y-46096040D01*
X87722500Y-46180240D01*
X87713000Y-46228000D01*
X87713000Y-49356633D01*
X87488000Y-49356633D01*
X87367562Y-49379295D01*
X87256947Y-49450474D01*
X87182740Y-49559080D01*
X87171821Y-49613000D01*
X86321595Y-49613000D01*
X86285526Y-49556947D01*
X86176920Y-49482740D01*
X86048000Y-49456633D01*
X85148000Y-49456633D01*
X85027562Y-49479295D01*
X84916947Y-49550474D01*
X84874225Y-49613000D01*
X84025255Y-49613000D01*
X84016705Y-49567562D01*
X83945526Y-49456947D01*
X83836920Y-49382740D01*
X83708000Y-49356633D01*
X82408000Y-49356633D01*
X82287562Y-49379295D01*
X82176947Y-49450474D01*
X82102740Y-49559080D01*
X82091821Y-49613000D01*
X81059421Y-49613000D01*
X81055526Y-49606947D01*
X80946920Y-49532740D01*
X80818000Y-49506633D01*
X80218000Y-49506633D01*
X80097562Y-49529295D01*
X79986947Y-49600474D01*
X79978388Y-49613000D01*
X79027421Y-49613000D01*
X79023526Y-49606947D01*
X78914920Y-49532740D01*
X78786000Y-49506633D01*
X78186000Y-49506633D01*
X78065562Y-49529295D01*
X77954947Y-49600474D01*
X77880740Y-49709080D01*
X77854633Y-49838000D01*
X77854633Y-50238000D01*
X77877295Y-50358438D01*
X77948474Y-50469053D01*
X77975296Y-50487380D01*
X77954947Y-50500474D01*
X77880740Y-50609080D01*
X77854633Y-50738000D01*
X77854633Y-51138000D01*
X77877295Y-51258438D01*
X77948474Y-51369053D01*
X78057080Y-51443260D01*
X78061000Y-51444054D01*
X78061000Y-53482652D01*
X78031142Y-53488591D01*
X77645533Y-53746247D01*
X77387877Y-54131856D01*
X77297400Y-54586714D01*
X74260641Y-54586714D01*
X74174795Y-54155142D01*
X74086316Y-54022724D01*
X74722520Y-53386521D01*
X74814648Y-53248641D01*
X74814649Y-53248640D01*
X74847000Y-53086000D01*
X74847000Y-48308750D01*
X76591000Y-48308750D01*
X76591000Y-48464592D01*
X76648090Y-48602420D01*
X76753579Y-48707910D01*
X76891408Y-48765000D01*
X76997250Y-48765000D01*
X77091000Y-48671250D01*
X77091000Y-48215000D01*
X77341000Y-48215000D01*
X77341000Y-48671250D01*
X77434750Y-48765000D01*
X77540592Y-48765000D01*
X77678421Y-48707910D01*
X77783910Y-48602420D01*
X77841000Y-48464592D01*
X77841000Y-48308750D01*
X77747250Y-48215000D01*
X77341000Y-48215000D01*
X77091000Y-48215000D01*
X76684750Y-48215000D01*
X76591000Y-48308750D01*
X74847000Y-48308750D01*
X74847000Y-47715408D01*
X76591000Y-47715408D01*
X76591000Y-47871250D01*
X76684750Y-47965000D01*
X77091000Y-47965000D01*
X77091000Y-47945000D01*
X77341000Y-47945000D01*
X77341000Y-47965000D01*
X77747250Y-47965000D01*
X77841000Y-47871250D01*
X77841000Y-47715408D01*
X77783910Y-47577580D01*
X77711992Y-47505662D01*
X77771260Y-47418920D01*
X77797367Y-47290000D01*
X77797367Y-46995029D01*
X78901396Y-45891000D01*
X80178331Y-45891000D01*
X80216974Y-45951053D01*
X80325580Y-46025260D01*
X80454500Y-46051367D01*
X81597500Y-46051367D01*
X81717938Y-46028705D01*
X81828553Y-45957526D01*
X81902760Y-45848920D01*
X81928867Y-45720000D01*
X81928867Y-45212000D01*
X81906205Y-45091562D01*
X81835026Y-44980947D01*
X81726420Y-44906740D01*
X81597500Y-44880633D01*
X80454500Y-44880633D01*
X80334062Y-44903295D01*
X80223447Y-44974474D01*
X80177992Y-45041000D01*
X78815685Y-45041000D01*
X78690000Y-45016000D01*
X78517793Y-45050254D01*
X78371802Y-45147802D01*
X77160971Y-46358633D01*
X76966000Y-46358633D01*
X76845562Y-46381295D01*
X76734947Y-46452474D01*
X76660740Y-46561080D01*
X76634633Y-46690000D01*
X76634633Y-47290000D01*
X76657295Y-47410438D01*
X76719133Y-47506536D01*
X76648090Y-47577580D01*
X76591000Y-47715408D01*
X74847000Y-47715408D01*
X74847000Y-47313330D01*
X74925579Y-47391910D01*
X75063408Y-47449000D01*
X75219250Y-47449000D01*
X75313000Y-47355250D01*
X75313000Y-46974000D01*
X75563000Y-46974000D01*
X75563000Y-47355250D01*
X75656750Y-47449000D01*
X75812592Y-47449000D01*
X75950421Y-47391910D01*
X76055910Y-47286420D01*
X76113000Y-47148592D01*
X76113000Y-47067750D01*
X76019250Y-46974000D01*
X75563000Y-46974000D01*
X75313000Y-46974000D01*
X75293000Y-46974000D01*
X75293000Y-46774000D01*
X75313000Y-46774000D01*
X75313000Y-46729000D01*
X75563000Y-46729000D01*
X75563000Y-46774000D01*
X76019250Y-46774000D01*
X76113000Y-46680250D01*
X76113000Y-46599408D01*
X76055910Y-46461580D01*
X75983992Y-46389662D01*
X76043260Y-46302920D01*
X76069367Y-46174000D01*
X76069367Y-45943673D01*
X77392041Y-44621000D01*
X80178331Y-44621000D01*
X80216974Y-44681053D01*
X80325580Y-44755260D01*
X80454500Y-44781367D01*
X81597500Y-44781367D01*
X81717938Y-44758705D01*
X81828553Y-44687526D01*
X81902760Y-44578920D01*
X81928867Y-44450000D01*
X81928867Y-43942000D01*
X81906205Y-43821562D01*
X81835026Y-43710947D01*
X81726420Y-43636740D01*
X81605000Y-43612152D01*
X81605000Y-43509956D01*
X81717938Y-43488705D01*
X81828553Y-43417526D01*
X81902760Y-43308920D01*
X81928867Y-43180000D01*
X81928867Y-43144750D01*
X86429500Y-43144750D01*
X86429500Y-43254592D01*
X86486590Y-43392420D01*
X86592079Y-43497910D01*
X86729908Y-43555000D01*
X87157250Y-43555000D01*
X87251000Y-43461250D01*
X87251000Y-43051000D01*
X87501000Y-43051000D01*
X87501000Y-43461250D01*
X87594750Y-43555000D01*
X88022092Y-43555000D01*
X88159921Y-43497910D01*
X88265410Y-43392420D01*
X88322500Y-43254592D01*
X88322500Y-43144750D01*
X88228750Y-43051000D01*
X87501000Y-43051000D01*
X87251000Y-43051000D01*
X86523250Y-43051000D01*
X86429500Y-43144750D01*
X81928867Y-43144750D01*
X81928867Y-42672000D01*
X81914832Y-42597408D01*
X86429500Y-42597408D01*
X86429500Y-42707250D01*
X86523250Y-42801000D01*
X87251000Y-42801000D01*
X87251000Y-42390750D01*
X87501000Y-42390750D01*
X87501000Y-42801000D01*
X88228750Y-42801000D01*
X88322500Y-42707250D01*
X88322500Y-42597408D01*
X88265410Y-42459580D01*
X88159921Y-42354090D01*
X88022092Y-42297000D01*
X87594750Y-42297000D01*
X87501000Y-42390750D01*
X87251000Y-42390750D01*
X87157250Y-42297000D01*
X86729908Y-42297000D01*
X86592079Y-42354090D01*
X86486590Y-42459580D01*
X86429500Y-42597408D01*
X81914832Y-42597408D01*
X81906205Y-42551562D01*
X81835026Y-42440947D01*
X81726420Y-42366740D01*
X81605000Y-42342152D01*
X81605000Y-42239956D01*
X81717938Y-42218705D01*
X81828553Y-42147526D01*
X81902760Y-42038920D01*
X81928867Y-41910000D01*
X81928867Y-41402000D01*
X81906205Y-41281562D01*
X81835026Y-41170947D01*
X81726420Y-41096740D01*
X81597500Y-41070633D01*
X81542966Y-41070633D01*
X81593667Y-41020020D01*
X81695883Y-40773856D01*
X81696116Y-40507313D01*
X81594329Y-40260971D01*
X81406020Y-40072333D01*
X81159856Y-39970117D01*
X80893313Y-39969884D01*
X80646971Y-40071671D01*
X80589000Y-40129541D01*
X80589000Y-38608000D01*
X80560380Y-38474644D01*
X80485147Y-38369842D01*
X79243288Y-37216687D01*
X82895884Y-37216687D01*
X82997671Y-37463029D01*
X83185980Y-37651667D01*
X83432144Y-37753883D01*
X83698687Y-37754116D01*
X83944373Y-37652600D01*
X83968474Y-37690053D01*
X84077080Y-37764260D01*
X84206000Y-37790367D01*
X85006000Y-37790367D01*
X85126438Y-37767705D01*
X85237053Y-37696526D01*
X85311260Y-37587920D01*
X85337367Y-37459000D01*
X85337367Y-36709000D01*
X85314705Y-36588562D01*
X85243526Y-36477947D01*
X85134920Y-36403740D01*
X85006000Y-36377633D01*
X84206000Y-36377633D01*
X84085562Y-36400295D01*
X83974947Y-36471474D01*
X83944677Y-36515775D01*
X83699856Y-36414117D01*
X83433313Y-36413884D01*
X83186971Y-36515671D01*
X82998333Y-36703980D01*
X82896117Y-36950144D01*
X82895884Y-37216687D01*
X79243288Y-37216687D01*
X76929147Y-35067842D01*
X76850133Y-35016750D01*
X82006000Y-35016750D01*
X82006000Y-35482592D01*
X82063090Y-35620421D01*
X82168580Y-35725910D01*
X82306408Y-35783000D01*
X82617250Y-35783000D01*
X82711000Y-35689250D01*
X82711000Y-34923000D01*
X82961000Y-34923000D01*
X82961000Y-35689250D01*
X83054750Y-35783000D01*
X83365592Y-35783000D01*
X83503420Y-35725910D01*
X83608910Y-35620421D01*
X83666000Y-35482592D01*
X83666000Y-35016750D01*
X83572250Y-34923000D01*
X82961000Y-34923000D01*
X82711000Y-34923000D01*
X82099750Y-34923000D01*
X82006000Y-35016750D01*
X76850133Y-35016750D01*
X76834443Y-35006605D01*
X76708000Y-34981000D01*
X76476460Y-34981000D01*
X76301753Y-34719533D01*
X75916144Y-34461877D01*
X75461286Y-34371400D01*
X75414714Y-34371400D01*
X74959856Y-34461877D01*
X74574247Y-34719533D01*
X74316591Y-35105142D01*
X74226114Y-35560000D01*
X74316591Y-36014858D01*
X74574247Y-36400467D01*
X74859000Y-36590733D01*
X74859000Y-37069267D01*
X74574247Y-37259533D01*
X74316591Y-37645142D01*
X74226114Y-38100000D01*
X74316591Y-38554858D01*
X74574247Y-38940467D01*
X74859000Y-39130733D01*
X74859000Y-40784466D01*
X74769562Y-40801295D01*
X74658947Y-40872474D01*
X74584740Y-40981080D01*
X74558633Y-41110000D01*
X74558633Y-42710000D01*
X74581295Y-42830438D01*
X74652474Y-42941053D01*
X74761080Y-43015260D01*
X74859000Y-43035089D01*
X74859000Y-43180000D01*
X74882887Y-43302295D01*
X74954190Y-43409810D01*
X75462190Y-43917810D01*
X75565557Y-43987395D01*
X75692000Y-44013000D01*
X75781959Y-44013000D01*
X73613480Y-46181480D01*
X73521351Y-46319359D01*
X73521351Y-46319360D01*
X73489000Y-46482000D01*
X73489000Y-50877960D01*
X73417721Y-50949239D01*
X73076672Y-50881400D01*
X72719328Y-50881400D01*
X72264470Y-50971877D01*
X71878861Y-51229533D01*
X71621205Y-51615142D01*
X71530728Y-52070000D01*
X70758000Y-52070000D01*
X70758000Y-42128750D01*
X71515000Y-42128750D01*
X71515000Y-42784592D01*
X71572090Y-42922421D01*
X71677580Y-43027910D01*
X71815408Y-43085000D01*
X72171250Y-43085000D01*
X72265000Y-42991250D01*
X72265000Y-42035000D01*
X72515000Y-42035000D01*
X72515000Y-42991250D01*
X72608750Y-43085000D01*
X72964592Y-43085000D01*
X73102420Y-43027910D01*
X73207910Y-42922421D01*
X73265000Y-42784592D01*
X73265000Y-42128750D01*
X73171250Y-42035000D01*
X72515000Y-42035000D01*
X72265000Y-42035000D01*
X71608750Y-42035000D01*
X71515000Y-42128750D01*
X70758000Y-42128750D01*
X70758000Y-41035408D01*
X71515000Y-41035408D01*
X71515000Y-41691250D01*
X71608750Y-41785000D01*
X72265000Y-41785000D01*
X72265000Y-40828750D01*
X72515000Y-40828750D01*
X72515000Y-41785000D01*
X73171250Y-41785000D01*
X73265000Y-41691250D01*
X73265000Y-41035408D01*
X73207910Y-40897579D01*
X73102420Y-40792090D01*
X72964592Y-40735000D01*
X72608750Y-40735000D01*
X72515000Y-40828750D01*
X72265000Y-40828750D01*
X72171250Y-40735000D01*
X71815408Y-40735000D01*
X71677580Y-40792090D01*
X71572090Y-40897579D01*
X71515000Y-41035408D01*
X70758000Y-41035408D01*
X70758000Y-38318750D01*
X71659400Y-38318750D01*
X71659400Y-39038192D01*
X71716490Y-39176021D01*
X71821980Y-39281510D01*
X71959808Y-39338600D01*
X72679250Y-39338600D01*
X72773000Y-39244850D01*
X72773000Y-38225000D01*
X73023000Y-38225000D01*
X73023000Y-39244850D01*
X73116750Y-39338600D01*
X73836192Y-39338600D01*
X73974020Y-39281510D01*
X74079510Y-39176021D01*
X74136600Y-39038192D01*
X74136600Y-38318750D01*
X74042850Y-38225000D01*
X73023000Y-38225000D01*
X72773000Y-38225000D01*
X71753150Y-38225000D01*
X71659400Y-38318750D01*
X70758000Y-38318750D01*
X70758000Y-37161808D01*
X71659400Y-37161808D01*
X71659400Y-37881250D01*
X71753150Y-37975000D01*
X72773000Y-37975000D01*
X72773000Y-36955150D01*
X73023000Y-36955150D01*
X73023000Y-37975000D01*
X74042850Y-37975000D01*
X74136600Y-37881250D01*
X74136600Y-37161808D01*
X74079510Y-37023979D01*
X73974020Y-36918490D01*
X73836192Y-36861400D01*
X73116750Y-36861400D01*
X73023000Y-36955150D01*
X72773000Y-36955150D01*
X72679250Y-36861400D01*
X71959808Y-36861400D01*
X71821980Y-36918490D01*
X71716490Y-37023979D01*
X71659400Y-37161808D01*
X70758000Y-37161808D01*
X70758000Y-35876231D01*
X71700450Y-35876231D01*
X71827586Y-36183194D01*
X72147552Y-36545386D01*
X72581767Y-36757562D01*
X72773000Y-36698538D01*
X72773000Y-35685000D01*
X73023000Y-35685000D01*
X73023000Y-36698538D01*
X73214233Y-36757562D01*
X73648448Y-36545386D01*
X73968414Y-36183194D01*
X74095550Y-35876231D01*
X74036006Y-35685000D01*
X73023000Y-35685000D01*
X72773000Y-35685000D01*
X71759994Y-35685000D01*
X71700450Y-35876231D01*
X70758000Y-35876231D01*
X70758000Y-35243769D01*
X71700450Y-35243769D01*
X71759994Y-35435000D01*
X72773000Y-35435000D01*
X72773000Y-34421462D01*
X73023000Y-34421462D01*
X73023000Y-35435000D01*
X74036006Y-35435000D01*
X74095550Y-35243769D01*
X73968414Y-34936806D01*
X73648448Y-34574614D01*
X73214233Y-34362438D01*
X73023000Y-34421462D01*
X72773000Y-34421462D01*
X72581767Y-34362438D01*
X72147552Y-34574614D01*
X71827586Y-34936806D01*
X71700450Y-35243769D01*
X70758000Y-35243769D01*
X70758000Y-34113408D01*
X82006000Y-34113408D01*
X82006000Y-34579250D01*
X82099750Y-34673000D01*
X82711000Y-34673000D01*
X82711000Y-33906750D01*
X82961000Y-33906750D01*
X82961000Y-34673000D01*
X83572250Y-34673000D01*
X83666000Y-34579250D01*
X83666000Y-34188000D01*
X85319633Y-34188000D01*
X85319633Y-35408000D01*
X85342295Y-35528438D01*
X85413474Y-35639053D01*
X85522080Y-35713260D01*
X85527000Y-35714256D01*
X85527000Y-36437979D01*
X85474947Y-36471474D01*
X85400740Y-36580080D01*
X85374633Y-36709000D01*
X85374633Y-37459000D01*
X85397295Y-37579438D01*
X85468474Y-37690053D01*
X85527000Y-37730042D01*
X85527000Y-37846000D01*
X85550887Y-37968295D01*
X85622190Y-38075810D01*
X86797000Y-39250620D01*
X86797000Y-41072044D01*
X86684062Y-41093295D01*
X86573447Y-41164474D01*
X86499240Y-41273080D01*
X86473133Y-41402000D01*
X86473133Y-41910000D01*
X86495795Y-42030438D01*
X86566974Y-42141053D01*
X86675580Y-42215260D01*
X86804500Y-42241367D01*
X87947500Y-42241367D01*
X87981338Y-42235000D01*
X90424000Y-42235000D01*
X90546295Y-42211113D01*
X90653810Y-42139810D01*
X91669810Y-41123810D01*
X91739395Y-41020443D01*
X91754477Y-40945967D01*
X93103700Y-40945967D01*
X93224138Y-40923305D01*
X93334753Y-40852126D01*
X93408960Y-40743520D01*
X93435067Y-40614600D01*
X93435067Y-37109400D01*
X93412405Y-36988962D01*
X93341226Y-36878347D01*
X93232620Y-36804140D01*
X93103700Y-36778033D01*
X91754850Y-36778033D01*
X91741113Y-36707705D01*
X91669810Y-36600190D01*
X89383810Y-34314190D01*
X89280443Y-34244605D01*
X89154000Y-34219000D01*
X86892367Y-34219000D01*
X86892367Y-34188000D01*
X86869705Y-34067562D01*
X86798526Y-33956947D01*
X86689920Y-33882740D01*
X86561000Y-33856633D01*
X85651000Y-33856633D01*
X85530562Y-33879295D01*
X85419947Y-33950474D01*
X85345740Y-34059080D01*
X85319633Y-34188000D01*
X83666000Y-34188000D01*
X83666000Y-34113408D01*
X83608910Y-33975579D01*
X83503420Y-33870090D01*
X83365592Y-33813000D01*
X83054750Y-33813000D01*
X82961000Y-33906750D01*
X82711000Y-33906750D01*
X82617250Y-33813000D01*
X82306408Y-33813000D01*
X82168580Y-33870090D01*
X82063090Y-33975579D01*
X82006000Y-34113408D01*
X70758000Y-34113408D01*
X70758000Y-33420000D01*
X84709000Y-33420000D01*
X84814575Y-33399000D01*
X84963000Y-33399000D01*
X85011632Y-33389152D01*
X85052601Y-33361159D01*
X85079451Y-33319432D01*
X85088000Y-33274000D01*
X85088000Y-33125575D01*
X85109000Y-33020000D01*
X85109000Y-30311779D01*
X85526592Y-30311779D01*
X85884668Y-31178389D01*
X86547124Y-31842002D01*
X87413107Y-32201590D01*
X88350779Y-32202408D01*
X89217389Y-31844332D01*
X89881002Y-31181876D01*
X90240590Y-30315893D01*
X90241408Y-29378221D01*
X89883332Y-28511611D01*
X89220876Y-27847998D01*
X88354893Y-27488410D01*
X87417221Y-27487592D01*
X86550611Y-27845668D01*
X85886998Y-28508124D01*
X85527410Y-29374107D01*
X85526592Y-30311779D01*
X85109000Y-30311779D01*
X85109000Y-27070000D01*
X90659000Y-27070000D01*
X90659000Y-33020000D01*
X90659000Y-33020000D01*
G37*
X90659000Y-33020000D02*
X90680000Y-33125575D01*
X90680000Y-33274000D01*
X90689848Y-33322632D01*
X90717841Y-33363601D01*
X90759568Y-33390451D01*
X90805000Y-33399000D01*
X90953425Y-33399000D01*
X91059000Y-33420000D01*
X105010000Y-33420000D01*
X105010000Y-59290000D01*
X91059000Y-59290000D01*
X90953425Y-59311000D01*
X90805000Y-59311000D01*
X90756368Y-59320848D01*
X90715399Y-59348841D01*
X90688549Y-59390568D01*
X90680000Y-59436000D01*
X90680000Y-59584425D01*
X90659000Y-59690000D01*
X90659000Y-65640000D01*
X85109000Y-65640000D01*
X85109000Y-63331779D01*
X85526592Y-63331779D01*
X85884668Y-64198389D01*
X86547124Y-64862002D01*
X87413107Y-65221590D01*
X88350779Y-65222408D01*
X89217389Y-64864332D01*
X89881002Y-64201876D01*
X90240590Y-63335893D01*
X90241408Y-62398221D01*
X89883332Y-61531611D01*
X89220876Y-60867998D01*
X88354893Y-60508410D01*
X87417221Y-60507592D01*
X86550611Y-60865668D01*
X85886998Y-61528124D01*
X85527410Y-62394107D01*
X85526592Y-63331779D01*
X85109000Y-63331779D01*
X85109000Y-59690000D01*
X85088000Y-59584425D01*
X85088000Y-59436000D01*
X85078152Y-59387368D01*
X85050159Y-59346399D01*
X85008432Y-59319549D01*
X84963000Y-59311000D01*
X84814575Y-59311000D01*
X84709000Y-59290000D01*
X70758000Y-59290000D01*
X70758000Y-57368750D01*
X71507000Y-57368750D01*
X71507000Y-58088192D01*
X71564090Y-58226021D01*
X71669580Y-58331510D01*
X71807408Y-58388600D01*
X72679250Y-58388600D01*
X72773000Y-58294850D01*
X72773000Y-57275000D01*
X73023000Y-57275000D01*
X73023000Y-58294850D01*
X73116750Y-58388600D01*
X73988592Y-58388600D01*
X74126420Y-58331510D01*
X74231910Y-58226021D01*
X74289000Y-58088192D01*
X74289000Y-57466233D01*
X77288438Y-57466233D01*
X77500614Y-57900448D01*
X77862806Y-58220414D01*
X78169769Y-58347550D01*
X78361000Y-58288006D01*
X78361000Y-57275000D01*
X78611000Y-57275000D01*
X78611000Y-58288006D01*
X78802231Y-58347550D01*
X79109194Y-58220414D01*
X79471386Y-57900448D01*
X79683562Y-57466233D01*
X79828438Y-57466233D01*
X80040614Y-57900448D01*
X80402806Y-58220414D01*
X80709769Y-58347550D01*
X80901000Y-58288006D01*
X80901000Y-57275000D01*
X81151000Y-57275000D01*
X81151000Y-58288006D01*
X81342231Y-58347550D01*
X81649194Y-58220414D01*
X82011386Y-57900448D01*
X82223562Y-57466233D01*
X82368438Y-57466233D01*
X82580614Y-57900448D01*
X82942806Y-58220414D01*
X83249769Y-58347550D01*
X83441000Y-58288006D01*
X83441000Y-57275000D01*
X83691000Y-57275000D01*
X83691000Y-58288006D01*
X83882231Y-58347550D01*
X84189194Y-58220414D01*
X84551386Y-57900448D01*
X84763562Y-57466233D01*
X84908438Y-57466233D01*
X85120614Y-57900448D01*
X85482806Y-58220414D01*
X85789769Y-58347550D01*
X85981000Y-58288006D01*
X85981000Y-57275000D01*
X86231000Y-57275000D01*
X86231000Y-58288006D01*
X86422231Y-58347550D01*
X86729194Y-58220414D01*
X87091386Y-57900448D01*
X87303562Y-57466233D01*
X87448438Y-57466233D01*
X87660614Y-57900448D01*
X88022806Y-58220414D01*
X88329769Y-58347550D01*
X88521000Y-58288006D01*
X88521000Y-57275000D01*
X88771000Y-57275000D01*
X88771000Y-58288006D01*
X88962231Y-58347550D01*
X89269194Y-58220414D01*
X89631386Y-57900448D01*
X89843562Y-57466233D01*
X89988438Y-57466233D01*
X90200614Y-57900448D01*
X90562806Y-58220414D01*
X90869769Y-58347550D01*
X91061000Y-58288006D01*
X91061000Y-57275000D01*
X91311000Y-57275000D01*
X91311000Y-58288006D01*
X91502231Y-58347550D01*
X91809194Y-58220414D01*
X92171386Y-57900448D01*
X92383562Y-57466233D01*
X92528438Y-57466233D01*
X92740614Y-57900448D01*
X93102806Y-58220414D01*
X93409769Y-58347550D01*
X93601000Y-58288006D01*
X93601000Y-57275000D01*
X93851000Y-57275000D01*
X93851000Y-58288006D01*
X94042231Y-58347550D01*
X94349194Y-58220414D01*
X94711386Y-57900448D01*
X94923562Y-57466233D01*
X94893474Y-57368750D01*
X95027400Y-57368750D01*
X95027400Y-58088192D01*
X95084490Y-58226020D01*
X95189979Y-58331510D01*
X95327808Y-58388600D01*
X96047250Y-58388600D01*
X96141000Y-58294850D01*
X96141000Y-57275000D01*
X96391000Y-57275000D01*
X96391000Y-58294850D01*
X96484750Y-58388600D01*
X97204192Y-58388600D01*
X97342021Y-58331510D01*
X97447510Y-58226020D01*
X97504600Y-58088192D01*
X97504600Y-57368750D01*
X97410850Y-57275000D01*
X96391000Y-57275000D01*
X96141000Y-57275000D01*
X95121150Y-57275000D01*
X95027400Y-57368750D01*
X94893474Y-57368750D01*
X94864538Y-57275000D01*
X93851000Y-57275000D01*
X93601000Y-57275000D01*
X92587462Y-57275000D01*
X92528438Y-57466233D01*
X92383562Y-57466233D01*
X92324538Y-57275000D01*
X91311000Y-57275000D01*
X91061000Y-57275000D01*
X90047462Y-57275000D01*
X89988438Y-57466233D01*
X89843562Y-57466233D01*
X89784538Y-57275000D01*
X88771000Y-57275000D01*
X88521000Y-57275000D01*
X87507462Y-57275000D01*
X87448438Y-57466233D01*
X87303562Y-57466233D01*
X87244538Y-57275000D01*
X86231000Y-57275000D01*
X85981000Y-57275000D01*
X84967462Y-57275000D01*
X84908438Y-57466233D01*
X84763562Y-57466233D01*
X84704538Y-57275000D01*
X83691000Y-57275000D01*
X83441000Y-57275000D01*
X82427462Y-57275000D01*
X82368438Y-57466233D01*
X82223562Y-57466233D01*
X82164538Y-57275000D01*
X81151000Y-57275000D01*
X80901000Y-57275000D01*
X79887462Y-57275000D01*
X79828438Y-57466233D01*
X79683562Y-57466233D01*
X79624538Y-57275000D01*
X78611000Y-57275000D01*
X78361000Y-57275000D01*
X77347462Y-57275000D01*
X77288438Y-57466233D01*
X74289000Y-57466233D01*
X74289000Y-57368750D01*
X74195250Y-57275000D01*
X73023000Y-57275000D01*
X72773000Y-57275000D01*
X71600750Y-57275000D01*
X71507000Y-57368750D01*
X70758000Y-57368750D01*
X70758000Y-56211808D01*
X71507000Y-56211808D01*
X71507000Y-56931250D01*
X71600750Y-57025000D01*
X72773000Y-57025000D01*
X72773000Y-56005150D01*
X73023000Y-56005150D01*
X73023000Y-57025000D01*
X74195250Y-57025000D01*
X74289000Y-56931250D01*
X74289000Y-56833767D01*
X77288438Y-56833767D01*
X77347462Y-57025000D01*
X78361000Y-57025000D01*
X78361000Y-56011994D01*
X78611000Y-56011994D01*
X78611000Y-57025000D01*
X79624538Y-57025000D01*
X79683562Y-56833767D01*
X79828438Y-56833767D01*
X79887462Y-57025000D01*
X80901000Y-57025000D01*
X80901000Y-56011994D01*
X81151000Y-56011994D01*
X81151000Y-57025000D01*
X82164538Y-57025000D01*
X82223562Y-56833767D01*
X82368438Y-56833767D01*
X82427462Y-57025000D01*
X83441000Y-57025000D01*
X83441000Y-56011994D01*
X83691000Y-56011994D01*
X83691000Y-57025000D01*
X84704538Y-57025000D01*
X84763562Y-56833767D01*
X84908438Y-56833767D01*
X84967462Y-57025000D01*
X85981000Y-57025000D01*
X85981000Y-56011994D01*
X86231000Y-56011994D01*
X86231000Y-57025000D01*
X87244538Y-57025000D01*
X87303562Y-56833767D01*
X87448438Y-56833767D01*
X87507462Y-57025000D01*
X88521000Y-57025000D01*
X88521000Y-56011994D01*
X88771000Y-56011994D01*
X88771000Y-57025000D01*
X89784538Y-57025000D01*
X89843562Y-56833767D01*
X89988438Y-56833767D01*
X90047462Y-57025000D01*
X91061000Y-57025000D01*
X91061000Y-56011994D01*
X91311000Y-56011994D01*
X91311000Y-57025000D01*
X92324538Y-57025000D01*
X92383562Y-56833767D01*
X92528438Y-56833767D01*
X92587462Y-57025000D01*
X93601000Y-57025000D01*
X93601000Y-56011994D01*
X93851000Y-56011994D01*
X93851000Y-57025000D01*
X94864538Y-57025000D01*
X94923562Y-56833767D01*
X94711386Y-56399552D01*
X94498866Y-56211808D01*
X95027400Y-56211808D01*
X95027400Y-56931250D01*
X95121150Y-57025000D01*
X96141000Y-57025000D01*
X96141000Y-56005150D01*
X96391000Y-56005150D01*
X96391000Y-57025000D01*
X97410850Y-57025000D01*
X97504600Y-56931250D01*
X97504600Y-56211808D01*
X97447510Y-56073980D01*
X97342021Y-55968490D01*
X97204192Y-55911400D01*
X96484750Y-55911400D01*
X96391000Y-56005150D01*
X96141000Y-56005150D01*
X96047250Y-55911400D01*
X95327808Y-55911400D01*
X95189979Y-55968490D01*
X95084490Y-56073980D01*
X95027400Y-56211808D01*
X94498866Y-56211808D01*
X94349194Y-56079586D01*
X94042231Y-55952450D01*
X93851000Y-56011994D01*
X93601000Y-56011994D01*
X93409769Y-55952450D01*
X93102806Y-56079586D01*
X92740614Y-56399552D01*
X92528438Y-56833767D01*
X92383562Y-56833767D01*
X92171386Y-56399552D01*
X91809194Y-56079586D01*
X91502231Y-55952450D01*
X91311000Y-56011994D01*
X91061000Y-56011994D01*
X90869769Y-55952450D01*
X90562806Y-56079586D01*
X90200614Y-56399552D01*
X89988438Y-56833767D01*
X89843562Y-56833767D01*
X89631386Y-56399552D01*
X89269194Y-56079586D01*
X88962231Y-55952450D01*
X88771000Y-56011994D01*
X88521000Y-56011994D01*
X88329769Y-55952450D01*
X88022806Y-56079586D01*
X87660614Y-56399552D01*
X87448438Y-56833767D01*
X87303562Y-56833767D01*
X87091386Y-56399552D01*
X86729194Y-56079586D01*
X86422231Y-55952450D01*
X86231000Y-56011994D01*
X85981000Y-56011994D01*
X85789769Y-55952450D01*
X85482806Y-56079586D01*
X85120614Y-56399552D01*
X84908438Y-56833767D01*
X84763562Y-56833767D01*
X84551386Y-56399552D01*
X84189194Y-56079586D01*
X83882231Y-55952450D01*
X83691000Y-56011994D01*
X83441000Y-56011994D01*
X83249769Y-55952450D01*
X82942806Y-56079586D01*
X82580614Y-56399552D01*
X82368438Y-56833767D01*
X82223562Y-56833767D01*
X82011386Y-56399552D01*
X81649194Y-56079586D01*
X81342231Y-55952450D01*
X81151000Y-56011994D01*
X80901000Y-56011994D01*
X80709769Y-55952450D01*
X80402806Y-56079586D01*
X80040614Y-56399552D01*
X79828438Y-56833767D01*
X79683562Y-56833767D01*
X79471386Y-56399552D01*
X79109194Y-56079586D01*
X78802231Y-55952450D01*
X78611000Y-56011994D01*
X78361000Y-56011994D01*
X78169769Y-55952450D01*
X77862806Y-56079586D01*
X77500614Y-56399552D01*
X77288438Y-56833767D01*
X74289000Y-56833767D01*
X74289000Y-56211808D01*
X74231910Y-56073979D01*
X74126420Y-55968490D01*
X73988592Y-55911400D01*
X73116750Y-55911400D01*
X73023000Y-56005150D01*
X72773000Y-56005150D01*
X72679250Y-55911400D01*
X71807408Y-55911400D01*
X71669580Y-55968490D01*
X71564090Y-56073979D01*
X71507000Y-56211808D01*
X70758000Y-56211808D01*
X70758000Y-52070000D01*
X71530728Y-52070000D01*
X71621205Y-52524858D01*
X71878861Y-52910467D01*
X72264470Y-53168123D01*
X72719328Y-53258600D01*
X73076672Y-53258600D01*
X73531530Y-53168123D01*
X73917139Y-52910467D01*
X73997000Y-52790947D01*
X73997000Y-52909959D01*
X73417721Y-53489239D01*
X73076672Y-53421400D01*
X72719328Y-53421400D01*
X72264470Y-53511877D01*
X71878861Y-53769533D01*
X71621205Y-54155142D01*
X71530728Y-54610000D01*
X71621205Y-55064858D01*
X71878861Y-55450467D01*
X72264470Y-55708123D01*
X72719328Y-55798600D01*
X73076672Y-55798600D01*
X73531530Y-55708123D01*
X73917139Y-55450467D01*
X74174795Y-55064858D01*
X74265272Y-54610000D01*
X74260641Y-54586714D01*
X77297400Y-54586714D01*
X77297400Y-54633286D01*
X77387877Y-55088144D01*
X77645533Y-55473753D01*
X78031142Y-55731409D01*
X78486000Y-55821886D01*
X78940858Y-55731409D01*
X79326467Y-55473753D01*
X79584123Y-55088144D01*
X79674600Y-54633286D01*
X79674600Y-54586714D01*
X79584123Y-54131856D01*
X79326467Y-53746247D01*
X78940858Y-53488591D01*
X78911000Y-53482652D01*
X78911000Y-51443769D01*
X79017053Y-51375526D01*
X79091260Y-51266920D01*
X79117367Y-51138000D01*
X79117367Y-50738000D01*
X79094705Y-50617562D01*
X79023526Y-50506947D01*
X78996704Y-50488620D01*
X79017053Y-50475526D01*
X79025612Y-50463000D01*
X79976579Y-50463000D01*
X79980474Y-50469053D01*
X80007296Y-50487380D01*
X79986947Y-50500474D01*
X79912740Y-50609080D01*
X79886633Y-50738000D01*
X79886633Y-51138000D01*
X79909295Y-51258438D01*
X79980474Y-51369053D01*
X80089080Y-51443260D01*
X80093000Y-51444054D01*
X80093000Y-53884732D01*
X79927877Y-54131856D01*
X79837400Y-54586714D01*
X79837400Y-54633286D01*
X79927877Y-55088144D01*
X80185533Y-55473753D01*
X80571142Y-55731409D01*
X81026000Y-55821886D01*
X81480858Y-55731409D01*
X81866467Y-55473753D01*
X82124123Y-55088144D01*
X82214600Y-54633286D01*
X82214600Y-54586714D01*
X82124123Y-54131856D01*
X81866467Y-53746247D01*
X81480858Y-53488591D01*
X81026000Y-53398114D01*
X80943000Y-53414624D01*
X80943000Y-51588000D01*
X82076633Y-51588000D01*
X82076633Y-52288000D01*
X82099295Y-52408438D01*
X82170474Y-52519053D01*
X82279080Y-52593260D01*
X82408000Y-52619367D01*
X82633000Y-52619367D01*
X82633000Y-53884732D01*
X82467877Y-54131856D01*
X82377400Y-54586714D01*
X82377400Y-54633286D01*
X82467877Y-55088144D01*
X82725533Y-55473753D01*
X83111142Y-55731409D01*
X83566000Y-55821886D01*
X84020858Y-55731409D01*
X84406467Y-55473753D01*
X84664123Y-55088144D01*
X84754600Y-54633286D01*
X84754600Y-54586714D01*
X84664123Y-54131856D01*
X84406467Y-53746247D01*
X84020858Y-53488591D01*
X83566000Y-53398114D01*
X83483000Y-53414624D01*
X83483000Y-52619367D01*
X83708000Y-52619367D01*
X83828438Y-52596705D01*
X83939053Y-52525526D01*
X84013260Y-52416920D01*
X84039367Y-52288000D01*
X84039367Y-51588000D01*
X84016705Y-51467562D01*
X83945526Y-51356947D01*
X83844619Y-51288000D01*
X84816633Y-51288000D01*
X84816633Y-51788000D01*
X84839295Y-51908438D01*
X84910474Y-52019053D01*
X85019080Y-52093260D01*
X85148000Y-52119367D01*
X85173000Y-52119367D01*
X85173000Y-53884732D01*
X85007877Y-54131856D01*
X84917400Y-54586714D01*
X84917400Y-54633286D01*
X85007877Y-55088144D01*
X85265533Y-55473753D01*
X85651142Y-55731409D01*
X86106000Y-55821886D01*
X86560858Y-55731409D01*
X86946467Y-55473753D01*
X87204123Y-55088144D01*
X87294600Y-54633286D01*
X87294600Y-54586714D01*
X87204123Y-54131856D01*
X86946467Y-53746247D01*
X86560858Y-53488591D01*
X86106000Y-53398114D01*
X86023000Y-53414624D01*
X86023000Y-52119367D01*
X86048000Y-52119367D01*
X86168438Y-52096705D01*
X86279053Y-52025526D01*
X86353260Y-51916920D01*
X86379367Y-51788000D01*
X86379367Y-51588000D01*
X87156633Y-51588000D01*
X87156633Y-52288000D01*
X87179295Y-52408438D01*
X87250474Y-52519053D01*
X87359080Y-52593260D01*
X87488000Y-52619367D01*
X87713000Y-52619367D01*
X87713000Y-53884732D01*
X87547877Y-54131856D01*
X87457400Y-54586714D01*
X87457400Y-54633286D01*
X87547877Y-55088144D01*
X87805533Y-55473753D01*
X88191142Y-55731409D01*
X88646000Y-55821886D01*
X89100858Y-55731409D01*
X89486467Y-55473753D01*
X89744123Y-55088144D01*
X89834600Y-54633286D01*
X89834600Y-54586714D01*
X89744123Y-54131856D01*
X89486467Y-53746247D01*
X89100858Y-53488591D01*
X88646000Y-53398114D01*
X88563000Y-53414624D01*
X88563000Y-52619367D01*
X88788000Y-52619367D01*
X88908438Y-52596705D01*
X89019053Y-52525526D01*
X89093260Y-52416920D01*
X89119367Y-52288000D01*
X89119367Y-51588000D01*
X89096705Y-51467562D01*
X89025526Y-51356947D01*
X88916920Y-51282740D01*
X88788000Y-51256633D01*
X87488000Y-51256633D01*
X87367562Y-51279295D01*
X87256947Y-51350474D01*
X87182740Y-51459080D01*
X87156633Y-51588000D01*
X86379367Y-51588000D01*
X86379367Y-51288000D01*
X86356705Y-51167562D01*
X86285526Y-51056947D01*
X86176920Y-50982740D01*
X86048000Y-50956633D01*
X85148000Y-50956633D01*
X85027562Y-50979295D01*
X84916947Y-51050474D01*
X84842740Y-51159080D01*
X84816633Y-51288000D01*
X83844619Y-51288000D01*
X83836920Y-51282740D01*
X83708000Y-51256633D01*
X82408000Y-51256633D01*
X82287562Y-51279295D01*
X82176947Y-51350474D01*
X82102740Y-51459080D01*
X82076633Y-51588000D01*
X80943000Y-51588000D01*
X80943000Y-51443769D01*
X81049053Y-51375526D01*
X81123260Y-51266920D01*
X81149367Y-51138000D01*
X81149367Y-50738000D01*
X81126705Y-50617562D01*
X81055526Y-50506947D01*
X81028704Y-50488620D01*
X81049053Y-50475526D01*
X81057612Y-50463000D01*
X82090745Y-50463000D01*
X82099295Y-50508438D01*
X82170474Y-50619053D01*
X82279080Y-50693260D01*
X82408000Y-50719367D01*
X83708000Y-50719367D01*
X83828438Y-50696705D01*
X83939053Y-50625526D01*
X84013260Y-50516920D01*
X84024179Y-50463000D01*
X84874405Y-50463000D01*
X84910474Y-50519053D01*
X85019080Y-50593260D01*
X85148000Y-50619367D01*
X86048000Y-50619367D01*
X86168438Y-50596705D01*
X86279053Y-50525526D01*
X86321775Y-50463000D01*
X87170745Y-50463000D01*
X87179295Y-50508438D01*
X87250474Y-50619053D01*
X87359080Y-50693260D01*
X87488000Y-50719367D01*
X88788000Y-50719367D01*
X88908438Y-50696705D01*
X89019053Y-50625526D01*
X89093260Y-50516920D01*
X89104179Y-50463000D01*
X89882579Y-50463000D01*
X89886474Y-50469053D01*
X89913296Y-50487380D01*
X89892947Y-50500474D01*
X89818740Y-50609080D01*
X89792633Y-50738000D01*
X89792633Y-51138000D01*
X89815295Y-51258438D01*
X89886474Y-51369053D01*
X89995080Y-51443260D01*
X89999000Y-51444054D01*
X89999000Y-53848000D01*
X90024660Y-53977000D01*
X90031351Y-54010641D01*
X90100111Y-54113546D01*
X90087877Y-54131856D01*
X89997400Y-54586714D01*
X89997400Y-54633286D01*
X90087877Y-55088144D01*
X90345533Y-55473753D01*
X90731142Y-55731409D01*
X91186000Y-55821886D01*
X91640858Y-55731409D01*
X92026467Y-55473753D01*
X92284123Y-55088144D01*
X92374600Y-54633286D01*
X92374600Y-54586714D01*
X92284123Y-54131856D01*
X92026467Y-53746247D01*
X91640858Y-53488591D01*
X91186000Y-53398114D01*
X90849000Y-53465148D01*
X90849000Y-51443769D01*
X90955053Y-51375526D01*
X91029260Y-51266920D01*
X91055367Y-51138000D01*
X91055367Y-50738000D01*
X91032705Y-50617562D01*
X90961526Y-50506947D01*
X90934704Y-50488620D01*
X90955053Y-50475526D01*
X90963612Y-50463000D01*
X91660579Y-50463000D01*
X91664474Y-50469053D01*
X91691296Y-50487380D01*
X91670947Y-50500474D01*
X91596740Y-50609080D01*
X91570633Y-50738000D01*
X91570633Y-51138000D01*
X91593295Y-51258438D01*
X91664474Y-51369053D01*
X91773080Y-51443260D01*
X91777000Y-51444054D01*
X91777000Y-53086000D01*
X91803984Y-53221657D01*
X91809351Y-53248641D01*
X91901480Y-53386520D01*
X92635463Y-54120503D01*
X92627877Y-54131856D01*
X92537400Y-54586714D01*
X92537400Y-54633286D01*
X92627877Y-55088144D01*
X92885533Y-55473753D01*
X93271142Y-55731409D01*
X93726000Y-55821886D01*
X94180858Y-55731409D01*
X94566467Y-55473753D01*
X94824123Y-55088144D01*
X94914600Y-54633286D01*
X94914600Y-54586714D01*
X94824123Y-54131856D01*
X94566467Y-53746247D01*
X94180858Y-53488591D01*
X93726000Y-53398114D01*
X93271142Y-53488591D01*
X93231871Y-53514831D01*
X92627000Y-52909960D01*
X92627000Y-51443769D01*
X92733053Y-51375526D01*
X92807260Y-51266920D01*
X92833367Y-51138000D01*
X92833367Y-50738000D01*
X92810705Y-50617562D01*
X92739526Y-50506947D01*
X92712704Y-50488620D01*
X92733053Y-50475526D01*
X92741612Y-50463000D01*
X93692579Y-50463000D01*
X93696474Y-50469053D01*
X93723296Y-50487380D01*
X93702947Y-50500474D01*
X93628740Y-50609080D01*
X93602633Y-50738000D01*
X93602633Y-51138000D01*
X93625295Y-51258438D01*
X93696474Y-51369053D01*
X93805080Y-51443260D01*
X93809000Y-51444054D01*
X93809000Y-52578000D01*
X93825510Y-52661001D01*
X93841351Y-52740641D01*
X93933480Y-52878520D01*
X95175463Y-54120503D01*
X95167877Y-54131856D01*
X95077400Y-54586714D01*
X95077400Y-54633286D01*
X95167877Y-55088144D01*
X95425533Y-55473753D01*
X95811142Y-55731409D01*
X96266000Y-55821886D01*
X96720858Y-55731409D01*
X97106467Y-55473753D01*
X97364123Y-55088144D01*
X97454600Y-54633286D01*
X97454600Y-54586714D01*
X97364123Y-54131856D01*
X97106467Y-53746247D01*
X96720858Y-53488591D01*
X96266000Y-53398114D01*
X95811142Y-53488591D01*
X95771871Y-53514831D01*
X94659000Y-52401960D01*
X94659000Y-51443769D01*
X94765053Y-51375526D01*
X94839260Y-51266920D01*
X94865367Y-51138000D01*
X94865367Y-50738000D01*
X94842705Y-50617562D01*
X94771526Y-50506947D01*
X94744704Y-50488620D01*
X94765053Y-50475526D01*
X94773612Y-50463000D01*
X95454633Y-50463000D01*
X95454633Y-50742000D01*
X95477295Y-50862438D01*
X95548474Y-50973053D01*
X95657080Y-51047260D01*
X95786000Y-51073367D01*
X96286000Y-51073367D01*
X96406438Y-51050705D01*
X96517053Y-50979526D01*
X96591260Y-50870920D01*
X96617367Y-50742000D01*
X96617367Y-49842000D01*
X96594705Y-49721562D01*
X96523526Y-49610947D01*
X96414920Y-49536740D01*
X96286000Y-49510633D01*
X95786000Y-49510633D01*
X95665562Y-49533295D01*
X95554947Y-49604474D01*
X95549121Y-49613000D01*
X94775421Y-49613000D01*
X94771526Y-49606947D01*
X94662920Y-49532740D01*
X94534000Y-49506633D01*
X93934000Y-49506633D01*
X93813562Y-49529295D01*
X93702947Y-49600474D01*
X93694388Y-49613000D01*
X92743421Y-49613000D01*
X92739526Y-49606947D01*
X92630920Y-49532740D01*
X92502000Y-49506633D01*
X91902000Y-49506633D01*
X91781562Y-49529295D01*
X91670947Y-49600474D01*
X91662388Y-49613000D01*
X90965421Y-49613000D01*
X90961526Y-49606947D01*
X90852920Y-49532740D01*
X90724000Y-49506633D01*
X90124000Y-49506633D01*
X90003562Y-49529295D01*
X89892947Y-49600474D01*
X89884388Y-49613000D01*
X89105255Y-49613000D01*
X89096705Y-49567562D01*
X89025526Y-49456947D01*
X88916920Y-49382740D01*
X88788000Y-49356633D01*
X88563000Y-49356633D01*
X88563000Y-46266260D01*
X88572500Y-46218500D01*
X88572500Y-45920000D01*
X88558729Y-45850769D01*
X89721633Y-47013673D01*
X89721633Y-47744000D01*
X89744295Y-47864438D01*
X89815474Y-47975053D01*
X89924080Y-48049260D01*
X90053000Y-48075367D01*
X91303000Y-48075367D01*
X91423438Y-48052705D01*
X91534053Y-47981526D01*
X91608260Y-47872920D01*
X91634367Y-47744000D01*
X91634367Y-47669000D01*
X92154231Y-47669000D01*
X92222474Y-47775053D01*
X92331080Y-47849260D01*
X92460000Y-47875367D01*
X92960000Y-47875367D01*
X93080438Y-47852705D01*
X93191053Y-47781526D01*
X93238557Y-47712000D01*
X95642633Y-47712000D01*
X95642633Y-48712000D01*
X95665295Y-48832438D01*
X95736474Y-48943053D01*
X95845080Y-49017260D01*
X95974000Y-49043367D01*
X96199173Y-49043367D01*
X96218887Y-49144295D01*
X96290190Y-49251810D01*
X96954633Y-49916253D01*
X96954633Y-50742000D01*
X96957000Y-50754580D01*
X96957000Y-52578000D01*
X96980887Y-52700295D01*
X97052190Y-52807810D01*
X98830190Y-54585810D01*
X98933557Y-54655395D01*
X99060000Y-54681000D01*
X99291540Y-54681000D01*
X99466247Y-54942467D01*
X99851856Y-55200123D01*
X100306714Y-55290600D01*
X100353286Y-55290600D01*
X100808144Y-55200123D01*
X101193753Y-54942467D01*
X101451409Y-54556858D01*
X101478983Y-54418231D01*
X101672450Y-54418231D01*
X101799586Y-54725194D01*
X102119552Y-55087386D01*
X102553767Y-55299562D01*
X102745000Y-55240538D01*
X102745000Y-54227000D01*
X102995000Y-54227000D01*
X102995000Y-55240538D01*
X103186233Y-55299562D01*
X103620448Y-55087386D01*
X103940414Y-54725194D01*
X104067550Y-54418231D01*
X104008006Y-54227000D01*
X102995000Y-54227000D01*
X102745000Y-54227000D01*
X101731994Y-54227000D01*
X101672450Y-54418231D01*
X101478983Y-54418231D01*
X101541886Y-54102000D01*
X101478984Y-53785769D01*
X101672450Y-53785769D01*
X101731994Y-53977000D01*
X102745000Y-53977000D01*
X102745000Y-52963462D01*
X102995000Y-52963462D01*
X102995000Y-53977000D01*
X104008006Y-53977000D01*
X104067550Y-53785769D01*
X103940414Y-53478806D01*
X103620448Y-53116614D01*
X103186233Y-52904438D01*
X102995000Y-52963462D01*
X102745000Y-52963462D01*
X102553767Y-52904438D01*
X102119552Y-53116614D01*
X101799586Y-53478806D01*
X101672450Y-53785769D01*
X101478984Y-53785769D01*
X101451409Y-53647142D01*
X101193753Y-53261533D01*
X100909000Y-53071267D01*
X100909000Y-52592733D01*
X101193753Y-52402467D01*
X101451409Y-52016858D01*
X101478983Y-51878231D01*
X101672450Y-51878231D01*
X101799586Y-52185194D01*
X102119552Y-52547386D01*
X102553767Y-52759562D01*
X102745000Y-52700538D01*
X102745000Y-51687000D01*
X102995000Y-51687000D01*
X102995000Y-52700538D01*
X103186233Y-52759562D01*
X103620448Y-52547386D01*
X103940414Y-52185194D01*
X104067550Y-51878231D01*
X104008006Y-51687000D01*
X102995000Y-51687000D01*
X102745000Y-51687000D01*
X101731994Y-51687000D01*
X101672450Y-51878231D01*
X101478983Y-51878231D01*
X101541886Y-51562000D01*
X101478984Y-51245769D01*
X101672450Y-51245769D01*
X101731994Y-51437000D01*
X102745000Y-51437000D01*
X102745000Y-50423462D01*
X102995000Y-50423462D01*
X102995000Y-51437000D01*
X104008006Y-51437000D01*
X104067550Y-51245769D01*
X103940414Y-50938806D01*
X103620448Y-50576614D01*
X103186233Y-50364438D01*
X102995000Y-50423462D01*
X102745000Y-50423462D01*
X102553767Y-50364438D01*
X102119552Y-50576614D01*
X101799586Y-50938806D01*
X101672450Y-51245769D01*
X101478984Y-51245769D01*
X101451409Y-51107142D01*
X101193753Y-50721533D01*
X100909000Y-50531267D01*
X100909000Y-50052733D01*
X101193753Y-49862467D01*
X101451409Y-49476858D01*
X101478983Y-49338231D01*
X101672450Y-49338231D01*
X101799586Y-49645194D01*
X102119552Y-50007386D01*
X102553767Y-50219562D01*
X102745000Y-50160538D01*
X102745000Y-49147000D01*
X102995000Y-49147000D01*
X102995000Y-50160538D01*
X103186233Y-50219562D01*
X103620448Y-50007386D01*
X103940414Y-49645194D01*
X104067550Y-49338231D01*
X104008006Y-49147000D01*
X102995000Y-49147000D01*
X102745000Y-49147000D01*
X101731994Y-49147000D01*
X101672450Y-49338231D01*
X101478983Y-49338231D01*
X101541886Y-49022000D01*
X101478984Y-48705769D01*
X101672450Y-48705769D01*
X101731994Y-48897000D01*
X102745000Y-48897000D01*
X102745000Y-47883462D01*
X102995000Y-47883462D01*
X102995000Y-48897000D01*
X104008006Y-48897000D01*
X104067550Y-48705769D01*
X103940414Y-48398806D01*
X103620448Y-48036614D01*
X103186233Y-47824438D01*
X102995000Y-47883462D01*
X102745000Y-47883462D01*
X102553767Y-47824438D01*
X102119552Y-48036614D01*
X101799586Y-48398806D01*
X101672450Y-48705769D01*
X101478984Y-48705769D01*
X101451409Y-48567142D01*
X101193753Y-48181533D01*
X100909000Y-47991267D01*
X100909000Y-47512733D01*
X101193753Y-47322467D01*
X101451409Y-46936858D01*
X101498373Y-46700750D01*
X101631400Y-46700750D01*
X101631400Y-47420192D01*
X101688490Y-47558021D01*
X101793980Y-47663510D01*
X101931808Y-47720600D01*
X102651250Y-47720600D01*
X102745000Y-47626850D01*
X102745000Y-46607000D01*
X102995000Y-46607000D01*
X102995000Y-47626850D01*
X103088750Y-47720600D01*
X103808192Y-47720600D01*
X103946020Y-47663510D01*
X104051510Y-47558021D01*
X104108600Y-47420192D01*
X104108600Y-46700750D01*
X104014850Y-46607000D01*
X102995000Y-46607000D01*
X102745000Y-46607000D01*
X101725150Y-46607000D01*
X101631400Y-46700750D01*
X101498373Y-46700750D01*
X101541886Y-46482000D01*
X101451409Y-46027142D01*
X101193753Y-45641533D01*
X101047499Y-45543808D01*
X101631400Y-45543808D01*
X101631400Y-46263250D01*
X101725150Y-46357000D01*
X102745000Y-46357000D01*
X102745000Y-45337150D01*
X102995000Y-45337150D01*
X102995000Y-46357000D01*
X104014850Y-46357000D01*
X104108600Y-46263250D01*
X104108600Y-45543808D01*
X104051510Y-45405979D01*
X103946020Y-45300490D01*
X103808192Y-45243400D01*
X103088750Y-45243400D01*
X102995000Y-45337150D01*
X102745000Y-45337150D01*
X102651250Y-45243400D01*
X101931808Y-45243400D01*
X101793980Y-45300490D01*
X101688490Y-45405979D01*
X101631400Y-45543808D01*
X101047499Y-45543808D01*
X100998531Y-45511089D01*
X103353810Y-43155810D01*
X103423395Y-43052443D01*
X103449000Y-42926000D01*
X103449000Y-38862000D01*
X103425113Y-38739705D01*
X103353810Y-38632190D01*
X103099810Y-38378190D01*
X102996443Y-38308605D01*
X102870000Y-38283000D01*
X102706067Y-38283000D01*
X102706067Y-37109400D01*
X102683405Y-36988962D01*
X102612226Y-36878347D01*
X102503620Y-36804140D01*
X102374700Y-36778033D01*
X98285300Y-36778033D01*
X98164862Y-36800695D01*
X98054247Y-36871874D01*
X97980040Y-36980480D01*
X97953933Y-37109400D01*
X97953933Y-38283000D01*
X97790000Y-38283000D01*
X97667705Y-38306887D01*
X97560190Y-38378190D01*
X97306190Y-38632190D01*
X97236605Y-38735557D01*
X97211000Y-38862000D01*
X97211000Y-44337000D01*
X96992750Y-44337000D01*
X96899000Y-44430750D01*
X96899000Y-45087000D01*
X96919000Y-45087000D01*
X96919000Y-45337000D01*
X96899000Y-45337000D01*
X96899000Y-45993250D01*
X96978065Y-46072315D01*
X96290190Y-46760190D01*
X96220605Y-46863557D01*
X96195000Y-46990000D01*
X96195000Y-47380633D01*
X95974000Y-47380633D01*
X95853562Y-47403295D01*
X95742947Y-47474474D01*
X95668740Y-47583080D01*
X95642633Y-47712000D01*
X93238557Y-47712000D01*
X93265260Y-47672920D01*
X93291367Y-47544000D01*
X93291367Y-46944000D01*
X93268705Y-46823562D01*
X93197526Y-46712947D01*
X93170704Y-46694620D01*
X93191053Y-46681526D01*
X93265260Y-46572920D01*
X93272534Y-46537000D01*
X93946579Y-46537000D01*
X93950474Y-46543053D01*
X94059080Y-46617260D01*
X94188000Y-46643367D01*
X94788000Y-46643367D01*
X94908438Y-46620705D01*
X95019053Y-46549526D01*
X95093260Y-46440920D01*
X95119367Y-46312000D01*
X95119367Y-45912000D01*
X95096705Y-45791562D01*
X95034867Y-45695464D01*
X95105910Y-45624420D01*
X95163000Y-45486592D01*
X95163000Y-45430750D01*
X95599000Y-45430750D01*
X95599000Y-45786592D01*
X95656090Y-45924420D01*
X95761579Y-46029910D01*
X95899408Y-46087000D01*
X96555250Y-46087000D01*
X96649000Y-45993250D01*
X96649000Y-45337000D01*
X95692750Y-45337000D01*
X95599000Y-45430750D01*
X95163000Y-45430750D01*
X95163000Y-45405750D01*
X95069250Y-45312000D01*
X94613000Y-45312000D01*
X94613000Y-45357000D01*
X94363000Y-45357000D01*
X94363000Y-45312000D01*
X93906750Y-45312000D01*
X93813000Y-45405750D01*
X93813000Y-45486592D01*
X93870090Y-45624420D01*
X93932669Y-45687000D01*
X93245178Y-45687000D01*
X93197526Y-45612947D01*
X93088920Y-45538740D01*
X92960000Y-45512633D01*
X92460000Y-45512633D01*
X92339562Y-45535295D01*
X92228947Y-45606474D01*
X92154740Y-45715080D01*
X92128633Y-45844000D01*
X92128633Y-46444000D01*
X92151295Y-46564438D01*
X92222474Y-46675053D01*
X92249296Y-46693380D01*
X92228947Y-46706474D01*
X92154740Y-46815080D01*
X92153946Y-46819000D01*
X91634367Y-46819000D01*
X91634367Y-46744000D01*
X91611705Y-46623562D01*
X91540526Y-46512947D01*
X91431920Y-46438740D01*
X91303000Y-46412633D01*
X90322673Y-46412633D01*
X90029040Y-46119000D01*
X90459250Y-46119000D01*
X90553000Y-46025250D01*
X90553000Y-45369000D01*
X90803000Y-45369000D01*
X90803000Y-46025250D01*
X90896750Y-46119000D01*
X91377592Y-46119000D01*
X91515421Y-46061910D01*
X91620910Y-45956420D01*
X91678000Y-45818592D01*
X91678000Y-45462750D01*
X91584250Y-45369000D01*
X90803000Y-45369000D01*
X90553000Y-45369000D01*
X89771750Y-45369000D01*
X89678000Y-45462750D01*
X89678000Y-45767960D01*
X88579448Y-44669408D01*
X89678000Y-44669408D01*
X89678000Y-45025250D01*
X89771750Y-45119000D01*
X90553000Y-45119000D01*
X90553000Y-44462750D01*
X90803000Y-44462750D01*
X90803000Y-45119000D01*
X91584250Y-45119000D01*
X91678000Y-45025250D01*
X91678000Y-44937408D01*
X93813000Y-44937408D01*
X93813000Y-45018250D01*
X93906750Y-45112000D01*
X94363000Y-45112000D01*
X94363000Y-44730750D01*
X94613000Y-44730750D01*
X94613000Y-45112000D01*
X95069250Y-45112000D01*
X95163000Y-45018250D01*
X95163000Y-44937408D01*
X95105910Y-44799580D01*
X95000421Y-44694090D01*
X94863578Y-44637408D01*
X95599000Y-44637408D01*
X95599000Y-44993250D01*
X95692750Y-45087000D01*
X96649000Y-45087000D01*
X96649000Y-44430750D01*
X96555250Y-44337000D01*
X95899408Y-44337000D01*
X95761579Y-44394090D01*
X95656090Y-44499580D01*
X95599000Y-44637408D01*
X94863578Y-44637408D01*
X94862592Y-44637000D01*
X94706750Y-44637000D01*
X94613000Y-44730750D01*
X94363000Y-44730750D01*
X94269250Y-44637000D01*
X94113408Y-44637000D01*
X93975579Y-44694090D01*
X93870090Y-44799580D01*
X93813000Y-44937408D01*
X91678000Y-44937408D01*
X91678000Y-44669408D01*
X91620910Y-44531580D01*
X91515421Y-44426090D01*
X91377592Y-44369000D01*
X90896750Y-44369000D01*
X90803000Y-44462750D01*
X90553000Y-44462750D01*
X90459250Y-44369000D01*
X89978408Y-44369000D01*
X89840579Y-44426090D01*
X89735090Y-44531580D01*
X89678000Y-44669408D01*
X88579448Y-44669408D01*
X88278867Y-44368827D01*
X88278867Y-43942000D01*
X88256205Y-43821562D01*
X88185026Y-43710947D01*
X88076420Y-43636740D01*
X87947500Y-43610633D01*
X86804500Y-43610633D01*
X86684062Y-43633295D01*
X86573447Y-43704474D01*
X86499240Y-43813080D01*
X86473133Y-43942000D01*
X86473133Y-44450000D01*
X86495795Y-44570438D01*
X86566974Y-44681053D01*
X86675580Y-44755260D01*
X86804500Y-44781367D01*
X87489327Y-44781367D01*
X87588593Y-44880633D01*
X86804500Y-44880633D01*
X86684062Y-44903295D01*
X86573447Y-44974474D01*
X86499240Y-45083080D01*
X86473133Y-45212000D01*
X86473133Y-45720000D01*
X86495795Y-45840438D01*
X86566974Y-45951053D01*
X86675580Y-46025260D01*
X86804500Y-46051367D01*
X87677827Y-46051367D01*
X87722500Y-46096040D01*
X87722500Y-46180240D01*
X87713000Y-46228000D01*
X87713000Y-49356633D01*
X87488000Y-49356633D01*
X87367562Y-49379295D01*
X87256947Y-49450474D01*
X87182740Y-49559080D01*
X87171821Y-49613000D01*
X86321595Y-49613000D01*
X86285526Y-49556947D01*
X86176920Y-49482740D01*
X86048000Y-49456633D01*
X85148000Y-49456633D01*
X85027562Y-49479295D01*
X84916947Y-49550474D01*
X84874225Y-49613000D01*
X84025255Y-49613000D01*
X84016705Y-49567562D01*
X83945526Y-49456947D01*
X83836920Y-49382740D01*
X83708000Y-49356633D01*
X82408000Y-49356633D01*
X82287562Y-49379295D01*
X82176947Y-49450474D01*
X82102740Y-49559080D01*
X82091821Y-49613000D01*
X81059421Y-49613000D01*
X81055526Y-49606947D01*
X80946920Y-49532740D01*
X80818000Y-49506633D01*
X80218000Y-49506633D01*
X80097562Y-49529295D01*
X79986947Y-49600474D01*
X79978388Y-49613000D01*
X79027421Y-49613000D01*
X79023526Y-49606947D01*
X78914920Y-49532740D01*
X78786000Y-49506633D01*
X78186000Y-49506633D01*
X78065562Y-49529295D01*
X77954947Y-49600474D01*
X77880740Y-49709080D01*
X77854633Y-49838000D01*
X77854633Y-50238000D01*
X77877295Y-50358438D01*
X77948474Y-50469053D01*
X77975296Y-50487380D01*
X77954947Y-50500474D01*
X77880740Y-50609080D01*
X77854633Y-50738000D01*
X77854633Y-51138000D01*
X77877295Y-51258438D01*
X77948474Y-51369053D01*
X78057080Y-51443260D01*
X78061000Y-51444054D01*
X78061000Y-53482652D01*
X78031142Y-53488591D01*
X77645533Y-53746247D01*
X77387877Y-54131856D01*
X77297400Y-54586714D01*
X74260641Y-54586714D01*
X74174795Y-54155142D01*
X74086316Y-54022724D01*
X74722520Y-53386521D01*
X74814648Y-53248641D01*
X74814649Y-53248640D01*
X74847000Y-53086000D01*
X74847000Y-48308750D01*
X76591000Y-48308750D01*
X76591000Y-48464592D01*
X76648090Y-48602420D01*
X76753579Y-48707910D01*
X76891408Y-48765000D01*
X76997250Y-48765000D01*
X77091000Y-48671250D01*
X77091000Y-48215000D01*
X77341000Y-48215000D01*
X77341000Y-48671250D01*
X77434750Y-48765000D01*
X77540592Y-48765000D01*
X77678421Y-48707910D01*
X77783910Y-48602420D01*
X77841000Y-48464592D01*
X77841000Y-48308750D01*
X77747250Y-48215000D01*
X77341000Y-48215000D01*
X77091000Y-48215000D01*
X76684750Y-48215000D01*
X76591000Y-48308750D01*
X74847000Y-48308750D01*
X74847000Y-47715408D01*
X76591000Y-47715408D01*
X76591000Y-47871250D01*
X76684750Y-47965000D01*
X77091000Y-47965000D01*
X77091000Y-47945000D01*
X77341000Y-47945000D01*
X77341000Y-47965000D01*
X77747250Y-47965000D01*
X77841000Y-47871250D01*
X77841000Y-47715408D01*
X77783910Y-47577580D01*
X77711992Y-47505662D01*
X77771260Y-47418920D01*
X77797367Y-47290000D01*
X77797367Y-46995029D01*
X78901396Y-45891000D01*
X80178331Y-45891000D01*
X80216974Y-45951053D01*
X80325580Y-46025260D01*
X80454500Y-46051367D01*
X81597500Y-46051367D01*
X81717938Y-46028705D01*
X81828553Y-45957526D01*
X81902760Y-45848920D01*
X81928867Y-45720000D01*
X81928867Y-45212000D01*
X81906205Y-45091562D01*
X81835026Y-44980947D01*
X81726420Y-44906740D01*
X81597500Y-44880633D01*
X80454500Y-44880633D01*
X80334062Y-44903295D01*
X80223447Y-44974474D01*
X80177992Y-45041000D01*
X78815685Y-45041000D01*
X78690000Y-45016000D01*
X78517793Y-45050254D01*
X78371802Y-45147802D01*
X77160971Y-46358633D01*
X76966000Y-46358633D01*
X76845562Y-46381295D01*
X76734947Y-46452474D01*
X76660740Y-46561080D01*
X76634633Y-46690000D01*
X76634633Y-47290000D01*
X76657295Y-47410438D01*
X76719133Y-47506536D01*
X76648090Y-47577580D01*
X76591000Y-47715408D01*
X74847000Y-47715408D01*
X74847000Y-47313330D01*
X74925579Y-47391910D01*
X75063408Y-47449000D01*
X75219250Y-47449000D01*
X75313000Y-47355250D01*
X75313000Y-46974000D01*
X75563000Y-46974000D01*
X75563000Y-47355250D01*
X75656750Y-47449000D01*
X75812592Y-47449000D01*
X75950421Y-47391910D01*
X76055910Y-47286420D01*
X76113000Y-47148592D01*
X76113000Y-47067750D01*
X76019250Y-46974000D01*
X75563000Y-46974000D01*
X75313000Y-46974000D01*
X75293000Y-46974000D01*
X75293000Y-46774000D01*
X75313000Y-46774000D01*
X75313000Y-46729000D01*
X75563000Y-46729000D01*
X75563000Y-46774000D01*
X76019250Y-46774000D01*
X76113000Y-46680250D01*
X76113000Y-46599408D01*
X76055910Y-46461580D01*
X75983992Y-46389662D01*
X76043260Y-46302920D01*
X76069367Y-46174000D01*
X76069367Y-45943673D01*
X77392041Y-44621000D01*
X80178331Y-44621000D01*
X80216974Y-44681053D01*
X80325580Y-44755260D01*
X80454500Y-44781367D01*
X81597500Y-44781367D01*
X81717938Y-44758705D01*
X81828553Y-44687526D01*
X81902760Y-44578920D01*
X81928867Y-44450000D01*
X81928867Y-43942000D01*
X81906205Y-43821562D01*
X81835026Y-43710947D01*
X81726420Y-43636740D01*
X81605000Y-43612152D01*
X81605000Y-43509956D01*
X81717938Y-43488705D01*
X81828553Y-43417526D01*
X81902760Y-43308920D01*
X81928867Y-43180000D01*
X81928867Y-43144750D01*
X86429500Y-43144750D01*
X86429500Y-43254592D01*
X86486590Y-43392420D01*
X86592079Y-43497910D01*
X86729908Y-43555000D01*
X87157250Y-43555000D01*
X87251000Y-43461250D01*
X87251000Y-43051000D01*
X87501000Y-43051000D01*
X87501000Y-43461250D01*
X87594750Y-43555000D01*
X88022092Y-43555000D01*
X88159921Y-43497910D01*
X88265410Y-43392420D01*
X88322500Y-43254592D01*
X88322500Y-43144750D01*
X88228750Y-43051000D01*
X87501000Y-43051000D01*
X87251000Y-43051000D01*
X86523250Y-43051000D01*
X86429500Y-43144750D01*
X81928867Y-43144750D01*
X81928867Y-42672000D01*
X81914832Y-42597408D01*
X86429500Y-42597408D01*
X86429500Y-42707250D01*
X86523250Y-42801000D01*
X87251000Y-42801000D01*
X87251000Y-42390750D01*
X87501000Y-42390750D01*
X87501000Y-42801000D01*
X88228750Y-42801000D01*
X88322500Y-42707250D01*
X88322500Y-42597408D01*
X88265410Y-42459580D01*
X88159921Y-42354090D01*
X88022092Y-42297000D01*
X87594750Y-42297000D01*
X87501000Y-42390750D01*
X87251000Y-42390750D01*
X87157250Y-42297000D01*
X86729908Y-42297000D01*
X86592079Y-42354090D01*
X86486590Y-42459580D01*
X86429500Y-42597408D01*
X81914832Y-42597408D01*
X81906205Y-42551562D01*
X81835026Y-42440947D01*
X81726420Y-42366740D01*
X81605000Y-42342152D01*
X81605000Y-42239956D01*
X81717938Y-42218705D01*
X81828553Y-42147526D01*
X81902760Y-42038920D01*
X81928867Y-41910000D01*
X81928867Y-41402000D01*
X81906205Y-41281562D01*
X81835026Y-41170947D01*
X81726420Y-41096740D01*
X81597500Y-41070633D01*
X81542966Y-41070633D01*
X81593667Y-41020020D01*
X81695883Y-40773856D01*
X81696116Y-40507313D01*
X81594329Y-40260971D01*
X81406020Y-40072333D01*
X81159856Y-39970117D01*
X80893313Y-39969884D01*
X80646971Y-40071671D01*
X80589000Y-40129541D01*
X80589000Y-38608000D01*
X80560380Y-38474644D01*
X80485147Y-38369842D01*
X79243288Y-37216687D01*
X82895884Y-37216687D01*
X82997671Y-37463029D01*
X83185980Y-37651667D01*
X83432144Y-37753883D01*
X83698687Y-37754116D01*
X83944373Y-37652600D01*
X83968474Y-37690053D01*
X84077080Y-37764260D01*
X84206000Y-37790367D01*
X85006000Y-37790367D01*
X85126438Y-37767705D01*
X85237053Y-37696526D01*
X85311260Y-37587920D01*
X85337367Y-37459000D01*
X85337367Y-36709000D01*
X85314705Y-36588562D01*
X85243526Y-36477947D01*
X85134920Y-36403740D01*
X85006000Y-36377633D01*
X84206000Y-36377633D01*
X84085562Y-36400295D01*
X83974947Y-36471474D01*
X83944677Y-36515775D01*
X83699856Y-36414117D01*
X83433313Y-36413884D01*
X83186971Y-36515671D01*
X82998333Y-36703980D01*
X82896117Y-36950144D01*
X82895884Y-37216687D01*
X79243288Y-37216687D01*
X76929147Y-35067842D01*
X76850133Y-35016750D01*
X82006000Y-35016750D01*
X82006000Y-35482592D01*
X82063090Y-35620421D01*
X82168580Y-35725910D01*
X82306408Y-35783000D01*
X82617250Y-35783000D01*
X82711000Y-35689250D01*
X82711000Y-34923000D01*
X82961000Y-34923000D01*
X82961000Y-35689250D01*
X83054750Y-35783000D01*
X83365592Y-35783000D01*
X83503420Y-35725910D01*
X83608910Y-35620421D01*
X83666000Y-35482592D01*
X83666000Y-35016750D01*
X83572250Y-34923000D01*
X82961000Y-34923000D01*
X82711000Y-34923000D01*
X82099750Y-34923000D01*
X82006000Y-35016750D01*
X76850133Y-35016750D01*
X76834443Y-35006605D01*
X76708000Y-34981000D01*
X76476460Y-34981000D01*
X76301753Y-34719533D01*
X75916144Y-34461877D01*
X75461286Y-34371400D01*
X75414714Y-34371400D01*
X74959856Y-34461877D01*
X74574247Y-34719533D01*
X74316591Y-35105142D01*
X74226114Y-35560000D01*
X74316591Y-36014858D01*
X74574247Y-36400467D01*
X74859000Y-36590733D01*
X74859000Y-37069267D01*
X74574247Y-37259533D01*
X74316591Y-37645142D01*
X74226114Y-38100000D01*
X74316591Y-38554858D01*
X74574247Y-38940467D01*
X74859000Y-39130733D01*
X74859000Y-40784466D01*
X74769562Y-40801295D01*
X74658947Y-40872474D01*
X74584740Y-40981080D01*
X74558633Y-41110000D01*
X74558633Y-42710000D01*
X74581295Y-42830438D01*
X74652474Y-42941053D01*
X74761080Y-43015260D01*
X74859000Y-43035089D01*
X74859000Y-43180000D01*
X74882887Y-43302295D01*
X74954190Y-43409810D01*
X75462190Y-43917810D01*
X75565557Y-43987395D01*
X75692000Y-44013000D01*
X75781959Y-44013000D01*
X73613480Y-46181480D01*
X73521351Y-46319359D01*
X73521351Y-46319360D01*
X73489000Y-46482000D01*
X73489000Y-50877960D01*
X73417721Y-50949239D01*
X73076672Y-50881400D01*
X72719328Y-50881400D01*
X72264470Y-50971877D01*
X71878861Y-51229533D01*
X71621205Y-51615142D01*
X71530728Y-52070000D01*
X70758000Y-52070000D01*
X70758000Y-42128750D01*
X71515000Y-42128750D01*
X71515000Y-42784592D01*
X71572090Y-42922421D01*
X71677580Y-43027910D01*
X71815408Y-43085000D01*
X72171250Y-43085000D01*
X72265000Y-42991250D01*
X72265000Y-42035000D01*
X72515000Y-42035000D01*
X72515000Y-42991250D01*
X72608750Y-43085000D01*
X72964592Y-43085000D01*
X73102420Y-43027910D01*
X73207910Y-42922421D01*
X73265000Y-42784592D01*
X73265000Y-42128750D01*
X73171250Y-42035000D01*
X72515000Y-42035000D01*
X72265000Y-42035000D01*
X71608750Y-42035000D01*
X71515000Y-42128750D01*
X70758000Y-42128750D01*
X70758000Y-41035408D01*
X71515000Y-41035408D01*
X71515000Y-41691250D01*
X71608750Y-41785000D01*
X72265000Y-41785000D01*
X72265000Y-40828750D01*
X72515000Y-40828750D01*
X72515000Y-41785000D01*
X73171250Y-41785000D01*
X73265000Y-41691250D01*
X73265000Y-41035408D01*
X73207910Y-40897579D01*
X73102420Y-40792090D01*
X72964592Y-40735000D01*
X72608750Y-40735000D01*
X72515000Y-40828750D01*
X72265000Y-40828750D01*
X72171250Y-40735000D01*
X71815408Y-40735000D01*
X71677580Y-40792090D01*
X71572090Y-40897579D01*
X71515000Y-41035408D01*
X70758000Y-41035408D01*
X70758000Y-38318750D01*
X71659400Y-38318750D01*
X71659400Y-39038192D01*
X71716490Y-39176021D01*
X71821980Y-39281510D01*
X71959808Y-39338600D01*
X72679250Y-39338600D01*
X72773000Y-39244850D01*
X72773000Y-38225000D01*
X73023000Y-38225000D01*
X73023000Y-39244850D01*
X73116750Y-39338600D01*
X73836192Y-39338600D01*
X73974020Y-39281510D01*
X74079510Y-39176021D01*
X74136600Y-39038192D01*
X74136600Y-38318750D01*
X74042850Y-38225000D01*
X73023000Y-38225000D01*
X72773000Y-38225000D01*
X71753150Y-38225000D01*
X71659400Y-38318750D01*
X70758000Y-38318750D01*
X70758000Y-37161808D01*
X71659400Y-37161808D01*
X71659400Y-37881250D01*
X71753150Y-37975000D01*
X72773000Y-37975000D01*
X72773000Y-36955150D01*
X73023000Y-36955150D01*
X73023000Y-37975000D01*
X74042850Y-37975000D01*
X74136600Y-37881250D01*
X74136600Y-37161808D01*
X74079510Y-37023979D01*
X73974020Y-36918490D01*
X73836192Y-36861400D01*
X73116750Y-36861400D01*
X73023000Y-36955150D01*
X72773000Y-36955150D01*
X72679250Y-36861400D01*
X71959808Y-36861400D01*
X71821980Y-36918490D01*
X71716490Y-37023979D01*
X71659400Y-37161808D01*
X70758000Y-37161808D01*
X70758000Y-35876231D01*
X71700450Y-35876231D01*
X71827586Y-36183194D01*
X72147552Y-36545386D01*
X72581767Y-36757562D01*
X72773000Y-36698538D01*
X72773000Y-35685000D01*
X73023000Y-35685000D01*
X73023000Y-36698538D01*
X73214233Y-36757562D01*
X73648448Y-36545386D01*
X73968414Y-36183194D01*
X74095550Y-35876231D01*
X74036006Y-35685000D01*
X73023000Y-35685000D01*
X72773000Y-35685000D01*
X71759994Y-35685000D01*
X71700450Y-35876231D01*
X70758000Y-35876231D01*
X70758000Y-35243769D01*
X71700450Y-35243769D01*
X71759994Y-35435000D01*
X72773000Y-35435000D01*
X72773000Y-34421462D01*
X73023000Y-34421462D01*
X73023000Y-35435000D01*
X74036006Y-35435000D01*
X74095550Y-35243769D01*
X73968414Y-34936806D01*
X73648448Y-34574614D01*
X73214233Y-34362438D01*
X73023000Y-34421462D01*
X72773000Y-34421462D01*
X72581767Y-34362438D01*
X72147552Y-34574614D01*
X71827586Y-34936806D01*
X71700450Y-35243769D01*
X70758000Y-35243769D01*
X70758000Y-34113408D01*
X82006000Y-34113408D01*
X82006000Y-34579250D01*
X82099750Y-34673000D01*
X82711000Y-34673000D01*
X82711000Y-33906750D01*
X82961000Y-33906750D01*
X82961000Y-34673000D01*
X83572250Y-34673000D01*
X83666000Y-34579250D01*
X83666000Y-34188000D01*
X85319633Y-34188000D01*
X85319633Y-35408000D01*
X85342295Y-35528438D01*
X85413474Y-35639053D01*
X85522080Y-35713260D01*
X85527000Y-35714256D01*
X85527000Y-36437979D01*
X85474947Y-36471474D01*
X85400740Y-36580080D01*
X85374633Y-36709000D01*
X85374633Y-37459000D01*
X85397295Y-37579438D01*
X85468474Y-37690053D01*
X85527000Y-37730042D01*
X85527000Y-37846000D01*
X85550887Y-37968295D01*
X85622190Y-38075810D01*
X86797000Y-39250620D01*
X86797000Y-41072044D01*
X86684062Y-41093295D01*
X86573447Y-41164474D01*
X86499240Y-41273080D01*
X86473133Y-41402000D01*
X86473133Y-41910000D01*
X86495795Y-42030438D01*
X86566974Y-42141053D01*
X86675580Y-42215260D01*
X86804500Y-42241367D01*
X87947500Y-42241367D01*
X87981338Y-42235000D01*
X90424000Y-42235000D01*
X90546295Y-42211113D01*
X90653810Y-42139810D01*
X91669810Y-41123810D01*
X91739395Y-41020443D01*
X91754477Y-40945967D01*
X93103700Y-40945967D01*
X93224138Y-40923305D01*
X93334753Y-40852126D01*
X93408960Y-40743520D01*
X93435067Y-40614600D01*
X93435067Y-37109400D01*
X93412405Y-36988962D01*
X93341226Y-36878347D01*
X93232620Y-36804140D01*
X93103700Y-36778033D01*
X91754850Y-36778033D01*
X91741113Y-36707705D01*
X91669810Y-36600190D01*
X89383810Y-34314190D01*
X89280443Y-34244605D01*
X89154000Y-34219000D01*
X86892367Y-34219000D01*
X86892367Y-34188000D01*
X86869705Y-34067562D01*
X86798526Y-33956947D01*
X86689920Y-33882740D01*
X86561000Y-33856633D01*
X85651000Y-33856633D01*
X85530562Y-33879295D01*
X85419947Y-33950474D01*
X85345740Y-34059080D01*
X85319633Y-34188000D01*
X83666000Y-34188000D01*
X83666000Y-34113408D01*
X83608910Y-33975579D01*
X83503420Y-33870090D01*
X83365592Y-33813000D01*
X83054750Y-33813000D01*
X82961000Y-33906750D01*
X82711000Y-33906750D01*
X82617250Y-33813000D01*
X82306408Y-33813000D01*
X82168580Y-33870090D01*
X82063090Y-33975579D01*
X82006000Y-34113408D01*
X70758000Y-34113408D01*
X70758000Y-33420000D01*
X84709000Y-33420000D01*
X84814575Y-33399000D01*
X84963000Y-33399000D01*
X85011632Y-33389152D01*
X85052601Y-33361159D01*
X85079451Y-33319432D01*
X85088000Y-33274000D01*
X85088000Y-33125575D01*
X85109000Y-33020000D01*
X85109000Y-30311779D01*
X85526592Y-30311779D01*
X85884668Y-31178389D01*
X86547124Y-31842002D01*
X87413107Y-32201590D01*
X88350779Y-32202408D01*
X89217389Y-31844332D01*
X89881002Y-31181876D01*
X90240590Y-30315893D01*
X90241408Y-29378221D01*
X89883332Y-28511611D01*
X89220876Y-27847998D01*
X88354893Y-27488410D01*
X87417221Y-27487592D01*
X86550611Y-27845668D01*
X85886998Y-28508124D01*
X85527410Y-29374107D01*
X85526592Y-30311779D01*
X85109000Y-30311779D01*
X85109000Y-27070000D01*
X90659000Y-27070000D01*
X90659000Y-33020000D01*
M02*
