G04 #@! TF.FileFunction,Paste,Top*
%FSLAX46Y46*%
G04 Gerber Fmt 4.6, Leading zero omitted, Abs format (unit mm)*
G04 Created by KiCad (PCBNEW 4.0.2-stable) date Friday, July 29, 2016 'PMt' 06:45:01 PM*
%MOMM*%
G01*
G04 APERTURE LIST*
%ADD10C,0.100000*%
%ADD11R,0.500000X0.600000*%
%ADD12R,4.089400X3.505200*%
%ADD13R,0.500000X0.900000*%
%ADD14R,0.450000X0.590000*%
%ADD15R,0.600000X0.400000*%
%ADD16R,1.143000X0.508000*%
%ADD17R,1.000000X1.600000*%
%ADD18R,0.750000X0.800000*%
%ADD19R,0.600000X0.500000*%
%ADD20R,1.000000X1.250000*%
%ADD21R,1.600000X1.000000*%
%ADD22R,0.910000X1.220000*%
%ADD23R,1.300000X0.700000*%
%ADD24R,0.900000X0.500000*%
%ADD25R,1.220000X0.910000*%
G04 APERTURE END LIST*
D10*
D11*
X89916000Y-45804000D03*
X89916000Y-44704000D03*
D12*
X92837000Y-39624000D03*
X102108000Y-39624000D03*
D13*
X97536000Y-50673000D03*
X96036000Y-50673000D03*
D14*
X78994000Y-46150000D03*
X78994000Y-48260000D03*
D15*
X80518000Y-50938000D03*
X80518000Y-50038000D03*
D16*
X87376000Y-41656000D03*
X87376000Y-42926000D03*
X87376000Y-44196000D03*
X87376000Y-45466000D03*
X81026000Y-45466000D03*
X81026000Y-44196000D03*
X81026000Y-42926000D03*
X81026000Y-41656000D03*
D17*
X80264000Y-37846000D03*
X83264000Y-37846000D03*
D18*
X87376000Y-40108000D03*
X87376000Y-38608000D03*
D19*
X82720000Y-47244000D03*
X83820000Y-47244000D03*
D20*
X91694000Y-46990000D03*
X93694000Y-46990000D03*
D21*
X96774000Y-48768000D03*
X96774000Y-45768000D03*
D22*
X88868000Y-36322000D03*
X85598000Y-36322000D03*
D15*
X78486000Y-50938000D03*
X78486000Y-50038000D03*
D23*
X83058000Y-51938000D03*
X83058000Y-50038000D03*
D24*
X85598000Y-51538000D03*
X85598000Y-50038000D03*
D23*
X88138000Y-51938000D03*
X88138000Y-50038000D03*
D15*
X90424000Y-50938000D03*
X90424000Y-50038000D03*
X92202000Y-50938000D03*
X92202000Y-50038000D03*
X94234000Y-50938000D03*
X94234000Y-50038000D03*
X91440000Y-44058000D03*
X91440000Y-44958000D03*
X76962000Y-47360000D03*
X76962000Y-48260000D03*
D24*
X74422000Y-46736000D03*
X74422000Y-48236000D03*
D25*
X78232000Y-43180000D03*
X78232000Y-39910000D03*
M02*
